<?xml version="1.0" encoding="utf-8"?>
<!-- Generator: Adobe Illustrator 23.1.0, SVG Export Plug-In . SVG Version: 6.00 Build 0)  -->
<svg version="1.1" id="Layer_1" xmlns="http://www.w3.org/2000/svg" xmlns:xlink="http://www.w3.org/1999/xlink" x="0px" y="0px"
	 viewBox="0 0 265 300" enable-background="new 0 0 265 300" xml:space="preserve">
<g>
	<path id="Rectangle_883" fill="#FFFFFF" d="M5,0h255c2.8,0,5,2.2,5,5v290c0,2.8-2.2,5-5,5H5c-2.8,0-5-2.2-5-5V5C0,2.2,2.2,0,5,0z"
		/>
	<path id="Rectangle_884" fill="#E5E9EA" d="M42.5,59h80c1.4,0,2.5,1.1,2.5,2.5l0,0c0,1.4-1.1,2.5-2.5,2.5h-80
		c-1.4,0-2.5-1.1-2.5-2.5l0,0C40,60.1,41.1,59,42.5,59z"/>
	<path id="Rectangle_885" fill="#E5E9EA" d="M42.5,108h80c1.4,0,2.5,1.1,2.5,2.5l0,0c0,1.4-1.1,2.5-2.5,2.5h-80
		c-1.4,0-2.5-1.1-2.5-2.5l0,0C40,109.1,41.1,108,42.5,108z"/>
	<path id="Rectangle_893" fill="#E5E9EA" d="M42.5,157h80c1.4,0,2.5,1.1,2.5,2.5l0,0c0,1.4-1.1,2.5-2.5,2.5h-80
		c-1.4,0-2.5-1.1-2.5-2.5l0,0C40,158.1,41.1,157,42.5,157z"/>
	<path id="Rectangle_895" fill="#E5E9EA" d="M42.5,206h150c1.4,0,2.5,1.1,2.5,2.5l0,0c0,1.4-1.1,2.5-2.5,2.5h-150
		c-1.4,0-2.5-1.1-2.5-2.5l0,0C40,207.1,41.1,206,42.5,206z"/>
	<path id="Rectangle_896" fill="#E5E9EA" d="M207.5,206h15c1.4,0,2.5,1.1,2.5,2.5l0,0c0,1.4-1.1,2.5-2.5,2.5h-15
		c-1.4,0-2.5-1.1-2.5-2.5l0,0C205,207.1,206.1,206,207.5,206z"/>
	<path id="Rectangle_886" fill="#E5E9EA" d="M142.5,108h80c1.4,0,2.5,1.1,2.5,2.5l0,0c0,1.4-1.1,2.5-2.5,2.5h-80
		c-1.4,0-2.5-1.1-2.5-2.5l0,0C140,109.1,141.1,108,142.5,108z"/>
	<path id="Rectangle_894" fill="#E5E9EA" d="M142.5,157h80c1.4,0,2.5,1.1,2.5,2.5l0,0c0,1.4-1.1,2.5-2.5,2.5h-80
		c-1.4,0-2.5-1.1-2.5-2.5l0,0C140,158.1,141.1,157,142.5,157z"/>
	<path id="Rectangle_887" fill="#E5E9EA" d="M142.5,59h80c1.4,0,2.5,1.1,2.5,2.5l0,0c0,1.4-1.1,2.5-2.5,2.5h-80
		c-1.4,0-2.5-1.1-2.5-2.5l0,0C140,60.1,141.1,59,142.5,59z"/>
	<g enable-background="new    ">
		<path fill="#565656" d="M46.6,42.4v1h-4.5v2.7H46v1h-3.9V51h-1.1v-8.6H46.6z"/>
		<path fill="#565656" d="M47.7,43.7v-1.2h1v1.2H47.7z M48.7,44.8V51h-1v-6.2H48.7z"/>
		<path fill="#565656" d="M51.2,44.8v1.3h0c0.2-0.5,0.6-0.9,0.9-1.1c0.4-0.2,0.8-0.4,1.4-0.3v1.1c-0.4,0-0.8,0.1-1,0.2
			c-0.3,0.1-0.5,0.3-0.7,0.5c-0.2,0.2-0.3,0.5-0.4,0.8c-0.1,0.3-0.1,0.7-0.1,1.1V51h-1v-6.2H51.2z"/>
		<path fill="#565656" d="M55.1,49.6c0.1,0.2,0.2,0.3,0.4,0.4c0.2,0.1,0.3,0.2,0.5,0.2c0.2,0,0.4,0.1,0.6,0.1c0.2,0,0.3,0,0.5,0
			c0.2,0,0.3-0.1,0.5-0.1c0.1-0.1,0.3-0.2,0.4-0.3s0.1-0.3,0.1-0.5c0-0.3-0.1-0.5-0.3-0.6c-0.2-0.1-0.4-0.2-0.8-0.3
			c-0.3-0.1-0.6-0.2-1-0.2c-0.4-0.1-0.7-0.2-1-0.3c-0.3-0.1-0.6-0.3-0.8-0.5c-0.2-0.2-0.3-0.5-0.3-0.9c0-0.3,0.1-0.6,0.2-0.8
			c0.1-0.2,0.3-0.4,0.5-0.5c0.2-0.1,0.5-0.2,0.7-0.3c0.3-0.1,0.5-0.1,0.8-0.1c0.4,0,0.7,0,1,0.1c0.3,0.1,0.6,0.2,0.8,0.3
			c0.2,0.1,0.4,0.3,0.5,0.6c0.1,0.3,0.2,0.6,0.2,0.9h-1c0-0.2-0.1-0.4-0.2-0.5c-0.1-0.1-0.2-0.2-0.3-0.3c-0.1-0.1-0.3-0.1-0.5-0.2
			c-0.2,0-0.3-0.1-0.5-0.1c-0.2,0-0.3,0-0.5,0c-0.2,0-0.3,0.1-0.4,0.1c-0.1,0.1-0.2,0.1-0.3,0.2c-0.1,0.1-0.1,0.2-0.1,0.4
			c0,0.2,0.1,0.3,0.2,0.4s0.3,0.2,0.5,0.3c0.2,0.1,0.4,0.1,0.6,0.2c0.2,0.1,0.5,0.1,0.7,0.2c0.3,0.1,0.5,0.1,0.8,0.2
			s0.5,0.2,0.6,0.3s0.3,0.3,0.5,0.5c0.1,0.2,0.2,0.4,0.2,0.7c0,0.4-0.1,0.7-0.2,0.9c-0.2,0.2-0.4,0.4-0.6,0.6
			c-0.3,0.2-0.5,0.3-0.9,0.3s-0.6,0.1-0.9,0.1c-0.3,0-0.7,0-1-0.1c-0.3-0.1-0.6-0.2-0.8-0.4c-0.2-0.2-0.4-0.4-0.6-0.6
			c-0.1-0.3-0.2-0.6-0.2-1h1C54.9,49.3,55,49.5,55.1,49.6z"/>
		<path fill="#565656" d="M63,44.8v0.9h-1.2v3.9c0,0.1,0,0.2,0,0.3s0.1,0.1,0.1,0.2c0.1,0,0.1,0.1,0.2,0.1s0.2,0,0.4,0H63V51h-0.8
			c-0.3,0-0.5,0-0.7-0.1s-0.3-0.1-0.5-0.2c-0.1-0.1-0.2-0.2-0.3-0.4c-0.1-0.2-0.1-0.4-0.1-0.7v-3.9h-1.1v-0.9h1.1v-1.9h1v1.9H63z"/>
		<path fill="#565656" d="M68.8,42.4l4.5,6.9h0v-6.9h1.1V51h-1.2l-4.5-6.9h0V51h-1.1v-8.6H68.8z"/>
		<path fill="#565656" d="M81.6,51c-0.2,0.1-0.4,0.2-0.7,0.2c-0.3,0-0.5-0.1-0.6-0.2c-0.2-0.1-0.2-0.4-0.2-0.7
			c-0.3,0.3-0.6,0.6-1,0.7c-0.4,0.1-0.8,0.2-1.2,0.2c-0.3,0-0.5,0-0.8-0.1c-0.3-0.1-0.5-0.2-0.7-0.3c-0.2-0.1-0.3-0.3-0.4-0.5
			c-0.1-0.2-0.2-0.5-0.2-0.8c0-0.4,0.1-0.6,0.2-0.9c0.1-0.2,0.3-0.4,0.5-0.5c0.2-0.1,0.4-0.2,0.7-0.3s0.5-0.1,0.8-0.2
			c0.3-0.1,0.5-0.1,0.8-0.1s0.5-0.1,0.7-0.1s0.3-0.1,0.5-0.2c0.1-0.1,0.2-0.2,0.2-0.4c0-0.2,0-0.4-0.1-0.5s-0.2-0.2-0.3-0.3
			c-0.1-0.1-0.3-0.1-0.4-0.1c-0.2,0-0.3,0-0.5,0c-0.4,0-0.8,0.1-1.1,0.2S77,46.3,77,46.7h-1c0-0.4,0.1-0.7,0.2-1s0.3-0.5,0.6-0.6
			c0.2-0.2,0.5-0.3,0.8-0.4c0.3-0.1,0.6-0.1,1-0.1c0.3,0,0.6,0,0.8,0.1c0.3,0,0.5,0.1,0.8,0.2c0.2,0.1,0.4,0.3,0.5,0.5
			c0.1,0.2,0.2,0.5,0.2,0.9v3.2c0,0.2,0,0.4,0,0.5c0,0.1,0.1,0.2,0.3,0.2c0.1,0,0.2,0,0.3-0.1V51z M79.9,47.8
			c-0.1,0.1-0.3,0.2-0.5,0.2s-0.4,0.1-0.7,0.1c-0.2,0-0.5,0.1-0.7,0.1s-0.4,0.1-0.6,0.2c-0.2,0.1-0.3,0.2-0.5,0.3
			c-0.1,0.1-0.2,0.4-0.2,0.6c0,0.2,0,0.3,0.1,0.4s0.2,0.2,0.3,0.3c0.1,0.1,0.2,0.1,0.4,0.2c0.1,0,0.3,0,0.5,0c0.3,0,0.6,0,0.9-0.1
			c0.2-0.1,0.4-0.2,0.6-0.3c0.2-0.1,0.3-0.3,0.3-0.5s0.1-0.3,0.1-0.5V47.8z"/>
		<path fill="#565656" d="M83.5,44.8v0.9h0c0.5-0.7,1.1-1.1,2-1.1c0.4,0,0.7,0.1,1,0.2c0.3,0.2,0.5,0.4,0.7,0.8
			c0.2-0.3,0.5-0.6,0.8-0.8c0.3-0.2,0.7-0.3,1.1-0.3c0.3,0,0.6,0,0.8,0.1c0.3,0.1,0.5,0.2,0.6,0.3c0.2,0.1,0.3,0.3,0.4,0.6
			c0.1,0.2,0.1,0.5,0.1,0.8V51h-1v-4.1c0-0.2,0-0.4,0-0.5S90.1,46.1,90,46c-0.1-0.1-0.2-0.2-0.4-0.3s-0.4-0.1-0.6-0.1
			c-0.5,0-0.9,0.1-1.2,0.4s-0.4,0.7-0.4,1.2V51h-1v-4.1c0-0.2,0-0.4-0.1-0.6c0-0.2-0.1-0.3-0.2-0.4c-0.1-0.1-0.2-0.2-0.4-0.3
			c-0.1-0.1-0.3-0.1-0.6-0.1c-0.3,0-0.5,0.1-0.8,0.2c-0.2,0.1-0.4,0.3-0.5,0.4s-0.2,0.3-0.3,0.5c-0.1,0.2-0.1,0.3-0.1,0.5V51h-1
			v-6.2H83.5z"/>
		<path fill="#565656" d="M97.2,50.6c-0.5,0.4-1,0.5-1.8,0.5c-0.5,0-0.9-0.1-1.3-0.2c-0.4-0.2-0.7-0.4-0.9-0.7
			c-0.2-0.3-0.4-0.6-0.6-1c-0.1-0.4-0.2-0.8-0.2-1.3c0-0.5,0.1-0.9,0.2-1.3s0.3-0.7,0.6-1c0.3-0.3,0.6-0.5,0.9-0.7
			c0.4-0.2,0.7-0.2,1.2-0.2c0.6,0,1,0.1,1.4,0.3c0.4,0.2,0.7,0.5,0.9,0.9c0.2,0.4,0.4,0.7,0.5,1.2c0.1,0.4,0.1,0.8,0.1,1.2h-4.6
			c0,0.3,0,0.5,0.1,0.8c0.1,0.2,0.2,0.5,0.3,0.6c0.2,0.2,0.4,0.3,0.6,0.5s0.5,0.2,0.9,0.2c0.4,0,0.8-0.1,1.1-0.3
			c0.3-0.2,0.5-0.5,0.5-0.9h1C97.9,49.7,97.6,50.3,97.2,50.6z M96.9,46.6c-0.1-0.2-0.2-0.4-0.4-0.6c-0.2-0.2-0.3-0.3-0.6-0.4
			c-0.2-0.1-0.4-0.1-0.7-0.1c-0.3,0-0.5,0-0.7,0.1c-0.2,0.1-0.4,0.2-0.5,0.4s-0.3,0.3-0.4,0.6s-0.1,0.4-0.2,0.7h3.6
			C97.1,47.1,97,46.8,96.9,46.6z"/>
	</g>
	<g enable-background="new    ">
		<path fill="#565656" d="M46.9,91.4v1h-4.8v2.7h4.5v1h-4.5v3h4.8v1h-6v-8.6H46.9z"/>
		<path fill="#565656" d="M49.1,93.8v0.9h0c0.5-0.7,1.1-1.1,2-1.1c0.4,0,0.7,0.1,1,0.2c0.3,0.2,0.5,0.4,0.7,0.8
			c0.2-0.3,0.5-0.6,0.8-0.8c0.3-0.2,0.7-0.3,1.1-0.3c0.3,0,0.6,0,0.8,0.1c0.3,0.1,0.5,0.2,0.6,0.3c0.2,0.1,0.3,0.3,0.4,0.6
			c0.1,0.2,0.1,0.5,0.1,0.8v4.5h-1v-4.1c0-0.2,0-0.4,0-0.5s-0.1-0.3-0.2-0.4c-0.1-0.1-0.2-0.2-0.4-0.3s-0.4-0.1-0.6-0.1
			c-0.5,0-0.9,0.1-1.2,0.4S53,95.7,53,96.1v3.9h-1v-4.1c0-0.2,0-0.4-0.1-0.6c0-0.2-0.1-0.3-0.2-0.4c-0.1-0.1-0.2-0.2-0.4-0.3
			c-0.1-0.1-0.3-0.1-0.6-0.1c-0.3,0-0.5,0.1-0.8,0.2c-0.2,0.1-0.4,0.3-0.5,0.4s-0.2,0.3-0.3,0.5c-0.1,0.2-0.1,0.3-0.1,0.5v3.9h-1
			v-6.2H49.1z"/>
		<path fill="#565656" d="M63.8,100c-0.2,0.1-0.4,0.2-0.7,0.2c-0.3,0-0.5-0.1-0.6-0.2c-0.2-0.1-0.2-0.4-0.2-0.7
			c-0.3,0.3-0.6,0.6-1,0.7c-0.4,0.1-0.8,0.2-1.2,0.2c-0.3,0-0.5,0-0.8-0.1c-0.3-0.1-0.5-0.2-0.7-0.3c-0.2-0.1-0.3-0.3-0.4-0.5
			C58.1,99,58,98.7,58,98.4c0-0.4,0.1-0.6,0.2-0.9c0.1-0.2,0.3-0.4,0.5-0.5c0.2-0.1,0.4-0.2,0.7-0.3s0.5-0.1,0.8-0.2
			c0.3-0.1,0.5-0.1,0.8-0.1s0.5-0.1,0.7-0.1s0.3-0.1,0.5-0.2c0.1-0.1,0.2-0.2,0.2-0.4c0-0.2,0-0.4-0.1-0.5s-0.2-0.2-0.3-0.3
			c-0.1-0.1-0.3-0.1-0.4-0.1c-0.2,0-0.3,0-0.5,0c-0.4,0-0.8,0.1-1.1,0.2s-0.4,0.5-0.5,0.9h-1c0-0.4,0.1-0.7,0.2-1s0.3-0.5,0.6-0.6
			c0.2-0.2,0.5-0.3,0.8-0.4c0.3-0.1,0.6-0.1,1-0.1c0.3,0,0.6,0,0.8,0.1c0.3,0,0.5,0.1,0.8,0.2c0.2,0.1,0.4,0.3,0.5,0.5
			c0.1,0.2,0.2,0.5,0.2,0.9v3.2c0,0.2,0,0.4,0,0.5c0,0.1,0.1,0.2,0.3,0.2c0.1,0,0.2,0,0.3-0.1V100z M62.2,96.8
			C62,96.9,61.9,97,61.7,97s-0.4,0.1-0.7,0.1c-0.2,0-0.5,0.1-0.7,0.1s-0.4,0.1-0.6,0.2c-0.2,0.1-0.3,0.2-0.5,0.3
			c-0.1,0.1-0.2,0.4-0.2,0.6c0,0.2,0,0.3,0.1,0.4s0.2,0.2,0.3,0.3c0.1,0.1,0.2,0.1,0.4,0.2c0.1,0,0.3,0,0.5,0c0.3,0,0.6,0,0.9-0.1
			c0.2-0.1,0.4-0.2,0.6-0.3c0.2-0.1,0.3-0.3,0.3-0.5s0.1-0.3,0.1-0.5V96.8z"/>
		<path fill="#565656" d="M64.8,92.7v-1.2h1v1.2H64.8z M65.9,93.8v6.2h-1v-6.2H65.9z"/>
		<path fill="#565656" d="M68.5,91.4v8.6h-1v-8.6H68.5z"/>
	</g>
	<g enable-background="new    ">
		<path fill="#565656" d="M42.1,140.4l4.5,6.9h0v-6.9h1.1v8.6h-1.2l-4.5-6.9h0v6.9h-1.1v-8.6H42.1z"/>
		<path fill="#565656" d="M49.3,144.6c0.1-0.4,0.3-0.7,0.6-1c0.3-0.3,0.6-0.5,0.9-0.7s0.8-0.3,1.3-0.3c0.5,0,0.9,0.1,1.3,0.3
			s0.7,0.4,0.9,0.7c0.3,0.3,0.4,0.6,0.6,1c0.1,0.4,0.2,0.8,0.2,1.3s-0.1,0.9-0.2,1.3c-0.1,0.4-0.3,0.7-0.6,1
			c-0.3,0.3-0.6,0.5-0.9,0.7s-0.8,0.2-1.3,0.2c-0.5,0-0.9-0.1-1.3-0.2s-0.7-0.4-0.9-0.7c-0.3-0.3-0.4-0.6-0.6-1
			c-0.1-0.4-0.2-0.8-0.2-1.3S49.2,145,49.3,144.6z M50.3,146.9c0.1,0.3,0.2,0.5,0.4,0.7c0.2,0.2,0.4,0.3,0.6,0.5
			c0.2,0.1,0.5,0.2,0.8,0.2c0.3,0,0.5-0.1,0.8-0.2c0.2-0.1,0.4-0.3,0.6-0.5c0.2-0.2,0.3-0.4,0.4-0.7s0.1-0.6,0.1-1s0-0.7-0.1-1
			s-0.2-0.5-0.4-0.7c-0.2-0.2-0.4-0.4-0.6-0.5c-0.2-0.1-0.5-0.2-0.8-0.2c-0.3,0-0.5,0.1-0.8,0.2c-0.2,0.1-0.4,0.3-0.6,0.5
			c-0.2,0.2-0.3,0.4-0.4,0.7c-0.1,0.3-0.1,0.6-0.1,1S50.2,146.6,50.3,146.9z"/>
		<path fill="#565656" d="M57.9,147.7v1.3h-1.3v-1.3H57.9z"/>
		<path fill="#565656" d="M62.8,144.6c0.1-0.4,0.3-0.7,0.6-1c0.3-0.3,0.6-0.5,0.9-0.7s0.8-0.3,1.3-0.3c0.5,0,0.9,0.1,1.3,0.3
			s0.7,0.4,0.9,0.7c0.3,0.3,0.4,0.6,0.6,1c0.1,0.4,0.2,0.8,0.2,1.3s-0.1,0.9-0.2,1.3c-0.1,0.4-0.3,0.7-0.6,1
			c-0.3,0.3-0.6,0.5-0.9,0.7s-0.8,0.2-1.3,0.2c-0.5,0-0.9-0.1-1.3-0.2s-0.7-0.4-0.9-0.7c-0.3-0.3-0.4-0.6-0.6-1
			c-0.1-0.4-0.2-0.8-0.2-1.3S62.7,145,62.8,144.6z M63.9,146.9c0.1,0.3,0.2,0.5,0.4,0.7c0.2,0.2,0.4,0.3,0.6,0.5
			c0.2,0.1,0.5,0.2,0.8,0.2c0.3,0,0.5-0.1,0.8-0.2c0.2-0.1,0.4-0.3,0.6-0.5c0.2-0.2,0.3-0.4,0.4-0.7s0.1-0.6,0.1-1s0-0.7-0.1-1
			s-0.2-0.5-0.4-0.7c-0.2-0.2-0.4-0.4-0.6-0.5c-0.2-0.1-0.5-0.2-0.8-0.2c-0.3,0-0.5,0.1-0.8,0.2c-0.2,0.1-0.4,0.3-0.6,0.5
			c-0.2,0.2-0.3,0.4-0.4,0.7c-0.1,0.3-0.1,0.6-0.1,1S63.8,146.6,63.9,146.9z"/>
		<path fill="#565656" d="M69.3,143.7v-0.9h1v-0.9c0-0.5,0.1-0.9,0.4-1.1c0.3-0.3,0.7-0.4,1.3-0.4c0.1,0,0.2,0,0.3,0
			c0.1,0,0.2,0,0.3,0.1v0.9c-0.1,0-0.2-0.1-0.3-0.1s-0.2,0-0.3,0c-0.2,0-0.4,0-0.6,0.1c-0.1,0.1-0.2,0.3-0.2,0.6v0.9h1.2v0.9h-1.2
			v5.3h-1v-5.3H69.3z"/>
		<path fill="#565656" d="M82.1,148.9c-0.5,0.2-1,0.3-1.5,0.3c-0.6,0-1.2-0.1-1.7-0.4c-0.5-0.2-0.9-0.6-1.3-1
			c-0.4-0.4-0.6-0.9-0.8-1.4c-0.2-0.5-0.3-1.1-0.3-1.6c0-0.6,0.1-1.2,0.3-1.8c0.2-0.6,0.4-1.1,0.8-1.5c0.3-0.4,0.8-0.8,1.3-1
			c0.5-0.3,1.1-0.4,1.8-0.4c0.5,0,0.9,0.1,1.3,0.2c0.4,0.1,0.8,0.3,1.1,0.5c0.3,0.2,0.6,0.5,0.8,0.9c0.2,0.4,0.4,0.8,0.4,1.3h-1.1
			c-0.1-0.3-0.2-0.6-0.3-0.8c-0.2-0.2-0.3-0.4-0.6-0.6c-0.2-0.2-0.5-0.3-0.8-0.3c-0.3-0.1-0.6-0.1-0.9-0.1c-0.5,0-1,0.1-1.3,0.3
			c-0.4,0.2-0.7,0.5-0.9,0.8c-0.2,0.3-0.4,0.7-0.5,1.2c-0.1,0.4-0.2,0.9-0.2,1.3c0,0.4,0.1,0.9,0.2,1.3c0.1,0.4,0.3,0.8,0.6,1.1
			c0.2,0.3,0.6,0.6,0.9,0.8c0.4,0.2,0.8,0.3,1.3,0.3c0.4,0,0.8-0.1,1.2-0.2c0.3-0.1,0.6-0.3,0.9-0.6s0.4-0.5,0.5-0.9
			s0.2-0.7,0.2-1.1h-2.7v-1h3.8v4.5h-0.7l-0.3-1.1C83,148.4,82.6,148.7,82.1,148.9z"/>
		<path fill="#565656" d="M90.1,149v-1h0c-0.2,0.4-0.5,0.7-0.8,0.8c-0.3,0.2-0.7,0.3-1.2,0.3c-0.4,0-0.7-0.1-1-0.2
			c-0.3-0.1-0.5-0.3-0.7-0.5c-0.2-0.2-0.3-0.4-0.4-0.7c-0.1-0.3-0.1-0.6-0.1-0.9v-4.1h1v4.2c0,0.4,0.1,0.7,0.3,0.9
			c0.2,0.2,0.5,0.3,0.9,0.3c0.3,0,0.6,0,0.8-0.1c0.2-0.1,0.4-0.2,0.6-0.4c0.2-0.2,0.3-0.4,0.3-0.6c0.1-0.2,0.1-0.5,0.1-0.8v-3.5h1
			v6.2H90.1z"/>
		<path fill="#565656" d="M96.9,148.6c-0.5,0.4-1,0.5-1.8,0.5c-0.5,0-0.9-0.1-1.3-0.2c-0.4-0.2-0.7-0.4-0.9-0.7
			c-0.2-0.3-0.4-0.6-0.6-1c-0.1-0.4-0.2-0.8-0.2-1.3c0-0.5,0.1-0.9,0.2-1.3s0.3-0.7,0.6-1c0.3-0.3,0.6-0.5,0.9-0.7
			c0.4-0.2,0.7-0.2,1.2-0.2c0.6,0,1,0.1,1.4,0.3c0.4,0.2,0.7,0.5,0.9,0.9c0.2,0.4,0.4,0.7,0.5,1.2c0.1,0.4,0.1,0.8,0.1,1.2h-4.6
			c0,0.3,0,0.5,0.1,0.8c0.1,0.2,0.2,0.5,0.3,0.6c0.2,0.2,0.4,0.3,0.6,0.5s0.5,0.2,0.9,0.2c0.4,0,0.8-0.1,1.1-0.3
			c0.3-0.2,0.5-0.5,0.5-0.9h1C97.7,147.7,97.4,148.3,96.9,148.6z M96.7,144.6c-0.1-0.2-0.2-0.4-0.4-0.6c-0.2-0.2-0.3-0.3-0.6-0.4
			c-0.2-0.1-0.4-0.1-0.7-0.1c-0.3,0-0.5,0-0.7,0.1c-0.2,0.1-0.4,0.2-0.5,0.4s-0.3,0.3-0.4,0.6s-0.1,0.4-0.2,0.7h3.6
			C96.8,145.1,96.8,144.8,96.7,144.6z"/>
		<path fill="#565656" d="M99.8,147.6c0.1,0.2,0.2,0.3,0.4,0.4c0.2,0.1,0.3,0.2,0.5,0.2c0.2,0,0.4,0.1,0.6,0.1c0.2,0,0.3,0,0.5,0
			c0.2,0,0.3-0.1,0.5-0.1c0.1-0.1,0.3-0.2,0.4-0.3s0.1-0.3,0.1-0.5c0-0.3-0.1-0.5-0.3-0.6c-0.2-0.1-0.4-0.2-0.8-0.3
			c-0.3-0.1-0.6-0.2-1-0.2c-0.4-0.1-0.7-0.2-1-0.3c-0.3-0.1-0.6-0.3-0.8-0.5c-0.2-0.2-0.3-0.5-0.3-0.9c0-0.3,0.1-0.6,0.2-0.8
			c0.1-0.2,0.3-0.4,0.5-0.5c0.2-0.1,0.5-0.2,0.7-0.3c0.3-0.1,0.5-0.1,0.8-0.1c0.4,0,0.7,0,1,0.1c0.3,0.1,0.6,0.2,0.8,0.3
			c0.2,0.1,0.4,0.3,0.5,0.6c0.1,0.3,0.2,0.6,0.2,0.9h-1c0-0.2-0.1-0.4-0.2-0.5c-0.1-0.1-0.2-0.2-0.3-0.3c-0.1-0.1-0.3-0.1-0.5-0.2
			c-0.2,0-0.3-0.1-0.5-0.1c-0.2,0-0.3,0-0.5,0c-0.2,0-0.3,0.1-0.4,0.1c-0.1,0.1-0.2,0.1-0.3,0.2c-0.1,0.1-0.1,0.2-0.1,0.4
			c0,0.2,0.1,0.3,0.2,0.4s0.3,0.2,0.5,0.3c0.2,0.1,0.4,0.1,0.6,0.2c0.2,0.1,0.5,0.1,0.7,0.2c0.3,0.1,0.5,0.1,0.8,0.2
			s0.5,0.2,0.6,0.3s0.3,0.3,0.5,0.5c0.1,0.2,0.2,0.4,0.2,0.7c0,0.4-0.1,0.7-0.2,0.9c-0.2,0.2-0.4,0.4-0.6,0.6
			c-0.3,0.2-0.5,0.3-0.9,0.3s-0.6,0.1-0.9,0.1c-0.3,0-0.7,0-1-0.1c-0.3-0.1-0.6-0.2-0.8-0.4c-0.2-0.2-0.4-0.4-0.6-0.6
			c-0.1-0.3-0.2-0.6-0.2-1h1C99.6,147.3,99.7,147.5,99.8,147.6z"/>
		<path fill="#565656" d="M107.6,142.8v0.9h-1.2v3.9c0,0.1,0,0.2,0,0.3s0.1,0.1,0.1,0.2c0.1,0,0.1,0.1,0.2,0.1s0.2,0,0.4,0h0.5v0.9
			h-0.8c-0.3,0-0.5,0-0.7-0.1s-0.3-0.1-0.5-0.2c-0.1-0.1-0.2-0.2-0.3-0.4c-0.1-0.2-0.1-0.4-0.1-0.7v-3.9h-1.1v-0.9h1.1v-1.9h1v1.9
			H107.6z"/>
	</g>
	<g enable-background="new    ">
		<path fill="#565656" d="M45,189.4c0.8,0,1.5,0.2,1.9,0.6c0.5,0.4,0.7,0.9,0.7,1.6c0,0.5-0.1,1-0.4,1.4c-0.2,0.4-0.6,0.7-1.1,0.8v0
			c0.2,0,0.5,0.1,0.6,0.2c0.2,0.1,0.3,0.2,0.4,0.4c0.1,0.2,0.2,0.3,0.2,0.5c0,0.2,0.1,0.4,0.1,0.6c0,0.2,0,0.4,0,0.6
			c0,0.2,0,0.4,0.1,0.6c0,0.2,0.1,0.4,0.1,0.6c0.1,0.2,0.1,0.4,0.3,0.5h-1.3c-0.1-0.1-0.1-0.2-0.2-0.4c0-0.2,0-0.3-0.1-0.5
			c0-0.2,0-0.4,0-0.6c0-0.2,0-0.4-0.1-0.6c0-0.2-0.1-0.4-0.1-0.6c0-0.2-0.1-0.4-0.2-0.5c-0.1-0.1-0.2-0.3-0.4-0.3
			c-0.2-0.1-0.4-0.1-0.7-0.1h-2.8v3.7h-1.1v-8.6H45z M45.2,193.3c0.2,0,0.5-0.1,0.6-0.2c0.2-0.1,0.3-0.3,0.4-0.5s0.2-0.5,0.2-0.8
			c0-0.4-0.1-0.8-0.4-1.1c-0.2-0.3-0.6-0.4-1.2-0.4h-2.8v3h2.4C44.7,193.4,45,193.4,45.2,193.3z"/>
		<path fill="#565656" d="M53.4,197.6c-0.5,0.4-1,0.5-1.8,0.5c-0.5,0-0.9-0.1-1.3-0.2c-0.4-0.2-0.7-0.4-0.9-0.7
			c-0.2-0.3-0.4-0.6-0.6-1c-0.1-0.4-0.2-0.8-0.2-1.3c0-0.5,0.1-0.9,0.2-1.3s0.3-0.7,0.6-1c0.3-0.3,0.6-0.5,0.9-0.7
			c0.4-0.2,0.7-0.2,1.2-0.2c0.6,0,1,0.1,1.4,0.3c0.4,0.2,0.7,0.5,0.9,0.9c0.2,0.4,0.4,0.7,0.5,1.2c0.1,0.4,0.1,0.8,0.1,1.2h-4.6
			c0,0.3,0,0.5,0.1,0.8c0.1,0.2,0.2,0.5,0.3,0.6c0.2,0.2,0.4,0.3,0.6,0.5s0.5,0.2,0.9,0.2c0.4,0,0.8-0.1,1.1-0.3
			c0.3-0.2,0.5-0.5,0.5-0.9h1C54.1,196.7,53.8,197.3,53.4,197.6z M53.1,193.6c-0.1-0.2-0.2-0.4-0.4-0.6c-0.2-0.2-0.3-0.3-0.6-0.4
			c-0.2-0.1-0.4-0.1-0.7-0.1c-0.3,0-0.5,0-0.7,0.1c-0.2,0.1-0.4,0.2-0.5,0.4s-0.3,0.3-0.4,0.6s-0.1,0.4-0.2,0.7h3.6
			C53.3,194.1,53.2,193.8,53.1,193.6z"/>
		<path fill="#565656" d="M56.2,196.6c0.1,0.2,0.2,0.3,0.4,0.4c0.2,0.1,0.3,0.2,0.5,0.2c0.2,0,0.4,0.1,0.6,0.1c0.2,0,0.3,0,0.5,0
			c0.2,0,0.3-0.1,0.5-0.1c0.1-0.1,0.3-0.2,0.4-0.3s0.1-0.3,0.1-0.5c0-0.3-0.1-0.5-0.3-0.6c-0.2-0.1-0.4-0.2-0.8-0.3
			c-0.3-0.1-0.6-0.2-1-0.2c-0.4-0.1-0.7-0.2-1-0.3c-0.3-0.1-0.6-0.3-0.8-0.5c-0.2-0.2-0.3-0.5-0.3-0.9c0-0.3,0.1-0.6,0.2-0.8
			c0.1-0.2,0.3-0.4,0.5-0.5c0.2-0.1,0.5-0.2,0.7-0.3c0.3-0.1,0.5-0.1,0.8-0.1c0.4,0,0.7,0,1,0.1c0.3,0.1,0.6,0.2,0.8,0.3
			c0.2,0.1,0.4,0.3,0.5,0.6c0.1,0.3,0.2,0.6,0.2,0.9h-1c0-0.2-0.1-0.4-0.2-0.5c-0.1-0.1-0.2-0.2-0.3-0.3c-0.1-0.1-0.3-0.1-0.5-0.2
			c-0.2,0-0.3-0.1-0.5-0.1c-0.2,0-0.3,0-0.5,0c-0.2,0-0.3,0.1-0.4,0.1c-0.1,0.1-0.2,0.1-0.3,0.2c-0.1,0.1-0.1,0.2-0.1,0.4
			c0,0.2,0.1,0.3,0.2,0.4s0.3,0.2,0.5,0.3c0.2,0.1,0.4,0.1,0.6,0.2c0.2,0.1,0.5,0.1,0.7,0.2c0.3,0.1,0.5,0.1,0.8,0.2
			s0.5,0.2,0.6,0.3s0.3,0.3,0.5,0.5c0.1,0.2,0.2,0.4,0.2,0.7c0,0.4-0.1,0.7-0.2,0.9c-0.2,0.2-0.4,0.4-0.6,0.6
			c-0.3,0.2-0.5,0.3-0.9,0.3s-0.6,0.1-0.9,0.1c-0.3,0-0.7,0-1-0.1c-0.3-0.1-0.6-0.2-0.8-0.4c-0.2-0.2-0.4-0.4-0.6-0.6
			c-0.1-0.3-0.2-0.6-0.2-1h1C56.1,196.3,56.1,196.5,56.2,196.6z"/>
		<path fill="#565656" d="M65.8,197.6c-0.5,0.4-1,0.5-1.8,0.5c-0.5,0-0.9-0.1-1.3-0.2c-0.4-0.2-0.7-0.4-0.9-0.7
			c-0.2-0.3-0.4-0.6-0.6-1c-0.1-0.4-0.2-0.8-0.2-1.3c0-0.5,0.1-0.9,0.2-1.3s0.3-0.7,0.6-1c0.3-0.3,0.6-0.5,0.9-0.7
			c0.4-0.2,0.7-0.2,1.2-0.2c0.6,0,1,0.1,1.4,0.3c0.4,0.2,0.7,0.5,0.9,0.9c0.2,0.4,0.4,0.7,0.5,1.2c0.1,0.4,0.1,0.8,0.1,1.2h-4.6
			c0,0.3,0,0.5,0.1,0.8c0.1,0.2,0.2,0.5,0.3,0.6c0.2,0.2,0.4,0.3,0.6,0.5s0.5,0.2,0.9,0.2c0.4,0,0.8-0.1,1.1-0.3
			c0.3-0.2,0.5-0.5,0.5-0.9h1C66.6,196.7,66.3,197.3,65.8,197.6z M65.6,193.6c-0.1-0.2-0.2-0.4-0.4-0.6c-0.2-0.2-0.3-0.3-0.6-0.4
			c-0.2-0.1-0.4-0.1-0.7-0.1c-0.3,0-0.5,0-0.7,0.1c-0.2,0.1-0.4,0.2-0.5,0.4s-0.3,0.3-0.4,0.6s-0.1,0.4-0.2,0.7h3.6
			C65.7,194.1,65.7,193.8,65.6,193.6z"/>
		<path fill="#565656" d="M68.8,191.8v1.3h0c0.2-0.5,0.6-0.9,0.9-1.1c0.4-0.2,0.8-0.4,1.4-0.3v1.1c-0.4,0-0.8,0.1-1,0.2
			c-0.3,0.1-0.5,0.3-0.7,0.5c-0.2,0.2-0.3,0.5-0.4,0.8c-0.1,0.3-0.1,0.7-0.1,1.1v2.8h-1v-6.2H68.8z"/>
		<path fill="#565656" d="M73.6,198l-2.3-6.2h1.1l1.7,5.2h0l1.7-5.2h1.1l-2.3,6.2H73.6z"/>
		<path fill="#565656" d="M83.4,198c-0.2,0.1-0.4,0.2-0.7,0.2c-0.3,0-0.5-0.1-0.6-0.2c-0.2-0.1-0.2-0.4-0.2-0.7
			c-0.3,0.3-0.6,0.6-1,0.7c-0.4,0.1-0.8,0.2-1.2,0.2c-0.3,0-0.5,0-0.8-0.1c-0.3-0.1-0.5-0.2-0.7-0.3c-0.2-0.1-0.3-0.3-0.4-0.5
			c-0.1-0.2-0.2-0.5-0.2-0.8c0-0.4,0.1-0.6,0.2-0.9c0.1-0.2,0.3-0.4,0.5-0.5c0.2-0.1,0.4-0.2,0.7-0.3s0.5-0.1,0.8-0.2
			c0.3-0.1,0.5-0.1,0.8-0.1s0.5-0.1,0.7-0.1s0.3-0.1,0.5-0.2c0.1-0.1,0.2-0.2,0.2-0.4c0-0.2,0-0.4-0.1-0.5s-0.2-0.2-0.3-0.3
			c-0.1-0.1-0.3-0.1-0.4-0.1c-0.2,0-0.3,0-0.5,0c-0.4,0-0.8,0.1-1.1,0.2s-0.4,0.5-0.5,0.9h-1c0-0.4,0.1-0.7,0.2-1s0.3-0.5,0.6-0.6
			c0.2-0.2,0.5-0.3,0.8-0.4c0.3-0.1,0.6-0.1,1-0.1c0.3,0,0.6,0,0.8,0.1c0.3,0,0.5,0.1,0.8,0.2c0.2,0.1,0.4,0.3,0.5,0.5
			c0.1,0.2,0.2,0.5,0.2,0.9v3.2c0,0.2,0,0.4,0,0.5c0,0.1,0.1,0.2,0.3,0.2c0.1,0,0.2,0,0.3-0.1V198z M81.7,194.8
			c-0.1,0.1-0.3,0.2-0.5,0.2s-0.4,0.1-0.7,0.1c-0.2,0-0.5,0.1-0.7,0.1s-0.4,0.1-0.6,0.2c-0.2,0.1-0.3,0.2-0.5,0.3
			c-0.1,0.1-0.2,0.4-0.2,0.6c0,0.2,0,0.3,0.1,0.4s0.2,0.2,0.3,0.3c0.1,0.1,0.2,0.1,0.4,0.2c0.1,0,0.3,0,0.5,0c0.3,0,0.6,0,0.9-0.1
			c0.2-0.1,0.4-0.2,0.6-0.3c0.2-0.1,0.3-0.3,0.3-0.5s0.1-0.3,0.1-0.5V194.8z"/>
		<path fill="#565656" d="M87,191.8v0.9h-1.2v3.9c0,0.1,0,0.2,0,0.3s0.1,0.1,0.1,0.2c0.1,0,0.1,0.1,0.2,0.1s0.2,0,0.4,0H87v0.9h-0.8
			c-0.3,0-0.5,0-0.7-0.1s-0.3-0.1-0.5-0.2c-0.1-0.1-0.2-0.2-0.3-0.4c-0.1-0.2-0.1-0.4-0.1-0.7v-3.9h-1.1v-0.9h1.1v-1.9h1v1.9H87z"/>
		<path fill="#565656" d="M88.2,190.7v-1.2h1v1.2H88.2z M89.2,191.8v6.2h-1v-6.2H89.2z"/>
		<path fill="#565656" d="M90.6,193.6c0.1-0.4,0.3-0.7,0.6-1c0.3-0.3,0.6-0.5,0.9-0.7s0.8-0.3,1.3-0.3c0.5,0,0.9,0.1,1.3,0.3
			s0.7,0.4,0.9,0.7c0.3,0.3,0.4,0.6,0.6,1c0.1,0.4,0.2,0.8,0.2,1.3s-0.1,0.9-0.2,1.3c-0.1,0.4-0.3,0.7-0.6,1
			c-0.3,0.3-0.6,0.5-0.9,0.7s-0.8,0.2-1.3,0.2c-0.5,0-0.9-0.1-1.3-0.2s-0.7-0.4-0.9-0.7c-0.3-0.3-0.4-0.6-0.6-1
			c-0.1-0.4-0.2-0.8-0.2-1.3S90.5,194,90.6,193.6z M91.7,195.9c0.1,0.3,0.2,0.5,0.4,0.7c0.2,0.2,0.4,0.3,0.6,0.5
			c0.2,0.1,0.5,0.2,0.8,0.2c0.3,0,0.5-0.1,0.8-0.2c0.2-0.1,0.4-0.3,0.6-0.5c0.2-0.2,0.3-0.4,0.4-0.7s0.1-0.6,0.1-1s0-0.7-0.1-1
			s-0.2-0.5-0.4-0.7c-0.2-0.2-0.4-0.4-0.6-0.5c-0.2-0.1-0.5-0.2-0.8-0.2c-0.3,0-0.5,0.1-0.8,0.2c-0.2,0.1-0.4,0.3-0.6,0.5
			c-0.2,0.2-0.3,0.4-0.4,0.7c-0.1,0.3-0.1,0.6-0.1,1S91.6,195.6,91.7,195.9z"/>
		<path fill="#565656" d="M98.6,191.8v1h0c0.4-0.8,1.1-1.1,2-1.1c0.4,0,0.7,0.1,1,0.2c0.3,0.1,0.5,0.3,0.7,0.5
			c0.2,0.2,0.3,0.4,0.4,0.7c0.1,0.3,0.1,0.6,0.1,0.9v4.1h-1v-4.2c0-0.4-0.1-0.7-0.3-0.9c-0.2-0.2-0.5-0.3-0.9-0.3
			c-0.3,0-0.6,0-0.8,0.1c-0.2,0.1-0.4,0.2-0.6,0.4c-0.2,0.2-0.3,0.4-0.3,0.6c-0.1,0.2-0.1,0.5-0.1,0.8v3.5h-1v-6.2H98.6z"/>
		<path fill="#565656" d="M106.9,190.4v-1h6.9v1h-2.9v7.6h-1.1v-7.6H106.9z"/>
		<path fill="#565656" d="M115.6,198.8c-0.1,0.3-0.2,0.6-0.4,0.8c-0.1,0.2-0.2,0.4-0.4,0.5c-0.1,0.1-0.3,0.2-0.5,0.3
			c-0.2,0.1-0.4,0.1-0.6,0.1c-0.1,0-0.2,0-0.4,0c-0.1,0-0.2,0-0.3-0.1v-0.9c0.1,0,0.2,0.1,0.3,0.1c0.1,0,0.2,0,0.3,0
			c0.2,0,0.4,0,0.5-0.2c0.1-0.1,0.2-0.2,0.3-0.4l0.4-1l-2.5-6.2h1.2l1.8,5.1h0l1.7-5.1h1.1L115.6,198.8z"/>
		<path fill="#565656" d="M120.3,191.8v0.8h0c0.2-0.3,0.4-0.6,0.8-0.8c0.4-0.2,0.8-0.2,1.2-0.2c0.5,0,0.9,0.1,1.3,0.3
			c0.4,0.2,0.7,0.4,0.9,0.7c0.2,0.3,0.4,0.6,0.5,1c0.1,0.4,0.2,0.8,0.2,1.2c0,0.4-0.1,0.9-0.2,1.2c-0.1,0.4-0.3,0.7-0.5,1
			s-0.5,0.5-0.9,0.7c-0.4,0.2-0.8,0.3-1.2,0.3c-0.2,0-0.3,0-0.5,0c-0.2,0-0.4-0.1-0.6-0.2c-0.2-0.1-0.4-0.2-0.5-0.3
			s-0.3-0.3-0.4-0.5h0v3.2h-1v-8.6H120.3z M123.9,194c-0.1-0.3-0.2-0.5-0.3-0.7c-0.2-0.2-0.4-0.4-0.6-0.5s-0.5-0.2-0.9-0.2
			c-0.3,0-0.6,0.1-0.9,0.2c-0.2,0.1-0.4,0.3-0.6,0.5c-0.2,0.2-0.3,0.5-0.3,0.8c-0.1,0.3-0.1,0.6-0.1,0.9c0,0.3,0,0.6,0.1,0.9
			c0.1,0.3,0.2,0.5,0.3,0.8c0.2,0.2,0.4,0.4,0.6,0.5s0.5,0.2,0.9,0.2c0.4,0,0.6-0.1,0.9-0.2c0.2-0.1,0.4-0.3,0.6-0.5
			s0.2-0.5,0.3-0.8c0.1-0.3,0.1-0.6,0.1-0.9C124,194.6,124,194.3,123.9,194z"/>
		<path fill="#565656" d="M130.7,197.6c-0.5,0.4-1,0.5-1.8,0.5c-0.5,0-0.9-0.1-1.3-0.2c-0.4-0.2-0.7-0.4-0.9-0.7
			c-0.2-0.3-0.4-0.6-0.6-1c-0.1-0.4-0.2-0.8-0.2-1.3c0-0.5,0.1-0.9,0.2-1.3c0.1-0.4,0.3-0.7,0.6-1c0.3-0.3,0.6-0.5,0.9-0.7
			c0.4-0.2,0.7-0.2,1.2-0.2c0.6,0,1,0.1,1.4,0.3c0.4,0.2,0.7,0.5,0.9,0.9c0.2,0.4,0.4,0.7,0.5,1.2c0.1,0.4,0.1,0.8,0.1,1.2h-4.6
			c0,0.3,0,0.5,0.1,0.8c0.1,0.2,0.2,0.5,0.3,0.6c0.2,0.2,0.4,0.3,0.6,0.5s0.5,0.2,0.9,0.2c0.4,0,0.8-0.1,1.1-0.3
			c0.3-0.2,0.5-0.5,0.5-0.9h1C131.5,196.7,131.2,197.3,130.7,197.6z M130.5,193.6c-0.1-0.2-0.2-0.4-0.4-0.6
			c-0.2-0.2-0.3-0.3-0.6-0.4c-0.2-0.1-0.4-0.1-0.7-0.1c-0.3,0-0.5,0-0.7,0.1c-0.2,0.1-0.4,0.2-0.5,0.4c-0.2,0.2-0.3,0.3-0.4,0.6
			s-0.1,0.4-0.2,0.7h3.6C130.6,194.1,130.6,193.8,130.5,193.6z"/>
	</g>
	<g enable-background="new    ">
		<path fill="#565656" d="M144.7,91.4c0.9,0,1.5,0.2,2,0.7c0.4,0.4,0.7,1.1,0.7,1.9s-0.2,1.4-0.7,1.9c-0.4,0.4-1.1,0.7-2,0.7h-2.6
			v3.5h-1.1v-8.6H144.7z M144.3,95.5c0.6,0,1.1-0.1,1.4-0.4c0.3-0.3,0.4-0.7,0.4-1.2s-0.2-0.9-0.4-1.2c-0.3-0.3-0.8-0.4-1.4-0.4
			h-2.2v3.1H144.3z"/>
		<path fill="#565656" d="M149.6,91.4v3.3h0c0.1-0.2,0.2-0.4,0.3-0.5s0.3-0.2,0.5-0.3s0.4-0.1,0.6-0.2c0.2,0,0.4-0.1,0.6-0.1
			c0.4,0,0.7,0.1,1,0.2c0.3,0.1,0.5,0.3,0.7,0.5c0.2,0.2,0.3,0.4,0.4,0.7s0.1,0.6,0.1,0.9v4.1h-1v-4.2c0-0.4-0.1-0.7-0.3-0.9
			c-0.2-0.2-0.5-0.3-0.9-0.3c-0.3,0-0.6,0-0.8,0.1c-0.2,0.1-0.4,0.2-0.6,0.4c-0.2,0.2-0.3,0.4-0.3,0.6c-0.1,0.2-0.1,0.5-0.1,0.8v3.5
			h-1v-8.6H149.6z"/>
		<path fill="#565656" d="M155.1,95.6c0.1-0.4,0.3-0.7,0.6-1c0.3-0.3,0.6-0.5,0.9-0.7s0.8-0.3,1.3-0.3c0.5,0,0.9,0.1,1.3,0.3
			c0.4,0.2,0.7,0.4,0.9,0.7c0.3,0.3,0.4,0.6,0.6,1c0.1,0.4,0.2,0.8,0.2,1.3s-0.1,0.9-0.2,1.3c-0.1,0.4-0.3,0.7-0.6,1
			c-0.3,0.3-0.6,0.5-0.9,0.7c-0.4,0.2-0.8,0.2-1.3,0.2c-0.5,0-0.9-0.1-1.3-0.2s-0.7-0.4-0.9-0.7c-0.3-0.3-0.4-0.6-0.6-1
			c-0.1-0.4-0.2-0.8-0.2-1.3S154.9,96,155.1,95.6z M156.1,97.9c0.1,0.3,0.2,0.5,0.4,0.7c0.2,0.2,0.4,0.3,0.6,0.5
			c0.2,0.1,0.5,0.2,0.8,0.2c0.3,0,0.5-0.1,0.8-0.2c0.2-0.1,0.4-0.3,0.6-0.5c0.2-0.2,0.3-0.4,0.4-0.7s0.2-0.6,0.2-1s-0.1-0.7-0.2-1
			s-0.2-0.5-0.4-0.7s-0.4-0.4-0.6-0.5c-0.2-0.1-0.5-0.2-0.8-0.2c-0.3,0-0.5,0.1-0.8,0.2c-0.2,0.1-0.4,0.3-0.6,0.5s-0.3,0.4-0.4,0.7
			s-0.1,0.6-0.1,1S156,97.6,156.1,97.9z"/>
		<path fill="#565656" d="M163.1,93.8v1h0c0.4-0.8,1.1-1.1,2-1.1c0.4,0,0.7,0.1,1,0.2c0.3,0.1,0.5,0.3,0.7,0.5
			c0.2,0.2,0.3,0.4,0.4,0.7c0.1,0.3,0.1,0.6,0.1,0.9v4.1h-1v-4.2c0-0.4-0.1-0.7-0.3-0.9c-0.2-0.2-0.5-0.3-0.9-0.3
			c-0.3,0-0.6,0-0.8,0.1c-0.2,0.1-0.4,0.2-0.6,0.4c-0.2,0.2-0.3,0.4-0.3,0.6c-0.1,0.2-0.1,0.5-0.1,0.8v3.5h-1v-6.2H163.1z"/>
		<path fill="#565656" d="M173.2,99.6c-0.5,0.4-1,0.5-1.8,0.5c-0.5,0-0.9-0.1-1.3-0.2c-0.4-0.2-0.7-0.4-0.9-0.7
			c-0.2-0.3-0.4-0.6-0.6-1c-0.1-0.4-0.2-0.8-0.2-1.3c0-0.5,0.1-0.9,0.2-1.3c0.1-0.4,0.3-0.7,0.6-1c0.3-0.3,0.6-0.5,0.9-0.7
			c0.4-0.2,0.7-0.2,1.2-0.2c0.6,0,1,0.1,1.4,0.3c0.4,0.2,0.7,0.5,0.9,0.9c0.2,0.4,0.4,0.7,0.5,1.2c0.1,0.4,0.1,0.8,0.1,1.2h-4.6
			c0,0.3,0,0.5,0.1,0.8c0.1,0.2,0.2,0.5,0.3,0.6c0.2,0.2,0.4,0.3,0.6,0.5s0.5,0.2,0.9,0.2c0.4,0,0.8-0.1,1.1-0.3
			c0.3-0.2,0.5-0.5,0.5-0.9h1C173.9,98.7,173.6,99.3,173.2,99.6z M172.9,95.6c-0.1-0.2-0.2-0.4-0.4-0.6c-0.2-0.2-0.3-0.3-0.6-0.4
			c-0.2-0.1-0.4-0.1-0.7-0.1c-0.3,0-0.5,0-0.7,0.1c-0.2,0.1-0.4,0.2-0.5,0.4c-0.2,0.2-0.3,0.3-0.4,0.6s-0.1,0.4-0.2,0.7h3.6
			C173.1,96.1,173,95.8,172.9,95.6z"/>
	</g>
	<g enable-background="new    ">
		<path fill="#565656" d="M146.9,140.4v1h-4.8v2.7h4.5v1h-4.5v3h4.8v1h-6v-8.6H146.9z"/>
		<path fill="#565656" d="M147.6,142.8h1.3l1.5,2.2l1.5-2.2h1.2l-2.1,2.9l2.4,3.3h-1.3l-1.7-2.6l-1.7,2.6h-1.2l2.3-3.3L147.6,142.8z
			"/>
		<path fill="#565656" d="M155.4,142.8v0.8h0c0.2-0.3,0.4-0.6,0.8-0.8c0.4-0.2,0.8-0.2,1.2-0.2c0.5,0,0.9,0.1,1.3,0.3
			s0.7,0.4,0.9,0.7s0.4,0.6,0.5,1c0.1,0.4,0.2,0.8,0.2,1.2c0,0.4-0.1,0.9-0.2,1.2s-0.3,0.7-0.5,1c-0.2,0.3-0.5,0.5-0.9,0.7
			c-0.4,0.2-0.8,0.3-1.2,0.3c-0.2,0-0.3,0-0.5,0s-0.4-0.1-0.6-0.2c-0.2-0.1-0.4-0.2-0.5-0.3c-0.2-0.1-0.3-0.3-0.4-0.5h0v3.2h-1v-8.6
			H155.4z M159,145c-0.1-0.3-0.2-0.5-0.3-0.7s-0.4-0.4-0.6-0.5s-0.5-0.2-0.9-0.2c-0.3,0-0.6,0.1-0.9,0.2c-0.2,0.1-0.4,0.3-0.6,0.5
			s-0.3,0.5-0.3,0.8s-0.1,0.6-0.1,0.9c0,0.3,0,0.6,0.1,0.9c0.1,0.3,0.2,0.5,0.3,0.8c0.2,0.2,0.4,0.4,0.6,0.5
			c0.2,0.1,0.5,0.2,0.9,0.2c0.4,0,0.6-0.1,0.9-0.2s0.4-0.3,0.6-0.5c0.1-0.2,0.2-0.5,0.3-0.8c0.1-0.3,0.1-0.6,0.1-0.9
			C159.2,145.6,159.1,145.3,159,145z"/>
		<path fill="#565656" d="M165.8,148.6c-0.5,0.4-1,0.5-1.8,0.5c-0.5,0-0.9-0.1-1.3-0.2c-0.4-0.2-0.7-0.4-0.9-0.7s-0.4-0.6-0.6-1
			c-0.1-0.4-0.2-0.8-0.2-1.3c0-0.5,0.1-0.9,0.2-1.3s0.3-0.7,0.6-1c0.3-0.3,0.6-0.5,0.9-0.7c0.4-0.2,0.7-0.2,1.2-0.2
			c0.6,0,1,0.1,1.4,0.3c0.4,0.2,0.7,0.5,0.9,0.9c0.2,0.4,0.4,0.7,0.5,1.2c0.1,0.4,0.1,0.8,0.1,1.2h-4.6c0,0.3,0,0.5,0.1,0.8
			c0.1,0.2,0.2,0.5,0.3,0.6c0.2,0.2,0.4,0.3,0.6,0.5s0.5,0.2,0.9,0.2c0.4,0,0.8-0.1,1.1-0.3c0.3-0.2,0.5-0.5,0.5-0.9h1
			C166.6,147.7,166.3,148.3,165.8,148.6z M165.6,144.6c-0.1-0.2-0.2-0.4-0.4-0.6c-0.2-0.2-0.3-0.3-0.6-0.4c-0.2-0.1-0.4-0.1-0.7-0.1
			c-0.3,0-0.5,0-0.7,0.1c-0.2,0.1-0.4,0.2-0.5,0.4s-0.3,0.3-0.4,0.6s-0.1,0.4-0.2,0.7h3.6C165.7,145.1,165.7,144.8,165.6,144.6z"/>
		<path fill="#565656" d="M171.6,143.9c-0.3-0.2-0.6-0.3-1-0.3c-0.4,0-0.7,0.1-0.9,0.2c-0.2,0.1-0.4,0.3-0.6,0.5
			c-0.1,0.2-0.3,0.5-0.3,0.8c-0.1,0.3-0.1,0.6-0.1,0.9c0,0.3,0,0.6,0.1,0.8c0.1,0.3,0.2,0.5,0.3,0.7c0.1,0.2,0.3,0.4,0.6,0.5
			s0.5,0.2,0.8,0.2c0.5,0,0.9-0.1,1.2-0.4c0.3-0.3,0.5-0.6,0.5-1.1h1c-0.1,0.8-0.4,1.4-0.9,1.8s-1.1,0.6-1.9,0.6
			c-0.5,0-0.9-0.1-1.3-0.2c-0.4-0.2-0.7-0.4-0.9-0.6s-0.4-0.6-0.6-1c-0.1-0.4-0.2-0.8-0.2-1.3c0-0.5,0.1-0.9,0.2-1.3
			c0.1-0.4,0.3-0.8,0.5-1.1s0.5-0.5,0.9-0.7c0.4-0.2,0.8-0.3,1.3-0.3c0.4,0,0.7,0,1,0.1c0.3,0.1,0.6,0.2,0.8,0.4s0.4,0.4,0.6,0.7
			c0.2,0.3,0.2,0.6,0.3,1h-1.1C172,144.4,171.8,144.1,171.6,143.9z"/>
		<path fill="#565656" d="M177,142.8v0.9h-1.2v3.9c0,0.1,0,0.2,0,0.3c0,0.1,0.1,0.1,0.1,0.2c0.1,0,0.1,0.1,0.2,0.1s0.2,0,0.4,0h0.5
			v0.9h-0.8c-0.3,0-0.5,0-0.7-0.1c-0.2,0-0.3-0.1-0.5-0.2c-0.1-0.1-0.2-0.2-0.3-0.4c-0.1-0.2-0.1-0.4-0.1-0.7v-3.9h-1.1v-0.9h1.1
			v-1.9h1v1.9H177z"/>
		<path fill="#565656" d="M182.5,148.6c-0.5,0.4-1,0.5-1.8,0.5c-0.5,0-0.9-0.1-1.3-0.2c-0.4-0.2-0.7-0.4-0.9-0.7s-0.4-0.6-0.6-1
			c-0.1-0.4-0.2-0.8-0.2-1.3c0-0.5,0.1-0.9,0.2-1.3c0.1-0.4,0.3-0.7,0.6-1c0.3-0.3,0.6-0.5,0.9-0.7c0.4-0.2,0.7-0.2,1.2-0.2
			c0.6,0,1,0.1,1.4,0.3c0.4,0.2,0.7,0.5,0.9,0.9c0.2,0.4,0.4,0.7,0.5,1.2c0.1,0.4,0.1,0.8,0.1,1.2h-4.6c0,0.3,0,0.5,0.1,0.8
			c0.1,0.2,0.2,0.5,0.3,0.6c0.2,0.2,0.4,0.3,0.6,0.5s0.5,0.2,0.9,0.2c0.4,0,0.8-0.1,1.1-0.3s0.5-0.5,0.5-0.9h1
			C183.3,147.7,183,148.3,182.5,148.6z M182.2,144.6c-0.1-0.2-0.2-0.4-0.4-0.6c-0.2-0.2-0.3-0.3-0.6-0.4c-0.2-0.1-0.4-0.1-0.7-0.1
			c-0.3,0-0.5,0-0.7,0.1c-0.2,0.1-0.4,0.2-0.5,0.4c-0.2,0.2-0.3,0.3-0.4,0.6s-0.1,0.4-0.2,0.7h3.6
			C182.4,145.1,182.3,144.8,182.2,144.6z"/>
		<path fill="#565656" d="M189.1,149v-0.8h0c-0.2,0.3-0.4,0.6-0.8,0.7c-0.4,0.2-0.8,0.2-1.2,0.2c-0.5,0-0.9-0.1-1.3-0.3
			s-0.7-0.4-0.9-0.7s-0.4-0.6-0.5-1c-0.1-0.4-0.2-0.8-0.2-1.2c0-0.4,0.1-0.9,0.2-1.2c0.1-0.4,0.3-0.7,0.5-1c0.2-0.3,0.5-0.5,0.9-0.7
			s0.8-0.3,1.2-0.3c0.2,0,0.3,0,0.5,0s0.4,0.1,0.6,0.2c0.2,0.1,0.4,0.2,0.5,0.3s0.3,0.3,0.4,0.5h0v-3.2h1v8.6H189.1z M185.4,146.8
			c0.1,0.3,0.2,0.5,0.3,0.7c0.2,0.2,0.4,0.4,0.6,0.5c0.2,0.1,0.5,0.2,0.9,0.2c0.3,0,0.6-0.1,0.9-0.2c0.2-0.1,0.4-0.3,0.6-0.5
			c0.2-0.2,0.3-0.5,0.3-0.8c0.1-0.3,0.1-0.6,0.1-0.9c0-0.3,0-0.6-0.1-0.9c-0.1-0.3-0.2-0.5-0.3-0.8c-0.2-0.2-0.4-0.4-0.6-0.5
			s-0.5-0.2-0.9-0.2c-0.3,0-0.6,0.1-0.9,0.2c-0.2,0.1-0.4,0.3-0.6,0.5c-0.1,0.2-0.2,0.5-0.3,0.8c-0.1,0.3-0.1,0.6-0.1,0.9
			C185.3,146.2,185.3,146.5,185.4,146.8z"/>
		<path fill="#565656" d="M198.1,140.4c1.3,0,2.3,0.3,3,1c0.7,0.7,1.1,1.7,1.1,3.1c0,0.7-0.1,1.4-0.2,1.9c-0.2,0.6-0.4,1-0.7,1.4
			c-0.3,0.4-0.8,0.7-1.3,0.9s-1.1,0.3-1.8,0.3h-2.9v-8.6H198.1z M198.2,148c0.1,0,0.3,0,0.5,0c0.2,0,0.4-0.1,0.6-0.1
			s0.4-0.2,0.6-0.3c0.2-0.1,0.4-0.3,0.6-0.6s0.3-0.6,0.4-0.9c0.1-0.4,0.2-0.8,0.2-1.3c0-0.5,0-1-0.1-1.4c-0.1-0.4-0.3-0.7-0.5-1
			c-0.2-0.3-0.5-0.5-0.9-0.6c-0.4-0.1-0.8-0.2-1.3-0.2h-1.9v6.6H198.2z"/>
		<path fill="#565656" d="M208.9,149c-0.2,0.1-0.4,0.2-0.7,0.2c-0.3,0-0.5-0.1-0.6-0.2c-0.2-0.1-0.2-0.4-0.2-0.7
			c-0.3,0.3-0.6,0.6-1,0.7c-0.4,0.1-0.8,0.2-1.2,0.2c-0.3,0-0.5,0-0.8-0.1c-0.3-0.1-0.5-0.2-0.7-0.3c-0.2-0.1-0.3-0.3-0.4-0.5
			c-0.1-0.2-0.2-0.5-0.2-0.8c0-0.4,0.1-0.6,0.2-0.9c0.1-0.2,0.3-0.4,0.5-0.5s0.4-0.2,0.7-0.3s0.5-0.1,0.8-0.2
			c0.3-0.1,0.5-0.1,0.8-0.1s0.5-0.1,0.7-0.1s0.3-0.1,0.5-0.2c0.1-0.1,0.2-0.2,0.2-0.4c0-0.2,0-0.4-0.1-0.5s-0.2-0.2-0.3-0.3
			c-0.1-0.1-0.3-0.1-0.4-0.1c-0.2,0-0.3,0-0.5,0c-0.4,0-0.8,0.1-1.1,0.2s-0.4,0.5-0.5,0.9h-1c0-0.4,0.1-0.7,0.2-1s0.3-0.5,0.6-0.6
			c0.2-0.2,0.5-0.3,0.8-0.4c0.3-0.1,0.6-0.1,1-0.1c0.3,0,0.6,0,0.8,0.1c0.3,0,0.5,0.1,0.8,0.2c0.2,0.1,0.4,0.3,0.5,0.5
			s0.2,0.5,0.2,0.9v3.2c0,0.2,0,0.4,0,0.5c0,0.1,0.1,0.2,0.3,0.2c0.1,0,0.2,0,0.3-0.1V149z M207.3,145.8c-0.1,0.1-0.3,0.2-0.5,0.2
			c-0.2,0-0.4,0.1-0.7,0.1c-0.2,0-0.5,0.1-0.7,0.1s-0.4,0.1-0.6,0.2s-0.3,0.2-0.4,0.3c-0.1,0.1-0.2,0.4-0.2,0.6c0,0.2,0,0.3,0.1,0.4
			c0.1,0.1,0.2,0.2,0.3,0.3c0.1,0.1,0.2,0.1,0.4,0.2c0.1,0,0.3,0,0.5,0c0.3,0,0.6,0,0.9-0.1c0.2-0.1,0.4-0.2,0.6-0.3
			c0.2-0.1,0.3-0.3,0.3-0.5s0.1-0.3,0.1-0.5V145.8z"/>
		<path fill="#565656" d="M212.5,142.8v0.9h-1.2v3.9c0,0.1,0,0.2,0,0.3c0,0.1,0.1,0.1,0.1,0.2c0.1,0,0.1,0.1,0.2,0.1s0.2,0,0.4,0
			h0.5v0.9h-0.8c-0.3,0-0.5,0-0.7-0.1c-0.2,0-0.3-0.1-0.5-0.2c-0.1-0.1-0.2-0.2-0.3-0.4c-0.1-0.2-0.1-0.4-0.1-0.7v-3.9h-1.1v-0.9
			h1.1v-1.9h1v1.9H212.5z"/>
		<path fill="#565656" d="M218.1,148.6c-0.5,0.4-1,0.5-1.8,0.5c-0.5,0-0.9-0.1-1.3-0.2c-0.4-0.2-0.7-0.4-0.9-0.7
			c-0.2-0.3-0.4-0.6-0.6-1c-0.1-0.4-0.2-0.8-0.2-1.3c0-0.5,0.1-0.9,0.2-1.3c0.1-0.4,0.3-0.7,0.6-1c0.3-0.3,0.6-0.5,0.9-0.7
			c0.4-0.2,0.7-0.2,1.2-0.2c0.6,0,1,0.1,1.4,0.3c0.4,0.2,0.7,0.5,0.9,0.9c0.2,0.4,0.4,0.7,0.5,1.2c0.1,0.4,0.1,0.8,0.1,1.2h-4.6
			c0,0.3,0,0.5,0.1,0.8c0.1,0.2,0.2,0.5,0.3,0.6c0.2,0.2,0.4,0.3,0.6,0.5s0.5,0.2,0.9,0.2c0.4,0,0.8-0.1,1.1-0.3
			c0.3-0.2,0.5-0.5,0.5-0.9h1C218.8,147.7,218.5,148.3,218.1,148.6z M217.8,144.6c-0.1-0.2-0.2-0.4-0.4-0.6
			c-0.2-0.2-0.3-0.3-0.6-0.4c-0.2-0.1-0.4-0.1-0.7-0.1c-0.3,0-0.5,0-0.7,0.1c-0.2,0.1-0.4,0.2-0.5,0.4c-0.2,0.2-0.3,0.3-0.4,0.6
			s-0.1,0.4-0.2,0.7h3.6C218,145.1,217.9,144.8,217.8,144.6z"/>
	</g>
	<g enable-background="new    ">
		<path fill="#565656" d="M142.1,42.4V50h4.5v1h-5.7v-8.6H142.1z"/>
		<path fill="#565656" d="M152.9,51c-0.2,0.1-0.4,0.2-0.7,0.2c-0.3,0-0.5-0.1-0.6-0.2c-0.2-0.1-0.2-0.4-0.2-0.7
			c-0.3,0.3-0.6,0.6-1,0.7c-0.4,0.1-0.8,0.2-1.2,0.2c-0.3,0-0.5,0-0.8-0.1c-0.3-0.1-0.5-0.2-0.7-0.3c-0.2-0.1-0.3-0.3-0.4-0.5
			c-0.1-0.2-0.2-0.5-0.2-0.8c0-0.4,0.1-0.6,0.2-0.9c0.1-0.2,0.3-0.4,0.5-0.5c0.2-0.1,0.4-0.2,0.7-0.3s0.5-0.1,0.8-0.2
			c0.3-0.1,0.5-0.1,0.8-0.1s0.5-0.1,0.7-0.1s0.3-0.1,0.5-0.2c0.1-0.1,0.2-0.2,0.2-0.4c0-0.2,0-0.4-0.1-0.5s-0.2-0.2-0.3-0.3
			c-0.1-0.1-0.3-0.1-0.4-0.1c-0.2,0-0.3,0-0.5,0c-0.4,0-0.8,0.1-1.1,0.2s-0.4,0.5-0.5,0.9h-1c0-0.4,0.1-0.7,0.2-1s0.3-0.5,0.6-0.6
			s0.5-0.3,0.8-0.4c0.3-0.1,0.6-0.1,1-0.1c0.3,0,0.6,0,0.8,0.1s0.5,0.1,0.8,0.2c0.2,0.1,0.4,0.3,0.5,0.5c0.1,0.2,0.2,0.5,0.2,0.9
			v3.2c0,0.2,0,0.4,0,0.5c0,0.1,0.1,0.2,0.3,0.2c0.1,0,0.2,0,0.3-0.1V51z M151.3,47.8c-0.1,0.1-0.3,0.2-0.5,0.2
			c-0.2,0-0.4,0.1-0.7,0.1c-0.2,0-0.5,0.1-0.7,0.1s-0.4,0.1-0.6,0.2c-0.2,0.1-0.3,0.2-0.5,0.3c-0.1,0.1-0.2,0.4-0.2,0.6
			c0,0.2,0,0.3,0.1,0.4c0.1,0.1,0.2,0.2,0.3,0.3c0.1,0.1,0.2,0.1,0.4,0.2c0.1,0,0.3,0,0.5,0c0.3,0,0.6,0,0.9-0.1
			c0.2-0.1,0.4-0.2,0.6-0.3s0.3-0.3,0.3-0.5s0.1-0.3,0.1-0.5V47.8z"/>
		<path fill="#565656" d="M154.7,49.6c0.1,0.2,0.2,0.3,0.4,0.4c0.2,0.1,0.3,0.2,0.5,0.2c0.2,0,0.4,0.1,0.6,0.1c0.2,0,0.3,0,0.5,0
			s0.3-0.1,0.5-0.1c0.1-0.1,0.3-0.2,0.4-0.3c0.1-0.1,0.1-0.3,0.1-0.5c0-0.3-0.1-0.5-0.3-0.6c-0.2-0.1-0.4-0.2-0.8-0.3
			c-0.3-0.1-0.6-0.2-1-0.2c-0.4-0.1-0.7-0.2-1-0.3c-0.3-0.1-0.6-0.3-0.8-0.5c-0.2-0.2-0.3-0.5-0.3-0.9c0-0.3,0.1-0.6,0.2-0.8
			c0.1-0.2,0.3-0.4,0.5-0.5c0.2-0.1,0.5-0.2,0.7-0.3c0.3-0.1,0.6-0.1,0.8-0.1c0.4,0,0.7,0,1,0.1c0.3,0.1,0.6,0.2,0.8,0.3
			c0.2,0.1,0.4,0.3,0.5,0.6c0.1,0.3,0.2,0.6,0.2,0.9h-1c0-0.2-0.1-0.4-0.2-0.5c-0.1-0.1-0.2-0.2-0.3-0.3s-0.3-0.1-0.5-0.2
			c-0.2,0-0.3-0.1-0.5-0.1c-0.2,0-0.3,0-0.5,0c-0.2,0-0.3,0.1-0.4,0.1c-0.1,0.1-0.2,0.1-0.3,0.2c-0.1,0.1-0.1,0.2-0.1,0.4
			c0,0.2,0.1,0.3,0.2,0.4s0.3,0.2,0.5,0.3c0.2,0.1,0.4,0.1,0.6,0.2c0.2,0.1,0.5,0.1,0.7,0.2c0.3,0.1,0.5,0.1,0.8,0.2
			s0.5,0.2,0.6,0.3c0.2,0.1,0.3,0.3,0.5,0.5c0.1,0.2,0.2,0.4,0.2,0.7c0,0.4-0.1,0.7-0.2,0.9s-0.4,0.4-0.6,0.6
			c-0.3,0.2-0.5,0.3-0.9,0.3s-0.6,0.1-0.9,0.1c-0.3,0-0.7,0-1-0.1c-0.3-0.1-0.6-0.2-0.8-0.4c-0.2-0.2-0.4-0.4-0.6-0.6
			c-0.1-0.3-0.2-0.6-0.2-1h1C154.5,49.3,154.6,49.5,154.7,49.6z"/>
		<path fill="#565656" d="M162.5,44.8v0.9h-1.2v3.9c0,0.1,0,0.2,0,0.3c0,0.1,0.1,0.1,0.1,0.2c0.1,0,0.1,0.1,0.2,0.1s0.2,0,0.4,0h0.5
			V51h-0.8c-0.3,0-0.5,0-0.7-0.1c-0.2,0-0.3-0.1-0.5-0.2c-0.1-0.1-0.2-0.2-0.3-0.4c-0.1-0.2-0.1-0.4-0.1-0.7v-3.9h-1.1v-0.9h1.1
			v-1.9h1v1.9H162.5z"/>
		<path fill="#565656" d="M168.4,42.4l4.5,6.9h0v-6.9h1.1V51h-1.2l-4.5-6.9h0V51h-1.1v-8.6H168.4z"/>
		<path fill="#565656" d="M181.2,51c-0.2,0.1-0.4,0.2-0.7,0.2c-0.3,0-0.5-0.1-0.6-0.2c-0.2-0.1-0.2-0.4-0.2-0.7
			c-0.3,0.3-0.6,0.6-1,0.7c-0.4,0.1-0.8,0.2-1.2,0.2c-0.3,0-0.5,0-0.8-0.1c-0.3-0.1-0.5-0.2-0.7-0.3c-0.2-0.1-0.3-0.3-0.4-0.5
			c-0.1-0.2-0.2-0.5-0.2-0.8c0-0.4,0.1-0.6,0.2-0.9c0.1-0.2,0.3-0.4,0.5-0.5s0.4-0.2,0.7-0.3s0.5-0.1,0.8-0.2
			c0.3-0.1,0.5-0.1,0.8-0.1s0.5-0.1,0.7-0.1s0.3-0.1,0.5-0.2c0.1-0.1,0.2-0.2,0.2-0.4c0-0.2,0-0.4-0.1-0.5s-0.2-0.2-0.3-0.3
			c-0.1-0.1-0.3-0.1-0.4-0.1c-0.2,0-0.3,0-0.5,0c-0.4,0-0.8,0.1-1.1,0.2s-0.4,0.5-0.5,0.9h-1c0-0.4,0.1-0.7,0.2-1s0.3-0.5,0.6-0.6
			c0.2-0.2,0.5-0.3,0.8-0.4c0.3-0.1,0.6-0.1,1-0.1c0.3,0,0.6,0,0.8,0.1c0.3,0,0.5,0.1,0.8,0.2c0.2,0.1,0.4,0.3,0.5,0.5
			s0.2,0.5,0.2,0.9v3.2c0,0.2,0,0.4,0,0.5c0,0.1,0.1,0.2,0.3,0.2c0.1,0,0.2,0,0.3-0.1V51z M179.5,47.8c-0.1,0.1-0.3,0.2-0.5,0.2
			c-0.2,0-0.4,0.1-0.7,0.1c-0.2,0-0.5,0.1-0.7,0.1s-0.4,0.1-0.6,0.2s-0.3,0.2-0.4,0.3c-0.1,0.1-0.2,0.4-0.2,0.6c0,0.2,0,0.3,0.1,0.4
			c0.1,0.1,0.2,0.2,0.3,0.3c0.1,0.1,0.2,0.1,0.4,0.2c0.1,0,0.3,0,0.5,0c0.3,0,0.6,0,0.9-0.1c0.2-0.1,0.4-0.2,0.6-0.3
			c0.2-0.1,0.3-0.3,0.3-0.5s0.1-0.3,0.1-0.5V47.8z"/>
		<path fill="#565656" d="M183.1,44.8v0.9h0c0.5-0.7,1.1-1.1,2-1.1c0.4,0,0.7,0.1,1,0.2c0.3,0.2,0.5,0.4,0.7,0.8
			c0.2-0.3,0.5-0.6,0.8-0.8c0.3-0.2,0.7-0.3,1.1-0.3c0.3,0,0.6,0,0.8,0.1c0.3,0.1,0.5,0.2,0.6,0.3c0.2,0.1,0.3,0.3,0.4,0.6
			c0.1,0.2,0.1,0.5,0.1,0.8V51h-1v-4.1c0-0.2,0-0.4,0-0.5s-0.1-0.3-0.2-0.4c-0.1-0.1-0.2-0.2-0.4-0.3s-0.4-0.1-0.6-0.1
			c-0.5,0-0.9,0.1-1.2,0.4s-0.4,0.7-0.4,1.2V51h-1v-4.1c0-0.2,0-0.4-0.1-0.6s-0.1-0.3-0.2-0.4s-0.2-0.2-0.4-0.3
			c-0.1-0.1-0.3-0.1-0.6-0.1c-0.3,0-0.5,0.1-0.8,0.2c-0.2,0.1-0.4,0.3-0.5,0.4c-0.1,0.2-0.2,0.3-0.3,0.5c-0.1,0.2-0.1,0.3-0.1,0.5
			V51h-1v-6.2H183.1z"/>
		<path fill="#565656" d="M196.7,50.6c-0.5,0.4-1,0.5-1.8,0.5c-0.5,0-0.9-0.1-1.3-0.2c-0.4-0.2-0.7-0.4-0.9-0.7s-0.4-0.6-0.6-1
			c-0.1-0.4-0.2-0.8-0.2-1.3c0-0.5,0.1-0.9,0.2-1.3c0.1-0.4,0.3-0.7,0.6-1c0.3-0.3,0.6-0.5,0.9-0.7c0.4-0.2,0.7-0.2,1.2-0.2
			c0.6,0,1,0.1,1.4,0.3c0.4,0.2,0.7,0.5,0.9,0.9c0.2,0.4,0.4,0.7,0.5,1.2c0.1,0.4,0.1,0.8,0.1,1.2h-4.6c0,0.3,0,0.5,0.1,0.8
			c0.1,0.2,0.2,0.5,0.3,0.6c0.2,0.2,0.4,0.3,0.6,0.5s0.5,0.2,0.9,0.2c0.4,0,0.8-0.1,1.1-0.3s0.5-0.5,0.5-0.9h1
			C197.5,49.7,197.2,50.3,196.7,50.6z M196.5,46.6c-0.1-0.2-0.2-0.4-0.4-0.6c-0.2-0.2-0.3-0.3-0.6-0.4c-0.2-0.1-0.4-0.1-0.7-0.1
			c-0.3,0-0.5,0-0.7,0.1c-0.2,0.1-0.4,0.2-0.5,0.4c-0.2,0.2-0.3,0.3-0.4,0.6s-0.1,0.4-0.2,0.7h3.6C196.6,47.1,196.6,46.8,196.5,46.6
			z"/>
	</g>
	<path id="Rectangle_892" fill="#6236FF" d="M85,238h95c2.8,0,5,2.2,5,5v17c0,2.8-2.2,5-5,5H85c-2.8,0-5-2.2-5-5v-17
		C80,240.2,82.2,238,85,238z"/>
	<g enable-background="new    ">
		<path fill="#FFFFFF" d="M115.4,253.6c0,0.3,0,0.5,0.1,0.7s0.2,0.4,0.4,0.5c0.2,0.1,0.4,0.2,0.6,0.3s0.5,0.1,0.7,0.1
			c0.3,0,0.5,0,0.7-0.1c0.2-0.1,0.3-0.1,0.5-0.2c0.1-0.1,0.2-0.2,0.3-0.3c0.1-0.1,0.1-0.3,0.1-0.4c0-0.3-0.1-0.5-0.2-0.6
			s-0.3-0.2-0.4-0.3c-0.3-0.1-0.5-0.2-0.9-0.3c-0.3-0.1-0.8-0.2-1.2-0.3c-0.3-0.1-0.6-0.2-0.8-0.3c-0.2-0.1-0.4-0.3-0.5-0.4
			c-0.1-0.2-0.2-0.3-0.3-0.5s-0.1-0.4-0.1-0.5c0-0.4,0.1-0.7,0.2-0.9c0.1-0.3,0.3-0.5,0.6-0.7c0.2-0.2,0.5-0.3,0.8-0.4
			c0.3-0.1,0.6-0.1,1-0.1c0.4,0,0.7,0,1.1,0.1s0.6,0.2,0.9,0.4c0.2,0.2,0.4,0.4,0.6,0.7s0.2,0.6,0.2,1h-1.2c0-0.5-0.2-0.8-0.5-1
			c-0.3-0.2-0.6-0.3-1.1-0.3c-0.1,0-0.3,0-0.5,0s-0.3,0.1-0.4,0.2c-0.1,0.1-0.2,0.2-0.3,0.3c-0.1,0.1-0.1,0.3-0.1,0.4
			c0,0.3,0.1,0.5,0.2,0.6c0.2,0.1,0.4,0.3,0.6,0.3c0,0,0.1,0,0.3,0.1c0.2,0.1,0.4,0.1,0.6,0.2c0.2,0.1,0.4,0.1,0.7,0.2
			s0.4,0.1,0.5,0.1c0.2,0.1,0.4,0.2,0.6,0.3c0.2,0.1,0.3,0.3,0.4,0.4c0.1,0.2,0.2,0.3,0.3,0.5s0.1,0.4,0.1,0.6c0,0.4-0.1,0.7-0.2,1
			c-0.2,0.3-0.4,0.5-0.6,0.7c-0.3,0.2-0.6,0.3-0.9,0.4s-0.7,0.1-1,0.1c-0.4,0-0.8,0-1.1-0.2c-0.4-0.1-0.7-0.3-0.9-0.5
			c-0.3-0.2-0.5-0.5-0.6-0.8c-0.2-0.3-0.2-0.7-0.2-1.1H115.4z"/>
		<path fill="#FFFFFF" d="M121,248.9h1.2v4.2c0,0.2,0,0.5,0,0.7c0,0.2,0.1,0.5,0.2,0.7c0.1,0.2,0.3,0.4,0.5,0.5
			c0.2,0.1,0.5,0.2,0.9,0.2c0.4,0,0.7-0.1,0.9-0.2c0.2-0.1,0.4-0.3,0.5-0.5c0.1-0.2,0.2-0.4,0.2-0.7c0-0.2,0-0.5,0-0.7v-4.2h1.2v4.6
			c0,0.5-0.1,0.9-0.2,1.2c-0.1,0.3-0.3,0.6-0.6,0.9c-0.3,0.2-0.6,0.4-0.9,0.5c-0.4,0.1-0.8,0.2-1.2,0.2c-0.4,0-0.8-0.1-1.2-0.2
			s-0.7-0.3-0.9-0.5c-0.3-0.2-0.5-0.5-0.6-0.9c-0.1-0.3-0.2-0.7-0.2-1.2V248.9z"/>
		<path fill="#FFFFFF" d="M128.3,248.9h3.5c0.6,0,1.2,0.1,1.5,0.4c0.4,0.3,0.6,0.7,0.6,1.3c0,0.4-0.1,0.7-0.3,0.9
			c-0.2,0.3-0.4,0.5-0.8,0.6v0c0.4,0.1,0.8,0.3,1,0.6s0.3,0.7,0.3,1.2c0,0.3,0,0.5-0.1,0.8c-0.1,0.2-0.3,0.5-0.5,0.6
			c-0.2,0.2-0.5,0.3-0.8,0.4c-0.3,0.1-0.7,0.2-1.2,0.2h-3.3V248.9z M129.5,251.8h2c0.3,0,0.6-0.1,0.8-0.3c0.2-0.2,0.3-0.4,0.3-0.7
			c0-0.4-0.1-0.6-0.3-0.8c-0.2-0.1-0.4-0.2-0.8-0.2h-2V251.8z M129.5,255h2.2c0.4,0,0.7-0.1,0.9-0.3c0.2-0.2,0.3-0.5,0.3-0.8
			c0-0.4-0.1-0.6-0.3-0.8c-0.2-0.2-0.5-0.3-0.9-0.3h-2.2V255z"/>
		<path fill="#FFFFFF" d="M135.3,248.9h1.8l2,5.6h0l1.9-5.6h1.7v7.1h-1.2v-5.5h0l-2,5.5h-1l-2-5.5h0v5.5h-1.2V248.9z"/>
		<path fill="#FFFFFF" d="M144.2,248.9h1.2v7.1h-1.2V248.9z"/>
		<path fill="#FFFFFF" d="M146.3,248.9h5.8v1.1h-2.3v6.1h-1.2v-6.1h-2.3V248.9z"/>
	</g>
</g>
</svg>
