<?xml version="1.0" encoding="utf-8"?>
<!-- Generator: Adobe Illustrator 23.1.0, SVG Export Plug-In . SVG Version: 6.00 Build 0)  -->
<svg version="1.1" id="Layer_1" xmlns="http://www.w3.org/2000/svg" xmlns:xlink="http://www.w3.org/1999/xlink" x="0px" y="0px"
	 viewBox="0 0 265 300" enable-background="new 0 0 265 300" xml:space="preserve">
<g id="Group_73" transform="translate(-963 -2543)">
	<path id="Rectangle_1006" fill="#FFFFFF" d="M968,2543h255c2.8,0,5,2.2,5,5v290c0,2.8-2.2,5-5,5H968c-2.8,0-5-2.2-5-5v-290
		C963,2545.2,965.2,2543,968,2543z"/>
	<path id="Rectangle_1007" fill="#E5E9EA" d="M1005.5,2602h80c1.4,0,2.5,1.1,2.5,2.5l0,0c0,1.4-1.1,2.5-2.5,2.5h-80
		c-1.4,0-2.5-1.1-2.5-2.5l0,0C1003,2603.1,1004.1,2602,1005.5,2602z"/>
	<path id="Rectangle_1008" fill="#E5E9EA" d="M1005.5,2646h180c1.4,0,2.5,1.1,2.5,2.5l0,0c0,1.4-1.1,2.5-2.5,2.5h-180
		c-1.4,0-2.5-1.1-2.5-2.5l0,0C1003,2647.1,1004.1,2646,1005.5,2646z"/>
	<path id="Rectangle_1010" fill="#E5E9EA" d="M1105.5,2602h80c1.4,0,2.5,1.1,2.5,2.5l0,0c0,1.4-1.1,2.5-2.5,2.5h-80
		c-1.4,0-2.5-1.1-2.5-2.5l0,0C1103,2603.1,1104.1,2602,1105.5,2602z"/>
	<text transform="matrix(1 0 0 1 1003 2594)" fill="#565656" font-family="'HelveticaNeue'" font-size="12px">First Name</text>
	<text transform="matrix(1 0 0 1 1003 2638)" fill="#565656" font-family="'HelveticaNeue'" font-size="12px">Email</text>
	<text transform="matrix(1 0 0 1 1003 2692)" fill="#565656" font-family="'HelveticaNeue'" font-size="12px">Do you drink cofee?</text>
	<text transform="matrix(1 0 0 1 1103 2594)" fill="#565656" font-family="'HelveticaNeue'" font-size="12px">Last Name</text>
	<path id="Rectangle_1014" fill="#FEC42D" d="M1048,2781h95c2.8,0,5,2.2,5,5v17c0,2.8-2.2,5-5,5h-95c-2.8,0-5-2.2-5-5v-17
		C1043,2783.2,1045.2,2781,1048,2781z"/>
	<text transform="matrix(1 0 0 1 1082.39 2799)" fill="#FFFFFF" font-family="'HelveticaNeue-Medium'" font-size="10px">SEND</text>
	<path id="Rectangle_1015" fill="#E5E9EA" d="M1005.5,2705h5c1.4,0,2.5,1.1,2.5,2.5l0,0c0,1.4-1.1,2.5-2.5,2.5h-5
		c-1.4,0-2.5-1.1-2.5-2.5l0,0C1003,2706.1,1004.1,2705,1005.5,2705z"/>
	<path id="Rectangle_1016" fill="#E5E9EA" d="M1005.5,2722h5c1.4,0,2.5,1.1,2.5,2.5l0,0c0,1.4-1.1,2.5-2.5,2.5h-5
		c-1.4,0-2.5-1.1-2.5-2.5l0,0C1003,2723.1,1004.1,2722,1005.5,2722z"/>
	<path id="Rectangle_1017" fill="#E5E9EA" d="M1027.5,2705h35c1.4,0,2.5,1.1,2.5,2.5l0,0c0,1.4-1.1,2.5-2.5,2.5h-35
		c-1.4,0-2.5-1.1-2.5-2.5l0,0C1025,2706.1,1026.1,2705,1027.5,2705z"/>
	<path id="Rectangle_1018" fill="#E5E9EA" d="M1027.5,2722h55c1.4,0,2.5,1.1,2.5,2.5l0,0c0,1.4-1.1,2.5-2.5,2.5h-55
		c-1.4,0-2.5-1.1-2.5-2.5l0,0C1025,2723.1,1026.1,2722,1027.5,2722z"/>
</g>
</svg>
