<?xml version="1.0" encoding="utf-8"?>
<!-- Generator: Adobe Illustrator 23.1.0, SVG Export Plug-In . SVG Version: 6.00 Build 0)  -->
<svg version="1.1" id="Layer_1" xmlns="http://www.w3.org/2000/svg" xmlns:xlink="http://www.w3.org/1999/xlink" x="0px" y="0px"
	 viewBox="0 0 265 300" enable-background="new 0 0 265 300" xml:space="preserve">
<g>
	<path id="Rectangle_804" fill="#FFFFFF" d="M5,0h255c2.8,0,5,2.2,5,5v290c0,2.8-2.2,5-5,5H5c-2.8,0-5-2.2-5-5V5C0,2.2,2.2,0,5,0z"
		/>
	<path id="Rectangle_809" fill="#E5E9EA" d="M42.5,62L42.5,62c1.4,0,2.5,1.1,2.5,2.5l0,0c0,1.4-1.1,2.5-2.5,2.5l0,0
		c-1.4,0-2.5-1.1-2.5-2.5l0,0C40,63.1,41.1,62,42.5,62z"/>
	<path id="Rectangle_815" fill="#E5E9EA" d="M42.5,129L42.5,129c1.4,0,2.5,1.1,2.5,2.5l0,0c0,1.4-1.1,2.5-2.5,2.5l0,0
		c-1.4,0-2.5-1.1-2.5-2.5l0,0C40,130.1,41.1,129,42.5,129z"/>
	<path id="Rectangle_819" fill="#E5E9EA" d="M42.5,196L42.5,196c1.4,0,2.5,1.1,2.5,2.5l0,0c0,1.4-1.1,2.5-2.5,2.5l0,0
		c-1.4,0-2.5-1.1-2.5-2.5l0,0C40,197.1,41.1,196,42.5,196z"/>
	<path id="Rectangle_814" fill="#E5E9EA" d="M42.5,77L42.5,77c1.4,0,2.5,1.1,2.5,2.5l0,0c0,1.4-1.1,2.5-2.5,2.5l0,0
		c-1.4,0-2.5-1.1-2.5-2.5l0,0C40,78.1,41.1,77,42.5,77z"/>
	<path id="Rectangle_816" fill="#E5E9EA" d="M42.5,144L42.5,144c1.4,0,2.5,1.1,2.5,2.5l0,0c0,1.4-1.1,2.5-2.5,2.5l0,0
		c-1.4,0-2.5-1.1-2.5-2.5l0,0C40,145.1,41.1,144,42.5,144z"/>
	<path id="Rectangle_820" fill="#E5E9EA" d="M42.5,211L42.5,211c1.4,0,2.5,1.1,2.5,2.5l0,0c0,1.4-1.1,2.5-2.5,2.5l0,0
		c-1.4,0-2.5-1.1-2.5-2.5l0,0C40,212.1,41.1,211,42.5,211z"/>
	<path id="Rectangle_811" fill="#E5E9EA" d="M52.5,62h35c1.4,0,2.5,1.1,2.5,2.5l0,0c0,1.4-1.1,2.5-2.5,2.5h-35
		c-1.4,0-2.5-1.1-2.5-2.5l0,0C50,63.1,51.1,62,52.5,62z"/>
	<path id="Rectangle_817" fill="#E5E9EA" d="M52.5,129h35c1.4,0,2.5,1.1,2.5,2.5l0,0c0,1.4-1.1,2.5-2.5,2.5h-35
		c-1.4,0-2.5-1.1-2.5-2.5l0,0C50,130.1,51.1,129,52.5,129z"/>
	<path id="Rectangle_821" fill="#E5E9EA" d="M52.5,196h35c1.4,0,2.5,1.1,2.5,2.5l0,0c0,1.4-1.1,2.5-2.5,2.5h-35
		c-1.4,0-2.5-1.1-2.5-2.5l0,0C50,197.1,51.1,196,52.5,196z"/>
	<path id="Rectangle_813" fill="#E5E9EA" d="M52.5,77h55c1.4,0,2.5,1.1,2.5,2.5l0,0c0,1.4-1.1,2.5-2.5,2.5h-55
		c-1.4,0-2.5-1.1-2.5-2.5l0,0C50,78.1,51.1,77,52.5,77z"/>
	<path id="Rectangle_818" fill="#E5E9EA" d="M52.5,144h55c1.4,0,2.5,1.1,2.5,2.5l0,0c0,1.4-1.1,2.5-2.5,2.5h-55
		c-1.4,0-2.5-1.1-2.5-2.5l0,0C50,145.1,51.1,144,52.5,144z"/>
	<path id="Rectangle_822" fill="#E5E9EA" d="M52.5,211h55c1.4,0,2.5,1.1,2.5,2.5l0,0c0,1.4-1.1,2.5-2.5,2.5h-55
		c-1.4,0-2.5-1.1-2.5-2.5l0,0C50,212.1,51.1,211,52.5,211z"/>
	<g enable-background="new    ">
		<path fill="#565656" d="M42.1,42.4v3.7h4.5v-3.7h1.1V51h-1.1v-3.9h-4.5V51h-1.1v-8.6H42.1z"/>
		<path fill="#565656" d="M54.9,51c-0.2,0.1-0.4,0.2-0.7,0.2c-0.3,0-0.5-0.1-0.6-0.2c-0.2-0.1-0.2-0.4-0.2-0.7
			c-0.3,0.3-0.6,0.6-1,0.7c-0.4,0.1-0.8,0.2-1.2,0.2c-0.3,0-0.5,0-0.8-0.1c-0.3-0.1-0.5-0.2-0.7-0.3c-0.2-0.1-0.3-0.3-0.4-0.5
			c-0.1-0.2-0.2-0.5-0.2-0.8c0-0.4,0.1-0.6,0.2-0.9c0.1-0.2,0.3-0.4,0.5-0.5c0.2-0.1,0.4-0.2,0.7-0.3s0.5-0.1,0.8-0.2
			c0.3-0.1,0.5-0.1,0.8-0.1s0.5-0.1,0.7-0.1s0.3-0.1,0.5-0.2c0.1-0.1,0.2-0.2,0.2-0.4c0-0.2,0-0.4-0.1-0.5s-0.2-0.2-0.3-0.3
			c-0.1-0.1-0.3-0.1-0.4-0.1c-0.2,0-0.3,0-0.5,0c-0.4,0-0.8,0.1-1.1,0.2s-0.4,0.5-0.5,0.9h-1c0-0.4,0.1-0.7,0.2-1s0.3-0.5,0.6-0.6
			c0.2-0.2,0.5-0.3,0.8-0.4c0.3-0.1,0.6-0.1,1-0.1c0.3,0,0.6,0,0.8,0.1c0.3,0,0.5,0.1,0.8,0.2c0.2,0.1,0.4,0.3,0.5,0.5
			c0.1,0.2,0.2,0.5,0.2,0.9v3.2c0,0.2,0,0.4,0,0.5c0,0.1,0.1,0.2,0.3,0.2c0.1,0,0.2,0,0.3-0.1V51z M53.3,47.8
			C53.1,47.9,53,48,52.8,48s-0.4,0.1-0.7,0.1c-0.2,0-0.5,0.1-0.7,0.1s-0.4,0.1-0.6,0.2c-0.2,0.1-0.3,0.2-0.5,0.3
			c-0.1,0.1-0.2,0.4-0.2,0.6c0,0.2,0,0.3,0.1,0.4s0.2,0.2,0.3,0.3c0.1,0.1,0.2,0.1,0.4,0.2c0.1,0,0.3,0,0.5,0c0.3,0,0.6,0,0.9-0.1
			c0.2-0.1,0.4-0.2,0.6-0.3c0.2-0.1,0.3-0.3,0.3-0.5s0.1-0.3,0.1-0.5V47.8z"/>
		<path fill="#565656" d="M57.6,51l-2.3-6.2h1.1l1.7,5.2h0l1.7-5.2h1.1L58.7,51H57.6z"/>
		<path fill="#565656" d="M66.3,50.6c-0.5,0.4-1,0.5-1.8,0.5c-0.5,0-0.9-0.1-1.3-0.2c-0.4-0.2-0.7-0.4-0.9-0.7
			c-0.2-0.3-0.4-0.6-0.6-1c-0.1-0.4-0.2-0.8-0.2-1.3c0-0.5,0.1-0.9,0.2-1.3s0.3-0.7,0.6-1c0.3-0.3,0.6-0.5,0.9-0.7
			c0.4-0.2,0.7-0.2,1.2-0.2c0.6,0,1,0.1,1.4,0.3c0.4,0.2,0.7,0.5,0.9,0.9c0.2,0.4,0.4,0.7,0.5,1.2c0.1,0.4,0.1,0.8,0.1,1.2h-4.6
			c0,0.3,0,0.5,0.1,0.8c0.1,0.2,0.2,0.5,0.3,0.6c0.2,0.2,0.4,0.3,0.6,0.5s0.5,0.2,0.9,0.2c0.4,0,0.8-0.1,1.1-0.3
			c0.3-0.2,0.5-0.5,0.5-0.9h1C67,49.7,66.7,50.3,66.3,50.6z M66,46.6c-0.1-0.2-0.2-0.4-0.4-0.6c-0.2-0.2-0.3-0.3-0.6-0.4
			c-0.2-0.1-0.4-0.1-0.7-0.1c-0.3,0-0.5,0-0.7,0.1c-0.2,0.1-0.4,0.2-0.5,0.4s-0.3,0.3-0.4,0.6s-0.1,0.4-0.2,0.7h3.6
			C66.2,47.1,66.1,46.8,66,46.6z"/>
		<path fill="#565656" d="M74.1,51.8c-0.1,0.3-0.2,0.6-0.4,0.8c-0.1,0.2-0.2,0.4-0.4,0.5c-0.1,0.1-0.3,0.2-0.5,0.3
			c-0.2,0.1-0.4,0.1-0.6,0.1c-0.1,0-0.2,0-0.4,0s-0.2,0-0.3-0.1v-0.9c0.1,0,0.2,0.1,0.3,0.1c0.1,0,0.2,0,0.3,0c0.2,0,0.4,0,0.5-0.2
			c0.1-0.1,0.2-0.2,0.3-0.4l0.4-1L71,44.8h1.2l1.8,5.1h0l1.7-5.1h1.1L74.1,51.8z"/>
		<path fill="#565656" d="M77.5,46.6c0.1-0.4,0.3-0.7,0.6-1c0.3-0.3,0.6-0.5,0.9-0.7s0.8-0.3,1.3-0.3c0.5,0,0.9,0.1,1.3,0.3
			s0.7,0.4,0.9,0.7c0.3,0.3,0.4,0.6,0.6,1c0.1,0.4,0.2,0.8,0.2,1.3s-0.1,0.9-0.2,1.3c-0.1,0.4-0.3,0.7-0.6,1
			c-0.3,0.3-0.6,0.5-0.9,0.7s-0.8,0.2-1.3,0.2c-0.5,0-0.9-0.1-1.3-0.2s-0.7-0.4-0.9-0.7c-0.3-0.3-0.4-0.6-0.6-1
			c-0.1-0.4-0.2-0.8-0.2-1.3S77.4,47,77.5,46.6z M78.5,48.9c0.1,0.3,0.2,0.5,0.4,0.7c0.2,0.2,0.4,0.3,0.6,0.5
			c0.2,0.1,0.5,0.2,0.8,0.2c0.3,0,0.5-0.1,0.8-0.2c0.2-0.1,0.4-0.3,0.6-0.5c0.2-0.2,0.3-0.4,0.4-0.7s0.1-0.6,0.1-1s0-0.7-0.1-1
			s-0.2-0.5-0.4-0.7c-0.2-0.2-0.4-0.4-0.6-0.5c-0.2-0.1-0.5-0.2-0.8-0.2c-0.3,0-0.5,0.1-0.8,0.2c-0.2,0.1-0.4,0.3-0.6,0.5
			c-0.2,0.2-0.3,0.4-0.4,0.7c-0.1,0.3-0.1,0.6-0.1,1S78.4,48.6,78.5,48.9z"/>
		<path fill="#565656" d="M88.7,51v-1h0c-0.2,0.4-0.5,0.7-0.8,0.8c-0.3,0.2-0.7,0.3-1.2,0.3c-0.4,0-0.7-0.1-1-0.2
			c-0.3-0.1-0.5-0.3-0.7-0.5c-0.2-0.2-0.3-0.4-0.4-0.7c-0.1-0.3-0.1-0.6-0.1-0.9v-4.1h1V49c0,0.4,0.1,0.7,0.3,0.9
			c0.2,0.2,0.5,0.3,0.9,0.3c0.3,0,0.6,0,0.8-0.1c0.2-0.1,0.4-0.2,0.6-0.4c0.2-0.2,0.3-0.4,0.3-0.6c0.1-0.2,0.1-0.5,0.1-0.8v-3.5h1
			V51H88.7z"/>
		<path fill="#565656" d="M98.9,50.6c-0.5,0.4-1,0.5-1.8,0.5c-0.5,0-0.9-0.1-1.3-0.2c-0.4-0.2-0.7-0.4-0.9-0.7
			c-0.2-0.3-0.4-0.6-0.6-1c-0.1-0.4-0.2-0.8-0.2-1.3c0-0.5,0.1-0.9,0.2-1.3s0.3-0.7,0.6-1c0.3-0.3,0.6-0.5,0.9-0.7
			c0.4-0.2,0.7-0.2,1.2-0.2c0.6,0,1,0.1,1.4,0.3c0.4,0.2,0.7,0.5,0.9,0.9c0.2,0.4,0.4,0.7,0.5,1.2c0.1,0.4,0.1,0.8,0.1,1.2h-4.6
			c0,0.3,0,0.5,0.1,0.8c0.1,0.2,0.2,0.5,0.3,0.6c0.2,0.2,0.4,0.3,0.6,0.5s0.5,0.2,0.9,0.2c0.4,0,0.8-0.1,1.1-0.3
			c0.3-0.2,0.5-0.5,0.5-0.9h1C99.7,49.7,99.4,50.3,98.9,50.6z M98.7,46.6c-0.1-0.2-0.2-0.4-0.4-0.6c-0.2-0.2-0.3-0.3-0.6-0.4
			c-0.2-0.1-0.4-0.1-0.7-0.1c-0.3,0-0.5,0-0.7,0.1c-0.2,0.1-0.4,0.2-0.5,0.4s-0.3,0.3-0.4,0.6s-0.1,0.4-0.2,0.7h3.6
			C98.8,47.1,98.8,46.8,98.7,46.6z"/>
		<path fill="#565656" d="M102.7,51l-2.3-6.2h1.1l1.7,5.2h0l1.7-5.2h1.1l-2.3,6.2H102.7z"/>
		<path fill="#565656" d="M111.4,50.6c-0.5,0.4-1,0.5-1.8,0.5c-0.5,0-0.9-0.1-1.3-0.2c-0.4-0.2-0.7-0.4-0.9-0.7
			c-0.2-0.3-0.4-0.6-0.6-1c-0.1-0.4-0.2-0.8-0.2-1.3c0-0.5,0.1-0.9,0.2-1.3s0.3-0.7,0.6-1c0.3-0.3,0.6-0.5,0.9-0.7
			c0.4-0.2,0.7-0.2,1.2-0.2c0.6,0,1,0.1,1.4,0.3c0.4,0.2,0.7,0.5,0.9,0.9c0.2,0.4,0.4,0.7,0.5,1.2c0.1,0.4,0.1,0.8,0.1,1.2h-4.6
			c0,0.3,0,0.5,0.1,0.8c0.1,0.2,0.2,0.5,0.3,0.6c0.2,0.2,0.4,0.3,0.6,0.5s0.5,0.2,0.9,0.2c0.4,0,0.8-0.1,1.1-0.3
			c0.3-0.2,0.5-0.5,0.5-0.9h1C112.2,49.7,111.9,50.3,111.4,50.6z M111.1,46.6c-0.1-0.2-0.2-0.4-0.4-0.6c-0.2-0.2-0.3-0.3-0.6-0.4
			c-0.2-0.1-0.4-0.1-0.7-0.1c-0.3,0-0.5,0-0.7,0.1c-0.2,0.1-0.4,0.2-0.5,0.4s-0.3,0.3-0.4,0.6s-0.1,0.4-0.2,0.7h3.6
			C111.3,47.1,111.2,46.8,111.1,46.6z"/>
		<path fill="#565656" d="M114.4,44.8v1.3h0c0.2-0.5,0.6-0.9,0.9-1.1c0.4-0.2,0.8-0.4,1.4-0.3v1.1c-0.4,0-0.8,0.1-1,0.2
			c-0.3,0.1-0.5,0.3-0.7,0.5c-0.2,0.2-0.3,0.5-0.4,0.8c-0.1,0.3-0.1,0.7-0.1,1.1V51h-1v-6.2H114.4z"/>
		<path fill="#565656" d="M121.8,42.4v3.3h0c0.1-0.2,0.2-0.4,0.3-0.5c0.1-0.1,0.3-0.2,0.5-0.3s0.4-0.1,0.6-0.2
			c0.2,0,0.4-0.1,0.6-0.1c0.4,0,0.7,0.1,1,0.2c0.3,0.1,0.5,0.3,0.7,0.5s0.3,0.4,0.4,0.7s0.1,0.6,0.1,0.9V51h-1v-4.2
			c0-0.4-0.1-0.7-0.3-0.9c-0.2-0.2-0.5-0.3-0.9-0.3c-0.3,0-0.6,0-0.8,0.1c-0.2,0.1-0.4,0.2-0.6,0.4c-0.2,0.2-0.3,0.4-0.3,0.6
			c-0.1,0.2-0.1,0.5-0.1,0.8V51h-1v-8.6H121.8z"/>
		<path fill="#565656" d="M132.9,51c-0.2,0.1-0.4,0.2-0.7,0.2c-0.3,0-0.5-0.1-0.6-0.2c-0.2-0.1-0.2-0.4-0.2-0.7
			c-0.3,0.3-0.6,0.6-1,0.7c-0.4,0.1-0.8,0.2-1.2,0.2c-0.3,0-0.5,0-0.8-0.1c-0.3-0.1-0.5-0.2-0.7-0.3c-0.2-0.1-0.3-0.3-0.4-0.5
			c-0.1-0.2-0.2-0.5-0.2-0.8c0-0.4,0.1-0.6,0.2-0.9c0.1-0.2,0.3-0.4,0.5-0.5s0.4-0.2,0.7-0.3s0.5-0.1,0.8-0.2
			c0.3-0.1,0.5-0.1,0.8-0.1s0.5-0.1,0.7-0.1s0.3-0.1,0.5-0.2c0.1-0.1,0.2-0.2,0.2-0.4c0-0.2,0-0.4-0.1-0.5s-0.2-0.2-0.3-0.3
			c-0.1-0.1-0.3-0.1-0.4-0.1c-0.2,0-0.3,0-0.5,0c-0.4,0-0.8,0.1-1.1,0.2s-0.4,0.5-0.5,0.9h-1c0-0.4,0.1-0.7,0.2-1s0.3-0.5,0.6-0.6
			c0.2-0.2,0.5-0.3,0.8-0.4c0.3-0.1,0.6-0.1,1-0.1c0.3,0,0.6,0,0.8,0.1c0.3,0,0.5,0.1,0.8,0.2c0.2,0.1,0.4,0.3,0.5,0.5
			s0.2,0.5,0.2,0.9v3.2c0,0.2,0,0.4,0,0.5c0,0.1,0.1,0.2,0.3,0.2c0.1,0,0.2,0,0.3-0.1V51z M131.3,47.8c-0.1,0.1-0.3,0.2-0.5,0.2
			c-0.2,0-0.4,0.1-0.7,0.1c-0.2,0-0.5,0.1-0.7,0.1s-0.4,0.1-0.6,0.2s-0.3,0.2-0.4,0.3c-0.1,0.1-0.2,0.4-0.2,0.6c0,0.2,0,0.3,0.1,0.4
			c0.1,0.1,0.2,0.2,0.3,0.3c0.1,0.1,0.2,0.1,0.4,0.2c0.1,0,0.3,0,0.5,0c0.3,0,0.6,0,0.9-0.1c0.2-0.1,0.4-0.2,0.6-0.3
			c0.2-0.1,0.3-0.3,0.3-0.5s0.1-0.3,0.1-0.5V47.8z"/>
		<path fill="#565656" d="M138.4,51v-0.8h0c-0.2,0.3-0.4,0.6-0.8,0.7c-0.4,0.2-0.8,0.2-1.2,0.2c-0.5,0-0.9-0.1-1.3-0.3
			s-0.7-0.4-0.9-0.7s-0.4-0.6-0.5-1c-0.1-0.4-0.2-0.8-0.2-1.2c0-0.4,0.1-0.9,0.2-1.2c0.1-0.4,0.3-0.7,0.5-1c0.2-0.3,0.5-0.5,0.9-0.7
			s0.8-0.3,1.2-0.3c0.2,0,0.3,0,0.5,0s0.4,0.1,0.6,0.2c0.2,0.1,0.4,0.2,0.5,0.3s0.3,0.3,0.4,0.5h0v-3.2h1V51H138.4z M134.7,48.8
			c0.1,0.3,0.2,0.5,0.3,0.7c0.2,0.2,0.4,0.4,0.6,0.5c0.2,0.1,0.5,0.2,0.9,0.2c0.3,0,0.6-0.1,0.9-0.2c0.2-0.1,0.4-0.3,0.6-0.5
			c0.2-0.2,0.3-0.5,0.3-0.8c0.1-0.3,0.1-0.6,0.1-0.9c0-0.3,0-0.6-0.1-0.9c-0.1-0.3-0.2-0.5-0.3-0.8c-0.2-0.2-0.4-0.4-0.6-0.5
			s-0.5-0.2-0.9-0.2c-0.3,0-0.6,0.1-0.9,0.2c-0.2,0.1-0.4,0.3-0.6,0.5c-0.1,0.2-0.2,0.5-0.3,0.8c-0.1,0.3-0.1,0.6-0.1,0.9
			C134.6,48.2,134.7,48.5,134.7,48.8z"/>
		<path fill="#565656" d="M145.1,49.6c0.1,0.2,0.2,0.3,0.4,0.4c0.2,0.1,0.3,0.2,0.5,0.2c0.2,0,0.4,0.1,0.6,0.1c0.2,0,0.3,0,0.5,0
			s0.3-0.1,0.5-0.1c0.1-0.1,0.3-0.2,0.4-0.3c0.1-0.1,0.1-0.3,0.1-0.5c0-0.3-0.1-0.5-0.3-0.6c-0.2-0.1-0.4-0.2-0.8-0.3
			c-0.3-0.1-0.6-0.2-1-0.2c-0.4-0.1-0.7-0.2-1-0.3c-0.3-0.1-0.6-0.3-0.8-0.5c-0.2-0.2-0.3-0.5-0.3-0.9c0-0.3,0.1-0.6,0.2-0.8
			c0.1-0.2,0.3-0.4,0.5-0.5c0.2-0.1,0.5-0.2,0.7-0.3c0.3-0.1,0.6-0.1,0.8-0.1c0.4,0,0.7,0,1,0.1c0.3,0.1,0.6,0.2,0.8,0.3
			c0.2,0.1,0.4,0.3,0.5,0.6c0.1,0.3,0.2,0.6,0.2,0.9h-1c0-0.2-0.1-0.4-0.2-0.5c-0.1-0.1-0.2-0.2-0.3-0.3s-0.3-0.1-0.5-0.2
			c-0.2,0-0.3-0.1-0.5-0.1c-0.2,0-0.3,0-0.5,0c-0.2,0-0.3,0.1-0.4,0.1c-0.1,0.1-0.2,0.1-0.3,0.2c-0.1,0.1-0.1,0.2-0.1,0.4
			c0,0.2,0.1,0.3,0.2,0.4s0.3,0.2,0.5,0.3c0.2,0.1,0.4,0.1,0.6,0.2c0.2,0.1,0.5,0.1,0.7,0.2c0.3,0.1,0.5,0.1,0.8,0.2
			s0.5,0.2,0.6,0.3c0.2,0.1,0.3,0.3,0.5,0.5c0.1,0.2,0.2,0.4,0.2,0.7c0,0.4-0.1,0.7-0.2,0.9s-0.4,0.4-0.6,0.6
			c-0.3,0.2-0.5,0.3-0.9,0.3s-0.6,0.1-0.9,0.1c-0.3,0-0.7,0-1-0.1c-0.3-0.1-0.6-0.2-0.8-0.4c-0.2-0.2-0.4-0.4-0.6-0.6
			c-0.1-0.3-0.2-0.6-0.2-1h1C145,49.3,145,49.5,145.1,49.6z"/>
		<path fill="#565656" d="M154.7,50.6c-0.5,0.4-1,0.5-1.8,0.5c-0.5,0-0.9-0.1-1.3-0.2c-0.4-0.2-0.7-0.4-0.9-0.7
			c-0.2-0.3-0.4-0.6-0.6-1c-0.1-0.4-0.2-0.8-0.2-1.3c0-0.5,0.1-0.9,0.2-1.3s0.3-0.7,0.6-1c0.3-0.3,0.6-0.5,0.9-0.7
			c0.4-0.2,0.7-0.2,1.2-0.2c0.6,0,1,0.1,1.4,0.3c0.4,0.2,0.7,0.5,0.9,0.9c0.2,0.4,0.4,0.7,0.5,1.2c0.1,0.4,0.1,0.8,0.1,1.2h-4.6
			c0,0.3,0,0.5,0.1,0.8c0.1,0.2,0.2,0.5,0.3,0.6c0.2,0.2,0.4,0.3,0.6,0.5s0.5,0.2,0.9,0.2c0.4,0,0.8-0.1,1.1-0.3
			c0.3-0.2,0.5-0.5,0.5-0.9h1C155.5,49.7,155.2,50.3,154.7,50.6z M154.5,46.6c-0.1-0.2-0.2-0.4-0.4-0.6c-0.2-0.2-0.3-0.3-0.6-0.4
			c-0.2-0.1-0.4-0.1-0.7-0.1c-0.3,0-0.5,0-0.7,0.1c-0.2,0.1-0.4,0.2-0.5,0.4s-0.3,0.3-0.4,0.6s-0.1,0.4-0.2,0.7h3.6
			C154.6,47.1,154.6,46.8,154.5,46.6z"/>
		<path fill="#565656" d="M157.7,44.8v1.3h0c0.2-0.5,0.6-0.9,0.9-1.1c0.4-0.2,0.8-0.4,1.4-0.3v1.1c-0.4,0-0.8,0.1-1,0.2
			c-0.3,0.1-0.5,0.3-0.7,0.5c-0.2,0.2-0.3,0.5-0.4,0.8c-0.1,0.3-0.1,0.7-0.1,1.1V51h-1v-6.2H157.7z"/>
		<path fill="#565656" d="M160.8,43.7v-1.2h1v1.2H160.8z M161.9,44.8V51h-1v-6.2H161.9z"/>
		<path fill="#565656" d="M163.3,46.6c0.1-0.4,0.3-0.7,0.6-1c0.3-0.3,0.6-0.5,0.9-0.7s0.8-0.3,1.3-0.3c0.5,0,0.9,0.1,1.3,0.3
			c0.4,0.2,0.7,0.4,0.9,0.7c0.3,0.3,0.4,0.6,0.6,1c0.1,0.4,0.2,0.8,0.2,1.3s-0.1,0.9-0.2,1.3c-0.1,0.4-0.3,0.7-0.6,1
			c-0.3,0.3-0.6,0.5-0.9,0.7c-0.4,0.2-0.8,0.2-1.3,0.2c-0.5,0-0.9-0.1-1.3-0.2s-0.7-0.4-0.9-0.7c-0.3-0.3-0.4-0.6-0.6-1
			c-0.1-0.4-0.2-0.8-0.2-1.3S163.2,47,163.3,46.6z M164.3,48.9c0.1,0.3,0.2,0.5,0.4,0.7c0.2,0.2,0.4,0.3,0.6,0.5
			c0.2,0.1,0.5,0.2,0.8,0.2c0.3,0,0.5-0.1,0.8-0.2c0.2-0.1,0.4-0.3,0.6-0.5c0.2-0.2,0.3-0.4,0.4-0.7s0.2-0.6,0.2-1s-0.1-0.7-0.2-1
			s-0.2-0.5-0.4-0.7s-0.4-0.4-0.6-0.5c-0.2-0.1-0.5-0.2-0.8-0.2c-0.3,0-0.5,0.1-0.8,0.2c-0.2,0.1-0.4,0.3-0.6,0.5s-0.3,0.4-0.4,0.7
			s-0.1,0.6-0.1,1S164.2,48.6,164.3,48.9z"/>
		<path fill="#565656" d="M174.5,51v-1h0c-0.2,0.4-0.5,0.7-0.8,0.8c-0.3,0.2-0.7,0.3-1.2,0.3c-0.4,0-0.7-0.1-1-0.2
			c-0.3-0.1-0.5-0.3-0.7-0.5c-0.2-0.2-0.3-0.4-0.4-0.7s-0.1-0.6-0.1-0.9v-4.1h1V49c0,0.4,0.1,0.7,0.3,0.9c0.2,0.2,0.5,0.3,0.9,0.3
			c0.3,0,0.6,0,0.8-0.1c0.2-0.1,0.4-0.2,0.6-0.4s0.3-0.4,0.3-0.6s0.1-0.5,0.1-0.8v-3.5h1V51H174.5z"/>
		<path fill="#565656" d="M177.8,49.6c0.1,0.2,0.2,0.3,0.4,0.4s0.3,0.2,0.5,0.2c0.2,0,0.4,0.1,0.6,0.1c0.2,0,0.3,0,0.5,0
			c0.2,0,0.3-0.1,0.5-0.1c0.1-0.1,0.3-0.2,0.4-0.3s0.1-0.3,0.1-0.5c0-0.3-0.1-0.5-0.3-0.6c-0.2-0.1-0.4-0.2-0.8-0.3
			c-0.3-0.1-0.6-0.2-1-0.2c-0.4-0.1-0.7-0.2-1-0.3c-0.3-0.1-0.6-0.3-0.8-0.5c-0.2-0.2-0.3-0.5-0.3-0.9c0-0.3,0.1-0.6,0.2-0.8
			c0.1-0.2,0.3-0.4,0.5-0.5c0.2-0.1,0.5-0.2,0.7-0.3c0.3-0.1,0.5-0.1,0.8-0.1c0.4,0,0.7,0,1,0.1c0.3,0.1,0.6,0.2,0.8,0.3
			c0.2,0.1,0.4,0.3,0.5,0.6s0.2,0.6,0.2,0.9h-1c0-0.2-0.1-0.4-0.2-0.5c-0.1-0.1-0.2-0.2-0.3-0.3c-0.1-0.1-0.3-0.1-0.4-0.2
			c-0.2,0-0.3-0.1-0.5-0.1c-0.2,0-0.3,0-0.5,0c-0.2,0-0.3,0.1-0.4,0.1c-0.1,0.1-0.2,0.1-0.3,0.2c-0.1,0.1-0.1,0.2-0.1,0.4
			c0,0.2,0.1,0.3,0.2,0.4c0.1,0.1,0.3,0.2,0.5,0.3c0.2,0.1,0.4,0.1,0.6,0.2c0.2,0.1,0.5,0.1,0.7,0.2c0.3,0.1,0.5,0.1,0.8,0.2
			s0.5,0.2,0.6,0.3s0.3,0.3,0.5,0.5s0.2,0.4,0.2,0.7c0,0.4-0.1,0.7-0.2,0.9s-0.4,0.4-0.6,0.6c-0.3,0.2-0.5,0.3-0.9,0.3
			c-0.3,0.1-0.6,0.1-0.9,0.1c-0.3,0-0.7,0-1-0.1c-0.3-0.1-0.6-0.2-0.8-0.4c-0.2-0.2-0.4-0.4-0.6-0.6c-0.1-0.3-0.2-0.6-0.2-1h1
			C177.6,49.3,177.7,49.5,177.8,49.6z"/>
		<path fill="#565656" d="M187.4,44.8v0.8h0c0.2-0.3,0.4-0.6,0.8-0.8c0.4-0.2,0.8-0.2,1.2-0.2c0.5,0,0.9,0.1,1.3,0.3
			s0.7,0.4,0.9,0.7c0.2,0.3,0.4,0.6,0.5,1c0.1,0.4,0.2,0.8,0.2,1.2c0,0.4-0.1,0.9-0.2,1.2c-0.1,0.4-0.3,0.7-0.5,1
			c-0.2,0.3-0.5,0.5-0.9,0.7s-0.8,0.3-1.2,0.3c-0.2,0-0.3,0-0.5,0s-0.4-0.1-0.6-0.2c-0.2-0.1-0.4-0.2-0.5-0.3s-0.3-0.3-0.4-0.5h0
			v3.2h-1v-8.6H187.4z M191.1,47c-0.1-0.3-0.2-0.5-0.3-0.7c-0.2-0.2-0.4-0.4-0.6-0.5s-0.5-0.2-0.9-0.2c-0.3,0-0.6,0.1-0.9,0.2
			c-0.2,0.1-0.4,0.3-0.6,0.5c-0.2,0.2-0.3,0.5-0.3,0.8c-0.1,0.3-0.1,0.6-0.1,0.9c0,0.3,0,0.6,0.1,0.9c0.1,0.3,0.2,0.5,0.3,0.8
			c0.2,0.2,0.4,0.4,0.6,0.5s0.5,0.2,0.9,0.2s0.6-0.1,0.9-0.2s0.4-0.3,0.6-0.5c0.1-0.2,0.2-0.5,0.3-0.8c0.1-0.3,0.1-0.6,0.1-0.9
			C191.2,47.6,191.1,47.3,191.1,47z"/>
		<path fill="#565656" d="M194.4,44.8v1.3h0c0.2-0.5,0.6-0.9,0.9-1.1c0.4-0.2,0.8-0.4,1.4-0.3v1.1c-0.4,0-0.8,0.1-1,0.2
			c-0.3,0.1-0.5,0.3-0.7,0.5c-0.2,0.2-0.3,0.5-0.4,0.8c-0.1,0.3-0.1,0.7-0.1,1.1V51h-1v-6.2H194.4z"/>
		<path fill="#565656" d="M197.1,46.6c0.1-0.4,0.3-0.7,0.6-1s0.6-0.5,0.9-0.7c0.4-0.2,0.8-0.3,1.3-0.3c0.5,0,0.9,0.1,1.3,0.3
			s0.7,0.4,0.9,0.7c0.3,0.3,0.4,0.6,0.6,1c0.1,0.4,0.2,0.8,0.2,1.3s-0.1,0.9-0.2,1.3c-0.1,0.4-0.3,0.7-0.6,1
			c-0.3,0.3-0.6,0.5-0.9,0.7s-0.8,0.2-1.3,0.2c-0.5,0-0.9-0.1-1.3-0.2c-0.4-0.2-0.7-0.4-0.9-0.7s-0.4-0.6-0.6-1
			c-0.1-0.4-0.2-0.8-0.2-1.3S197,47,197.1,46.6z M198.1,48.9c0.1,0.3,0.2,0.5,0.4,0.7c0.2,0.2,0.4,0.3,0.6,0.5
			c0.2,0.1,0.5,0.2,0.8,0.2s0.5-0.1,0.8-0.2c0.2-0.1,0.4-0.3,0.6-0.5c0.2-0.2,0.3-0.4,0.4-0.7c0.1-0.3,0.2-0.6,0.2-1s0-0.7-0.2-1
			c-0.1-0.3-0.2-0.5-0.4-0.7s-0.4-0.4-0.6-0.5c-0.2-0.1-0.5-0.2-0.8-0.2s-0.5,0.1-0.8,0.2c-0.2,0.1-0.4,0.3-0.6,0.5
			c-0.2,0.2-0.3,0.4-0.4,0.7c-0.1,0.3-0.1,0.6-0.1,1S198,48.6,198.1,48.9z"/>
		<path fill="#565656" d="M205.2,42.4v3.2h0c0.2-0.3,0.4-0.6,0.8-0.8c0.4-0.2,0.8-0.2,1.2-0.2c0.5,0,0.9,0.1,1.3,0.3
			c0.4,0.2,0.7,0.4,0.9,0.7s0.4,0.6,0.5,1c0.1,0.4,0.2,0.8,0.2,1.2c0,0.4-0.1,0.9-0.2,1.2c-0.1,0.4-0.3,0.7-0.5,1s-0.5,0.5-0.9,0.7
			c-0.4,0.2-0.8,0.3-1.2,0.3c-0.2,0-0.3,0-0.5,0c-0.2,0-0.4-0.1-0.6-0.2c-0.2-0.1-0.4-0.2-0.5-0.3c-0.2-0.1-0.3-0.3-0.4-0.5h0V51h-1
			v-8.6H205.2z M208.8,47c-0.1-0.3-0.2-0.5-0.3-0.7s-0.4-0.4-0.6-0.5s-0.5-0.2-0.9-0.2c-0.3,0-0.6,0.1-0.9,0.2
			c-0.2,0.1-0.4,0.3-0.6,0.5s-0.3,0.5-0.3,0.8s-0.1,0.6-0.1,0.9c0,0.3,0,0.6,0.1,0.9c0.1,0.3,0.2,0.5,0.3,0.8
			c0.2,0.2,0.4,0.4,0.6,0.5c0.2,0.1,0.5,0.2,0.9,0.2s0.6-0.1,0.9-0.2c0.2-0.1,0.4-0.3,0.6-0.5s0.2-0.5,0.3-0.8
			c0.1-0.3,0.1-0.6,0.1-0.9C209,47.6,208.9,47.3,208.8,47z"/>
		<path fill="#565656" d="M212.3,42.4V51h-1v-8.6H212.3z"/>
		<path fill="#565656" d="M218.3,50.6c-0.5,0.4-1,0.5-1.8,0.5c-0.5,0-0.9-0.1-1.3-0.2c-0.4-0.2-0.7-0.4-0.9-0.7s-0.4-0.6-0.6-1
			c-0.1-0.4-0.2-0.8-0.2-1.3c0-0.5,0.1-0.9,0.2-1.3c0.1-0.4,0.3-0.7,0.6-1c0.3-0.3,0.6-0.5,0.9-0.7c0.4-0.2,0.7-0.2,1.2-0.2
			c0.6,0,1,0.1,1.4,0.3c0.4,0.2,0.7,0.5,0.9,0.9c0.2,0.4,0.4,0.7,0.5,1.2c0.1,0.4,0.1,0.8,0.1,1.2h-4.6c0,0.3,0,0.5,0.1,0.8
			c0.1,0.2,0.2,0.5,0.3,0.6c0.2,0.2,0.4,0.3,0.6,0.5s0.5,0.2,0.9,0.2c0.4,0,0.8-0.1,1.1-0.3s0.5-0.5,0.5-0.9h1
			C219.1,49.7,218.8,50.3,218.3,50.6z M218,46.6c-0.1-0.2-0.2-0.4-0.4-0.6c-0.2-0.2-0.3-0.3-0.6-0.4c-0.2-0.1-0.4-0.1-0.7-0.1
			c-0.3,0-0.5,0-0.7,0.1c-0.2,0.1-0.4,0.2-0.5,0.4c-0.2,0.2-0.3,0.3-0.4,0.6s-0.1,0.4-0.2,0.7h3.6C218.2,47.1,218.1,46.8,218,46.6z"
			/>
		<path fill="#565656" d="M221.3,44.8v0.9h0c0.5-0.7,1.1-1.1,2-1.1c0.4,0,0.7,0.1,1,0.2c0.3,0.2,0.5,0.4,0.7,0.8
			c0.2-0.3,0.5-0.6,0.8-0.8c0.3-0.2,0.7-0.3,1.1-0.3c0.3,0,0.6,0,0.8,0.1c0.3,0.1,0.5,0.2,0.6,0.3c0.2,0.1,0.3,0.3,0.4,0.6
			c0.1,0.2,0.2,0.5,0.2,0.8V51h-1v-4.1c0-0.2,0-0.4,0-0.5c0-0.2-0.1-0.3-0.2-0.4s-0.2-0.2-0.4-0.3c-0.2-0.1-0.4-0.1-0.6-0.1
			c-0.5,0-0.9,0.1-1.2,0.4c-0.3,0.3-0.4,0.7-0.4,1.2V51h-1v-4.1c0-0.2,0-0.4-0.1-0.6c0-0.2-0.1-0.3-0.2-0.4s-0.2-0.2-0.4-0.3
			c-0.1-0.1-0.3-0.1-0.6-0.1c-0.3,0-0.6,0.1-0.8,0.2c-0.2,0.1-0.4,0.3-0.5,0.4s-0.2,0.3-0.3,0.5c-0.1,0.2-0.1,0.3-0.1,0.5V51h-1
			v-6.2H221.3z"/>
		<path fill="#565656" d="M230.6,44c0.1-0.4,0.3-0.7,0.5-0.9c0.2-0.3,0.5-0.5,0.9-0.6c0.3-0.1,0.7-0.2,1.1-0.2c0.4,0,0.7,0.1,1,0.2
			c0.3,0.1,0.6,0.3,0.8,0.5c0.2,0.2,0.4,0.5,0.5,0.8c0.1,0.3,0.2,0.6,0.2,1c0,0.2,0,0.5-0.1,0.7s-0.1,0.4-0.2,0.5s-0.2,0.3-0.3,0.4
			c-0.1,0.1-0.2,0.3-0.4,0.4c-0.1,0.1-0.3,0.2-0.4,0.4s-0.2,0.3-0.3,0.4c-0.1,0.1-0.2,0.3-0.2,0.5c-0.1,0.2-0.1,0.4-0.1,0.6v0.5h-1
			v-0.6c0-0.3,0.1-0.6,0.2-0.9c0.1-0.2,0.2-0.4,0.4-0.6c0.2-0.2,0.3-0.4,0.5-0.5c0.2-0.2,0.3-0.3,0.5-0.5s0.3-0.4,0.4-0.6
			s0.1-0.5,0.1-0.8c0-0.4-0.2-0.8-0.4-1s-0.6-0.4-1-0.4c-0.3,0-0.5,0.1-0.7,0.2c-0.2,0.1-0.4,0.2-0.5,0.4s-0.2,0.4-0.3,0.6
			c-0.1,0.2-0.1,0.5-0.1,0.8h-1C230.5,44.7,230.5,44.3,230.6,44z M233.8,49.7V51h-1.3v-1.3H233.8z"/>
	</g>
	<g enable-background="new    ">
		<path fill="#565656" d="M46.9,117.4c-0.6,0.5-1.4,0.8-2.5,0.8c-1.1,0-2-0.3-2.6-0.8c-0.6-0.5-0.9-1.4-0.9-2.5v-5.5H42v5.5
			c0,0.8,0.2,1.3,0.6,1.7c0.4,0.4,1,0.6,1.8,0.6c0.7,0,1.3-0.2,1.7-0.6c0.4-0.4,0.6-1,0.6-1.7v-5.5h1.1v5.5
			C47.8,116,47.5,116.8,46.9,117.4z"/>
		<path fill="#565656" d="M50.4,111.8v1h0c0.4-0.8,1.1-1.1,2-1.1c0.4,0,0.7,0.1,1,0.2c0.3,0.1,0.5,0.3,0.7,0.5
			c0.2,0.2,0.3,0.4,0.4,0.7c0.1,0.3,0.1,0.6,0.1,0.9v4.1h-1v-4.2c0-0.4-0.1-0.7-0.3-0.9c-0.2-0.2-0.5-0.3-0.9-0.3
			c-0.3,0-0.6,0-0.8,0.1c-0.2,0.1-0.4,0.2-0.6,0.4c-0.2,0.2-0.3,0.4-0.3,0.6c-0.1,0.2-0.1,0.5-0.1,0.8v3.5h-1v-6.2H50.4z"/>
		<path fill="#565656" d="M55.5,112.7v-0.9h1v-0.9c0-0.5,0.1-0.9,0.4-1.1c0.3-0.3,0.7-0.4,1.3-0.4c0.1,0,0.2,0,0.3,0
			c0.1,0,0.2,0,0.3,0.1v0.9c-0.1,0-0.2-0.1-0.3-0.1s-0.2,0-0.3,0c-0.2,0-0.4,0-0.6,0.1c-0.1,0.1-0.2,0.3-0.2,0.6v0.9h1.2v0.9h-1.2
			v5.3h-1v-5.3H55.5z"/>
		<path fill="#565656" d="M65.2,118c-0.2,0.1-0.4,0.2-0.7,0.2c-0.3,0-0.5-0.1-0.6-0.2c-0.2-0.1-0.2-0.4-0.2-0.7
			c-0.3,0.3-0.6,0.6-1,0.7c-0.4,0.1-0.8,0.2-1.2,0.2c-0.3,0-0.5,0-0.8-0.1c-0.3-0.1-0.5-0.2-0.7-0.3c-0.2-0.1-0.3-0.3-0.4-0.5
			c-0.1-0.2-0.2-0.5-0.2-0.8c0-0.4,0.1-0.6,0.2-0.9c0.1-0.2,0.3-0.4,0.5-0.5c0.2-0.1,0.4-0.2,0.7-0.3s0.5-0.1,0.8-0.2
			c0.3-0.1,0.5-0.1,0.8-0.1s0.5-0.1,0.7-0.1s0.3-0.1,0.5-0.2c0.1-0.1,0.2-0.2,0.2-0.4c0-0.2,0-0.4-0.1-0.5s-0.2-0.2-0.3-0.3
			c-0.1-0.1-0.3-0.1-0.4-0.1c-0.2,0-0.3,0-0.5,0c-0.4,0-0.8,0.1-1.1,0.2s-0.4,0.5-0.5,0.9h-1c0-0.4,0.1-0.7,0.2-1s0.3-0.5,0.6-0.6
			c0.2-0.2,0.5-0.3,0.8-0.4c0.3-0.1,0.6-0.1,1-0.1c0.3,0,0.6,0,0.8,0.1c0.3,0,0.5,0.1,0.8,0.2c0.2,0.1,0.4,0.3,0.5,0.5
			c0.1,0.2,0.2,0.5,0.2,0.9v3.2c0,0.2,0,0.4,0,0.5c0,0.1,0.1,0.2,0.3,0.2c0.1,0,0.2,0,0.3-0.1V118z M63.5,114.8
			c-0.1,0.1-0.3,0.2-0.5,0.2s-0.4,0.1-0.7,0.1c-0.2,0-0.5,0.1-0.7,0.1s-0.4,0.1-0.6,0.2c-0.2,0.1-0.3,0.2-0.5,0.3
			c-0.1,0.1-0.2,0.4-0.2,0.6c0,0.2,0,0.3,0.1,0.4s0.2,0.2,0.3,0.3c0.1,0.1,0.2,0.1,0.4,0.2c0.1,0,0.3,0,0.5,0c0.3,0,0.6,0,0.9-0.1
			c0.2-0.1,0.4-0.2,0.6-0.3c0.2-0.1,0.3-0.3,0.3-0.5s0.1-0.3,0.1-0.5V114.8z"/>
		<path fill="#565656" d="M67.8,118l-2.3-6.2h1.1l1.7,5.2h0l1.7-5.2h1.1l-2.3,6.2H67.8z"/>
		<path fill="#565656" d="M72,113.6c0.1-0.4,0.3-0.7,0.6-1c0.3-0.3,0.6-0.5,0.9-0.7s0.8-0.3,1.3-0.3c0.5,0,0.9,0.1,1.3,0.3
			s0.7,0.4,0.9,0.7c0.3,0.3,0.4,0.6,0.6,1c0.1,0.4,0.2,0.8,0.2,1.3s-0.1,0.9-0.2,1.3c-0.1,0.4-0.3,0.7-0.6,1
			c-0.3,0.3-0.6,0.5-0.9,0.7s-0.8,0.2-1.3,0.2c-0.5,0-0.9-0.1-1.3-0.2s-0.7-0.4-0.9-0.7c-0.3-0.3-0.4-0.6-0.6-1
			c-0.1-0.4-0.2-0.8-0.2-1.3S71.8,114,72,113.6z M73,115.9c0.1,0.3,0.2,0.5,0.4,0.7c0.2,0.2,0.4,0.3,0.6,0.5
			c0.2,0.1,0.5,0.2,0.8,0.2c0.3,0,0.5-0.1,0.8-0.2c0.2-0.1,0.4-0.3,0.6-0.5c0.2-0.2,0.3-0.4,0.4-0.7s0.1-0.6,0.1-1s0-0.7-0.1-1
			s-0.2-0.5-0.4-0.7c-0.2-0.2-0.4-0.4-0.6-0.5c-0.2-0.1-0.5-0.2-0.8-0.2c-0.3,0-0.5,0.1-0.8,0.2c-0.2,0.1-0.4,0.3-0.6,0.5
			c-0.2,0.2-0.3,0.4-0.4,0.7c-0.1,0.3-0.1,0.6-0.1,1S72.9,115.6,73,115.9z"/>
		<path fill="#565656" d="M83.2,118v-1h0c-0.2,0.4-0.5,0.7-0.8,0.8c-0.3,0.2-0.7,0.3-1.2,0.3c-0.4,0-0.7-0.1-1-0.2
			c-0.3-0.1-0.5-0.3-0.7-0.5c-0.2-0.2-0.3-0.4-0.4-0.7c-0.1-0.3-0.1-0.6-0.1-0.9v-4.1h1v4.2c0,0.4,0.1,0.7,0.3,0.9
			c0.2,0.2,0.5,0.3,0.9,0.3c0.3,0,0.6,0,0.8-0.1c0.2-0.1,0.4-0.2,0.6-0.4c0.2-0.2,0.3-0.4,0.3-0.6c0.1-0.2,0.1-0.5,0.1-0.8v-3.5h1
			v6.2H83.2z"/>
		<path fill="#565656" d="M86.6,111.8v1.3h0c0.2-0.5,0.6-0.9,0.9-1.1c0.4-0.2,0.8-0.4,1.4-0.3v1.1c-0.4,0-0.8,0.1-1,0.2
			c-0.3,0.1-0.5,0.3-0.7,0.5c-0.2,0.2-0.3,0.5-0.4,0.8c-0.1,0.3-0.1,0.7-0.1,1.1v2.8h-1v-6.2H86.6z"/>
		<path fill="#565656" d="M95.2,118c-0.2,0.1-0.4,0.2-0.7,0.2c-0.3,0-0.5-0.1-0.6-0.2c-0.2-0.1-0.2-0.4-0.2-0.7
			c-0.3,0.3-0.6,0.6-1,0.7c-0.4,0.1-0.8,0.2-1.2,0.2c-0.3,0-0.5,0-0.8-0.1c-0.3-0.1-0.5-0.2-0.7-0.3c-0.2-0.1-0.3-0.3-0.4-0.5
			c-0.1-0.2-0.2-0.5-0.2-0.8c0-0.4,0.1-0.6,0.2-0.9c0.1-0.2,0.3-0.4,0.5-0.5c0.2-0.1,0.4-0.2,0.7-0.3s0.5-0.1,0.8-0.2
			c0.3-0.1,0.5-0.1,0.8-0.1s0.5-0.1,0.7-0.1s0.3-0.1,0.5-0.2c0.1-0.1,0.2-0.2,0.2-0.4c0-0.2,0-0.4-0.1-0.5s-0.2-0.2-0.3-0.3
			c-0.1-0.1-0.3-0.1-0.4-0.1c-0.2,0-0.3,0-0.5,0c-0.4,0-0.8,0.1-1.1,0.2s-0.4,0.5-0.5,0.9h-1c0-0.4,0.1-0.7,0.2-1s0.3-0.5,0.6-0.6
			c0.2-0.2,0.5-0.3,0.8-0.4c0.3-0.1,0.6-0.1,1-0.1c0.3,0,0.6,0,0.8,0.1c0.3,0,0.5,0.1,0.8,0.2c0.2,0.1,0.4,0.3,0.5,0.5
			c0.1,0.2,0.2,0.5,0.2,0.9v3.2c0,0.2,0,0.4,0,0.5c0,0.1,0.1,0.2,0.3,0.2c0.1,0,0.2,0,0.3-0.1V118z M93.5,114.8
			c-0.1,0.1-0.3,0.2-0.5,0.2s-0.4,0.1-0.7,0.1c-0.2,0-0.5,0.1-0.7,0.1s-0.4,0.1-0.6,0.2c-0.2,0.1-0.3,0.2-0.5,0.3
			c-0.1,0.1-0.2,0.4-0.2,0.6c0,0.2,0,0.3,0.1,0.4s0.2,0.2,0.3,0.3c0.1,0.1,0.2,0.1,0.4,0.2c0.1,0,0.3,0,0.5,0c0.3,0,0.6,0,0.9-0.1
			c0.2-0.1,0.4-0.2,0.6-0.3c0.2-0.1,0.3-0.3,0.3-0.5s0.1-0.3,0.1-0.5V114.8z"/>
		<path fill="#565656" d="M97.2,109.4v3.2h0c0.2-0.3,0.4-0.6,0.8-0.8c0.4-0.2,0.8-0.2,1.2-0.2c0.5,0,0.9,0.1,1.3,0.3
			s0.7,0.4,0.9,0.7c0.2,0.3,0.4,0.6,0.5,1c0.1,0.4,0.2,0.8,0.2,1.2c0,0.4-0.1,0.9-0.2,1.2c-0.1,0.4-0.3,0.7-0.5,1s-0.5,0.5-0.9,0.7
			c-0.4,0.2-0.8,0.3-1.2,0.3c-0.2,0-0.3,0-0.5,0s-0.4-0.1-0.6-0.2c-0.2-0.1-0.4-0.2-0.5-0.3c-0.2-0.1-0.3-0.3-0.4-0.5h0v0.8h-1v-8.6
			H97.2z M100.8,114c-0.1-0.3-0.2-0.5-0.3-0.7c-0.2-0.2-0.4-0.4-0.6-0.5s-0.5-0.2-0.9-0.2c-0.3,0-0.6,0.1-0.9,0.2
			c-0.2,0.1-0.4,0.3-0.6,0.5c-0.2,0.2-0.3,0.5-0.3,0.8c-0.1,0.3-0.1,0.6-0.1,0.9c0,0.3,0,0.6,0.1,0.9c0.1,0.3,0.2,0.5,0.3,0.8
			c0.2,0.2,0.4,0.4,0.6,0.5c0.2,0.1,0.5,0.2,0.9,0.2c0.4,0,0.6-0.1,0.9-0.2s0.4-0.3,0.6-0.5s0.2-0.5,0.3-0.8
			c0.1-0.3,0.1-0.6,0.1-0.9C100.9,114.6,100.9,114.3,100.8,114z"/>
		<path fill="#565656" d="M104.3,109.4v8.6h-1v-8.6H104.3z"/>
		<path fill="#565656" d="M110.3,117.6c-0.5,0.4-1,0.5-1.8,0.5c-0.5,0-0.9-0.1-1.3-0.2c-0.4-0.2-0.7-0.4-0.9-0.7
			c-0.2-0.3-0.4-0.6-0.6-1c-0.1-0.4-0.2-0.8-0.2-1.3c0-0.5,0.1-0.9,0.2-1.3s0.3-0.7,0.6-1c0.3-0.3,0.6-0.5,0.9-0.7
			c0.4-0.2,0.7-0.2,1.2-0.2c0.6,0,1,0.1,1.4,0.3c0.4,0.2,0.7,0.5,0.9,0.9c0.2,0.4,0.4,0.7,0.5,1.2c0.1,0.4,0.1,0.8,0.1,1.2h-4.6
			c0,0.3,0,0.5,0.1,0.8c0.1,0.2,0.2,0.5,0.3,0.6c0.2,0.2,0.4,0.3,0.6,0.5s0.5,0.2,0.9,0.2c0.4,0,0.8-0.1,1.1-0.3
			c0.3-0.2,0.5-0.5,0.5-0.9h1C111,116.7,110.7,117.3,110.3,117.6z M110,113.6c-0.1-0.2-0.2-0.4-0.4-0.6c-0.2-0.2-0.3-0.3-0.6-0.4
			c-0.2-0.1-0.4-0.1-0.7-0.1c-0.3,0-0.5,0-0.7,0.1c-0.2,0.1-0.4,0.2-0.5,0.4s-0.3,0.3-0.4,0.6s-0.1,0.4-0.2,0.7h3.6
			C110.2,114.1,110.1,113.8,110,113.6z"/>
		<path fill="#565656" d="M118.8,109.4c1.3,0,2.3,0.3,3,1c0.7,0.7,1.1,1.7,1.1,3.1c0,0.7-0.1,1.4-0.2,1.9c-0.2,0.6-0.4,1-0.7,1.4
			s-0.8,0.7-1.3,0.9s-1.1,0.3-1.8,0.3h-2.9v-8.6H118.8z M118.9,117c0.1,0,0.3,0,0.5,0c0.2,0,0.4-0.1,0.6-0.1s0.4-0.2,0.6-0.3
			c0.2-0.1,0.4-0.3,0.6-0.6c0.2-0.2,0.3-0.6,0.4-0.9c0.1-0.4,0.2-0.8,0.2-1.3c0-0.5,0-1-0.1-1.4c-0.1-0.4-0.3-0.7-0.5-1
			c-0.2-0.3-0.5-0.5-0.9-0.6c-0.4-0.1-0.8-0.2-1.3-0.2H117v6.6H118.9z"/>
		<path fill="#565656" d="M128.5,117.6c-0.5,0.4-1,0.5-1.8,0.5c-0.5,0-0.9-0.1-1.3-0.2c-0.4-0.2-0.7-0.4-0.9-0.7s-0.4-0.6-0.6-1
			c-0.1-0.4-0.2-0.8-0.2-1.3c0-0.5,0.1-0.9,0.2-1.3c0.1-0.4,0.3-0.7,0.6-1c0.3-0.3,0.6-0.5,0.9-0.7c0.4-0.2,0.7-0.2,1.2-0.2
			c0.6,0,1,0.1,1.4,0.3c0.4,0.2,0.7,0.5,0.9,0.9c0.2,0.4,0.4,0.7,0.5,1.2c0.1,0.4,0.1,0.8,0.1,1.2h-4.6c0,0.3,0,0.5,0.1,0.8
			c0.1,0.2,0.2,0.5,0.3,0.6c0.2,0.2,0.4,0.3,0.6,0.5s0.5,0.2,0.9,0.2c0.4,0,0.8-0.1,1.1-0.3s0.5-0.5,0.5-0.9h1
			C129.3,116.7,129,117.3,128.5,117.6z M128.3,113.6c-0.1-0.2-0.2-0.4-0.4-0.6c-0.2-0.2-0.3-0.3-0.6-0.4c-0.2-0.1-0.4-0.1-0.7-0.1
			c-0.3,0-0.5,0-0.7,0.1c-0.2,0.1-0.4,0.2-0.5,0.4c-0.2,0.2-0.3,0.3-0.4,0.6s-0.1,0.4-0.2,0.7h3.6
			C128.4,114.1,128.3,113.8,128.3,113.6z"/>
		<path fill="#565656" d="M131.5,111.8v1h0c0.4-0.8,1.1-1.1,2-1.1c0.4,0,0.7,0.1,1,0.2c0.3,0.1,0.5,0.3,0.7,0.5s0.3,0.4,0.4,0.7
			s0.1,0.6,0.1,0.9v4.1h-1v-4.2c0-0.4-0.1-0.7-0.3-0.9c-0.2-0.2-0.5-0.3-0.9-0.3c-0.3,0-0.6,0-0.8,0.1c-0.2,0.1-0.4,0.2-0.6,0.4
			c-0.2,0.2-0.3,0.4-0.3,0.6c-0.1,0.2-0.1,0.5-0.1,0.8v3.5h-1v-6.2H131.5z"/>
		<path fill="#565656" d="M139.9,111.8v0.9h-1.2v3.9c0,0.1,0,0.2,0,0.3c0,0.1,0.1,0.1,0.1,0.2c0.1,0,0.1,0.1,0.2,0.1s0.2,0,0.4,0
			h0.5v0.9h-0.8c-0.3,0-0.5,0-0.7-0.1c-0.2,0-0.3-0.1-0.5-0.2c-0.1-0.1-0.2-0.2-0.3-0.4c-0.1-0.2-0.1-0.4-0.1-0.7v-3.9h-1.1v-0.9
			h1.1v-1.9h1v1.9H139.9z"/>
		<path fill="#565656" d="M146.5,118c-0.2,0.1-0.4,0.2-0.7,0.2c-0.3,0-0.5-0.1-0.6-0.2c-0.2-0.1-0.2-0.4-0.2-0.7
			c-0.3,0.3-0.6,0.6-1,0.7c-0.4,0.1-0.8,0.2-1.2,0.2c-0.3,0-0.5,0-0.8-0.1c-0.3-0.1-0.5-0.2-0.7-0.3c-0.2-0.1-0.3-0.3-0.4-0.5
			c-0.1-0.2-0.2-0.5-0.2-0.8c0-0.4,0.1-0.6,0.2-0.9c0.1-0.2,0.3-0.4,0.5-0.5c0.2-0.1,0.4-0.2,0.7-0.3s0.5-0.1,0.8-0.2
			c0.3-0.1,0.5-0.1,0.8-0.1s0.5-0.1,0.7-0.1s0.3-0.1,0.5-0.2c0.1-0.1,0.2-0.2,0.2-0.4c0-0.2,0-0.4-0.1-0.5s-0.2-0.2-0.3-0.3
			c-0.1-0.1-0.3-0.1-0.4-0.1c-0.2,0-0.3,0-0.5,0c-0.4,0-0.8,0.1-1.1,0.2s-0.4,0.5-0.5,0.9h-1c0-0.4,0.1-0.7,0.2-1s0.3-0.5,0.6-0.6
			s0.5-0.3,0.8-0.4c0.3-0.1,0.6-0.1,1-0.1c0.3,0,0.6,0,0.8,0.1s0.5,0.1,0.8,0.2c0.2,0.1,0.4,0.3,0.5,0.5c0.1,0.2,0.2,0.5,0.2,0.9
			v3.2c0,0.2,0,0.4,0,0.5c0,0.1,0.1,0.2,0.3,0.2c0.1,0,0.2,0,0.3-0.1V118z M144.8,114.8c-0.1,0.1-0.3,0.2-0.5,0.2
			c-0.2,0-0.4,0.1-0.7,0.1c-0.2,0-0.5,0.1-0.7,0.1s-0.4,0.1-0.6,0.2c-0.2,0.1-0.3,0.2-0.5,0.3c-0.1,0.1-0.2,0.4-0.2,0.6
			c0,0.2,0,0.3,0.1,0.4c0.1,0.1,0.2,0.2,0.3,0.3c0.1,0.1,0.2,0.1,0.4,0.2c0.1,0,0.3,0,0.5,0c0.3,0,0.6,0,0.9-0.1
			c0.2-0.1,0.4-0.2,0.6-0.3s0.3-0.3,0.3-0.5s0.1-0.3,0.1-0.5V114.8z"/>
		<path fill="#565656" d="M148.5,109.4v8.6h-1v-8.6H148.5z"/>
		<path fill="#565656" d="M157.8,117.6c-0.5,0.4-1,0.5-1.8,0.5c-0.5,0-0.9-0.1-1.3-0.2c-0.4-0.2-0.7-0.4-0.9-0.7
			c-0.2-0.3-0.4-0.6-0.6-1c-0.1-0.4-0.2-0.8-0.2-1.3c0-0.5,0.1-0.9,0.2-1.3c0.1-0.4,0.3-0.7,0.6-1c0.3-0.3,0.6-0.5,0.9-0.7
			c0.4-0.2,0.7-0.2,1.2-0.2c0.6,0,1,0.1,1.4,0.3c0.4,0.2,0.7,0.5,0.9,0.9c0.2,0.4,0.4,0.7,0.5,1.2c0.1,0.4,0.1,0.8,0.1,1.2h-4.6
			c0,0.3,0,0.5,0.1,0.8c0.1,0.2,0.2,0.5,0.3,0.6c0.2,0.2,0.4,0.3,0.6,0.5s0.5,0.2,0.9,0.2c0.4,0,0.8-0.1,1.1-0.3
			c0.3-0.2,0.5-0.5,0.5-0.9h1C158.6,116.7,158.3,117.3,157.8,117.6z M157.6,113.6c-0.1-0.2-0.2-0.4-0.4-0.6
			c-0.2-0.2-0.3-0.3-0.6-0.4c-0.2-0.1-0.4-0.1-0.7-0.1c-0.3,0-0.5,0-0.7,0.1c-0.2,0.1-0.4,0.2-0.5,0.4c-0.2,0.2-0.3,0.3-0.4,0.6
			s-0.1,0.4-0.2,0.7h3.6C157.7,114.1,157.7,113.8,157.6,113.6z"/>
		<path fill="#565656" d="M159.4,111.8h1.3l1.5,2.2l1.5-2.2h1.2l-2.1,2.9l2.4,3.3h-1.3l-1.7-2.6l-1.7,2.6h-1.2l2.3-3.3L159.4,111.8z
			"/>
		<path fill="#565656" d="M167.2,111.8v0.8h0c0.2-0.3,0.4-0.6,0.8-0.8c0.4-0.2,0.8-0.2,1.2-0.2c0.5,0,0.9,0.1,1.3,0.3
			s0.7,0.4,0.9,0.7c0.2,0.3,0.4,0.6,0.5,1c0.1,0.4,0.2,0.8,0.2,1.2c0,0.4-0.1,0.9-0.2,1.2c-0.1,0.4-0.3,0.7-0.5,1
			c-0.2,0.3-0.5,0.5-0.9,0.7s-0.8,0.3-1.2,0.3c-0.2,0-0.3,0-0.5,0s-0.4-0.1-0.6-0.2c-0.2-0.1-0.4-0.2-0.5-0.3s-0.3-0.3-0.4-0.5h0
			v3.2h-1v-8.6H167.2z M170.8,114c-0.1-0.3-0.2-0.5-0.3-0.7c-0.2-0.2-0.4-0.4-0.6-0.5s-0.5-0.2-0.9-0.2c-0.3,0-0.6,0.1-0.9,0.2
			c-0.2,0.1-0.4,0.3-0.6,0.5c-0.2,0.2-0.3,0.5-0.3,0.8c-0.1,0.3-0.1,0.6-0.1,0.9c0,0.3,0,0.6,0.1,0.9c0.1,0.3,0.2,0.5,0.3,0.8
			c0.2,0.2,0.4,0.4,0.6,0.5s0.5,0.2,0.9,0.2s0.6-0.1,0.9-0.2s0.4-0.3,0.6-0.5c0.1-0.2,0.2-0.5,0.3-0.8c0.1-0.3,0.1-0.6,0.1-0.9
			C170.9,114.6,170.9,114.3,170.8,114z"/>
		<path fill="#565656" d="M177.6,117.6c-0.5,0.4-1,0.5-1.8,0.5c-0.5,0-0.9-0.1-1.3-0.2c-0.4-0.2-0.7-0.4-0.9-0.7
			c-0.2-0.3-0.4-0.6-0.6-1c-0.1-0.4-0.2-0.8-0.2-1.3c0-0.5,0.1-0.9,0.2-1.3s0.3-0.7,0.6-1c0.3-0.3,0.6-0.5,0.9-0.7
			c0.4-0.2,0.7-0.2,1.2-0.2c0.6,0,1,0.1,1.4,0.3c0.4,0.2,0.7,0.5,0.9,0.9c0.2,0.4,0.4,0.7,0.5,1.2c0.1,0.4,0.1,0.8,0.1,1.2H174
			c0,0.3,0,0.5,0.1,0.8c0.1,0.2,0.2,0.5,0.3,0.6c0.2,0.2,0.4,0.3,0.6,0.5s0.5,0.2,0.9,0.2c0.4,0,0.8-0.1,1.1-0.3
			c0.3-0.2,0.5-0.5,0.5-0.9h1C178.4,116.7,178.1,117.3,177.6,117.6z M177.4,113.6c-0.1-0.2-0.2-0.4-0.4-0.6
			c-0.2-0.2-0.3-0.3-0.6-0.4c-0.2-0.1-0.4-0.1-0.7-0.1c-0.3,0-0.5,0-0.7,0.1c-0.2,0.1-0.4,0.2-0.5,0.4s-0.3,0.3-0.4,0.6
			s-0.1,0.4-0.2,0.7h3.6C177.5,114.1,177.5,113.8,177.4,113.6z"/>
		<path fill="#565656" d="M180.6,111.8v1.3h0c0.2-0.5,0.6-0.9,0.9-1.1c0.4-0.2,0.8-0.4,1.4-0.3v1.1c-0.4,0-0.8,0.1-1,0.2
			c-0.3,0.1-0.5,0.3-0.7,0.5c-0.2,0.2-0.3,0.5-0.4,0.8c-0.1,0.3-0.1,0.7-0.1,1.1v2.8h-1v-6.2H180.6z"/>
		<path fill="#565656" d="M183.7,110.7v-1.2h1v1.2H183.7z M184.7,111.8v6.2h-1v-6.2H184.7z"/>
		<path fill="#565656" d="M190.7,117.6c-0.5,0.4-1,0.5-1.8,0.5c-0.5,0-0.9-0.1-1.3-0.2c-0.4-0.2-0.7-0.4-0.9-0.7
			c-0.2-0.3-0.4-0.6-0.6-1c-0.1-0.4-0.2-0.8-0.2-1.3c0-0.5,0.1-0.9,0.2-1.3s0.3-0.7,0.6-1c0.3-0.3,0.6-0.5,0.9-0.7
			c0.4-0.2,0.7-0.2,1.2-0.2c0.6,0,1,0.1,1.4,0.3c0.4,0.2,0.7,0.5,0.9,0.9c0.2,0.4,0.4,0.7,0.5,1.2c0.1,0.4,0.1,0.8,0.1,1.2h-4.6
			c0,0.3,0,0.5,0.1,0.8c0.1,0.2,0.2,0.5,0.3,0.6c0.2,0.2,0.4,0.3,0.6,0.5s0.5,0.2,0.9,0.2c0.4,0,0.8-0.1,1.1-0.3
			c0.3-0.2,0.5-0.5,0.5-0.9h1C191.5,116.7,191.2,117.3,190.7,117.6z M190.5,113.6c-0.1-0.2-0.2-0.4-0.4-0.6
			c-0.2-0.2-0.3-0.3-0.6-0.4c-0.2-0.1-0.4-0.1-0.7-0.1c-0.3,0-0.5,0-0.7,0.1c-0.2,0.1-0.4,0.2-0.5,0.4s-0.3,0.3-0.4,0.6
			s-0.1,0.4-0.2,0.7h3.6C190.6,114.1,190.6,113.8,190.5,113.6z"/>
		<path fill="#565656" d="M193.7,111.8v1h0c0.4-0.8,1.1-1.1,2-1.1c0.4,0,0.7,0.1,1,0.2c0.3,0.1,0.5,0.3,0.7,0.5s0.3,0.4,0.4,0.7
			s0.1,0.6,0.1,0.9v4.1h-1v-4.2c0-0.4-0.1-0.7-0.3-0.9c-0.2-0.2-0.5-0.3-0.9-0.3c-0.3,0-0.6,0-0.8,0.1c-0.2,0.1-0.4,0.2-0.6,0.4
			c-0.2,0.2-0.3,0.4-0.3,0.6c-0.1,0.2-0.1,0.5-0.1,0.8v3.5h-1v-6.2H193.7z"/>
		<path fill="#565656" d="M203.1,112.9c-0.3-0.2-0.6-0.3-1-0.3c-0.4,0-0.7,0.1-0.9,0.2c-0.2,0.1-0.4,0.3-0.6,0.5
			c-0.1,0.2-0.3,0.5-0.3,0.8c-0.1,0.3-0.1,0.6-0.1,0.9c0,0.3,0,0.6,0.1,0.8c0.1,0.3,0.2,0.5,0.3,0.7c0.1,0.2,0.3,0.4,0.6,0.5
			c0.2,0.1,0.5,0.2,0.8,0.2c0.5,0,0.9-0.1,1.2-0.4c0.3-0.3,0.5-0.6,0.5-1.1h1c-0.1,0.8-0.4,1.4-0.9,1.8s-1.1,0.6-1.9,0.6
			c-0.5,0-0.9-0.1-1.3-0.2c-0.4-0.2-0.7-0.4-0.9-0.6s-0.4-0.6-0.6-1c-0.1-0.4-0.2-0.8-0.2-1.3c0-0.5,0.1-0.9,0.2-1.3
			c0.1-0.4,0.3-0.8,0.5-1.1c0.2-0.3,0.5-0.5,0.9-0.7s0.8-0.3,1.3-0.3c0.4,0,0.7,0,1,0.1c0.3,0.1,0.6,0.2,0.8,0.4s0.4,0.4,0.6,0.7
			c0.2,0.3,0.2,0.6,0.3,1h-1.1C203.6,113.4,203.4,113.1,203.1,112.9z"/>
		<path fill="#565656" d="M210.3,117.6c-0.5,0.4-1,0.5-1.8,0.5c-0.5,0-0.9-0.1-1.3-0.2c-0.4-0.2-0.7-0.4-0.9-0.7s-0.4-0.6-0.6-1
			c-0.1-0.4-0.2-0.8-0.2-1.3c0-0.5,0.1-0.9,0.2-1.3s0.3-0.7,0.6-1c0.3-0.3,0.6-0.5,0.9-0.7c0.4-0.2,0.7-0.2,1.2-0.2
			c0.6,0,1,0.1,1.4,0.3c0.4,0.2,0.7,0.5,0.9,0.9c0.2,0.4,0.4,0.7,0.5,1.2c0.1,0.4,0.1,0.8,0.1,1.2h-4.6c0,0.3,0,0.5,0.1,0.8
			c0.1,0.2,0.2,0.5,0.3,0.6c0.2,0.2,0.4,0.3,0.6,0.5s0.5,0.2,0.9,0.2c0.4,0,0.8-0.1,1.1-0.3c0.3-0.2,0.5-0.5,0.5-0.9h1
			C211,116.7,210.7,117.3,210.3,117.6z M210,113.6c-0.1-0.2-0.2-0.4-0.4-0.6c-0.2-0.2-0.3-0.3-0.6-0.4c-0.2-0.1-0.4-0.1-0.7-0.1
			c-0.3,0-0.5,0-0.7,0.1c-0.2,0.1-0.4,0.2-0.5,0.4s-0.3,0.3-0.4,0.6s-0.1,0.4-0.2,0.7h3.6C210.2,114.1,210.1,113.8,210,113.6z"/>
		<path fill="#565656" d="M213.1,116.6c0.1,0.2,0.2,0.3,0.4,0.4s0.3,0.2,0.5,0.2c0.2,0,0.4,0.1,0.6,0.1c0.2,0,0.3,0,0.5,0
			c0.2,0,0.3-0.1,0.5-0.1c0.1-0.1,0.3-0.2,0.4-0.3s0.1-0.3,0.1-0.5c0-0.3-0.1-0.5-0.3-0.6c-0.2-0.1-0.4-0.2-0.8-0.3
			c-0.3-0.1-0.6-0.2-1-0.2c-0.4-0.1-0.7-0.2-1-0.3c-0.3-0.1-0.6-0.3-0.8-0.5c-0.2-0.2-0.3-0.5-0.3-0.9c0-0.3,0.1-0.6,0.2-0.8
			c0.1-0.2,0.3-0.4,0.5-0.5c0.2-0.1,0.5-0.2,0.7-0.3c0.3-0.1,0.5-0.1,0.8-0.1c0.4,0,0.7,0,1,0.1c0.3,0.1,0.6,0.2,0.8,0.3
			c0.2,0.1,0.4,0.3,0.5,0.6s0.2,0.6,0.2,0.9h-1c0-0.2-0.1-0.4-0.2-0.5c-0.1-0.1-0.2-0.2-0.3-0.3c-0.1-0.1-0.3-0.1-0.4-0.2
			c-0.2,0-0.3-0.1-0.5-0.1c-0.2,0-0.3,0-0.5,0c-0.2,0-0.3,0.1-0.4,0.1c-0.1,0.1-0.2,0.1-0.3,0.2c-0.1,0.1-0.1,0.2-0.1,0.4
			c0,0.2,0.1,0.3,0.2,0.4c0.1,0.1,0.3,0.2,0.5,0.3c0.2,0.1,0.4,0.1,0.6,0.2c0.2,0.1,0.5,0.1,0.7,0.2c0.3,0.1,0.5,0.1,0.8,0.2
			s0.5,0.2,0.6,0.3s0.3,0.3,0.5,0.5s0.2,0.4,0.2,0.7c0,0.4-0.1,0.7-0.2,0.9s-0.4,0.4-0.6,0.6c-0.3,0.2-0.5,0.3-0.9,0.3
			c-0.3,0.1-0.6,0.1-0.9,0.1c-0.3,0-0.7,0-1-0.1c-0.3-0.1-0.6-0.2-0.8-0.4c-0.2-0.2-0.4-0.4-0.6-0.6c-0.1-0.3-0.2-0.6-0.2-1h1
			C213,116.3,213,116.5,213.1,116.6z"/>
		<path fill="#565656" d="M218.4,111c0.1-0.4,0.3-0.7,0.5-0.9c0.2-0.3,0.5-0.5,0.9-0.6c0.3-0.1,0.7-0.2,1.1-0.2c0.4,0,0.7,0.1,1,0.2
			c0.3,0.1,0.6,0.3,0.8,0.5c0.2,0.2,0.4,0.5,0.5,0.8c0.1,0.3,0.2,0.6,0.2,1c0,0.2,0,0.5-0.1,0.7s-0.1,0.4-0.2,0.5
			c-0.1,0.2-0.2,0.3-0.3,0.4c-0.1,0.1-0.2,0.3-0.4,0.4c-0.1,0.1-0.3,0.2-0.4,0.4c-0.1,0.1-0.2,0.3-0.3,0.4c-0.1,0.1-0.2,0.3-0.2,0.5
			c-0.1,0.2-0.1,0.4-0.1,0.6v0.5h-1v-0.6c0-0.3,0.1-0.6,0.2-0.9c0.1-0.2,0.2-0.4,0.4-0.6c0.2-0.2,0.3-0.4,0.5-0.5
			c0.2-0.2,0.3-0.3,0.5-0.5s0.3-0.4,0.4-0.6s0.1-0.5,0.1-0.8c0-0.4-0.2-0.8-0.4-1s-0.6-0.4-1-0.4c-0.3,0-0.5,0.1-0.7,0.2
			c-0.2,0.1-0.4,0.2-0.5,0.4c-0.1,0.2-0.2,0.4-0.3,0.6c-0.1,0.2-0.1,0.5-0.1,0.8h-1C218.2,111.7,218.3,111.3,218.4,111z
			 M221.5,116.7v1.3h-1.3v-1.3H221.5z"/>
	</g>
	<g enable-background="new    ">
		<path fill="#565656" d="M44.5,176.4l3.3,8.6h-1.3l-0.9-2.6h-3.6l-1,2.6h-1.2l3.3-8.6H44.5z M45.3,181.5l-1.4-4h0l-1.5,4H45.3z"/>
		<path fill="#565656" d="M49.6,178.8v0.8h0c0.2-0.3,0.4-0.6,0.8-0.8c0.4-0.2,0.8-0.2,1.2-0.2c0.5,0,0.9,0.1,1.3,0.3
			s0.7,0.4,0.9,0.7c0.2,0.3,0.4,0.6,0.5,1c0.1,0.4,0.2,0.8,0.2,1.2c0,0.4-0.1,0.9-0.2,1.2c-0.1,0.4-0.3,0.7-0.5,1s-0.5,0.5-0.9,0.7
			c-0.4,0.2-0.8,0.3-1.2,0.3c-0.2,0-0.3,0-0.5,0s-0.4-0.1-0.6-0.2c-0.2-0.1-0.4-0.2-0.5-0.3c-0.2-0.1-0.3-0.3-0.4-0.5h0v3.2h-1v-8.6
			H49.6z M53.3,181c-0.1-0.3-0.2-0.5-0.3-0.7c-0.2-0.2-0.4-0.4-0.6-0.5s-0.5-0.2-0.9-0.2c-0.3,0-0.6,0.1-0.9,0.2
			c-0.2,0.1-0.4,0.3-0.6,0.5c-0.2,0.2-0.3,0.5-0.3,0.8c-0.1,0.3-0.1,0.6-0.1,0.9c0,0.3,0,0.6,0.1,0.9c0.1,0.3,0.2,0.5,0.3,0.8
			c0.2,0.2,0.4,0.4,0.6,0.5c0.2,0.1,0.5,0.2,0.9,0.2c0.4,0,0.6-0.1,0.9-0.2s0.4-0.3,0.6-0.5s0.2-0.5,0.3-0.8
			c0.1-0.3,0.1-0.6,0.1-0.9C53.4,181.6,53.3,181.3,53.3,181z"/>
		<path fill="#565656" d="M56.7,178.8v0.8h0c0.2-0.3,0.4-0.6,0.8-0.8c0.4-0.2,0.8-0.2,1.2-0.2c0.5,0,0.9,0.1,1.3,0.3
			s0.7,0.4,0.9,0.7c0.2,0.3,0.4,0.6,0.5,1c0.1,0.4,0.2,0.8,0.2,1.2c0,0.4-0.1,0.9-0.2,1.2c-0.1,0.4-0.3,0.7-0.5,1s-0.5,0.5-0.9,0.7
			c-0.4,0.2-0.8,0.3-1.2,0.3c-0.2,0-0.3,0-0.5,0s-0.4-0.1-0.6-0.2c-0.2-0.1-0.4-0.2-0.5-0.3c-0.2-0.1-0.3-0.3-0.4-0.5h0v3.2h-1v-8.6
			H56.7z M60.4,181c-0.1-0.3-0.2-0.5-0.3-0.7c-0.2-0.2-0.4-0.4-0.6-0.5s-0.5-0.2-0.9-0.2c-0.3,0-0.6,0.1-0.9,0.2
			c-0.2,0.1-0.4,0.3-0.6,0.5c-0.2,0.2-0.3,0.5-0.3,0.8c-0.1,0.3-0.1,0.6-0.1,0.9c0,0.3,0,0.6,0.1,0.9c0.1,0.3,0.2,0.5,0.3,0.8
			c0.2,0.2,0.4,0.4,0.6,0.5c0.2,0.1,0.5,0.2,0.9,0.2c0.4,0,0.6-0.1,0.9-0.2s0.4-0.3,0.6-0.5s0.2-0.5,0.3-0.8
			c0.1-0.3,0.1-0.6,0.1-0.9C60.5,181.6,60.5,181.3,60.4,181z"/>
		<path fill="#565656" d="M63.7,178.8v1.3h0c0.2-0.5,0.6-0.9,0.9-1.1c0.4-0.2,0.8-0.4,1.4-0.3v1.1c-0.4,0-0.8,0.1-1,0.2
			c-0.3,0.1-0.5,0.3-0.7,0.5c-0.2,0.2-0.3,0.5-0.4,0.8c-0.1,0.3-0.1,0.7-0.1,1.1v2.8h-1v-6.2H63.7z"/>
		<path fill="#565656" d="M70.9,184.6c-0.5,0.4-1,0.5-1.8,0.5c-0.5,0-0.9-0.1-1.3-0.2c-0.4-0.2-0.7-0.4-0.9-0.7
			c-0.2-0.3-0.4-0.6-0.6-1c-0.1-0.4-0.2-0.8-0.2-1.3c0-0.5,0.1-0.9,0.2-1.3s0.3-0.7,0.6-1c0.3-0.3,0.6-0.5,0.9-0.7
			c0.4-0.2,0.7-0.2,1.2-0.2c0.6,0,1,0.1,1.4,0.3c0.4,0.2,0.7,0.5,0.9,0.9c0.2,0.4,0.4,0.7,0.5,1.2c0.1,0.4,0.1,0.8,0.1,1.2h-4.6
			c0,0.3,0,0.5,0.1,0.8c0.1,0.2,0.2,0.5,0.3,0.6c0.2,0.2,0.4,0.3,0.6,0.5s0.5,0.2,0.9,0.2c0.4,0,0.8-0.1,1.1-0.3
			c0.3-0.2,0.5-0.5,0.5-0.9h1C71.7,183.7,71.4,184.3,70.9,184.6z M70.7,180.6c-0.1-0.2-0.2-0.4-0.4-0.6c-0.2-0.2-0.3-0.3-0.6-0.4
			c-0.2-0.1-0.4-0.1-0.7-0.1c-0.3,0-0.5,0-0.7,0.1c-0.2,0.1-0.4,0.2-0.5,0.4s-0.3,0.3-0.4,0.6s-0.1,0.4-0.2,0.7h3.6
			C70.8,181.1,70.8,180.8,70.7,180.6z"/>
		<path fill="#565656" d="M74,176.4v3.3h0c0.1-0.2,0.2-0.4,0.3-0.5s0.3-0.2,0.5-0.3c0.2-0.1,0.4-0.1,0.6-0.2c0.2,0,0.4-0.1,0.6-0.1
			c0.4,0,0.7,0.1,1,0.2c0.3,0.1,0.5,0.3,0.7,0.5c0.2,0.2,0.3,0.4,0.4,0.7c0.1,0.3,0.1,0.6,0.1,0.9v4.1h-1v-4.2
			c0-0.4-0.1-0.7-0.3-0.9c-0.2-0.2-0.5-0.3-0.9-0.3c-0.3,0-0.6,0-0.8,0.1c-0.2,0.1-0.4,0.2-0.6,0.4c-0.2,0.2-0.3,0.4-0.3,0.6
			c-0.1,0.2-0.1,0.5-0.1,0.8v3.5h-1v-8.6H74z"/>
		<path fill="#565656" d="M84.1,184.6c-0.5,0.4-1,0.5-1.8,0.5c-0.5,0-0.9-0.1-1.3-0.2c-0.4-0.2-0.7-0.4-0.9-0.7
			c-0.2-0.3-0.4-0.6-0.6-1c-0.1-0.4-0.2-0.8-0.2-1.3c0-0.5,0.1-0.9,0.2-1.3s0.3-0.7,0.6-1c0.3-0.3,0.6-0.5,0.9-0.7
			c0.4-0.2,0.7-0.2,1.2-0.2c0.6,0,1,0.1,1.4,0.3c0.4,0.2,0.7,0.5,0.9,0.9c0.2,0.4,0.4,0.7,0.5,1.2c0.1,0.4,0.1,0.8,0.1,1.2h-4.6
			c0,0.3,0,0.5,0.1,0.8c0.1,0.2,0.2,0.5,0.3,0.6c0.2,0.2,0.4,0.3,0.6,0.5s0.5,0.2,0.9,0.2c0.4,0,0.8-0.1,1.1-0.3
			c0.3-0.2,0.5-0.5,0.5-0.9h1C84.8,183.7,84.5,184.3,84.1,184.6z M83.8,180.6c-0.1-0.2-0.2-0.4-0.4-0.6c-0.2-0.2-0.3-0.3-0.6-0.4
			c-0.2-0.1-0.4-0.1-0.7-0.1c-0.3,0-0.5,0-0.7,0.1c-0.2,0.1-0.4,0.2-0.5,0.4s-0.3,0.3-0.4,0.6s-0.1,0.4-0.2,0.7H84
			C84,181.1,83.9,180.8,83.8,180.6z"/>
		<path fill="#565656" d="M87.1,178.8v1h0c0.4-0.8,1.1-1.1,2-1.1c0.4,0,0.7,0.1,1,0.2c0.3,0.1,0.5,0.3,0.7,0.5
			c0.2,0.2,0.3,0.4,0.4,0.7c0.1,0.3,0.1,0.6,0.1,0.9v4.1h-1v-4.2c0-0.4-0.1-0.7-0.3-0.9c-0.2-0.2-0.5-0.3-0.9-0.3
			c-0.3,0-0.6,0-0.8,0.1c-0.2,0.1-0.4,0.2-0.6,0.4c-0.2,0.2-0.3,0.4-0.3,0.6c-0.1,0.2-0.1,0.5-0.1,0.8v3.5h-1v-6.2H87.1z"/>
		<path fill="#565656" d="M93.6,183.6c0.1,0.2,0.2,0.3,0.4,0.4c0.2,0.1,0.3,0.2,0.5,0.2c0.2,0,0.4,0.1,0.6,0.1c0.2,0,0.3,0,0.5,0
			c0.2,0,0.3-0.1,0.5-0.1c0.1-0.1,0.3-0.2,0.4-0.3s0.1-0.3,0.1-0.5c0-0.3-0.1-0.5-0.3-0.6c-0.2-0.1-0.4-0.2-0.8-0.3
			c-0.3-0.1-0.6-0.2-1-0.2c-0.4-0.1-0.7-0.2-1-0.3c-0.3-0.1-0.6-0.3-0.8-0.5c-0.2-0.2-0.3-0.5-0.3-0.9c0-0.3,0.1-0.6,0.2-0.8
			c0.1-0.2,0.3-0.4,0.5-0.5c0.2-0.1,0.5-0.2,0.7-0.3c0.3-0.1,0.5-0.1,0.8-0.1c0.4,0,0.7,0,1,0.1c0.3,0.1,0.6,0.2,0.8,0.3
			c0.2,0.1,0.4,0.3,0.5,0.6c0.1,0.3,0.2,0.6,0.2,0.9h-1c0-0.2-0.1-0.4-0.2-0.5c-0.1-0.1-0.2-0.2-0.3-0.3c-0.1-0.1-0.3-0.1-0.5-0.2
			c-0.2,0-0.3-0.1-0.5-0.1c-0.2,0-0.3,0-0.5,0c-0.2,0-0.3,0.1-0.4,0.1c-0.1,0.1-0.2,0.1-0.3,0.2c-0.1,0.1-0.1,0.2-0.1,0.4
			c0,0.2,0.1,0.3,0.2,0.4s0.3,0.2,0.5,0.3c0.2,0.1,0.4,0.1,0.6,0.2c0.2,0.1,0.5,0.1,0.7,0.2c0.3,0.1,0.5,0.1,0.8,0.2
			s0.5,0.2,0.6,0.3s0.3,0.3,0.5,0.5c0.1,0.2,0.2,0.4,0.2,0.7c0,0.4-0.1,0.7-0.2,0.9c-0.2,0.2-0.4,0.4-0.6,0.6
			c-0.3,0.2-0.5,0.3-0.9,0.3s-0.6,0.1-0.9,0.1c-0.3,0-0.7,0-1-0.1c-0.3-0.1-0.6-0.2-0.8-0.4c-0.2-0.2-0.4-0.4-0.6-0.6
			c-0.1-0.3-0.2-0.6-0.2-1h1C93.4,183.3,93.5,183.5,93.6,183.6z"/>
		<path fill="#565656" d="M98.8,177.7v-1.2h1v1.2H98.8z M99.9,178.8v6.2h-1v-6.2H99.9z"/>
		<path fill="#565656" d="M103.2,185l-2.3-6.2h1.1l1.7,5.2h0l1.7-5.2h1.1l-2.3,6.2H103.2z"/>
		<path fill="#565656" d="M111.8,184.6c-0.5,0.4-1,0.5-1.8,0.5c-0.5,0-0.9-0.1-1.3-0.2c-0.4-0.2-0.7-0.4-0.9-0.7
			c-0.2-0.3-0.4-0.6-0.6-1c-0.1-0.4-0.2-0.8-0.2-1.3c0-0.5,0.1-0.9,0.2-1.3s0.3-0.7,0.6-1c0.3-0.3,0.6-0.5,0.9-0.7
			c0.4-0.2,0.7-0.2,1.2-0.2c0.6,0,1,0.1,1.4,0.3c0.4,0.2,0.7,0.5,0.9,0.9c0.2,0.4,0.4,0.7,0.5,1.2c0.1,0.4,0.1,0.8,0.1,1.2h-4.6
			c0,0.3,0,0.5,0.1,0.8c0.1,0.2,0.2,0.5,0.3,0.6c0.2,0.2,0.4,0.3,0.6,0.5s0.5,0.2,0.9,0.2c0.4,0,0.8-0.1,1.1-0.3
			c0.3-0.2,0.5-0.5,0.5-0.9h1C112.6,183.7,112.3,184.3,111.8,184.6z M111.6,180.6c-0.1-0.2-0.2-0.4-0.4-0.6
			c-0.2-0.2-0.3-0.3-0.6-0.4c-0.2-0.1-0.4-0.1-0.7-0.1c-0.3,0-0.5,0-0.7,0.1c-0.2,0.1-0.4,0.2-0.5,0.4s-0.3,0.3-0.4,0.6
			s-0.1,0.4-0.2,0.7h3.6C111.7,181.1,111.7,180.8,111.6,180.6z"/>
		<path fill="#565656" d="M122.7,185c-0.2,0.1-0.4,0.2-0.7,0.2c-0.3,0-0.5-0.1-0.6-0.2c-0.2-0.1-0.2-0.4-0.2-0.7
			c-0.3,0.3-0.6,0.6-1,0.7c-0.4,0.1-0.8,0.2-1.2,0.2c-0.3,0-0.5,0-0.8-0.1c-0.3-0.1-0.5-0.2-0.7-0.3c-0.2-0.1-0.3-0.3-0.4-0.5
			c-0.1-0.2-0.2-0.5-0.2-0.8c0-0.4,0.1-0.6,0.2-0.9c0.1-0.2,0.3-0.4,0.5-0.5c0.2-0.1,0.4-0.2,0.7-0.3s0.5-0.1,0.8-0.2
			c0.3-0.1,0.5-0.1,0.8-0.1s0.5-0.1,0.7-0.1s0.3-0.1,0.5-0.2c0.1-0.1,0.2-0.2,0.2-0.4c0-0.2,0-0.4-0.1-0.5s-0.2-0.2-0.3-0.3
			c-0.1-0.1-0.3-0.1-0.4-0.1c-0.2,0-0.3,0-0.5,0c-0.4,0-0.8,0.1-1.1,0.2s-0.4,0.5-0.5,0.9h-1c0-0.4,0.1-0.7,0.2-1s0.3-0.5,0.6-0.6
			c0.2-0.2,0.5-0.3,0.8-0.4c0.3-0.1,0.6-0.1,1-0.1c0.3,0,0.6,0,0.8,0.1c0.3,0,0.5,0.1,0.8,0.2c0.2,0.1,0.4,0.3,0.5,0.5
			c0.1,0.2,0.2,0.5,0.2,0.9v3.2c0,0.2,0,0.4,0,0.5c0,0.1,0.1,0.2,0.3,0.2c0.1,0,0.2,0,0.3-0.1V185z M121.1,181.8
			c-0.1,0.1-0.3,0.2-0.5,0.2s-0.4,0.1-0.7,0.1c-0.2,0-0.5,0.1-0.7,0.1s-0.4,0.1-0.6,0.2c-0.2,0.1-0.3,0.2-0.5,0.3
			c-0.1,0.1-0.2,0.4-0.2,0.6c0,0.2,0,0.3,0.1,0.4s0.2,0.2,0.3,0.3c0.1,0.1,0.2,0.1,0.4,0.2c0.1,0,0.3,0,0.5,0c0.3,0,0.6,0,0.9-0.1
			c0.2-0.1,0.4-0.2,0.6-0.3c0.2-0.1,0.3-0.3,0.3-0.5c0.1-0.2,0.1-0.3,0.1-0.5V181.8z"/>
		<path fill="#565656" d="M124.7,176.4v3.2h0c0.2-0.3,0.4-0.6,0.8-0.8c0.4-0.2,0.8-0.2,1.2-0.2c0.5,0,0.9,0.1,1.3,0.3
			c0.4,0.2,0.7,0.4,0.9,0.7s0.4,0.6,0.5,1c0.1,0.4,0.2,0.8,0.2,1.2c0,0.4-0.1,0.9-0.2,1.2c-0.1,0.4-0.3,0.7-0.5,1s-0.5,0.5-0.9,0.7
			c-0.4,0.2-0.8,0.3-1.2,0.3c-0.2,0-0.3,0-0.5,0c-0.2,0-0.4-0.1-0.6-0.2c-0.2-0.1-0.4-0.2-0.5-0.3c-0.2-0.1-0.3-0.3-0.4-0.5h0v0.8
			h-1v-8.6H124.7z M128.4,181c-0.1-0.3-0.2-0.5-0.3-0.7s-0.4-0.4-0.6-0.5s-0.5-0.2-0.9-0.2c-0.3,0-0.6,0.1-0.9,0.2
			c-0.2,0.1-0.4,0.3-0.6,0.5s-0.3,0.5-0.3,0.8s-0.1,0.6-0.1,0.9c0,0.3,0,0.6,0.1,0.9c0.1,0.3,0.2,0.5,0.3,0.8
			c0.2,0.2,0.4,0.4,0.6,0.5c0.2,0.1,0.5,0.2,0.9,0.2s0.6-0.1,0.9-0.2c0.2-0.1,0.4-0.3,0.6-0.5s0.2-0.5,0.3-0.8
			c0.1-0.3,0.1-0.6,0.1-0.9C128.5,181.6,128.5,181.3,128.4,181z"/>
		<path fill="#565656" d="M130.6,180.6c0.1-0.4,0.3-0.7,0.6-1s0.6-0.5,0.9-0.7c0.4-0.2,0.8-0.3,1.3-0.3c0.5,0,0.9,0.1,1.3,0.3
			s0.7,0.4,0.9,0.7c0.3,0.3,0.4,0.6,0.6,1c0.1,0.4,0.2,0.8,0.2,1.3s-0.1,0.9-0.2,1.3c-0.1,0.4-0.3,0.7-0.6,1
			c-0.3,0.3-0.6,0.5-0.9,0.7s-0.8,0.2-1.3,0.2c-0.5,0-0.9-0.1-1.3-0.2c-0.4-0.2-0.7-0.4-0.9-0.7s-0.4-0.6-0.6-1
			c-0.1-0.4-0.2-0.8-0.2-1.3S130.5,181,130.6,180.6z M131.7,182.9c0.1,0.3,0.2,0.5,0.4,0.7c0.2,0.2,0.4,0.3,0.6,0.5
			c0.2,0.1,0.5,0.2,0.8,0.2s0.5-0.1,0.8-0.2c0.2-0.1,0.4-0.3,0.6-0.5c0.2-0.2,0.3-0.4,0.4-0.7c0.1-0.3,0.2-0.6,0.2-1s0-0.7-0.2-1
			c-0.1-0.3-0.2-0.5-0.4-0.7s-0.4-0.4-0.6-0.5c-0.2-0.1-0.5-0.2-0.8-0.2s-0.5,0.1-0.8,0.2c-0.2,0.1-0.4,0.3-0.6,0.5
			c-0.2,0.2-0.3,0.4-0.4,0.7c-0.1,0.3-0.1,0.6-0.1,1S131.6,182.6,131.7,182.9z"/>
		<path fill="#565656" d="M141.9,185v-1h0c-0.2,0.4-0.5,0.7-0.8,0.8c-0.3,0.2-0.7,0.3-1.2,0.3c-0.4,0-0.7-0.1-1-0.2
			c-0.3-0.1-0.5-0.3-0.7-0.5c-0.2-0.2-0.3-0.4-0.4-0.7c-0.1-0.3-0.1-0.6-0.1-0.9v-4.1h1v4.2c0,0.4,0.1,0.7,0.3,0.9
			c0.2,0.2,0.5,0.3,0.9,0.3c0.3,0,0.6,0,0.8-0.1c0.2-0.1,0.4-0.2,0.6-0.4c0.2-0.2,0.3-0.4,0.3-0.6c0.1-0.2,0.1-0.5,0.1-0.8v-3.5h1
			v6.2H141.9z"/>
		<path fill="#565656" d="M147,178.8v0.9h-1.2v3.9c0,0.1,0,0.2,0,0.3c0,0.1,0.1,0.1,0.1,0.2c0.1,0,0.1,0.1,0.2,0.1s0.2,0,0.4,0h0.5
			v0.9h-0.8c-0.3,0-0.5,0-0.7-0.1c-0.2,0-0.3-0.1-0.5-0.2c-0.1-0.1-0.2-0.2-0.3-0.4c-0.1-0.2-0.1-0.4-0.1-0.7v-3.9h-1.1v-0.9h1.1
			v-1.9h1v1.9H147z"/>
		<path fill="#565656" d="M154.1,178.8v0.9h-1.2v3.9c0,0.1,0,0.2,0,0.3s0.1,0.1,0.1,0.2s0.1,0.1,0.2,0.1c0.1,0,0.2,0,0.4,0h0.5v0.9
			h-0.8c-0.3,0-0.5,0-0.7-0.1s-0.3-0.1-0.5-0.2s-0.2-0.2-0.3-0.4s-0.1-0.4-0.1-0.7v-3.9h-1.1v-0.9h1.1v-1.9h1v1.9H154.1z"/>
		<path fill="#565656" d="M156.2,178.8v1.3h0c0.2-0.5,0.6-0.9,0.9-1.1c0.4-0.2,0.8-0.4,1.4-0.3v1.1c-0.4,0-0.8,0.1-1,0.2
			c-0.3,0.1-0.5,0.3-0.7,0.5c-0.2,0.2-0.3,0.5-0.4,0.8c-0.1,0.3-0.1,0.7-0.1,1.1v2.8h-1v-6.2H156.2z"/>
		<path fill="#565656" d="M163.4,184.6c-0.5,0.4-1,0.5-1.8,0.5c-0.5,0-0.9-0.1-1.3-0.2c-0.4-0.2-0.7-0.4-0.9-0.7
			c-0.2-0.3-0.4-0.6-0.6-1c-0.1-0.4-0.2-0.8-0.2-1.3c0-0.5,0.1-0.9,0.2-1.3s0.3-0.7,0.6-1c0.3-0.3,0.6-0.5,0.9-0.7
			c0.4-0.2,0.7-0.2,1.2-0.2c0.6,0,1,0.1,1.4,0.3c0.4,0.2,0.7,0.5,0.9,0.9c0.2,0.4,0.4,0.7,0.5,1.2c0.1,0.4,0.1,0.8,0.1,1.2h-4.6
			c0,0.3,0,0.5,0.1,0.8c0.1,0.2,0.2,0.5,0.3,0.6c0.2,0.2,0.4,0.3,0.6,0.5s0.5,0.2,0.9,0.2c0.4,0,0.8-0.1,1.1-0.3
			c0.3-0.2,0.5-0.5,0.5-0.9h1C164.2,183.7,163.9,184.3,163.4,184.6z M163.2,180.6c-0.1-0.2-0.2-0.4-0.4-0.6
			c-0.2-0.2-0.3-0.3-0.6-0.4c-0.2-0.1-0.4-0.1-0.7-0.1c-0.3,0-0.5,0-0.7,0.1c-0.2,0.1-0.4,0.2-0.5,0.4s-0.3,0.3-0.4,0.6
			s-0.1,0.4-0.2,0.7h3.6C163.3,181.1,163.3,180.8,163.2,180.6z"/>
		<path fill="#565656" d="M171,185c-0.2,0.1-0.4,0.2-0.7,0.2c-0.3,0-0.5-0.1-0.6-0.2c-0.2-0.1-0.2-0.4-0.2-0.7
			c-0.3,0.3-0.6,0.6-1,0.7c-0.4,0.1-0.8,0.2-1.2,0.2c-0.3,0-0.5,0-0.8-0.1c-0.3-0.1-0.5-0.2-0.7-0.3c-0.2-0.1-0.3-0.3-0.4-0.5
			c-0.1-0.2-0.2-0.5-0.2-0.8c0-0.4,0.1-0.6,0.2-0.9c0.1-0.2,0.3-0.4,0.5-0.5s0.4-0.2,0.7-0.3s0.5-0.1,0.8-0.2
			c0.3-0.1,0.5-0.1,0.8-0.1s0.5-0.1,0.7-0.1s0.3-0.1,0.5-0.2c0.1-0.1,0.2-0.2,0.2-0.4c0-0.2,0-0.4-0.1-0.5s-0.2-0.2-0.3-0.3
			c-0.1-0.1-0.3-0.1-0.4-0.1c-0.2,0-0.3,0-0.5,0c-0.4,0-0.8,0.1-1.1,0.2s-0.4,0.5-0.5,0.9h-1c0-0.4,0.1-0.7,0.2-1s0.3-0.5,0.6-0.6
			c0.2-0.2,0.5-0.3,0.8-0.4c0.3-0.1,0.6-0.1,1-0.1c0.3,0,0.6,0,0.8,0.1c0.3,0,0.5,0.1,0.8,0.2c0.2,0.1,0.4,0.3,0.5,0.5
			s0.2,0.5,0.2,0.9v3.2c0,0.2,0,0.4,0,0.5c0,0.1,0.1,0.2,0.3,0.2c0.1,0,0.2,0,0.3-0.1V185z M169.3,181.8c-0.1,0.1-0.3,0.2-0.5,0.2
			c-0.2,0-0.4,0.1-0.7,0.1c-0.2,0-0.5,0.1-0.7,0.1s-0.4,0.1-0.6,0.2s-0.3,0.2-0.4,0.3c-0.1,0.1-0.2,0.4-0.2,0.6c0,0.2,0,0.3,0.1,0.4
			c0.1,0.1,0.2,0.2,0.3,0.3c0.1,0.1,0.2,0.1,0.4,0.2c0.1,0,0.3,0,0.5,0c0.3,0,0.6,0,0.9-0.1c0.2-0.1,0.4-0.2,0.6-0.3
			c0.2-0.1,0.3-0.3,0.3-0.5s0.1-0.3,0.1-0.5V181.8z"/>
		<path fill="#565656" d="M174.6,178.8v0.9h-1.2v3.9c0,0.1,0,0.2,0,0.3c0,0.1,0.1,0.1,0.1,0.2c0.1,0,0.1,0.1,0.2,0.1s0.2,0,0.4,0
			h0.5v0.9h-0.8c-0.3,0-0.5,0-0.7-0.1c-0.2,0-0.3-0.1-0.5-0.2c-0.1-0.1-0.2-0.2-0.3-0.4c-0.1-0.2-0.1-0.4-0.1-0.7v-3.9h-1.1v-0.9
			h1.1v-1.9h1v1.9H174.6z"/>
		<path fill="#565656" d="M176.7,178.8v0.9h0c0.5-0.7,1.1-1.1,2-1.1c0.4,0,0.7,0.1,1,0.2c0.3,0.2,0.5,0.4,0.7,0.8
			c0.2-0.3,0.5-0.6,0.8-0.8c0.3-0.2,0.7-0.3,1.1-0.3c0.3,0,0.6,0,0.8,0.1c0.3,0.1,0.5,0.2,0.6,0.3c0.2,0.1,0.3,0.3,0.4,0.6
			c0.1,0.2,0.1,0.5,0.1,0.8v4.5h-1v-4.1c0-0.2,0-0.4,0-0.5c0-0.2-0.1-0.3-0.2-0.4c-0.1-0.1-0.2-0.2-0.4-0.3
			c-0.2-0.1-0.4-0.1-0.6-0.1c-0.5,0-0.9,0.1-1.2,0.4c-0.3,0.3-0.4,0.7-0.4,1.2v3.9h-1v-4.1c0-0.2,0-0.4-0.1-0.6
			c0-0.2-0.1-0.3-0.2-0.4c-0.1-0.1-0.2-0.2-0.4-0.3c-0.1-0.1-0.3-0.1-0.6-0.1c-0.3,0-0.5,0.1-0.8,0.2c-0.2,0.1-0.4,0.3-0.5,0.4
			s-0.2,0.3-0.3,0.5c-0.1,0.2-0.1,0.3-0.1,0.5v3.9h-1v-6.2H176.7z"/>
		<path fill="#565656" d="M190.3,184.6c-0.5,0.4-1,0.5-1.8,0.5c-0.5,0-0.9-0.1-1.3-0.2c-0.4-0.2-0.7-0.4-0.9-0.7s-0.4-0.6-0.6-1
			c-0.1-0.4-0.2-0.8-0.2-1.3c0-0.5,0.1-0.9,0.2-1.3s0.3-0.7,0.6-1c0.3-0.3,0.6-0.5,0.9-0.7c0.4-0.2,0.7-0.2,1.2-0.2
			c0.6,0,1,0.1,1.4,0.3c0.4,0.2,0.7,0.5,0.9,0.9c0.2,0.4,0.4,0.7,0.5,1.2c0.1,0.4,0.1,0.8,0.1,1.2h-4.6c0,0.3,0,0.5,0.1,0.8
			c0.1,0.2,0.2,0.5,0.3,0.6c0.2,0.2,0.4,0.3,0.6,0.5s0.5,0.2,0.9,0.2c0.4,0,0.8-0.1,1.1-0.3c0.3-0.2,0.5-0.5,0.5-0.9h1
			C191.1,183.7,190.8,184.3,190.3,184.6z M190.1,180.6c-0.1-0.2-0.2-0.4-0.4-0.6c-0.2-0.2-0.3-0.3-0.6-0.4c-0.2-0.1-0.4-0.1-0.7-0.1
			c-0.3,0-0.5,0-0.7,0.1c-0.2,0.1-0.4,0.2-0.5,0.4s-0.3,0.3-0.4,0.6s-0.1,0.4-0.2,0.7h3.6C190.2,181.1,190.2,180.8,190.1,180.6z"/>
		<path fill="#565656" d="M193.3,178.8v1h0c0.4-0.8,1.1-1.1,2-1.1c0.4,0,0.7,0.1,1,0.2c0.3,0.1,0.5,0.3,0.7,0.5
			c0.2,0.2,0.3,0.4,0.4,0.7c0.1,0.3,0.1,0.6,0.1,0.9v4.1h-1v-4.2c0-0.4-0.1-0.7-0.3-0.9c-0.2-0.2-0.5-0.3-0.9-0.3
			c-0.3,0-0.6,0-0.8,0.1c-0.2,0.1-0.4,0.2-0.6,0.4c-0.2,0.2-0.3,0.4-0.3,0.6c-0.1,0.2-0.1,0.5-0.1,0.8v3.5h-1v-6.2H193.3z"/>
		<path fill="#565656" d="M201.7,178.8v0.9h-1.2v3.9c0,0.1,0,0.2,0,0.3c0,0.1,0.1,0.1,0.1,0.2c0.1,0,0.1,0.1,0.2,0.1s0.2,0,0.4,0
			h0.5v0.9h-0.8c-0.3,0-0.5,0-0.7-0.1c-0.2,0-0.3-0.1-0.5-0.2c-0.1-0.1-0.2-0.2-0.3-0.4c-0.1-0.2-0.1-0.4-0.1-0.7v-3.9h-1.1v-0.9
			h1.1v-1.9h1v1.9H201.7z"/>
		<path fill="#565656" d="M202.9,178c0.1-0.4,0.3-0.7,0.5-0.9c0.2-0.3,0.5-0.5,0.9-0.6c0.3-0.1,0.7-0.2,1.1-0.2c0.4,0,0.7,0.1,1,0.2
			c0.3,0.1,0.6,0.3,0.8,0.5c0.2,0.2,0.4,0.5,0.5,0.8c0.1,0.3,0.2,0.6,0.2,1c0,0.2,0,0.5-0.1,0.7s-0.1,0.4-0.2,0.5s-0.2,0.3-0.3,0.4
			c-0.1,0.1-0.2,0.3-0.4,0.4c-0.1,0.1-0.3,0.2-0.4,0.4s-0.2,0.3-0.3,0.4c-0.1,0.1-0.2,0.3-0.2,0.5c-0.1,0.2-0.1,0.4-0.1,0.6v0.5h-1
			v-0.6c0-0.3,0.1-0.6,0.2-0.9c0.1-0.2,0.2-0.4,0.4-0.6c0.2-0.2,0.3-0.4,0.5-0.5c0.2-0.2,0.3-0.3,0.5-0.5s0.3-0.4,0.4-0.6
			s0.1-0.5,0.1-0.8c0-0.4-0.2-0.8-0.4-1s-0.6-0.4-1-0.4c-0.3,0-0.5,0.1-0.7,0.2c-0.2,0.1-0.4,0.2-0.5,0.4s-0.2,0.4-0.3,0.6
			c-0.1,0.2-0.1,0.5-0.1,0.8h-1C202.7,178.7,202.8,178.3,202.9,178z M206,183.7v1.3h-1.3v-1.3H206z"/>
	</g>
	<path id="Rectangle_812" fill="#02CAA7" d="M85,238h95c2.8,0,5,2.2,5,5v17c0,2.8-2.2,5-5,5H85c-2.8,0-5-2.2-5-5v-17
		C80,240.2,82.2,238,85,238z"/>
	<g enable-background="new    ">
		<path fill="#FFFFFF" d="M96.9,253.6c0,0.3,0,0.5,0.1,0.7c0.1,0.2,0.2,0.4,0.4,0.5s0.4,0.2,0.6,0.3c0.2,0.1,0.5,0.1,0.7,0.1
			c0.3,0,0.5,0,0.7-0.1c0.2-0.1,0.4-0.1,0.5-0.2c0.1-0.1,0.2-0.2,0.3-0.3s0.1-0.3,0.1-0.4c0-0.3-0.1-0.5-0.2-0.6
			c-0.1-0.1-0.3-0.2-0.4-0.3c-0.3-0.1-0.5-0.2-0.9-0.3c-0.3-0.1-0.8-0.2-1.2-0.3c-0.3-0.1-0.6-0.2-0.8-0.3c-0.2-0.1-0.4-0.3-0.5-0.4
			c-0.1-0.2-0.2-0.3-0.3-0.5c0-0.2-0.1-0.4-0.1-0.5c0-0.4,0.1-0.7,0.2-0.9c0.1-0.3,0.3-0.5,0.6-0.7c0.2-0.2,0.5-0.3,0.8-0.4
			c0.3-0.1,0.6-0.1,1-0.1c0.4,0,0.7,0,1.1,0.1s0.6,0.2,0.9,0.4c0.2,0.2,0.4,0.4,0.6,0.7s0.2,0.6,0.2,1H100c0-0.5-0.2-0.8-0.5-1
			c-0.3-0.2-0.6-0.3-1.1-0.3c-0.1,0-0.3,0-0.5,0s-0.3,0.1-0.4,0.2c-0.1,0.1-0.2,0.2-0.3,0.3c-0.1,0.1-0.1,0.3-0.1,0.4
			c0,0.3,0.1,0.5,0.2,0.6s0.4,0.3,0.6,0.3c0,0,0.1,0,0.3,0.1c0.2,0.1,0.4,0.1,0.6,0.2c0.2,0.1,0.4,0.1,0.7,0.2s0.4,0.1,0.5,0.1
			c0.2,0.1,0.4,0.2,0.6,0.3s0.3,0.3,0.4,0.4c0.1,0.2,0.2,0.3,0.3,0.5s0.1,0.4,0.1,0.6c0,0.4-0.1,0.7-0.2,1c-0.2,0.3-0.4,0.5-0.6,0.7
			c-0.3,0.2-0.6,0.3-0.9,0.4c-0.3,0.1-0.7,0.1-1,0.1c-0.4,0-0.8,0-1.1-0.2c-0.4-0.1-0.7-0.3-0.9-0.5c-0.3-0.2-0.5-0.5-0.6-0.8
			c-0.2-0.3-0.2-0.7-0.2-1.1H96.9z"/>
		<path fill="#FFFFFF" d="M102.5,248.9h1.2v4.2c0,0.2,0,0.5,0,0.7c0,0.2,0.1,0.5,0.2,0.7s0.3,0.4,0.5,0.5c0.2,0.1,0.5,0.2,0.9,0.2
			s0.7-0.1,0.9-0.2c0.2-0.1,0.4-0.3,0.5-0.5c0.1-0.2,0.2-0.4,0.2-0.7c0-0.2,0-0.5,0-0.7v-4.2h1.2v4.6c0,0.5-0.1,0.9-0.2,1.2
			s-0.3,0.6-0.6,0.9c-0.3,0.2-0.6,0.4-0.9,0.5s-0.8,0.2-1.2,0.2s-0.8-0.1-1.2-0.2c-0.4-0.1-0.7-0.3-0.9-0.5
			c-0.3-0.2-0.5-0.5-0.6-0.9c-0.1-0.3-0.2-0.7-0.2-1.2V248.9z"/>
		<path fill="#FFFFFF" d="M109.8,248.9h3.5c0.6,0,1.2,0.1,1.5,0.4c0.4,0.3,0.6,0.7,0.6,1.3c0,0.4-0.1,0.7-0.3,0.9
			c-0.2,0.3-0.4,0.5-0.8,0.6v0c0.4,0.1,0.8,0.3,1,0.6s0.3,0.7,0.3,1.2c0,0.3,0,0.5-0.1,0.8s-0.3,0.5-0.5,0.6s-0.5,0.3-0.8,0.4
			c-0.3,0.1-0.7,0.2-1.2,0.2h-3.3V248.9z M111,251.8h2c0.3,0,0.6-0.1,0.8-0.3c0.2-0.2,0.3-0.4,0.3-0.7c0-0.4-0.1-0.6-0.3-0.8
			c-0.2-0.1-0.4-0.2-0.8-0.2h-2V251.8z M111,255h2.2c0.4,0,0.7-0.1,0.9-0.3c0.2-0.2,0.3-0.5,0.3-0.8c0-0.4-0.1-0.6-0.3-0.8
			c-0.2-0.2-0.5-0.3-0.9-0.3H111V255z"/>
		<path fill="#FFFFFF" d="M116.8,248.9h1.8l2,5.6h0l1.9-5.6h1.7v7.1H123v-5.5h0l-2,5.5h-1l-2-5.5h0v5.5h-1.2V248.9z"/>
		<path fill="#FFFFFF" d="M125.7,248.9h1.2v7.1h-1.2V248.9z"/>
		<path fill="#FFFFFF" d="M127.8,248.9h5.8v1.1h-2.3v6.1h-1.2v-6.1h-2.3V248.9z"/>
		<path fill="#FFFFFF" d="M143.6,256l-0.6,0.7l-1-0.9c-0.3,0.2-0.5,0.3-0.8,0.3c-0.3,0.1-0.6,0.1-0.8,0.1c-0.5,0-1-0.1-1.4-0.3
			c-0.4-0.2-0.8-0.5-1.1-0.8c-0.3-0.3-0.5-0.7-0.7-1.2c-0.2-0.5-0.2-0.9-0.2-1.5c0-0.5,0.1-1,0.2-1.4c0.2-0.5,0.4-0.9,0.7-1.2
			c0.3-0.3,0.7-0.6,1.1-0.8c0.4-0.2,0.9-0.3,1.4-0.3s1,0.1,1.4,0.3c0.4,0.2,0.8,0.5,1.1,0.8c0.3,0.3,0.5,0.7,0.7,1.2
			c0.2,0.5,0.2,0.9,0.2,1.4c0,0.2,0,0.5-0.1,0.7s-0.1,0.5-0.2,0.7s-0.2,0.5-0.3,0.7c-0.1,0.2-0.3,0.4-0.5,0.6L143.6,256z
			 M140.3,254.3l0.6-0.7l0.9,0.8c0.2-0.3,0.4-0.6,0.5-0.9c0.1-0.3,0.1-0.7,0.1-1.1c0-0.3,0-0.7-0.1-1c-0.1-0.3-0.2-0.6-0.4-0.9
			c-0.2-0.3-0.4-0.5-0.7-0.6c-0.3-0.2-0.6-0.2-1-0.2s-0.7,0.1-1,0.2c-0.3,0.2-0.5,0.4-0.7,0.6c-0.2,0.3-0.3,0.5-0.4,0.9
			c-0.1,0.3-0.1,0.7-0.1,1s0,0.7,0.1,1c0.1,0.3,0.2,0.6,0.4,0.9c0.2,0.3,0.4,0.5,0.7,0.6c0.3,0.2,0.6,0.2,1,0.2c0.1,0,0.3,0,0.4,0
			c0.1,0,0.3-0.1,0.4-0.1L140.3,254.3z"/>
		<path fill="#FFFFFF" d="M144.7,248.9h1.2v4.2c0,0.2,0,0.5,0,0.7c0,0.2,0.1,0.5,0.2,0.7c0.1,0.2,0.3,0.4,0.5,0.5
			c0.2,0.1,0.5,0.2,0.9,0.2c0.4,0,0.7-0.1,0.9-0.2c0.2-0.1,0.4-0.3,0.5-0.5c0.1-0.2,0.2-0.4,0.2-0.7c0-0.2,0-0.5,0-0.7v-4.2h1.2v4.6
			c0,0.5-0.1,0.9-0.2,1.2c-0.1,0.3-0.3,0.6-0.6,0.9c-0.3,0.2-0.6,0.4-0.9,0.5c-0.4,0.1-0.8,0.2-1.2,0.2c-0.4,0-0.8-0.1-1.2-0.2
			s-0.7-0.3-0.9-0.5c-0.3-0.2-0.5-0.5-0.6-0.9c-0.1-0.3-0.2-0.7-0.2-1.2V248.9z"/>
		<path fill="#FFFFFF" d="M152,248.9h5.1v1.1h-3.9v1.9h3.6v1h-3.6v2.1h4v1.1H152V248.9z"/>
		<path fill="#FFFFFF" d="M158.3,248.9h3.4c0.8,0,1.4,0.2,1.8,0.5s0.6,0.8,0.6,1.4c0,0.3,0,0.6-0.2,0.8c-0.1,0.2-0.2,0.4-0.3,0.5
			c-0.1,0.1-0.3,0.2-0.4,0.3c-0.1,0.1-0.2,0.1-0.3,0.1v0c0.1,0,0.2,0,0.3,0.1s0.2,0.1,0.3,0.3c0.1,0.1,0.2,0.3,0.3,0.5
			c0.1,0.2,0.1,0.4,0.1,0.7c0,0.4,0,0.8,0.1,1.1c0.1,0.3,0.2,0.6,0.3,0.7H163c-0.1-0.2-0.1-0.3-0.2-0.5s0-0.4,0-0.5
			c0-0.3,0-0.6-0.1-0.8c0-0.2-0.1-0.4-0.2-0.6c-0.1-0.2-0.3-0.3-0.4-0.3c-0.2-0.1-0.4-0.1-0.7-0.1h-1.8v2.9h-1.2V248.9z
			 M159.6,252.1h2.1c0.4,0,0.7-0.1,0.9-0.3c0.2-0.2,0.3-0.5,0.3-0.9c0-0.2,0-0.4-0.1-0.6c-0.1-0.1-0.2-0.3-0.3-0.3
			c-0.1-0.1-0.2-0.1-0.4-0.2c-0.1,0-0.3,0-0.5,0h-2V252.1z"/>
		<path fill="#FFFFFF" d="M166.8,253.2l-2.7-4.3h1.5l1.9,3.2l1.9-3.2h1.4l-2.7,4.3v2.8h-1.2V253.2z"/>
	</g>
</g>
</svg>
