<svg width="200" height="28" viewBox="0 0 200 28" fill="none" xmlns="http://www.w3.org/2000/svg">
<path d="M1.07208 16.7362H9.82729C10.2442 16.7362 10.542 16.4979 10.7207 16.2001C10.7802 16.081 10.8398 15.9024 10.8398 15.7237V12.031C10.8398 11.4354 10.3633 11.0185 9.82729 11.0185H4.76475H1.07208C0.476487 11.0185 0.0595721 11.495 0.0595721 12.031V15.7237C1.28305e-05 16.2597 0.476487 16.7362 1.07208 16.7362Z" fill="#F8003C"/>
<path d="M20.0715 8.57651C20.0715 7.50445 20.3097 6.49194 20.7862 5.59855C20.7862 5.53899 20.7862 5.53899 20.7862 5.47943L16.3788 10.7802C15.8428 11.4354 15.545 12.1501 15.4258 12.9243C15.2472 14.1751 15.545 15.4854 16.3788 16.5575L18.4634 19.0589L19.8332 20.7266L22.7516 24.2406L24.3597 26.2061L25.1936 27.2186C25.4318 27.5164 25.7892 27.6355 26.1465 27.695C26.3252 27.695 26.5039 27.6355 26.6825 27.5759C26.8612 27.5164 26.9803 27.3972 27.0995 27.2781L27.2186 27.159L29.5414 24.8957C30.0179 24.4193 30.0774 23.645 29.6009 23.1685L28.8862 22.2751L26.3847 19.2376L22.8708 15.0685C22.573 14.7111 22.3943 14.2346 22.3943 13.7582C22.3347 13.6986 22.3347 13.639 22.2752 13.5795C20.9649 12.3883 20.0715 10.6015 20.0715 8.57651Z" fill="#27334F"/>
<path d="M29.7201 3.75223C29.7201 3.45444 29.601 3.2162 29.3627 2.97796L26.8612 0.416915C26.6825 0.238237 26.4443 0.119119 26.2061 0.0595593C26.087 0 26.0274 0 25.9083 0C25.5509 0 25.1936 0.178678 24.9553 0.476474L22.7516 3.15664L20.7862 5.47945C20.7862 5.53901 20.7862 5.53901 20.7862 5.59857C20.3097 6.49196 20.0715 7.50447 20.0715 8.57653C20.0715 10.6015 20.9649 12.3883 22.3943 13.5795C22.4538 13.6391 22.4538 13.6986 22.5134 13.7582C22.5134 13.2817 22.6921 12.8052 22.9899 12.3883L29.4818 4.64562C29.6605 4.40739 29.7796 4.05003 29.7201 3.75223Z" fill="#FFAA00"/>
<path opacity="0.3" d="M29.7201 3.75223C29.7201 3.45444 29.601 3.2162 29.3627 2.97796L26.8612 0.416915C26.6825 0.238237 26.4443 0.119119 26.2061 0.0595593C26.087 0 26.0274 0 25.9083 0C25.5509 0 25.1936 0.178678 24.9553 0.476474L22.7516 3.15664L20.7862 5.47945C20.7862 5.53901 20.7862 5.53901 20.7862 5.59857C20.3097 6.49196 20.0715 7.50447 20.0715 8.57653C20.0715 10.6015 20.9649 12.3883 22.3943 13.5795C22.4538 13.6391 22.4538 13.6986 22.5134 13.7582C22.5134 13.2817 22.6921 12.8052 22.9899 12.3883L29.4818 4.64562C29.6605 4.40739 29.7796 4.05003 29.7201 3.75223Z" fill="url(#paint0_linear_1_733)"/>
<path d="M8.21918 21.2626H1.07207C0.952948 21.2626 0.83383 21.2626 0.714711 21.3222C0.297796 21.4413 0 21.8582 0 22.2751V24.1215V25.9678C0 26.5634 0.476474 26.9803 1.01251 26.9803H1.07207H3.2162C4.16915 24.5384 5.89637 22.4538 8.21918 21.2626Z" fill="#F8003C"/>
<path d="M3.27576 27.04H15.545C16.1406 27.04 16.5575 26.5635 16.5575 26.0274V25.8488V22.3348C16.5575 21.7392 16.081 21.3223 15.545 21.3223H14.7707H8.21918C5.89636 22.4539 4.16915 24.5385 3.27576 27.04Z" fill="#F8003C"/>
<path opacity="0.4" d="M3.27576 27.04H15.545C16.1406 27.04 16.5575 26.5635 16.5575 26.0274V25.8488V22.3348C16.5575 21.7392 16.081 21.3223 15.545 21.3223H14.7707H8.21918C5.89636 22.4539 4.16915 24.5385 3.27576 27.04Z" fill="url(#paint1_linear_1_733)"/>
<path d="M15.4854 0.714661H13.3412C12.4479 3.21615 10.6611 5.24116 8.39783 6.49191H15.5449C15.6641 6.49191 15.7832 6.49191 15.9023 6.43235C16.3192 6.31323 16.617 5.89632 16.617 5.4794V3.63306V1.72717C16.5574 1.19113 16.081 0.714661 15.4854 0.714661Z" fill="#0099AC"/>
<path d="M13.3413 0.714661H1.07205C0.476455 0.714661 0.0595398 1.19113 0.0595398 1.72717V1.90585V5.41984C0.0595398 6.01544 0.536014 6.43235 1.07205 6.43235H1.84632H8.33828C10.6611 5.24116 12.4479 3.21615 13.3413 0.714661Z" fill="#0099AC"/>
<path opacity="0.4" d="M13.3413 0.714661H1.07205C0.476455 0.714661 0.0595398 1.19113 0.0595398 1.72717V1.90585V5.41984C0.0595398 6.01544 0.536014 6.43235 1.07205 6.43235H1.84632H8.33828C10.6611 5.24116 12.4479 3.21615 13.3413 0.714661Z" fill="url(#paint2_linear_1_733)"/>
<path d="M43.7761 15.6045H52.174V12.2097H43.7761V6.84933H53.9608V3.3949H39.9048V24.6576H54.3181V21.2031H43.7761V15.6045Z" fill="#252525"/>
<path d="M59.9763 3.3949H56.3431V24.7171H59.9763V3.3949Z" fill="#252525"/>
<path d="M73.794 9.70821C72.6624 9.11262 71.2925 8.81482 69.8035 8.81482C68.3145 8.81482 67.0042 9.17217 65.813 9.82733C64.6814 10.4825 63.7285 11.4354 63.1329 12.6862C62.4777 13.8774 62.1799 15.3068 62.1799 16.9149C62.1799 18.523 62.5373 19.8928 63.1924 21.084C63.8476 22.2752 64.8005 23.2282 65.9917 23.8833C67.1829 24.5385 68.6123 24.8958 70.28 24.8958C72.1263 24.8958 73.7344 24.3598 74.9852 23.3473C76.2359 22.3348 77.0102 21.0245 77.308 19.4164L77.3675 19.1781H73.7344L73.6749 19.3568C73.4962 20.1311 73.0793 20.7862 72.4241 21.2031C71.769 21.6201 70.9947 21.8583 70.0418 21.8583C68.8506 21.8583 67.8976 21.5009 67.1829 20.7862C66.4682 20.0715 66.0513 19.059 65.9917 17.8083H77.4271V17.6296C77.4867 17.2127 77.5462 16.7958 77.5462 16.3788C77.5462 14.8899 77.1889 13.52 76.5337 12.4479C75.8786 11.1972 74.9256 10.3634 73.794 9.70821ZM66.1108 14.9494C66.2895 14.056 66.6469 13.3413 67.302 12.7457C68.0167 12.1501 68.9101 11.8523 69.8631 11.8523C70.9351 11.8523 71.8285 12.1501 72.5432 12.7457C73.1984 13.2818 73.6153 13.9965 73.7344 14.9494H66.1108Z" fill="#252525"/>
<path d="M97.5582 8.81482C96.3074 8.81482 95.1758 9.05306 94.2824 9.58909C93.5081 10.006 92.853 10.6612 92.3169 11.3759C91.9 10.6016 91.2449 9.94645 90.5302 9.52953C89.6963 9.05306 88.6838 8.81482 87.6118 8.81482C85.825 8.81482 84.3956 9.46997 83.2639 10.7207L82.9661 8.9935L79.7499 10.1847V24.7171H83.383V16.3193C83.383 15.009 83.6808 13.9369 84.2764 13.1626C84.872 12.3884 85.7059 12.031 86.7184 12.031C87.7309 12.031 88.4456 12.3288 88.9221 12.984C89.4581 13.6391 89.6963 14.5921 89.6963 15.9024V24.7171H93.389V16.2002C93.389 14.8899 93.6868 13.8774 94.2824 13.1031C94.878 12.3884 95.7118 12.031 96.7243 12.031C97.7368 12.031 98.4515 12.3288 98.928 12.984C99.4045 13.6391 99.7023 14.5921 99.7023 15.9024V24.7171H103.395V15.8428C103.395 13.4009 102.859 11.6141 101.727 10.4825C100.655 9.35085 99.2854 8.81482 97.5582 8.81482Z" fill="#252525"/>
<path d="M116.974 9.70821C115.843 9.11262 114.473 8.81482 112.984 8.81482C111.495 8.81482 110.185 9.17217 108.994 9.82733C107.862 10.4825 106.909 11.4354 106.313 12.6862C105.658 13.8774 105.36 15.3068 105.36 16.9149C105.36 18.523 105.718 19.8928 106.373 21.084C107.028 22.2752 107.981 23.2282 109.172 23.8833C110.363 24.5385 111.793 24.8958 113.46 24.8958C115.307 24.8958 116.915 24.3598 118.166 23.3473C119.416 22.3348 120.191 21.0245 120.488 19.4164L120.548 19.1781H116.915L116.855 19.3568C116.677 20.1311 116.26 20.7862 115.605 21.2031C114.949 21.6201 114.175 21.8583 113.222 21.8583C112.031 21.8583 111.078 21.5009 110.363 20.7862C109.649 20.0715 109.232 19.059 109.172 17.8083H120.608V17.6296C120.667 17.2127 120.727 16.7958 120.727 16.3788C120.727 14.8899 120.369 13.52 119.714 12.4479C118.999 11.1972 118.106 10.3634 116.974 9.70821ZM109.291 14.9494C109.47 14.056 109.827 13.3413 110.483 12.7457C111.197 12.1501 112.091 11.8523 113.044 11.8523C114.116 11.8523 115.009 12.1501 115.724 12.7457C116.379 13.2818 116.796 13.9965 116.915 14.9494H109.291Z" fill="#252525"/>
<path d="M131.15 8.81482C129.184 8.81482 127.576 9.46997 126.385 10.7207L126.087 8.9935L122.871 10.1847V24.7171H126.504V16.7958C126.504 15.3068 126.861 14.1156 127.516 13.2818C128.231 12.4479 129.125 12.031 130.316 12.031C131.447 12.031 132.281 12.3884 132.877 13.1031C133.472 13.8178 133.77 14.8899 133.77 16.2597V24.7171H137.463V16.081C137.463 13.5796 136.867 11.7332 135.676 10.542C134.544 9.41041 132.996 8.81482 131.15 8.81482Z" fill="#252525"/>
<path d="M144.908 21.084C144.729 20.9053 144.61 20.4884 144.61 19.9524V12.2097H148.303V8.93391H144.61V4.7052L140.917 5.89639V8.99347H139.428L138.237 12.2692H140.917V20.3097C140.917 21.7987 141.275 22.8708 141.989 23.5855C142.704 24.3002 143.836 24.6576 145.325 24.6576H148.66V21.3818H145.98C145.444 21.3818 145.146 21.3222 144.908 21.084Z" fill="#252525"/>
<path d="M160.036 15.7236C159.142 15.4258 158.011 15.1876 156.701 15.0685C155.748 14.9494 155.033 14.8303 154.616 14.7707C154.199 14.7111 153.901 14.5325 153.603 14.3538C153.365 14.1751 153.246 13.8773 153.246 13.52C153.246 12.9839 153.484 12.567 154.02 12.2692C154.556 11.9119 155.271 11.7927 156.164 11.7927C157.058 11.7927 157.773 12.031 158.368 12.4479C158.964 12.8648 159.262 13.3413 159.321 13.9964V14.1751H162.895V13.9369C162.776 12.3288 162.12 11.078 160.87 10.1846C159.619 9.29124 158.011 8.87433 156.045 8.87433C154.854 8.87433 153.782 9.05301 152.829 9.46992C151.876 9.88684 151.102 10.4824 150.566 11.1971C150.03 11.9714 149.732 12.8648 149.732 13.8177C149.732 14.8898 150.03 15.7236 150.566 16.3192C151.102 16.9148 151.876 17.3913 152.77 17.6891C153.663 17.9869 154.735 18.1656 156.105 18.3443C157.058 18.4634 157.773 18.5825 158.249 18.7016C158.666 18.8207 159.023 18.9398 159.262 19.1781C159.5 19.4163 159.619 19.7141 159.619 20.1906C159.619 20.7266 159.381 21.1435 158.845 21.5009C158.249 21.8582 157.534 22.0369 156.581 22.0369C155.569 22.0369 154.675 21.7987 154.02 21.3222C153.365 20.8457 153.067 20.2501 153.008 19.5354V19.3568H149.494V19.595C149.553 21.2627 150.209 22.6325 151.519 23.5855C152.829 24.5384 154.497 25.0149 156.581 25.0149C157.832 25.0149 158.964 24.8362 159.917 24.4193C160.929 24.0024 161.703 23.4068 162.299 22.6921C162.895 21.9178 163.192 21.0244 163.192 20.0119C163.192 18.8803 162.895 17.9869 162.359 17.3317C161.763 16.4979 160.989 16.0214 160.036 15.7236Z" fill="#252525"/>
<path d="M183.502 3.3949H178.737L169.506 13.7582V3.3949H165.634V24.6576H169.506V19.059L172.901 15.3067L179.333 24.6576H184.038L175.64 12.3288L183.502 3.3949Z" fill="#252525"/>
<path d="M186.778 2.85889C186.182 2.85889 185.646 3.03756 185.229 3.45448C184.812 3.87139 184.574 4.40743 184.574 5.00302C184.574 5.59861 184.812 6.13465 185.229 6.55156C185.646 6.96848 186.182 7.14715 186.778 7.14715C187.373 7.14715 187.91 6.96848 188.326 6.55156C188.743 6.13465 188.982 5.59861 188.982 5.00302C188.982 4.40743 188.743 3.87139 188.326 3.45448C187.91 3.09712 187.373 2.85889 186.778 2.85889Z" fill="#F8003C"/>
<path d="M188.624 8.99353H184.932V24.7172H188.624V8.99353Z" fill="#252525"/>
<path d="M197.32 21.3818C196.784 21.3818 196.427 21.2627 196.248 21.084C196.069 20.9053 195.95 20.4884 195.95 19.9524V12.2097H199.643V8.93391H195.95V4.7052L192.257 5.89639V8.99347H190.768L189.577 12.2692H192.257V20.3097C192.257 21.7987 192.615 22.8708 193.329 23.5855C194.044 24.3002 195.176 24.6576 196.665 24.6576H200V21.3818H197.32Z" fill="#252525"/>
<defs>
<linearGradient id="paint0_linear_1_733" x1="19.9387" y1="11.6916" x2="23.2853" y2="7.58446" gradientUnits="userSpaceOnUse">
<stop/>
<stop offset="0.1448" stop-color="#303030"/>
<stop offset="0.3812" stop-color="#797979"/>
<stop offset="0.5934" stop-color="#B2B2B2"/>
<stop offset="0.7737" stop-color="#DCDCDC"/>
<stop offset="0.9151" stop-color="#F6F6F6"/>
<stop offset="1" stop-color="white"/>
</linearGradient>
<linearGradient id="paint1_linear_1_733" x1="3.27236" y1="24.1361" x2="16.5598" y2="24.1361" gradientUnits="userSpaceOnUse">
<stop/>
<stop offset="0.1448" stop-color="#303030"/>
<stop offset="0.3812" stop-color="#797979"/>
<stop offset="0.5934" stop-color="#B2B2B2"/>
<stop offset="0.7737" stop-color="#DCDCDC"/>
<stop offset="0.9151" stop-color="#F6F6F6"/>
<stop offset="1" stop-color="white"/>
</linearGradient>
<linearGradient id="paint2_linear_1_733" x1="13.3127" y1="3.58595" x2="0.0252337" y2="3.58595" gradientUnits="userSpaceOnUse">
<stop/>
<stop offset="0.1448" stop-color="#303030"/>
<stop offset="0.3812" stop-color="#797979"/>
<stop offset="0.5934" stop-color="#B2B2B2"/>
<stop offset="0.7737" stop-color="#DCDCDC"/>
<stop offset="0.9151" stop-color="#F6F6F6"/>
<stop offset="1" stop-color="white"/>
</linearGradient>
</defs>
</svg>
