<svg width="122" height="39" viewBox="0 0 122 39" fill="none" xmlns="http://www.w3.org/2000/svg">
<path d="M42 14.1844L33.2788 14.8913V3.98024C33.2788 2.92462 32.8595 1.91223 32.113 1.16579C31.3666 0.419346 30.3542 0 29.2986 0L3.98024 0C2.92462 0 1.91223 0.419346 1.16579 1.16579C0.419346 1.91223 0 2.92462 0 3.98024L0 22.0834L11.303 28.9989L42 14.1844Z" fill="url(#paint0_linear_9_667)"/>
<path d="M11.3491 36.629L0 22.0835V34.5775C0 35.6331 0.419346 36.6455 1.16579 37.3919C1.91223 38.1383 2.92462 38.5577 3.98024 38.5577H29.337C30.3859 38.5476 31.3885 38.1238 32.1266 37.3784C32.8648 36.6331 33.2789 35.6265 33.2788 34.5775V24.8497L42 14.2921L11.3491 36.629Z" fill="url(#paint1_linear_9_667)"/>
<g style="mix-blend-mode:multiply" opacity="0.2">
<path d="M26.4785 6.64648H12.8243V8.52903H26.4785V6.64648Z" fill="black"/>
<path d="M8.52136 9.30516C9.47194 9.30516 10.2425 8.53456 10.2425 7.58398C10.2425 6.63339 9.47194 5.86279 8.52136 5.86279C7.57077 5.86279 6.80017 6.63339 6.80017 7.58398C6.80017 8.53456 7.57077 9.30516 8.52136 9.30516Z" fill="black"/>
<path d="M26.4785 13.3467H12.8243V15.2293H26.4785V13.3467Z" fill="black"/>
<path d="M8.52136 16.0131C9.47194 16.0131 10.2425 15.2425 10.2425 14.2919C10.2425 13.3413 9.47194 12.5707 8.52136 12.5707C7.57077 12.5707 6.80017 13.3413 6.80017 14.2919C6.80017 15.2425 7.57077 16.0131 8.52136 16.0131Z" fill="black"/>
<path d="M22.2677 20.0549H12.8243V21.9375H22.2677V20.0549Z" fill="black"/>
<path d="M8.52136 22.7134C9.47194 22.7134 10.2425 21.9428 10.2425 20.9922C10.2425 20.0416 9.47194 19.271 8.52136 19.271C7.57077 19.271 6.80017 20.0416 6.80017 20.9922C6.80017 21.9428 7.57077 22.7134 8.52136 22.7134Z" fill="black"/>
</g>
<path d="M26.4785 4.7334H12.8243V6.61594H26.4785V4.7334Z" fill="white"/>
<path d="M8.52136 7.39952C9.47194 7.39952 10.2425 6.62892 10.2425 5.67834C10.2425 4.72775 9.47194 3.95715 8.52136 3.95715C7.57077 3.95715 6.80017 4.72775 6.80017 5.67834C6.80017 6.62892 7.57077 7.39952 8.52136 7.39952Z" fill="white"/>
<path d="M26.4785 11.4413H12.8243V13.3239H26.4785V11.4413Z" fill="white"/>
<path d="M8.52136 14.1C9.47194 14.1 10.2425 13.3294 10.2425 12.3788C10.2425 11.4283 9.47194 10.6577 8.52136 10.6577C7.57077 10.6577 6.80017 11.4283 6.80017 12.3788C6.80017 13.3294 7.57077 14.1 8.52136 14.1Z" fill="white"/>
<path d="M22.2677 18.1416H12.8243V20.0241H22.2677V18.1416Z" fill="white"/>
<path d="M8.52136 20.8079C9.47194 20.8079 10.2425 20.0373 10.2425 19.0867C10.2425 18.1361 9.47194 17.3655 8.52136 17.3655C7.57077 17.3655 6.80017 18.1361 6.80017 19.0867C6.80017 20.0373 7.57077 20.8079 8.52136 20.8079Z" fill="white"/>
<path d="M53.0114 12.3636H56.0454L59.25 20.1818H59.3864L62.5909 12.3636H65.625V24H63.2386V16.4261H63.142L60.1307 23.9432H58.5057L55.4943 16.3977H55.3977V24H53.0114V12.3636Z" fill="#021343"/>
<path d="M71.5838 24.1705C70.6861 24.1705 69.9133 23.9886 69.2656 23.625C68.6217 23.2576 68.1255 22.7386 67.777 22.0682C67.4285 21.394 67.2542 20.5966 67.2542 19.6761C67.2542 18.7784 67.4285 17.9905 67.777 17.3125C68.1255 16.6345 68.616 16.1061 69.2486 15.7273C69.8849 15.3485 70.6311 15.1591 71.4872 15.1591C72.063 15.1591 72.5989 15.2519 73.0952 15.4375C73.5952 15.6193 74.0308 15.894 74.402 16.2614C74.777 16.6288 75.0686 17.0909 75.277 17.6477C75.4853 18.2008 75.5895 18.8485 75.5895 19.5909V20.2557H68.2202V18.7557H73.3111C73.3111 18.4072 73.2353 18.0985 73.0838 17.8296C72.9323 17.5606 72.7221 17.3504 72.4531 17.1989C72.188 17.0436 71.8793 16.9659 71.527 16.9659C71.1596 16.9659 70.8338 17.0511 70.5497 17.2216C70.2694 17.3883 70.0497 17.6136 69.8906 17.8977C69.7315 18.178 69.6501 18.4905 69.6463 18.8352V20.2614C69.6463 20.6932 69.7258 21.0663 69.8849 21.3807C70.0478 21.6951 70.277 21.9375 70.5724 22.108C70.8679 22.2784 71.2183 22.3636 71.6236 22.3636C71.8925 22.3636 72.1387 22.3258 72.3622 22.25C72.5857 22.1743 72.777 22.0606 72.9361 21.9091C73.0952 21.7576 73.2164 21.572 73.2997 21.3523L75.5383 21.5C75.4247 22.0379 75.1918 22.5076 74.8395 22.9091C74.491 23.3068 74.0402 23.6174 73.4872 23.8409C72.938 24.0606 72.3035 24.1705 71.5838 24.1705Z" fill="#021343"/>
<path d="M81.8111 15.2727V17.0909H76.5554V15.2727H81.8111ZM77.7486 13.1818H80.169V21.3182C80.169 21.5417 80.2031 21.7159 80.2713 21.8409C80.3395 21.9621 80.4342 22.0474 80.5554 22.0966C80.6804 22.1458 80.8243 22.1705 80.9872 22.1705C81.1008 22.1705 81.2145 22.161 81.3281 22.1421C81.4417 22.1193 81.5289 22.1023 81.5895 22.0909L81.9702 23.8921C81.8489 23.9299 81.6785 23.9735 81.4588 24.0227C81.2391 24.0758 80.9721 24.108 80.6577 24.1193C80.0743 24.1421 79.563 24.0644 79.1236 23.8864C78.688 23.7083 78.3489 23.4318 78.1065 23.0568C77.8641 22.6818 77.7448 22.2083 77.7486 21.6364V13.1818Z" fill="#021343"/>
<path d="M83.6207 24V12.3636H91.3253V14.3921H86.081V17.1648H90.8139V19.1932H86.081V24H83.6207Z" fill="#021343"/>
<path d="M96.2372 24.1705C95.3546 24.1705 94.5914 23.983 93.9474 23.608C93.3073 23.2292 92.813 22.7027 92.4645 22.0284C92.116 21.3504 91.9417 20.5644 91.9417 19.6705C91.9417 18.769 92.116 17.9811 92.4645 17.3068C92.813 16.6288 93.3073 16.1023 93.9474 15.7273C94.5914 15.3485 95.3546 15.1591 96.2372 15.1591C97.1198 15.1591 97.8811 15.3485 98.5213 15.7273C99.1652 16.1023 99.6614 16.6288 100.01 17.3068C100.358 17.9811 100.533 18.769 100.533 19.6705C100.533 20.5644 100.358 21.3504 100.01 22.0284C99.6614 22.7027 99.1652 23.2292 98.5213 23.608C97.8811 23.983 97.1198 24.1705 96.2372 24.1705ZM96.2486 22.2955C96.6501 22.2955 96.9853 22.1818 97.2542 21.9546C97.5232 21.7235 97.7258 21.4091 97.8622 21.0114C98.0024 20.6136 98.0724 20.161 98.0724 19.6534C98.0724 19.1458 98.0024 18.6932 97.8622 18.2955C97.7258 17.8977 97.5232 17.5833 97.2542 17.3523C96.9853 17.1212 96.6501 17.0057 96.2486 17.0057C95.8433 17.0057 95.5024 17.1212 95.2258 17.3523C94.9531 17.5833 94.7467 17.8977 94.6065 18.2955C94.4702 18.6932 94.402 19.1458 94.402 19.6534C94.402 20.161 94.4702 20.6136 94.6065 21.0114C94.7467 21.4091 94.9531 21.7235 95.2258 21.9546C95.5024 22.1818 95.8433 22.2955 96.2486 22.2955Z" fill="#021343"/>
<path d="M102.107 24V15.2727H104.453V16.7955H104.544C104.703 16.2538 104.97 15.8447 105.345 15.5682C105.72 15.2879 106.152 15.1477 106.641 15.1477C106.762 15.1477 106.893 15.1553 107.033 15.1705C107.173 15.1856 107.296 15.2065 107.402 15.233V17.3807C107.288 17.3466 107.131 17.3163 106.93 17.2898C106.73 17.2633 106.546 17.25 106.379 17.25C106.023 17.25 105.705 17.3277 105.425 17.483C105.148 17.6345 104.928 17.8466 104.766 18.1193C104.607 18.3921 104.527 18.7065 104.527 19.0625V24H102.107Z" fill="#021343"/>
<path d="M108.653 24V15.2727H110.96V16.8125H111.062C111.244 16.3011 111.547 15.8977 111.972 15.6023C112.396 15.3068 112.903 15.1591 113.494 15.1591C114.093 15.1591 114.602 15.3087 115.023 15.608C115.443 15.9034 115.723 16.3049 115.864 16.8125H115.955C116.133 16.3125 116.455 15.9129 116.92 15.6136C117.39 15.3106 117.945 15.1591 118.585 15.1591C119.4 15.1591 120.061 15.4186 120.568 15.9375C121.08 16.4527 121.335 17.1837 121.335 18.1307V24H118.92V18.608C118.92 18.1231 118.792 17.7595 118.534 17.5171C118.277 17.2746 117.955 17.1534 117.568 17.1534C117.129 17.1534 116.786 17.2936 116.54 17.5739C116.294 17.8504 116.17 18.2159 116.17 18.6705V24H113.824V18.5568C113.824 18.1288 113.701 17.7879 113.455 17.5341C113.212 17.2803 112.892 17.1534 112.494 17.1534C112.225 17.1534 111.983 17.2216 111.767 17.358C111.555 17.4905 111.386 17.678 111.261 17.9205C111.136 18.1591 111.074 18.4394 111.074 18.7614V24H108.653Z" fill="#021343"/>
<defs>
<linearGradient id="paint0_linear_9_667" x1="7.65313" y1="27.1471" x2="27.7157" y2="-0.960484" gradientUnits="userSpaceOnUse">
<stop stop-color="#F8003C"/>
<stop offset="1" stop-color="#FF8438"/>
</linearGradient>
<linearGradient id="paint1_linear_9_667" x1="0.837541" y1="36.1757" x2="32.4951" y2="23.1592" gradientUnits="userSpaceOnUse">
<stop offset="0.16" stop-color="#0099AC"/>
<stop offset="1" stop-color="#00D5C9"/>
</linearGradient>
</defs>
</svg>
