<?xml version="1.0" encoding="utf-8"?>
<!-- Generator: Adobe Illustrator 23.0.4, SVG Export Plug-In . SVG Version: 6.00 Build 0)  -->
<svg version="1.1" id="Layer_1" xmlns="http://www.w3.org/2000/svg" xmlns:xlink="http://www.w3.org/1999/xlink" x="0px" y="0px"
	 viewBox="0 0 200 216.59" enable-background="new 0 0 512 512" xml:space="preserve">
<g>
	<g>
		<path style="fill: #ffffff;" d="M72.76,176.77H4.71c-2.6,0-4.71-2.11-4.71-4.71V4.71C0,2.11,2.11,0,4.71,0h172.06c2.6,0,4.71,2.11,4.71,4.71V82.5
			c0,2.6-2.11,4.71-4.71,4.71c-2.6,0-4.71-2.11-4.71-4.71V9.42H9.42v157.94h63.34c2.6,0,4.71,2.11,4.71,4.71
			S75.36,176.77,72.76,176.77z"/>
	</g>
	<g>
		<path style="fill: #ffffff;" d="M143.81,49.22H37.67c-2.6,0-4.71-2.11-4.71-4.71s2.11-4.71,4.71-4.71h106.14c2.6,0,4.71,2.11,4.71,4.71
			S146.41,49.22,143.81,49.22z"/>
	</g>
	<g>
		<path style="fill: #ffffff;" d="M143.81,83.67H37.67c-2.6,0-4.71-2.11-4.71-4.71c0-2.6,2.11-4.71,4.71-4.71h106.14c2.6,0,4.71,2.11,4.71,4.71
			C148.52,81.56,146.41,83.67,143.81,83.67z"/>
	</g>
	<g>
		<path style="fill: #ffffff;" d="M101.43,118.12H37.67c-2.6,0-4.71-2.11-4.71-4.71s2.11-4.71,4.71-4.71h63.76c2.6,0,4.71,2.11,4.71,4.71
			S104.04,118.12,101.43,118.12z"/>
	</g>
	<g>
		<g>
			<path style="fill: #ffffff;" d="M118.37,202.09l-24.55-24.55l66.95-66.95l24.55,24.55L118.37,202.09z M107.14,177.54l11.23,11.23l53.64-53.64
				l-11.23-11.23L107.14,177.54z"/>
		</g>
		<g>
			<path style="fill: #ffffff;" d="M182.42,138.04l-24.55-24.55l12.49-12.49c6.77-6.77,17.78-6.77,24.55,0c3.28,3.27,5.09,7.64,5.09,12.27
				c0,4.64-1.81,9-5.09,12.28L182.42,138.04z M171.19,113.48l11.23,11.23l5.84-5.84c1.5-1.5,2.33-3.49,2.33-5.62
				c0-2.12-0.82-4.12-2.33-5.61c-3.1-3.09-8.13-3.09-11.23,0L171.19,113.48z"/>
		</g>
		<g>
			<path style="fill: #ffffff;" d="M79.55,209.64l7.59-25.42l13.34-13.34l24.55,24.55l-13.34,13.34l-25.42,7.59C82.15,217.58,78.32,213.75,79.55,209.64z
				 M95.48,189.19L90.7,205.2l16.01-4.78l4.99-4.99l-11.23-11.23L95.48,189.19z"/>
		</g>
	</g>
</g>
</svg>
