<?xml version="1.0" encoding="utf-8"?>
<!-- Generator: Adobe Illustrator 23.1.0, SVG Export Plug-In . SVG Version: 6.00 Build 0)  -->
<svg version="1.1" id="Layer_1" xmlns="http://www.w3.org/2000/svg" xmlns:xlink="http://www.w3.org/1999/xlink" x="0px" y="0px"
	 viewBox="0 0 265 300" enable-background="new 0 0 265 300" xml:space="preserve">
<g id="Group_76" transform="translate(-78 -2543)">
	<path id="Rectangle_990" fill="#FFFFFF" d="M83,2543h255c2.8,0,5,2.2,5,5v290c0,2.8-2.2,5-5,5H83c-2.8,0-5-2.2-5-5v-290
		C78,2545.2,80.2,2543,83,2543z"/>
	<path id="Rectangle_991" fill="#E5E9EA" d="M120.5,2702h180c1.4,0,2.5,1.1,2.5,2.5l0,0c0,1.4-1.1,2.5-2.5,2.5h-180
		c-1.4,0-2.5-1.1-2.5-2.5l0,0C118,2703.1,119.1,2702,120.5,2702z"/>
	<text transform="matrix(1 0 0 1 118 2694)" fill="#565656" font-family="'HelveticaNeue'" font-size="12px">Email address</text>
	<text transform="matrix(1 0 0 1 118 2599)" fill="#565656" font-family="'HelveticaNeue-Medium'" font-size="15px">Don’t miss any update</text>
	<path id="Rectangle_995" fill="#02CAA7" d="M123,2781h95c2.8,0,5,2.2,5,5v17c0,2.8-2.2,5-5,5h-95c-2.8,0-5-2.2-5-5v-17
		C118,2783.2,120.2,2781,123,2781z"/>
	<text transform="matrix(1 0 0 1 142.2 2798)" fill="#FFFFFF" font-family="'HelveticaNeue-Medium'" font-size="10px">SUBSCRIBE</text>
	<text transform="matrix(1 0 0 1 118 2628)" fill="#565656" font-family="'HelveticaNeue'" font-size="12px">Subscribe now to get the latest </text>
	<text transform="matrix(1 0 0 1 118 2642)" fill="#565656" font-family="'HelveticaNeue'" font-size="12px">news, ofers and updates about </text>
	<text transform="matrix(1 0 0 1 118 2656)" fill="#565656" font-family="'HelveticaNeue'" font-size="12px">your favorite contents.</text>
</g>
</svg>
