<?xml version="1.0" encoding="utf-8"?>
<!-- Generator: Adobe Illustrator 23.1.0, SVG Export Plug-In . SVG Version: 6.00 Build 0)  -->
<svg version="1.1" id="Layer_1" xmlns="http://www.w3.org/2000/svg" xmlns:xlink="http://www.w3.org/1999/xlink" x="0px" y="0px"
	 viewBox="0 0 265 300" enable-background="new 0 0 265 300" xml:space="preserve">
<g>
	<path id="Rectangle_1030" fill="#FFFFFF" d="M5,0h255c2.8,0,5,2.2,5,5v290c0,2.8-2.2,5-5,5H5c-2.8,0-5-2.2-5-5V5C0,2.2,2.2,0,5,0z"
		/>
	<path id="Rectangle_1031" fill="#E5E9EA" d="M42.5,59h80c1.4,0,2.5,1.1,2.5,2.5l0,0c0,1.4-1.1,2.5-2.5,2.5h-80
		c-1.4,0-2.5-1.1-2.5-2.5l0,0C40,60.1,41.1,59,42.5,59z"/>
	<path id="Rectangle_1032" fill="#E5E9EA" d="M42.5,103h180c1.4,0,2.5,1.1,2.5,2.5l0,0c0,1.4-1.1,2.5-2.5,2.5h-180
		c-1.4,0-2.5-1.1-2.5-2.5l0,0C40,104.1,41.1,103,42.5,103z"/>
	<path id="Rectangle_1033" fill="#E5E9EA" d="M142.5,59h80c1.4,0,2.5,1.1,2.5,2.5l0,0c0,1.4-1.1,2.5-2.5,2.5h-80
		c-1.4,0-2.5-1.1-2.5-2.5l0,0C140,60.1,141.1,59,142.5,59z"/>
	<text transform="matrix(1 0 0 1 40 51)" fill="#565656" font-family="'HelveticaNeue'" font-size="12px">First Name</text>
	<text transform="matrix(1 0 0 1 40 95)" fill="#565656" font-family="'HelveticaNeue'" font-size="12px">Email</text>
	<text transform="matrix(1 0 0 1 40 149)" fill="#565656" font-family="'HelveticaNeue'" font-size="12px">How would you rate your</text>
	<text transform="matrix(1 0 0 1 40 164)" fill="#565656" font-family="'HelveticaNeue'" font-size="12px">experience with us?</text>
	<text transform="matrix(1 0 0 1 140 51)" fill="#565656" font-family="'HelveticaNeue'" font-size="12px">Last Name</text>
	<path id="Rectangle_1038" fill="#377DFF" d="M85,238h95c2.8,0,5,2.2,5,5v17c0,2.8-2.2,5-5,5H85c-2.8,0-5-2.2-5-5v-17
		C80,240.2,82.2,238,85,238z"/>
	<text transform="matrix(1 0 0 1 113.83 256)" fill="#FFFFFF" font-family="'HelveticaNeue-Medium'" font-size="10px">SUBMIT</text>
	<g>
		<g>
			<g>
				<g>
					<path fill="#FFDE46" d="M68.6,192.4c-4.1,0-7.5-3.4-7.5-7.5s3.4-7.5,7.5-7.5s7.5,3.4,7.5,7.5S72.7,192.4,68.6,192.4z"/>
				</g>
			</g>
			<g>
				<path fill="#FFCD00" d="M68.6,177.4v15c4.1,0,7.5-3.4,7.5-7.5S72.7,177.4,68.6,177.4z"/>
			</g>
			<g>
				<path fill="#00347B" d="M71.2,188.2c-0.1,0-0.3-0.1-0.4-0.2c-0.5-0.8-1.3-1.3-2.3-1.3c-0.9,0-1.8,0.5-2.3,1.3
					c-0.1,0.2-0.4,0.3-0.6,0.2s-0.3-0.4-0.2-0.6c0.6-1.1,1.8-1.7,3-1.7s2.4,0.7,3,1.7C71.5,187.8,71.5,188.1,71.2,188.2
					C71.4,188.2,71.3,188.2,71.2,188.2L71.2,188.2z"/>
			</g>
			<g>
				<path fill="#00347B" d="M65.8,184.7c-0.8,0-1.6-0.5-1.8-1.3c-0.1-0.2,0-0.5,0.3-0.6c0.2-0.1,0.5,0,0.6,0.3
					c0.1,0.4,0.5,0.7,1,0.7c0.4,0,0.8-0.3,1-0.7c0.1-0.2,0.3-0.4,0.6-0.3c0.2,0.1,0.4,0.3,0.3,0.6C67.4,184.1,66.6,184.7,65.8,184.7
					L65.8,184.7z"/>
			</g>
			<g>
				<path fill="#001737" d="M71.4,184.7c-0.8,0-1.6-0.5-1.8-1.3c-0.1-0.2,0-0.5,0.3-0.6c0.2-0.1,0.5,0,0.6,0.3
					c0.1,0.4,0.5,0.7,1,0.7c0.4,0,0.8-0.3,1-0.7c0.1-0.2,0.3-0.4,0.6-0.3c0.2,0.1,0.4,0.3,0.3,0.6C72.9,184.1,72.2,184.7,71.4,184.7
					L71.4,184.7z"/>
			</g>
			<path fill="#001737" d="M71.6,187.5c-0.6-1.1-1.8-1.7-3-1.7v0.9c0.9,0,1.8,0.5,2.3,1.3c0.1,0.1,0.2,0.2,0.4,0.2
				c0.1,0,0.2,0,0.2-0.1C71.7,188,71.7,187.7,71.6,187.5z"/>
		</g>
		<g>
			<g>
				<path fill="#FFDE46" d="M47.5,192.4c-4.1,0-7.5-3.4-7.5-7.5s3.4-7.5,7.5-7.5s7.5,3.4,7.5,7.5S51.7,192.4,47.5,192.4z"/>
			</g>
			<path fill="#FFCD00" d="M47.5,177.4v15c4.1,0,7.5-3.4,7.5-7.5S51.7,177.4,47.5,177.4z"/>
			<path fill="#00347B" d="M45.1,189.1c-0.6-0.2-1-0.8-1-1.5s0.4-1.2,1-1.5c0.2-0.1,4.7-0.1,4.9,0c0.6,0.2,1,0.8,1,1.5
				s-0.4,1.2-1,1.5C49.8,189.1,45.3,189.1,45.1,189.1z"/>
			<path fill="#001737" d="M50,186.1c-0.1,0-1.3-0.1-2.5-0.1v3c1.2,0,2.4,0,2.5-0.1c0.6-0.2,1-0.8,1-1.5S50.6,186.4,50,186.1
				L50,186.1z"/>
			<g>
				<path fill-rule="evenodd" clip-rule="evenodd" fill="#FFF4F4" d="M49.4,186h-3.8c-0.2,0-0.4,0-0.6,0.1v1c0,0.2,0.2,0.4,0.4,0.4
					h4c0.2,0,0.4-0.2,0.4-0.4v-1C49.8,186.1,49.6,186,49.4,186L49.4,186z"/>
				<path fill-rule="evenodd" clip-rule="evenodd" fill="#F6EFEA" d="M49.6,187.6h-4c-0.2,0-0.4,0.2-0.4,0.4v1
					c0.2,0.1,0.4,0.1,0.6,0.1h3.8c0.2,0,0.4,0,0.6-0.1v-1C50,187.8,49.8,187.6,49.6,187.6L49.6,187.6z"/>
				<ellipse fill-rule="evenodd" clip-rule="evenodd" fill="#00347B" cx="45.1" cy="182.9" rx="1.1" ry="1.1"/>
			</g>
			<path fill="#FFF4F4" d="M45.1,184.5c-0.8,0-1.5-0.7-1.5-1.5s0.7-1.5,1.5-1.5s1.5,0.7,1.5,1.5S45.9,184.5,45.1,184.5z M45.1,182.3
				c-0.3,0-0.6,0.3-0.6,0.6s0.3,0.6,0.6,0.6s0.6-0.3,0.6-0.6S45.4,182.3,45.1,182.3z"/>
			<circle fill-rule="evenodd" clip-rule="evenodd" fill="#001737" cx="50" cy="182.9" r="1.1"/>
			<path fill="#F6EFEA" d="M50,184.5c-0.8,0-1.5-0.7-1.5-1.5s0.7-1.5,1.5-1.5s1.5,0.7,1.5,1.5S50.9,184.5,50,184.5z M50,182.3
				c-0.3,0-0.6,0.3-0.6,0.6s0.3,0.6,0.6,0.6s0.6-0.3,0.6-0.6S50.4,182.3,50,182.3z"/>
			<path fill-rule="evenodd" clip-rule="evenodd" fill="#F6EFEA" d="M49.4,186h-1.9v1.6h2c0.2,0,0.4-0.2,0.4-0.4v-1
				C49.8,186.1,49.6,186,49.4,186L49.4,186z"/>
			<path fill-rule="evenodd" clip-rule="evenodd" fill="#EEE1DC" d="M49.6,187.6h-2v1.6h1.9c0.2,0,0.4,0,0.6-0.1v-1
				C50,187.8,49.8,187.6,49.6,187.6z"/>
		</g>
		<g>
			<g>
				<path fill="#FFDE46" d="M89.6,192.4c-4.1,0-7.5-3.4-7.5-7.5s3.4-7.5,7.5-7.5s7.5,3.4,7.5,7.5S93.8,192.4,89.6,192.4z"/>
			</g>
			<path fill="#FFCD00" d="M89.6,177.4v15c4.1,0,7.5-3.4,7.5-7.5S93.8,177.4,89.6,177.4z"/>
			<g>
				<path fill="#00347B" d="M92.3,188.2H87c-0.2,0-0.4-0.2-0.4-0.4s0.2-0.4,0.4-0.4h5.3c0.2,0,0.4,0.2,0.4,0.4
					S92.5,188.2,92.3,188.2z"/>
			</g>
			<ellipse fill-rule="evenodd" clip-rule="evenodd" fill="#00347B" cx="87.1" cy="182.9" rx="1.1" ry="1.1"/>
			<path fill="#FFF4F4" d="M87.1,184.5c-0.8,0-1.5-0.7-1.5-1.5s0.7-1.5,1.5-1.5s1.5,0.7,1.5,1.5S88,184.5,87.1,184.5z M87.1,182.3
				c-0.3,0-0.6,0.3-0.6,0.6s0.3,0.6,0.6,0.6s0.6-0.3,0.6-0.6S87.5,182.3,87.1,182.3z"/>
			<circle fill-rule="evenodd" clip-rule="evenodd" fill="#001737" cx="92.1" cy="182.9" r="1.1"/>
			<path fill="#F6EFEA" d="M92.1,184.5c-0.8,0-1.5-0.7-1.5-1.5s0.7-1.5,1.5-1.5s1.5,0.7,1.5,1.5S92.9,184.5,92.1,184.5z M92.1,182.3
				c-0.3,0-0.6,0.3-0.6,0.6s0.3,0.6,0.6,0.6c0.3,0,0.6-0.3,0.6-0.6S92.4,182.3,92.1,182.3z"/>
			<g>
				<ellipse fill-rule="evenodd" clip-rule="evenodd" fill="#00347B" cx="87.1" cy="182.9" rx="1.1" ry="1.1"/>
				<path fill="#FFF4F4" d="M87.1,184.5c-0.8,0-1.5-0.7-1.5-1.5s0.7-1.5,1.5-1.5s1.5,0.7,1.5,1.5S88,184.5,87.1,184.5z M87.1,182.3
					c-0.3,0-0.6,0.3-0.6,0.6s0.3,0.6,0.6,0.6s0.6-0.3,0.6-0.6S87.5,182.3,87.1,182.3z"/>
				<circle fill-rule="evenodd" clip-rule="evenodd" fill="#001737" cx="92.1" cy="182.9" r="1.1"/>
				<path fill="#F6EFEA" d="M92.1,184.5c-0.8,0-1.5-0.7-1.5-1.5s0.7-1.5,1.5-1.5s1.5,0.7,1.5,1.5S92.9,184.5,92.1,184.5z
					 M92.1,182.3c-0.3,0-0.6,0.3-0.6,0.6s0.3,0.6,0.6,0.6c0.3,0,0.6-0.3,0.6-0.6S92.4,182.3,92.1,182.3z"/>
			</g>
			<path fill="#001737" d="M92.3,187.3h-2.6v0.9h2.6c0.2,0,0.4-0.2,0.4-0.4S92.5,187.3,92.3,187.3z"/>
		</g>
		<g>
			<g>
				<path fill="#FFDE46" d="M110.7,192.4c-4.1,0-7.5-3.4-7.5-7.5s3.4-7.5,7.5-7.5s7.5,3.4,7.5,7.5S114.8,192.4,110.7,192.4z"/>
			</g>
			<path fill="#FFCD00" d="M110.7,177.4v15c4.1,0,7.5-3.4,7.5-7.5S114.8,177.4,110.7,177.4z"/>
			<g>
				<ellipse fill-rule="evenodd" clip-rule="evenodd" fill="#00429D" cx="108.2" cy="182.9" rx="1.1" ry="1.1"/>
				<path fill="#FFF4F4" d="M108.2,184.5c-0.8,0-1.5-0.7-1.5-1.5s0.7-1.5,1.5-1.5s1.5,0.7,1.5,1.5S109,184.5,108.2,184.5z
					 M108.2,182.3c-0.3,0-0.6,0.3-0.6,0.6s0.3,0.6,0.6,0.6s0.6-0.3,0.6-0.6S108.5,182.3,108.2,182.3z"/>
				<circle fill-rule="evenodd" clip-rule="evenodd" fill="#00347B" cx="113.1" cy="182.9" r="1.1"/>
				<path fill="#F6EFEA" d="M113.1,184.5c-0.8,0-1.5-0.7-1.5-1.5s0.7-1.5,1.5-1.5s1.5,0.7,1.5,1.5S114,184.5,113.1,184.5z
					 M113.1,182.3c-0.3,0-0.6,0.3-0.6,0.6s0.3,0.6,0.6,0.6c0.3,0,0.6-0.3,0.6-0.6S113.5,182.3,113.1,182.3z"/>
			</g>
			<g>
				<path fill="#00347B" d="M110.7,188.9c-0.8,0-1.6,1-2.3,0.5c-0.9-0.7-1.4-1.7-1.4-2.9v-0.1c0-0.1,0.1-0.2,0.2-0.2h7
					c0.1,0,0.2,0.1,0.2,0.2v0.1c0,1.2-0.6,2.3-1.4,2.9C112.3,189.9,111.5,188.9,110.7,188.9z"/>
			</g>
			<path fill="#001737" d="M114.1,186.2h-3.5v2.7c0.8,0,1.6,1,2.3,0.5c0.9-0.7,1.4-1.7,1.4-2.9v-0.1
				C114.4,186.3,114.3,186.2,114.1,186.2z"/>
			<path fill="#FF3F5C" d="M108.4,189.4c0.6,0.5,1.4,0.8,2.3,0.8s1.6-0.3,2.3-0.8c-0.2-0.8-1.1-1.5-2.3-1.5S108.6,188.6,108.4,189.4
				z"/>
			<path fill="#D20763" d="M110.7,190.2c0.8,0,1.6-0.3,2.3-0.8c-0.2-0.8-1.1-1.5-2.3-1.5V190.2z"/>
		</g>
		<g>
			<g>
				<path fill="#FFDE46" d="M131.7,192.4c-4.1,0-7.5-3.4-7.5-7.5s3.4-7.5,7.5-7.5s7.5,3.4,7.5,7.5S135.8,192.4,131.7,192.4z"/>
			</g>
			<path fill="#FFCD00" d="M131.7,177.4v15c4.1,0,7.5-3.4,7.5-7.5S135.8,177.4,131.7,177.4z"/>
			<g>
				<path fill="#FF3F5C" d="M129.4,184.7L129.4,184.7c-0.7-0.2-2.3-0.9-2.5-1.8c-0.1-0.3,0-0.6,0.1-0.9c0.2-0.3,0.4-0.5,0.7-0.5
					c0.3-0.1,0.7,0,1,0.2c0.1-0.3,0.4-0.5,0.7-0.6c0.3-0.1,0.6,0,0.9,0.1c0.3,0.2,0.5,0.4,0.5,0.7c0.2,0.9-1,2.5-1.2,2.8
					C129.5,184.7,129.5,184.7,129.4,184.7z M127.8,181.7L127.8,181.7L127.8,181.7z"/>
			</g>
			<g>
				<path fill="#D20763" d="M134,184.7c-0.1,0-0.1,0-0.2-0.1c-0.3-0.3-1.5-1.9-1.2-2.8c0.2-0.6,0.8-1,1.4-0.8
					c0.3,0.1,0.6,0.3,0.7,0.6c0.3-0.2,0.6-0.3,1-0.2c0.6,0.2,1,0.8,0.8,1.4C136.3,183.8,134.7,184.6,134,184.7L134,184.7z"/>
			</g>
			<g>
				<path fill="#00347B" d="M131.7,189.1c-0.8,0-1.6,1-2.3,0.5c-0.9-0.7-1.4-1.7-1.4-2.9v-0.1c0-0.1,0.1-0.2,0.2-0.2h7
					c0.1,0,0.2,0.1,0.2,0.2v0.1c0,1.2-0.6,2.3-1.4,2.9C133.3,190,132.5,189.1,131.7,189.1z"/>
			</g>
			<path fill="#001737" d="M135.2,186.3h-3.5v2.7c0.8,0,1.6,1,2.3,0.5c0.9-0.7,1.4-1.7,1.4-2.9v-0.1
				C135.4,186.4,135.3,186.3,135.2,186.3z"/>
			<path fill="#FF3F5C" d="M129.4,189.5c0.6,0.5,1.4,0.8,2.3,0.8c0.9,0,1.6-0.3,2.3-0.8c-0.2-0.8-1.1-1.5-2.3-1.5
				C130.6,188.1,129.6,188.7,129.4,189.5z"/>
			<path fill="#D20763" d="M131.7,190.3c0.8,0,1.6-0.3,2.3-0.8c-0.2-0.8-1.1-1.5-2.3-1.5V190.3z"/>
		</g>
	</g>
</g>
</svg>
