<?xml version="1.0" encoding="utf-8"?>
<!-- Generator: Adobe Illustrator 23.1.0, SVG Export Plug-In . SVG Version: 6.00 Build 0)  -->
<svg version="1.1" id="Layer_1" xmlns="http://www.w3.org/2000/svg" xmlns:xlink="http://www.w3.org/1999/xlink" x="0px" y="0px"
	 viewBox="0 0 265 300" enable-background="new 0 0 265 300" xml:space="preserve">
<g id="Group_69" transform="translate(-1258 -3001)">
	<path id="Rectangle_1066" fill="#FFFFFF" d="M1263,3001h255c2.8,0,5,2.2,5,5v290c0,2.8-2.2,5-5,5h-255c-2.8,0-5-2.2-5-5v-290
		C1258,3003.2,1260.2,3001,1263,3001z"/>
	<path id="Rectangle_1067" fill="#E5E9EA" d="M1300.5,3060h80c1.4,0,2.5,1.1,2.5,2.5l0,0c0,1.4-1.1,2.5-2.5,2.5h-80
		c-1.4,0-2.5-1.1-2.5-2.5l0,0C1298,3061.1,1299.1,3060,1300.5,3060z"/>
	<path id="Rectangle_1068" fill="#E5E9EA" d="M1300.5,3104h180c1.4,0,2.5,1.1,2.5,2.5l0,0c0,1.4-1.1,2.5-2.5,2.5h-180
		c-1.4,0-2.5-1.1-2.5-2.5l0,0C1298,3105.1,1299.1,3104,1300.5,3104z"/>
	<path id="Rectangle_1070" fill="#E5E9EA" d="M1400.5,3060h80c1.4,0,2.5,1.1,2.5,2.5l0,0c0,1.4-1.1,2.5-2.5,2.5h-80
		c-1.4,0-2.5-1.1-2.5-2.5l0,0C1398,3061.1,1399.1,3060,1400.5,3060z"/>
	<text transform="matrix(1 0 0 1 1298 3052)" fill="#565656" font-family="'HelveticaNeue'" font-size="12px">First Name</text>
	<text transform="matrix(1 0 0 1 1298 3096)" fill="#565656" font-family="'HelveticaNeue'" font-size="12px">Email</text>
	<text transform="matrix(1 0 0 1 1398 3052)" fill="#565656" font-family="'HelveticaNeue'" font-size="12px">Last Name</text>
	<path id="Rectangle_1073" fill="#E5E9EA" d="M1400.5,3148h80c1.4,0,2.5,1.1,2.5,2.5l0,0c0,1.4-1.1,2.5-2.5,2.5h-80
		c-1.4,0-2.5-1.1-2.5-2.5l0,0C1398,3149.1,1399.1,3148,1400.5,3148z"/>
	<path id="Rectangle_1074" fill="#E5E9EA" d="M1400.5,3192h80c1.4,0,2.5,1.1,2.5,2.5l0,0c0,1.4-1.1,2.5-2.5,2.5h-80
		c-1.4,0-2.5-1.1-2.5-2.5l0,0C1398,3193.1,1399.1,3192,1400.5,3192z"/>
	<text transform="matrix(1 0 0 1 1398 3140)" fill="#565656" font-family="'HelveticaNeue'" font-size="12px">Package Plan</text>
	<text transform="matrix(1 0 0 1 1398 3184)" fill="#565656" font-family="'HelveticaNeue'" font-size="12px">Quantity</text>
	<path id="Rectangle_1072" fill="#69BB00" d="M1343,3239h95c2.8,0,5,2.2,5,5v17c0,2.8-2.2,5-5,5h-95c-2.8,0-5-2.2-5-5v-17
		C1338,3241.2,1340.2,3239,1343,3239z"/>
	<text transform="matrix(1 0 0 1 1371.8301 3257)" fill="#FFFFFF" font-family="'HelveticaNeue-Medium'" font-size="10px">SUBMIT</text>
	<g id="Rectangle_1000" transform="translate(1298 3149)">
		<path fill="#E5E9EA" d="M5,0h75c2.8,0,5,2.2,5,5v38c0,2.8-2.2,5-5,5H5c-2.8,0-5-2.2-5-5V5C0,2.2,2.2,0,5,0z"/>
		<path fill="none" stroke="#CED3D5" stroke-width="2" d="M5,1h75c2.2,0,4,1.8,4,4v38c0,2.2-1.8,4-4,4H5c-2.2,0-4-1.8-4-4V5
			C1,2.8,2.8,1,5,1z"/>
	</g>
	<text transform="matrix(1 0 0 1 1298 3140)" fill="#565656" font-family="'HelveticaNeue'" font-size="12px">Product</text>
	<g id="Group_64" transform="translate(462.804 2699.412)">
		<path id="Path_2007" fill="#CED3D5" d="M894.9,461.9c-0.2-0.2-0.4-0.3-0.7-0.3h-33c-0.3,0-0.5,0.1-0.7,0.3
			c-0.2,0.2-0.3,0.4-0.3,0.7v21.6c0,0.3,0.1,0.5,0.3,0.7c0.2,0.2,0.4,0.3,0.7,0.3h33c0.3,0,0.5-0.1,0.7-0.3c0.2-0.2,0.3-0.4,0.3-0.7
			v-21.6C895.2,462.3,895.1,462.1,894.9,461.9z M862.2,483.2v-1.6l10.5-10.5l12,12.1L862.2,483.2z M893.2,483.2h-5.8l-4.1-4.1
			l3.1-3.1l6.6,6.7c0,0,0.1,0.1,0.1,0.1c0,0,0.1,0,0.1,0L893.2,483.2z M893.2,480.1l-6.1-6.2c-0.4-0.3-1-0.3-1.4,0l-3.8,3.8
			l-8.6-8.6c-0.4-0.3-1-0.3-1.4,0l-9.8,9.8v-15.3h31L893.2,480.1z"/>
		<path id="Path_2008" fill="#CED3D5" d="M884.5,466.5c-0.7-0.7-1.6-1.1-2.6-1.1c-2,0-3.7,1.6-3.7,3.7c0,0,0,0,0,0.1
			c0,1,0.4,1.9,1.1,2.6c0.7,0.7,1.6,1.1,2.6,1.1c2,0,3.7-1.6,3.7-3.7C885.6,468.1,885.2,467.2,884.5,466.5z M883.1,470.3
			c-0.3,0.3-0.8,0.5-1.2,0.5c-0.5,0-0.9-0.2-1.3-0.5c-0.3-0.3-0.5-0.8-0.5-1.2c0-1,0.8-1.8,1.8-1.8c0,0,0,0,0,0
			c0.5,0,0.9,0.2,1.2,0.5c0.3,0.3,0.5,0.8,0.5,1.3C883.6,469.6,883.4,470,883.1,470.3L883.1,470.3z"/>
	</g>
</g>
</svg>
