<?xml version="1.0" encoding="utf-8"?>
<!-- Generator: Adobe Illustrator 23.1.0, SVG Export Plug-In . SVG Version: 6.00 Build 0)  -->
<svg version="1.1" id="Layer_1" xmlns="http://www.w3.org/2000/svg" xmlns:xlink="http://www.w3.org/1999/xlink" x="0px" y="0px"
	 viewBox="0 0 265 300" enable-background="new 0 0 265 300" xml:space="preserve">
<g>
	<path id="Rectangle_852" fill="#FFFFFF" d="M5,0h255c2.8,0,5,2.2,5,5v290c0,2.8-2.2,5-5,5H5c-2.8,0-5-2.2-5-5V5C0,2.2,2.2,0,5,0z"
		/>
	<path id="Rectangle_853" fill="#E5E9EA" d="M42.5,59h180c1.4,0,2.5,1.1,2.5,2.5l0,0c0,1.4-1.1,2.5-2.5,2.5h-180
		c-1.4,0-2.5-1.1-2.5-2.5l0,0C40,60.1,41.1,59,42.5,59z"/>
	<path id="Rectangle_854" fill="#E5E9EA" d="M42.5,108h180c1.4,0,2.5,1.1,2.5,2.5l0,0c0,1.4-1.1,2.5-2.5,2.5h-180
		c-1.4,0-2.5-1.1-2.5-2.5l0,0C40,109.1,41.1,108,42.5,108z"/>
	<path id="Rectangle_860" fill="#E5E9EA" d="M42.5,157h180c1.4,0,2.5,1.1,2.5,2.5l0,0c0,1.4-1.1,2.5-2.5,2.5h-180
		c-1.4,0-2.5-1.1-2.5-2.5l0,0C40,158.1,41.1,157,42.5,157z"/>
	<path id="Rectangle_861" fill="#E5E9EA" d="M42.5,206h150c1.4,0,2.5,1.1,2.5,2.5l0,0c0,1.4-1.1,2.5-2.5,2.5h-150
		c-1.4,0-2.5-1.1-2.5-2.5l0,0C40,207.1,41.1,206,42.5,206z"/>
	<path id="Rectangle_862" fill="#E5E9EA" d="M207.5,206h15c1.4,0,2.5,1.1,2.5,2.5l0,0c0,1.4-1.1,2.5-2.5,2.5h-15
		c-1.4,0-2.5-1.1-2.5-2.5l0,0C205,207.1,206.1,206,207.5,206z"/>
	<g enable-background="new    ">
		<path fill="#565656" d="M46.6,42.4v1h-4.5v2.7H46v1h-3.9V51h-1.1v-8.6H46.6z"/>
		<path fill="#565656" d="M51.8,51v-1h0c-0.2,0.4-0.5,0.7-0.8,0.8c-0.3,0.2-0.7,0.3-1.2,0.3c-0.4,0-0.7-0.1-1-0.2
			c-0.3-0.1-0.5-0.3-0.7-0.5c-0.2-0.2-0.3-0.4-0.4-0.7c-0.1-0.3-0.1-0.6-0.1-0.9v-4.1h1V49c0,0.4,0.1,0.7,0.3,0.9
			c0.2,0.2,0.5,0.3,0.9,0.3c0.3,0,0.6,0,0.8-0.1c0.2-0.1,0.4-0.2,0.6-0.4c0.2-0.2,0.3-0.4,0.3-0.6c0.1-0.2,0.1-0.5,0.1-0.8v-3.5h1
			V51H51.8z"/>
		<path fill="#565656" d="M55.4,42.4V51h-1v-8.6H55.4z"/>
		<path fill="#565656" d="M58.1,42.4V51h-1v-8.6H58.1z"/>
		<path fill="#565656" d="M64.4,42.4l4.5,6.9h0v-6.9H70V51h-1.2l-4.5-6.9h0V51h-1.1v-8.6H64.4z"/>
		<path fill="#565656" d="M77.2,51c-0.2,0.1-0.4,0.2-0.7,0.2c-0.3,0-0.5-0.1-0.6-0.2c-0.2-0.1-0.2-0.4-0.2-0.7
			c-0.3,0.3-0.6,0.6-1,0.7c-0.4,0.1-0.8,0.2-1.2,0.2c-0.3,0-0.5,0-0.8-0.1c-0.3-0.1-0.5-0.2-0.7-0.3c-0.2-0.1-0.3-0.3-0.4-0.5
			c-0.1-0.2-0.2-0.5-0.2-0.8c0-0.4,0.1-0.6,0.2-0.9c0.1-0.2,0.3-0.4,0.5-0.5c0.2-0.1,0.4-0.2,0.7-0.3s0.5-0.1,0.8-0.2
			c0.3-0.1,0.5-0.1,0.8-0.1s0.5-0.1,0.7-0.1s0.3-0.1,0.5-0.2c0.1-0.1,0.2-0.2,0.2-0.4c0-0.2,0-0.4-0.1-0.5s-0.2-0.2-0.3-0.3
			c-0.1-0.1-0.3-0.1-0.4-0.1c-0.2,0-0.3,0-0.5,0c-0.4,0-0.8,0.1-1.1,0.2s-0.4,0.5-0.5,0.9h-1c0-0.4,0.1-0.7,0.2-1s0.3-0.5,0.6-0.6
			c0.2-0.2,0.5-0.3,0.8-0.4c0.3-0.1,0.6-0.1,1-0.1c0.3,0,0.6,0,0.8,0.1c0.3,0,0.5,0.1,0.8,0.2c0.2,0.1,0.4,0.3,0.5,0.5
			c0.1,0.2,0.2,0.5,0.2,0.9v3.2c0,0.2,0,0.4,0,0.5c0,0.1,0.1,0.2,0.3,0.2c0.1,0,0.2,0,0.3-0.1V51z M75.5,47.8
			C75.4,47.9,75.2,48,75,48s-0.4,0.1-0.7,0.1c-0.2,0-0.5,0.1-0.7,0.1s-0.4,0.1-0.6,0.2c-0.2,0.1-0.3,0.2-0.5,0.3
			c-0.1,0.1-0.2,0.4-0.2,0.6c0,0.2,0,0.3,0.1,0.4s0.2,0.2,0.3,0.3c0.1,0.1,0.2,0.1,0.4,0.2c0.1,0,0.3,0,0.5,0c0.3,0,0.6,0,0.9-0.1
			c0.2-0.1,0.4-0.2,0.6-0.3c0.2-0.1,0.3-0.3,0.3-0.5s0.1-0.3,0.1-0.5V47.8z"/>
		<path fill="#565656" d="M79.1,44.8v0.9h0c0.5-0.7,1.1-1.1,2-1.1c0.4,0,0.7,0.1,1,0.2c0.3,0.2,0.5,0.4,0.7,0.8
			c0.2-0.3,0.5-0.6,0.8-0.8c0.3-0.2,0.7-0.3,1.1-0.3c0.3,0,0.6,0,0.8,0.1c0.3,0.1,0.5,0.2,0.6,0.3c0.2,0.1,0.3,0.3,0.4,0.6
			c0.1,0.2,0.1,0.5,0.1,0.8V51h-1v-4.1c0-0.2,0-0.4,0-0.5s-0.1-0.3-0.2-0.4c-0.1-0.1-0.2-0.2-0.4-0.3s-0.4-0.1-0.6-0.1
			c-0.5,0-0.9,0.1-1.2,0.4S83,46.7,83,47.1V51h-1v-4.1c0-0.2,0-0.4-0.1-0.6c0-0.2-0.1-0.3-0.2-0.4c-0.1-0.1-0.2-0.2-0.4-0.3
			c-0.1-0.1-0.3-0.1-0.6-0.1c-0.3,0-0.5,0.1-0.8,0.2c-0.2,0.1-0.4,0.3-0.5,0.4s-0.2,0.3-0.3,0.5c-0.1,0.2-0.1,0.3-0.1,0.5V51h-1
			v-6.2H79.1z"/>
		<path fill="#565656" d="M92.7,50.6c-0.5,0.4-1,0.5-1.8,0.5c-0.5,0-0.9-0.1-1.3-0.2c-0.4-0.2-0.7-0.4-0.9-0.7
			c-0.2-0.3-0.4-0.6-0.6-1c-0.1-0.4-0.2-0.8-0.2-1.3c0-0.5,0.1-0.9,0.2-1.3s0.3-0.7,0.6-1c0.3-0.3,0.6-0.5,0.9-0.7
			c0.4-0.2,0.7-0.2,1.2-0.2c0.6,0,1,0.1,1.4,0.3c0.4,0.2,0.7,0.5,0.9,0.9c0.2,0.4,0.4,0.7,0.5,1.2c0.1,0.4,0.1,0.8,0.1,1.2h-4.6
			c0,0.3,0,0.5,0.1,0.8c0.1,0.2,0.2,0.5,0.3,0.6c0.2,0.2,0.4,0.3,0.6,0.5s0.5,0.2,0.9,0.2c0.4,0,0.8-0.1,1.1-0.3
			c0.3-0.2,0.5-0.5,0.5-0.9h1C93.5,49.7,93.2,50.3,92.7,50.6z M92.5,46.6c-0.1-0.2-0.2-0.4-0.4-0.6c-0.2-0.2-0.3-0.3-0.6-0.4
			c-0.2-0.1-0.4-0.1-0.7-0.1c-0.3,0-0.5,0-0.7,0.1c-0.2,0.1-0.4,0.2-0.5,0.4s-0.3,0.3-0.4,0.6s-0.1,0.4-0.2,0.7h3.6
			C92.6,47.1,92.6,46.8,92.5,46.6z"/>
	</g>
	<g enable-background="new    ">
		<path fill="#565656" d="M46.9,91.4v1h-4.8v2.7h4.5v1h-4.5v3h4.8v1h-6v-8.6H46.9z"/>
		<path fill="#565656" d="M49.1,93.8v0.9h0c0.5-0.7,1.1-1.1,2-1.1c0.4,0,0.7,0.1,1,0.2c0.3,0.2,0.5,0.4,0.7,0.8
			c0.2-0.3,0.5-0.6,0.8-0.8c0.3-0.2,0.7-0.3,1.1-0.3c0.3,0,0.6,0,0.8,0.1c0.3,0.1,0.5,0.2,0.6,0.3c0.2,0.1,0.3,0.3,0.4,0.6
			c0.1,0.2,0.1,0.5,0.1,0.8v4.5h-1v-4.1c0-0.2,0-0.4,0-0.5s-0.1-0.3-0.2-0.4c-0.1-0.1-0.2-0.2-0.4-0.3s-0.4-0.1-0.6-0.1
			c-0.5,0-0.9,0.1-1.2,0.4S53,95.7,53,96.1v3.9h-1v-4.1c0-0.2,0-0.4-0.1-0.6c0-0.2-0.1-0.3-0.2-0.4c-0.1-0.1-0.2-0.2-0.4-0.3
			c-0.1-0.1-0.3-0.1-0.6-0.1c-0.3,0-0.5,0.1-0.8,0.2c-0.2,0.1-0.4,0.3-0.5,0.4s-0.2,0.3-0.3,0.5c-0.1,0.2-0.1,0.3-0.1,0.5v3.9h-1
			v-6.2H49.1z"/>
		<path fill="#565656" d="M63.8,100c-0.2,0.1-0.4,0.2-0.7,0.2c-0.3,0-0.5-0.1-0.6-0.2c-0.2-0.1-0.2-0.4-0.2-0.7
			c-0.3,0.3-0.6,0.6-1,0.7c-0.4,0.1-0.8,0.2-1.2,0.2c-0.3,0-0.5,0-0.8-0.1c-0.3-0.1-0.5-0.2-0.7-0.3c-0.2-0.1-0.3-0.3-0.4-0.5
			C58.1,99,58,98.7,58,98.4c0-0.4,0.1-0.6,0.2-0.9c0.1-0.2,0.3-0.4,0.5-0.5c0.2-0.1,0.4-0.2,0.7-0.3s0.5-0.1,0.8-0.2
			c0.3-0.1,0.5-0.1,0.8-0.1s0.5-0.1,0.7-0.1s0.3-0.1,0.5-0.2c0.1-0.1,0.2-0.2,0.2-0.4c0-0.2,0-0.4-0.1-0.5s-0.2-0.2-0.3-0.3
			c-0.1-0.1-0.3-0.1-0.4-0.1c-0.2,0-0.3,0-0.5,0c-0.4,0-0.8,0.1-1.1,0.2s-0.4,0.5-0.5,0.9h-1c0-0.4,0.1-0.7,0.2-1s0.3-0.5,0.6-0.6
			c0.2-0.2,0.5-0.3,0.8-0.4c0.3-0.1,0.6-0.1,1-0.1c0.3,0,0.6,0,0.8,0.1c0.3,0,0.5,0.1,0.8,0.2c0.2,0.1,0.4,0.3,0.5,0.5
			c0.1,0.2,0.2,0.5,0.2,0.9v3.2c0,0.2,0,0.4,0,0.5c0,0.1,0.1,0.2,0.3,0.2c0.1,0,0.2,0,0.3-0.1V100z M62.2,96.8
			C62,96.9,61.9,97,61.7,97s-0.4,0.1-0.7,0.1c-0.2,0-0.5,0.1-0.7,0.1s-0.4,0.1-0.6,0.2c-0.2,0.1-0.3,0.2-0.5,0.3
			c-0.1,0.1-0.2,0.4-0.2,0.6c0,0.2,0,0.3,0.1,0.4s0.2,0.2,0.3,0.3c0.1,0.1,0.2,0.1,0.4,0.2c0.1,0,0.3,0,0.5,0c0.3,0,0.6,0,0.9-0.1
			c0.2-0.1,0.4-0.2,0.6-0.3c0.2-0.1,0.3-0.3,0.3-0.5s0.1-0.3,0.1-0.5V96.8z"/>
		<path fill="#565656" d="M64.8,92.7v-1.2h1v1.2H64.8z M65.9,93.8v6.2h-1v-6.2H65.9z"/>
		<path fill="#565656" d="M68.5,91.4v8.6h-1v-8.6H68.5z"/>
		<path fill="#565656" d="M77.2,91.4l3.3,8.6h-1.3l-0.9-2.6h-3.6l-1,2.6h-1.2l3.3-8.6H77.2z M78,96.5l-1.4-4h0l-1.5,4H78z"/>
		<path fill="#565656" d="M85.7,100v-0.8h0c-0.2,0.3-0.4,0.6-0.8,0.7c-0.4,0.2-0.8,0.2-1.2,0.2c-0.5,0-0.9-0.1-1.3-0.3
			c-0.4-0.2-0.7-0.4-0.9-0.7s-0.4-0.6-0.5-1c-0.1-0.4-0.2-0.8-0.2-1.2c0-0.4,0.1-0.9,0.2-1.2c0.1-0.4,0.3-0.7,0.5-1
			c0.2-0.3,0.5-0.5,0.9-0.7s0.8-0.3,1.2-0.3c0.2,0,0.3,0,0.5,0s0.4,0.1,0.6,0.2s0.4,0.2,0.5,0.3s0.3,0.3,0.4,0.5h0v-3.2h1v8.6H85.7z
			 M82.1,97.8c0.1,0.3,0.2,0.5,0.3,0.7c0.2,0.2,0.4,0.4,0.6,0.5c0.2,0.1,0.5,0.2,0.9,0.2c0.3,0,0.6-0.1,0.9-0.2
			c0.2-0.1,0.4-0.3,0.6-0.5c0.2-0.2,0.3-0.5,0.3-0.8c0.1-0.3,0.1-0.6,0.1-0.9c0-0.3,0-0.6-0.1-0.9c-0.1-0.3-0.2-0.5-0.3-0.8
			c-0.2-0.2-0.4-0.4-0.6-0.5s-0.5-0.2-0.9-0.2c-0.3,0-0.6,0.1-0.9,0.2c-0.2,0.1-0.4,0.3-0.6,0.5c-0.1,0.2-0.2,0.5-0.3,0.8
			C82,96.4,82,96.6,82,97C82,97.2,82,97.5,82.1,97.8z"/>
		<path fill="#565656" d="M92.9,100v-0.8h0c-0.2,0.3-0.4,0.6-0.8,0.7c-0.4,0.2-0.8,0.2-1.2,0.2c-0.5,0-0.9-0.1-1.3-0.3
			c-0.4-0.2-0.7-0.4-0.9-0.7s-0.4-0.6-0.5-1c-0.1-0.4-0.2-0.8-0.2-1.2c0-0.4,0.1-0.9,0.2-1.2c0.1-0.4,0.3-0.7,0.5-1
			c0.2-0.3,0.5-0.5,0.9-0.7s0.8-0.3,1.2-0.3c0.2,0,0.3,0,0.5,0s0.4,0.1,0.6,0.2s0.4,0.2,0.5,0.3s0.3,0.3,0.4,0.5h0v-3.2h1v8.6H92.9z
			 M89.2,97.8c0.1,0.3,0.2,0.5,0.3,0.7c0.2,0.2,0.4,0.4,0.6,0.5c0.2,0.1,0.5,0.2,0.9,0.2c0.3,0,0.6-0.1,0.9-0.2
			c0.2-0.1,0.4-0.3,0.6-0.5c0.2-0.2,0.3-0.5,0.3-0.8c0.1-0.3,0.1-0.6,0.1-0.9c0-0.3,0-0.6-0.1-0.9c-0.1-0.3-0.2-0.5-0.3-0.8
			c-0.2-0.2-0.4-0.4-0.6-0.5s-0.5-0.2-0.9-0.2c-0.3,0-0.6,0.1-0.9,0.2c-0.2,0.1-0.4,0.3-0.6,0.5c-0.1,0.2-0.2,0.5-0.3,0.8
			c-0.1,0.3-0.1,0.6-0.1,0.9C89.1,97.2,89.1,97.5,89.2,97.8z"/>
		<path fill="#565656" d="M96.4,93.8v1.3h0c0.2-0.5,0.6-0.9,0.9-1.1c0.4-0.2,0.8-0.4,1.4-0.3v1.1c-0.4,0-0.8,0.1-1,0.2
			c-0.3,0.1-0.5,0.3-0.7,0.5c-0.2,0.2-0.3,0.5-0.4,0.8c-0.1,0.3-0.1,0.7-0.1,1.1v2.8h-1v-6.2H96.4z"/>
		<path fill="#565656" d="M103.6,99.6c-0.5,0.4-1,0.5-1.8,0.5c-0.5,0-0.9-0.1-1.3-0.2c-0.4-0.2-0.7-0.4-0.9-0.7
			c-0.2-0.3-0.4-0.6-0.6-1c-0.1-0.4-0.2-0.8-0.2-1.3c0-0.5,0.1-0.9,0.2-1.3s0.3-0.7,0.6-1c0.3-0.3,0.6-0.5,0.9-0.7
			c0.4-0.2,0.7-0.2,1.2-0.2c0.6,0,1,0.1,1.4,0.3c0.4,0.2,0.7,0.5,0.9,0.9c0.2,0.4,0.4,0.7,0.5,1.2c0.1,0.4,0.1,0.8,0.1,1.2H100
			c0,0.3,0,0.5,0.1,0.8c0.1,0.2,0.2,0.5,0.3,0.6c0.2,0.2,0.4,0.3,0.6,0.5s0.5,0.2,0.9,0.2c0.4,0,0.8-0.1,1.1-0.3
			c0.3-0.2,0.5-0.5,0.5-0.9h1C104.4,98.7,104.1,99.3,103.6,99.6z M103.4,95.6c-0.1-0.2-0.2-0.4-0.4-0.6c-0.2-0.2-0.3-0.3-0.6-0.4
			c-0.2-0.1-0.4-0.1-0.7-0.1c-0.3,0-0.5,0-0.7,0.1c-0.2,0.1-0.4,0.2-0.5,0.4s-0.3,0.3-0.4,0.6s-0.1,0.4-0.2,0.7h3.6
			C103.5,96.1,103.5,95.8,103.4,95.6z"/>
		<path fill="#565656" d="M106.5,98.6c0.1,0.2,0.2,0.3,0.4,0.4c0.2,0.1,0.3,0.2,0.5,0.2c0.2,0,0.4,0.1,0.6,0.1c0.2,0,0.3,0,0.5,0
			c0.2,0,0.3-0.1,0.5-0.1c0.1-0.1,0.3-0.2,0.4-0.3c0.1-0.1,0.1-0.3,0.1-0.5c0-0.3-0.1-0.5-0.3-0.6c-0.2-0.1-0.4-0.2-0.7-0.3
			c-0.3-0.1-0.6-0.2-1-0.2c-0.4-0.1-0.7-0.2-1-0.3c-0.3-0.1-0.6-0.3-0.8-0.5c-0.2-0.2-0.3-0.5-0.3-0.9c0-0.3,0.1-0.6,0.2-0.8
			c0.1-0.2,0.3-0.4,0.5-0.5c0.2-0.1,0.5-0.2,0.7-0.3c0.3-0.1,0.5-0.1,0.8-0.1c0.4,0,0.7,0,1,0.1c0.3,0.1,0.6,0.2,0.8,0.3
			c0.2,0.1,0.4,0.3,0.5,0.6c0.1,0.3,0.2,0.6,0.2,0.9h-1c0-0.2-0.1-0.4-0.2-0.5c-0.1-0.1-0.2-0.2-0.3-0.3c-0.1-0.1-0.3-0.1-0.5-0.2
			c-0.2,0-0.3-0.1-0.5-0.1c-0.2,0-0.3,0-0.5,0c-0.2,0-0.3,0.1-0.4,0.1c-0.1,0.1-0.2,0.1-0.3,0.2c-0.1,0.1-0.1,0.2-0.1,0.4
			c0,0.2,0.1,0.3,0.2,0.4s0.3,0.2,0.5,0.3c0.2,0.1,0.4,0.1,0.6,0.2c0.2,0.1,0.5,0.1,0.7,0.2c0.3,0.1,0.5,0.1,0.8,0.2
			s0.5,0.2,0.6,0.3c0.2,0.1,0.3,0.3,0.5,0.5c0.1,0.2,0.2,0.4,0.2,0.7c0,0.4-0.1,0.7-0.2,0.9s-0.4,0.4-0.6,0.6
			c-0.3,0.2-0.5,0.3-0.9,0.3c-0.3,0.1-0.6,0.1-0.9,0.1c-0.3,0-0.7,0-1-0.1c-0.3-0.1-0.6-0.2-0.8-0.4c-0.2-0.2-0.4-0.4-0.6-0.6
			c-0.1-0.3-0.2-0.6-0.2-1h1C106.3,98.3,106.4,98.5,106.5,98.6z"/>
		<path fill="#565656" d="M112.5,98.6c0.1,0.2,0.2,0.3,0.4,0.4c0.2,0.1,0.3,0.2,0.5,0.2c0.2,0,0.4,0.1,0.6,0.1c0.2,0,0.3,0,0.5,0
			s0.3-0.1,0.5-0.1c0.1-0.1,0.3-0.2,0.4-0.3c0.1-0.1,0.1-0.3,0.1-0.5c0-0.3-0.1-0.5-0.3-0.6c-0.2-0.1-0.4-0.2-0.8-0.3
			c-0.3-0.1-0.6-0.2-1-0.2c-0.4-0.1-0.7-0.2-1-0.3c-0.3-0.1-0.6-0.3-0.8-0.5c-0.2-0.2-0.3-0.5-0.3-0.9c0-0.3,0.1-0.6,0.2-0.8
			c0.1-0.2,0.3-0.4,0.5-0.5c0.2-0.1,0.5-0.2,0.7-0.3c0.3-0.1,0.6-0.1,0.8-0.1c0.4,0,0.7,0,1,0.1c0.3,0.1,0.6,0.2,0.8,0.3
			c0.2,0.1,0.4,0.3,0.5,0.6c0.1,0.3,0.2,0.6,0.2,0.9h-1c0-0.2-0.1-0.4-0.2-0.5c-0.1-0.1-0.2-0.2-0.3-0.3s-0.3-0.1-0.5-0.2
			c-0.2,0-0.3-0.1-0.5-0.1c-0.2,0-0.3,0-0.5,0c-0.2,0-0.3,0.1-0.4,0.1c-0.1,0.1-0.2,0.1-0.3,0.2c-0.1,0.1-0.1,0.2-0.1,0.4
			c0,0.2,0.1,0.3,0.2,0.4s0.3,0.2,0.5,0.3c0.2,0.1,0.4,0.1,0.6,0.2c0.2,0.1,0.5,0.1,0.7,0.2c0.3,0.1,0.5,0.1,0.8,0.2
			s0.5,0.2,0.6,0.3c0.2,0.1,0.3,0.3,0.5,0.5c0.1,0.2,0.2,0.4,0.2,0.7c0,0.4-0.1,0.7-0.2,0.9s-0.4,0.4-0.6,0.6
			c-0.3,0.2-0.5,0.3-0.9,0.3s-0.6,0.1-0.9,0.1c-0.3,0-0.7,0-1-0.1c-0.3-0.1-0.6-0.2-0.8-0.4c-0.2-0.2-0.4-0.4-0.6-0.6
			c-0.1-0.3-0.2-0.6-0.2-1h1C112.3,98.3,112.4,98.5,112.5,98.6z"/>
	</g>
	<g enable-background="new    ">
		<path fill="#565656" d="M44.7,140.4c0.9,0,1.5,0.2,2,0.7c0.4,0.4,0.7,1.1,0.7,1.9s-0.2,1.4-0.7,1.9c-0.4,0.4-1.1,0.7-2,0.7h-2.6
			v3.5h-1.1v-8.6H44.7z M44.3,144.5c0.6,0,1.1-0.1,1.4-0.4c0.3-0.3,0.5-0.7,0.5-1.2s-0.2-0.9-0.5-1.2c-0.3-0.3-0.8-0.4-1.4-0.4h-2.2
			v3.1H44.3z"/>
		<path fill="#565656" d="M49.5,142.8v1.3h0c0.2-0.5,0.6-0.9,0.9-1.1c0.4-0.2,0.8-0.4,1.4-0.3v1.1c-0.4,0-0.8,0.1-1,0.2
			c-0.3,0.1-0.5,0.3-0.7,0.5c-0.2,0.2-0.3,0.5-0.4,0.8c-0.1,0.3-0.1,0.7-0.1,1.1v2.8h-1v-6.2H49.5z"/>
		<path fill="#565656" d="M52.2,144.6c0.1-0.4,0.3-0.7,0.6-1c0.3-0.3,0.6-0.5,0.9-0.7s0.8-0.3,1.3-0.3c0.5,0,0.9,0.1,1.3,0.3
			s0.7,0.4,0.9,0.7c0.3,0.3,0.4,0.6,0.6,1c0.1,0.4,0.2,0.8,0.2,1.3s-0.1,0.9-0.2,1.3c-0.1,0.4-0.3,0.7-0.6,1
			c-0.3,0.3-0.6,0.5-0.9,0.7s-0.8,0.2-1.3,0.2c-0.5,0-0.9-0.1-1.3-0.2s-0.7-0.4-0.9-0.7c-0.3-0.3-0.4-0.6-0.6-1
			c-0.1-0.4-0.2-0.8-0.2-1.3S52.1,145,52.2,144.6z M53.2,146.9c0.1,0.3,0.2,0.5,0.4,0.7c0.2,0.2,0.4,0.3,0.6,0.5
			c0.2,0.1,0.5,0.2,0.8,0.2c0.3,0,0.5-0.1,0.8-0.2c0.2-0.1,0.4-0.3,0.6-0.5c0.2-0.2,0.3-0.4,0.4-0.7s0.1-0.6,0.1-1s0-0.7-0.1-1
			s-0.2-0.5-0.4-0.7c-0.2-0.2-0.4-0.4-0.6-0.5c-0.2-0.1-0.5-0.2-0.8-0.2c-0.3,0-0.5,0.1-0.8,0.2c-0.2,0.1-0.4,0.3-0.6,0.5
			c-0.2,0.2-0.3,0.4-0.4,0.7c-0.1,0.3-0.1,0.6-0.1,1S53.1,146.6,53.2,146.9z"/>
		<path fill="#565656" d="M60.3,140.4v3.2h0c0.2-0.3,0.4-0.6,0.8-0.8c0.4-0.2,0.8-0.2,1.2-0.2c0.5,0,0.9,0.1,1.3,0.3
			s0.7,0.4,0.9,0.7c0.2,0.3,0.4,0.6,0.5,1c0.1,0.4,0.2,0.8,0.2,1.2c0,0.4-0.1,0.9-0.2,1.2c-0.1,0.4-0.3,0.7-0.5,1s-0.5,0.5-0.9,0.7
			c-0.4,0.2-0.8,0.3-1.2,0.3c-0.2,0-0.3,0-0.5,0s-0.4-0.1-0.6-0.2c-0.2-0.1-0.4-0.2-0.5-0.3c-0.2-0.1-0.3-0.3-0.4-0.5h0v0.8h-1v-8.6
			H60.3z M63.9,145c-0.1-0.3-0.2-0.5-0.3-0.7c-0.2-0.2-0.4-0.4-0.6-0.5s-0.5-0.2-0.9-0.2c-0.3,0-0.6,0.1-0.9,0.2
			c-0.2,0.1-0.4,0.3-0.6,0.5c-0.2,0.2-0.3,0.5-0.3,0.8c-0.1,0.3-0.1,0.6-0.1,0.9c0,0.3,0,0.6,0.1,0.9c0.1,0.3,0.2,0.5,0.3,0.8
			c0.2,0.2,0.4,0.4,0.6,0.5c0.2,0.1,0.5,0.2,0.9,0.2c0.4,0,0.6-0.1,0.9-0.2s0.4-0.3,0.6-0.5s0.2-0.5,0.3-0.8
			c0.1-0.3,0.1-0.6,0.1-0.9C64,145.6,64,145.3,63.9,145z"/>
		<path fill="#565656" d="M67.4,140.4v8.6h-1v-8.6H67.4z"/>
		<path fill="#565656" d="M73.4,148.6c-0.5,0.4-1,0.5-1.8,0.5c-0.5,0-0.9-0.1-1.3-0.2c-0.4-0.2-0.7-0.4-0.9-0.7
			c-0.2-0.3-0.4-0.6-0.6-1c-0.1-0.4-0.2-0.8-0.2-1.3c0-0.5,0.1-0.9,0.2-1.3s0.3-0.7,0.6-1c0.3-0.3,0.6-0.5,0.9-0.7
			c0.4-0.2,0.7-0.2,1.2-0.2c0.6,0,1,0.1,1.4,0.3c0.4,0.2,0.7,0.5,0.9,0.9c0.2,0.4,0.4,0.7,0.5,1.2c0.1,0.4,0.1,0.8,0.1,1.2h-4.6
			c0,0.3,0,0.5,0.1,0.8c0.1,0.2,0.2,0.5,0.3,0.6c0.2,0.2,0.4,0.3,0.6,0.5s0.5,0.2,0.9,0.2c0.4,0,0.8-0.1,1.1-0.3
			c0.3-0.2,0.5-0.5,0.5-0.9h1C74.1,147.7,73.8,148.3,73.4,148.6z M73.1,144.6c-0.1-0.2-0.2-0.4-0.4-0.6c-0.2-0.2-0.3-0.3-0.6-0.4
			c-0.2-0.1-0.4-0.1-0.7-0.1c-0.3,0-0.5,0-0.7,0.1c-0.2,0.1-0.4,0.2-0.5,0.4s-0.3,0.3-0.4,0.6s-0.1,0.4-0.2,0.7h3.6
			C73.3,145.1,73.2,144.8,73.1,144.6z"/>
		<path fill="#565656" d="M76.4,142.8v0.9h0c0.5-0.7,1.1-1.1,2-1.1c0.4,0,0.7,0.1,1,0.2c0.3,0.2,0.5,0.4,0.7,0.8
			c0.2-0.3,0.5-0.6,0.8-0.8c0.3-0.2,0.7-0.3,1.1-0.3c0.3,0,0.6,0,0.8,0.1c0.3,0.1,0.5,0.2,0.6,0.3c0.2,0.1,0.3,0.3,0.4,0.6
			c0.1,0.2,0.1,0.5,0.1,0.8v4.5h-1v-4.1c0-0.2,0-0.4,0-0.5s-0.1-0.3-0.2-0.4c-0.1-0.1-0.2-0.2-0.4-0.3s-0.4-0.1-0.6-0.1
			c-0.5,0-0.9,0.1-1.2,0.4s-0.4,0.7-0.4,1.2v3.9h-1v-4.1c0-0.2,0-0.4-0.1-0.6c0-0.2-0.1-0.3-0.2-0.4c-0.1-0.1-0.2-0.2-0.4-0.3
			c-0.1-0.1-0.3-0.1-0.6-0.1c-0.3,0-0.5,0.1-0.8,0.2c-0.2,0.1-0.4,0.3-0.5,0.4s-0.2,0.3-0.3,0.5c-0.1,0.2-0.1,0.3-0.1,0.5v3.9h-1
			v-6.2H76.4z"/>
		<path fill="#565656" d="M88.3,141.4v-1h6.9v1h-2.9v7.6h-1.1v-7.6H88.3z"/>
		<path fill="#565656" d="M96,141.7v-1.2h1v1.2H96z M97,142.8v6.2h-1v-6.2H97z"/>
		<path fill="#565656" d="M101.2,142.8v0.9H100v3.9c0,0.1,0,0.2,0,0.3s0.1,0.1,0.1,0.2c0.1,0,0.1,0.1,0.2,0.1s0.2,0,0.4,0h0.5v0.9
			h-0.8c-0.3,0-0.5,0-0.7-0.1s-0.3-0.1-0.5-0.2c-0.1-0.1-0.2-0.2-0.3-0.4c-0.1-0.2-0.1-0.4-0.1-0.7v-3.9h-1.1v-0.9H99v-1.9h1v1.9
			H101.2z"/>
		<path fill="#565656" d="M103.4,140.4v8.6h-1v-8.6H103.4z"/>
		<path fill="#565656" d="M109.4,148.6c-0.5,0.4-1,0.5-1.8,0.5c-0.5,0-0.9-0.1-1.3-0.2c-0.4-0.2-0.7-0.4-0.9-0.7
			c-0.2-0.3-0.4-0.6-0.6-1c-0.1-0.4-0.2-0.8-0.2-1.3c0-0.5,0.1-0.9,0.2-1.3s0.3-0.7,0.6-1c0.3-0.3,0.6-0.5,0.9-0.7
			c0.4-0.2,0.7-0.2,1.2-0.2c0.6,0,1,0.1,1.4,0.3c0.4,0.2,0.7,0.5,0.9,0.9c0.2,0.4,0.4,0.7,0.5,1.2c0.1,0.4,0.1,0.8,0.1,1.2h-4.6
			c0,0.3,0,0.5,0.1,0.8c0.1,0.2,0.2,0.5,0.3,0.6c0.2,0.2,0.4,0.3,0.6,0.5s0.5,0.2,0.9,0.2c0.4,0,0.8-0.1,1.1-0.3
			c0.3-0.2,0.5-0.5,0.5-0.9h1C110.2,147.7,109.9,148.3,109.4,148.6z M109.1,144.6c-0.1-0.2-0.2-0.4-0.4-0.6
			c-0.2-0.2-0.3-0.3-0.6-0.4c-0.2-0.1-0.4-0.1-0.7-0.1c-0.3,0-0.5,0-0.7,0.1c-0.2,0.1-0.4,0.2-0.5,0.4s-0.3,0.3-0.4,0.6
			s-0.1,0.4-0.2,0.7h3.6C109.3,145.1,109.2,144.8,109.1,144.6z"/>
	</g>
	<g enable-background="new    ">
		<path fill="#565656" d="M44.7,189.4c0.9,0,1.5,0.2,2,0.7c0.4,0.4,0.7,1.1,0.7,1.9s-0.2,1.4-0.7,1.9c-0.4,0.4-1.1,0.7-2,0.7h-2.6
			v3.5h-1.1v-8.6H44.7z M44.3,193.5c0.6,0,1.1-0.1,1.4-0.4c0.3-0.3,0.5-0.7,0.5-1.2s-0.2-0.9-0.5-1.2c-0.3-0.3-0.8-0.4-1.4-0.4h-2.2
			v3.1H44.3z"/>
		<path fill="#565656" d="M49.5,191.8v1.3h0c0.2-0.5,0.6-0.9,0.9-1.1c0.4-0.2,0.8-0.4,1.4-0.3v1.1c-0.4,0-0.8,0.1-1,0.2
			c-0.3,0.1-0.5,0.3-0.7,0.5c-0.2,0.2-0.3,0.5-0.4,0.8c-0.1,0.3-0.1,0.7-0.1,1.1v2.8h-1v-6.2H49.5z"/>
		<path fill="#565656" d="M52.2,193.6c0.1-0.4,0.3-0.7,0.6-1c0.3-0.3,0.6-0.5,0.9-0.7s0.8-0.3,1.3-0.3c0.5,0,0.9,0.1,1.3,0.3
			s0.7,0.4,0.9,0.7c0.3,0.3,0.4,0.6,0.6,1c0.1,0.4,0.2,0.8,0.2,1.3s-0.1,0.9-0.2,1.3c-0.1,0.4-0.3,0.7-0.6,1
			c-0.3,0.3-0.6,0.5-0.9,0.7s-0.8,0.2-1.3,0.2c-0.5,0-0.9-0.1-1.3-0.2s-0.7-0.4-0.9-0.7c-0.3-0.3-0.4-0.6-0.6-1
			c-0.1-0.4-0.2-0.8-0.2-1.3S52.1,194,52.2,193.6z M53.2,195.9c0.1,0.3,0.2,0.5,0.4,0.7c0.2,0.2,0.4,0.3,0.6,0.5
			c0.2,0.1,0.5,0.2,0.8,0.2c0.3,0,0.5-0.1,0.8-0.2c0.2-0.1,0.4-0.3,0.6-0.5c0.2-0.2,0.3-0.4,0.4-0.7s0.1-0.6,0.1-1s0-0.7-0.1-1
			s-0.2-0.5-0.4-0.7c-0.2-0.2-0.4-0.4-0.6-0.5c-0.2-0.1-0.5-0.2-0.8-0.2c-0.3,0-0.5,0.1-0.8,0.2c-0.2,0.1-0.4,0.3-0.6,0.5
			c-0.2,0.2-0.3,0.4-0.4,0.7c-0.1,0.3-0.1,0.6-0.1,1S53.1,195.6,53.2,195.9z"/>
		<path fill="#565656" d="M60.3,189.4v3.2h0c0.2-0.3,0.4-0.6,0.8-0.8c0.4-0.2,0.8-0.2,1.2-0.2c0.5,0,0.9,0.1,1.3,0.3
			s0.7,0.4,0.9,0.7c0.2,0.3,0.4,0.6,0.5,1c0.1,0.4,0.2,0.8,0.2,1.2c0,0.4-0.1,0.9-0.2,1.2c-0.1,0.4-0.3,0.7-0.5,1s-0.5,0.5-0.9,0.7
			c-0.4,0.2-0.8,0.3-1.2,0.3c-0.2,0-0.3,0-0.5,0s-0.4-0.1-0.6-0.2c-0.2-0.1-0.4-0.2-0.5-0.3c-0.2-0.1-0.3-0.3-0.4-0.5h0v0.8h-1v-8.6
			H60.3z M63.9,194c-0.1-0.3-0.2-0.5-0.3-0.7c-0.2-0.2-0.4-0.4-0.6-0.5s-0.5-0.2-0.9-0.2c-0.3,0-0.6,0.1-0.9,0.2
			c-0.2,0.1-0.4,0.3-0.6,0.5c-0.2,0.2-0.3,0.5-0.3,0.8c-0.1,0.3-0.1,0.6-0.1,0.9c0,0.3,0,0.6,0.1,0.9c0.1,0.3,0.2,0.5,0.3,0.8
			c0.2,0.2,0.4,0.4,0.6,0.5c0.2,0.1,0.5,0.2,0.9,0.2c0.4,0,0.6-0.1,0.9-0.2s0.4-0.3,0.6-0.5s0.2-0.5,0.3-0.8
			c0.1-0.3,0.1-0.6,0.1-0.9C64,194.6,64,194.3,63.9,194z"/>
		<path fill="#565656" d="M67.4,189.4v8.6h-1v-8.6H67.4z"/>
		<path fill="#565656" d="M73.4,197.6c-0.5,0.4-1,0.5-1.8,0.5c-0.5,0-0.9-0.1-1.3-0.2c-0.4-0.2-0.7-0.4-0.9-0.7
			c-0.2-0.3-0.4-0.6-0.6-1c-0.1-0.4-0.2-0.8-0.2-1.3c0-0.5,0.1-0.9,0.2-1.3s0.3-0.7,0.6-1c0.3-0.3,0.6-0.5,0.9-0.7
			c0.4-0.2,0.7-0.2,1.2-0.2c0.6,0,1,0.1,1.4,0.3c0.4,0.2,0.7,0.5,0.9,0.9c0.2,0.4,0.4,0.7,0.5,1.2c0.1,0.4,0.1,0.8,0.1,1.2h-4.6
			c0,0.3,0,0.5,0.1,0.8c0.1,0.2,0.2,0.5,0.3,0.6c0.2,0.2,0.4,0.3,0.6,0.5s0.5,0.2,0.9,0.2c0.4,0,0.8-0.1,1.1-0.3
			c0.3-0.2,0.5-0.5,0.5-0.9h1C74.1,196.7,73.8,197.3,73.4,197.6z M73.1,193.6c-0.1-0.2-0.2-0.4-0.4-0.6c-0.2-0.2-0.3-0.3-0.6-0.4
			c-0.2-0.1-0.4-0.1-0.7-0.1c-0.3,0-0.5,0-0.7,0.1c-0.2,0.1-0.4,0.2-0.5,0.4s-0.3,0.3-0.4,0.6s-0.1,0.4-0.2,0.7h3.6
			C73.3,194.1,73.2,193.8,73.1,193.6z"/>
		<path fill="#565656" d="M76.4,191.8v0.9h0c0.5-0.7,1.1-1.1,2-1.1c0.4,0,0.7,0.1,1,0.2c0.3,0.2,0.5,0.4,0.7,0.8
			c0.2-0.3,0.5-0.6,0.8-0.8c0.3-0.2,0.7-0.3,1.1-0.3c0.3,0,0.6,0,0.8,0.1c0.3,0.1,0.5,0.2,0.6,0.3c0.2,0.1,0.3,0.3,0.4,0.6
			c0.1,0.2,0.1,0.5,0.1,0.8v4.5h-1v-4.1c0-0.2,0-0.4,0-0.5s-0.1-0.3-0.2-0.4c-0.1-0.1-0.2-0.2-0.4-0.3s-0.4-0.1-0.6-0.1
			c-0.5,0-0.9,0.1-1.2,0.4s-0.4,0.7-0.4,1.2v3.9h-1v-4.1c0-0.2,0-0.4-0.1-0.6c0-0.2-0.1-0.3-0.2-0.4c-0.1-0.1-0.2-0.2-0.4-0.3
			c-0.1-0.1-0.3-0.1-0.6-0.1c-0.3,0-0.5,0.1-0.8,0.2c-0.2,0.1-0.4,0.3-0.5,0.4s-0.2,0.3-0.3,0.5c-0.1,0.2-0.1,0.3-0.1,0.5v3.9h-1
			v-6.2H76.4z"/>
		<path fill="#565656" d="M93.5,190.6c-0.4-0.3-0.9-0.4-1.5-0.4c-0.2,0-0.5,0-0.7,0.1c-0.2,0-0.4,0.1-0.6,0.2
			c-0.2,0.1-0.3,0.3-0.4,0.5c-0.1,0.2-0.2,0.4-0.2,0.7c0,0.3,0.1,0.5,0.2,0.6c0.2,0.2,0.4,0.3,0.6,0.4c0.3,0.1,0.6,0.2,0.9,0.3
			s0.7,0.1,1,0.2c0.3,0.1,0.7,0.2,1,0.3s0.6,0.3,0.9,0.4c0.3,0.2,0.5,0.4,0.6,0.7c0.2,0.3,0.2,0.6,0.2,1.1c0,0.5-0.1,0.8-0.3,1.2
			c-0.2,0.3-0.5,0.6-0.8,0.8c-0.3,0.2-0.7,0.4-1.1,0.4s-0.8,0.1-1.2,0.1c-0.5,0-0.9-0.1-1.4-0.2c-0.4-0.1-0.8-0.3-1.1-0.5
			c-0.3-0.2-0.6-0.6-0.8-0.9s-0.3-0.8-0.3-1.4h1.1c0,0.4,0.1,0.7,0.2,0.9s0.3,0.5,0.6,0.6s0.5,0.3,0.8,0.4c0.3,0.1,0.6,0.1,0.9,0.1
			c0.3,0,0.5,0,0.8-0.1s0.5-0.1,0.7-0.2c0.2-0.1,0.4-0.3,0.5-0.5s0.2-0.5,0.2-0.8c0-0.3-0.1-0.5-0.2-0.7c-0.2-0.2-0.4-0.3-0.6-0.5
			c-0.3-0.1-0.6-0.2-0.9-0.3c-0.3-0.1-0.7-0.1-1-0.2c-0.3-0.1-0.7-0.2-1-0.3c-0.3-0.1-0.6-0.2-0.9-0.4c-0.3-0.2-0.5-0.4-0.6-0.6
			c-0.2-0.3-0.2-0.6-0.2-1c0-0.4,0.1-0.8,0.3-1.1c0.2-0.3,0.4-0.6,0.7-0.8s0.6-0.4,1-0.5c0.4-0.1,0.8-0.2,1.1-0.2
			c0.4,0,0.8,0.1,1.2,0.2c0.4,0.1,0.7,0.3,1,0.5c0.3,0.2,0.5,0.5,0.7,0.8c0.2,0.3,0.3,0.7,0.3,1.2h-1.1
			C94.1,191.3,93.8,190.9,93.5,190.6z"/>
		<path fill="#565656" d="M99.4,191.8v0.9h-1.2v3.9c0,0.1,0,0.2,0,0.3s0.1,0.1,0.1,0.2c0.1,0,0.1,0.1,0.2,0.1s0.2,0,0.4,0h0.5v0.9
			h-0.8c-0.3,0-0.5,0-0.7-0.1s-0.3-0.1-0.5-0.2c-0.1-0.1-0.2-0.2-0.3-0.4c-0.1-0.2-0.1-0.4-0.1-0.7v-3.9h-1.1v-0.9h1.1v-1.9h1v1.9
			H99.4z"/>
		<path fill="#565656" d="M106.1,198c-0.2,0.1-0.4,0.2-0.7,0.2c-0.3,0-0.5-0.1-0.6-0.2c-0.2-0.1-0.2-0.4-0.2-0.7
			c-0.3,0.3-0.6,0.6-1,0.7c-0.4,0.1-0.8,0.2-1.2,0.2c-0.3,0-0.5,0-0.8-0.1c-0.3-0.1-0.5-0.2-0.7-0.3c-0.2-0.1-0.3-0.3-0.4-0.5
			c-0.1-0.2-0.2-0.5-0.2-0.8c0-0.4,0.1-0.6,0.2-0.9c0.1-0.2,0.3-0.4,0.5-0.5c0.2-0.1,0.4-0.2,0.7-0.3s0.5-0.1,0.8-0.2
			c0.3-0.1,0.5-0.1,0.8-0.1s0.5-0.1,0.7-0.1s0.3-0.1,0.5-0.2c0.1-0.1,0.2-0.2,0.2-0.4c0-0.2,0-0.4-0.1-0.5s-0.2-0.2-0.3-0.3
			c-0.1-0.1-0.3-0.1-0.4-0.1c-0.2,0-0.3,0-0.5,0c-0.4,0-0.8,0.1-1.1,0.2s-0.4,0.5-0.5,0.9h-1c0-0.4,0.1-0.7,0.2-1s0.3-0.5,0.6-0.6
			c0.2-0.2,0.5-0.3,0.8-0.4c0.3-0.1,0.6-0.1,1-0.1c0.3,0,0.6,0,0.8,0.1c0.3,0,0.5,0.1,0.8,0.2c0.2,0.1,0.4,0.3,0.5,0.5
			c0.1,0.2,0.2,0.5,0.2,0.9v3.2c0,0.2,0,0.4,0,0.5c0,0.1,0.1,0.2,0.3,0.2c0.1,0,0.2,0,0.3-0.1V198z M104.4,194.8
			c-0.1,0.1-0.3,0.2-0.5,0.2s-0.4,0.1-0.7,0.1c-0.2,0-0.5,0.1-0.7,0.1s-0.4,0.1-0.6,0.2c-0.2,0.1-0.3,0.2-0.5,0.3
			c-0.1,0.1-0.2,0.4-0.2,0.6c0,0.2,0,0.3,0.1,0.4s0.2,0.2,0.3,0.3c0.1,0.1,0.2,0.1,0.4,0.2c0.1,0,0.3,0,0.5,0c0.3,0,0.6,0,0.9-0.1
			c0.2-0.1,0.4-0.2,0.6-0.3c0.2-0.1,0.3-0.3,0.3-0.5s0.1-0.3,0.1-0.5V194.8z"/>
		<path fill="#565656" d="M109.7,191.8v0.9h-1.2v3.9c0,0.1,0,0.2,0,0.3s0.1,0.1,0.1,0.2c0.1,0,0.1,0.1,0.2,0.1s0.2,0,0.4,0h0.5v0.9
			h-0.8c-0.3,0-0.5,0-0.7-0.1s-0.3-0.1-0.5-0.2c-0.1-0.1-0.2-0.2-0.3-0.4c-0.1-0.2-0.1-0.4-0.1-0.7v-3.9h-1.1v-0.9h1.1v-1.9h1v1.9
			H109.7z"/>
		<path fill="#565656" d="M115,198v-1h0c-0.2,0.4-0.5,0.7-0.8,0.8c-0.3,0.2-0.7,0.3-1.2,0.3c-0.4,0-0.7-0.1-1-0.2
			c-0.3-0.1-0.5-0.3-0.7-0.5c-0.2-0.2-0.3-0.4-0.4-0.7s-0.1-0.6-0.1-0.9v-4.1h1v4.2c0,0.4,0.1,0.7,0.3,0.9c0.2,0.2,0.5,0.3,0.9,0.3
			c0.3,0,0.6,0,0.8-0.1c0.2-0.1,0.4-0.2,0.6-0.4c0.2-0.2,0.3-0.4,0.3-0.6c0.1-0.2,0.1-0.5,0.1-0.8v-3.5h1v6.2H115z"/>
		<path fill="#565656" d="M118.2,196.6c0.1,0.2,0.2,0.3,0.4,0.4s0.3,0.2,0.5,0.2c0.2,0,0.4,0.1,0.6,0.1c0.2,0,0.3,0,0.5,0
			c0.2,0,0.3-0.1,0.5-0.1c0.1-0.1,0.3-0.2,0.4-0.3c0.1-0.1,0.1-0.3,0.1-0.5c0-0.3-0.1-0.5-0.3-0.6c-0.2-0.1-0.5-0.2-0.8-0.3
			c-0.3-0.1-0.6-0.2-1-0.2s-0.7-0.2-1-0.3s-0.5-0.3-0.8-0.5c-0.2-0.2-0.3-0.5-0.3-0.9c0-0.3,0.1-0.6,0.2-0.8
			c0.1-0.2,0.3-0.4,0.5-0.5c0.2-0.1,0.5-0.2,0.7-0.3c0.3-0.1,0.5-0.1,0.8-0.1c0.4,0,0.7,0,1,0.1c0.3,0.1,0.6,0.2,0.8,0.3
			c0.2,0.1,0.4,0.3,0.5,0.6c0.1,0.3,0.2,0.6,0.2,0.9h-1c0-0.2-0.1-0.4-0.2-0.5c-0.1-0.1-0.2-0.2-0.3-0.3c-0.1-0.1-0.3-0.1-0.5-0.2
			c-0.2,0-0.3-0.1-0.5-0.1c-0.2,0-0.3,0-0.5,0c-0.2,0-0.3,0.1-0.4,0.1c-0.1,0.1-0.2,0.1-0.3,0.2s-0.1,0.2-0.1,0.4
			c0,0.2,0.1,0.3,0.2,0.4s0.3,0.2,0.5,0.3c0.2,0.1,0.4,0.1,0.6,0.2c0.2,0.1,0.5,0.1,0.7,0.2c0.3,0.1,0.5,0.1,0.8,0.2
			s0.5,0.2,0.6,0.3c0.2,0.1,0.3,0.3,0.5,0.5c0.1,0.2,0.2,0.4,0.2,0.7c0,0.4-0.1,0.7-0.2,0.9c-0.2,0.2-0.4,0.4-0.6,0.6
			c-0.3,0.2-0.5,0.3-0.9,0.3s-0.6,0.1-0.9,0.1c-0.3,0-0.7,0-1-0.1c-0.3-0.1-0.6-0.2-0.8-0.4s-0.4-0.4-0.6-0.6
			c-0.1-0.3-0.2-0.6-0.2-1h1C118.1,196.3,118.1,196.5,118.2,196.6z"/>
	</g>
	<path id="Rectangle_859" fill="#377DFF" d="M85,238h95c2.8,0,5,2.2,5,5v17c0,2.8-2.2,5-5,5H85c-2.8,0-5-2.2-5-5v-17
		C80,240.2,82.2,238,85,238z"/>
	<g enable-background="new    ">
		<path fill="#FFFFFF" d="M115.4,253.6c0,0.3,0,0.5,0.1,0.7s0.2,0.4,0.4,0.5c0.2,0.1,0.4,0.2,0.6,0.3s0.5,0.1,0.7,0.1
			c0.3,0,0.5,0,0.7-0.1c0.2-0.1,0.3-0.1,0.5-0.2c0.1-0.1,0.2-0.2,0.3-0.3c0.1-0.1,0.1-0.3,0.1-0.4c0-0.3-0.1-0.5-0.2-0.6
			s-0.3-0.2-0.4-0.3c-0.3-0.1-0.5-0.2-0.9-0.3c-0.3-0.1-0.8-0.2-1.2-0.3c-0.3-0.1-0.6-0.2-0.8-0.3c-0.2-0.1-0.4-0.3-0.5-0.4
			c-0.1-0.2-0.2-0.3-0.3-0.5s-0.1-0.4-0.1-0.5c0-0.4,0.1-0.7,0.2-0.9c0.1-0.3,0.3-0.5,0.6-0.7c0.2-0.2,0.5-0.3,0.8-0.4
			c0.3-0.1,0.6-0.1,1-0.1c0.4,0,0.7,0,1.1,0.1s0.6,0.2,0.9,0.4c0.2,0.2,0.4,0.4,0.6,0.7s0.2,0.6,0.2,1h-1.2c0-0.5-0.2-0.8-0.5-1
			c-0.3-0.2-0.6-0.3-1.1-0.3c-0.1,0-0.3,0-0.5,0s-0.3,0.1-0.4,0.2c-0.1,0.1-0.2,0.2-0.3,0.3c-0.1,0.1-0.1,0.3-0.1,0.4
			c0,0.3,0.1,0.5,0.2,0.6c0.2,0.1,0.4,0.3,0.6,0.3c0,0,0.1,0,0.3,0.1c0.2,0.1,0.4,0.1,0.6,0.2c0.2,0.1,0.4,0.1,0.7,0.2
			s0.4,0.1,0.5,0.1c0.2,0.1,0.4,0.2,0.6,0.3c0.2,0.1,0.3,0.3,0.4,0.4c0.1,0.2,0.2,0.3,0.3,0.5s0.1,0.4,0.1,0.6c0,0.4-0.1,0.7-0.2,1
			c-0.2,0.3-0.4,0.5-0.6,0.7c-0.3,0.2-0.6,0.3-0.9,0.4s-0.7,0.1-1,0.1c-0.4,0-0.8,0-1.1-0.2c-0.4-0.1-0.7-0.3-0.9-0.5
			c-0.3-0.2-0.5-0.5-0.6-0.8c-0.2-0.3-0.2-0.7-0.2-1.1H115.4z"/>
		<path fill="#FFFFFF" d="M121,248.9h1.2v4.2c0,0.2,0,0.5,0,0.7c0,0.2,0.1,0.5,0.2,0.7c0.1,0.2,0.3,0.4,0.5,0.5
			c0.2,0.1,0.5,0.2,0.9,0.2c0.4,0,0.7-0.1,0.9-0.2c0.2-0.1,0.4-0.3,0.5-0.5c0.1-0.2,0.2-0.4,0.2-0.7c0-0.2,0-0.5,0-0.7v-4.2h1.2v4.6
			c0,0.5-0.1,0.9-0.2,1.2c-0.1,0.3-0.3,0.6-0.6,0.9c-0.3,0.2-0.6,0.4-0.9,0.5c-0.4,0.1-0.8,0.2-1.2,0.2c-0.4,0-0.8-0.1-1.2-0.2
			s-0.7-0.3-0.9-0.5c-0.3-0.2-0.5-0.5-0.6-0.9c-0.1-0.3-0.2-0.7-0.2-1.2V248.9z"/>
		<path fill="#FFFFFF" d="M128.3,248.9h3.5c0.6,0,1.2,0.1,1.5,0.4c0.4,0.3,0.6,0.7,0.6,1.3c0,0.4-0.1,0.7-0.3,0.9
			c-0.2,0.3-0.4,0.5-0.8,0.6v0c0.4,0.1,0.8,0.3,1,0.6s0.3,0.7,0.3,1.2c0,0.3,0,0.5-0.1,0.8c-0.1,0.2-0.3,0.5-0.5,0.6
			c-0.2,0.2-0.5,0.3-0.8,0.4c-0.3,0.1-0.7,0.2-1.2,0.2h-3.3V248.9z M129.5,251.8h2c0.3,0,0.6-0.1,0.8-0.3c0.2-0.2,0.3-0.4,0.3-0.7
			c0-0.4-0.1-0.6-0.3-0.8c-0.2-0.1-0.4-0.2-0.8-0.2h-2V251.8z M129.5,255h2.2c0.4,0,0.7-0.1,0.9-0.3c0.2-0.2,0.3-0.5,0.3-0.8
			c0-0.4-0.1-0.6-0.3-0.8c-0.2-0.2-0.5-0.3-0.9-0.3h-2.2V255z"/>
		<path fill="#FFFFFF" d="M135.3,248.9h1.8l2,5.6h0l1.9-5.6h1.7v7.1h-1.2v-5.5h0l-2,5.5h-1l-2-5.5h0v5.5h-1.2V248.9z"/>
		<path fill="#FFFFFF" d="M144.2,248.9h1.2v7.1h-1.2V248.9z"/>
		<path fill="#FFFFFF" d="M146.3,248.9h5.8v1.1h-2.3v6.1h-1.2v-6.1h-2.3V248.9z"/>
	</g>
</g>
</svg>
