<?xml version="1.0" encoding="utf-8"?>
<!-- Generator: Adobe Illustrator 23.1.0, SVG Export Plug-In . SVG Version: 6.00 Build 0)  -->
<svg version="1.1" id="Layer_1" xmlns="http://www.w3.org/2000/svg" xmlns:xlink="http://www.w3.org/1999/xlink" x="0px" y="0px"
	 viewBox="0 0 265 300" enable-background="new 0 0 265 300" xml:space="preserve">
<g id="Group_74" transform="translate(-668 -2543)">
	<path id="Rectangle_997" fill="#FFFFFF" d="M673,2543h255c2.8,0,5,2.2,5,5v290c0,2.8-2.2,5-5,5H673c-2.8,0-5-2.2-5-5v-290
		C668,2545.2,670.2,2543,673,2543z"/>
	<path id="Rectangle_998" fill="#E5E9EA" d="M710.5,2602h80c1.4,0,2.5,1.1,2.5,2.5l0,0c0,1.4-1.1,2.5-2.5,2.5h-80
		c-1.4,0-2.5-1.1-2.5-2.5l0,0C708,2603.1,709.1,2602,710.5,2602z"/>
	<path id="Rectangle_999" fill="#E5E9EA" d="M710.5,2646h80c1.4,0,2.5,1.1,2.5,2.5l0,0c0,1.4-1.1,2.5-2.5,2.5h-80
		c-1.4,0-2.5-1.1-2.5-2.5l0,0C708,2647.1,709.1,2646,710.5,2646z"/>
	<path id="Rectangle_1003" fill="#E5E9EA" d="M810.5,2646h80c1.4,0,2.5,1.1,2.5,2.5l0,0c0,1.4-1.1,2.5-2.5,2.5h-80
		c-1.4,0-2.5-1.1-2.5-2.5l0,0C808,2647.1,809.1,2646,810.5,2646z"/>
	<path id="Rectangle_1002" fill="#E5E9EA" d="M810.5,2602h80c1.4,0,2.5,1.1,2.5,2.5l0,0c0,1.4-1.1,2.5-2.5,2.5h-80
		c-1.4,0-2.5-1.1-2.5-2.5l0,0C808,2603.1,809.1,2602,810.5,2602z"/>
	<text transform="matrix(1 0 0 1 708 2594)" fill="#565656" font-family="'HelveticaNeue'" font-size="12px">First Name</text>
	<text transform="matrix(1 0 0 1 708 2638)" fill="#565656" font-family="'HelveticaNeue'" font-size="12px">Email</text>
	<text transform="matrix(1 0 0 1 808 2638)" fill="#565656" font-family="'HelveticaNeue'" font-size="12px">Phone</text>
	<text transform="matrix(1 0 0 1 808 2594)" fill="#565656" font-family="'HelveticaNeue'" font-size="12px">Last Name</text>
	<path id="Rectangle_919" fill="#31A651" d="M753,2781h95c2.8,0,5,2.2,5,5v17c0,2.8-2.2,5-5,5h-95c-2.8,0-5-2.2-5-5v-17
		C748,2783.2,750.2,2781,753,2781z"/>
	<text transform="matrix(1 0 0 1 771.92 2799)" fill="#FFFFFF" font-family="'HelveticaNeue-Medium'" font-size="10px">APPLY NOW</text>
	<g id="Group_67">
		<g id="Rectangle_1000" transform="translate(708 2691)">
			<path fill="#E5E9EA" d="M5,0h45c2.8,0,5,2.2,5,5v45c0,2.8-2.2,5-5,5H5c-2.8,0-5-2.2-5-5V5C0,2.2,2.2,0,5,0z"/>
			<path fill="none" stroke="#CED3D5" stroke-width="2" d="M5,1h45c2.2,0,4,1.8,4,4v45c0,2.2-1.8,4-4,4H5c-2.2,0-4-1.8-4-4V5
				C1,2.8,2.8,1,5,1z"/>
		</g>
		<path id="Rectangle_1004" fill="#E5E9EA" d="M778,2691h45c2.8,0,5,2.2,5,5v45c0,2.8-2.2,5-5,5h-45c-2.8,0-5-2.2-5-5v-45
			C773,2693.2,775.2,2691,778,2691z"/>
		<path id="Rectangle_1005" fill="#E5E9EA" d="M843,2691h45c2.8,0,5,2.2,5,5v45c0,2.8-2.2,5-5,5h-45c-2.8,0-5-2.2-5-5v-45
			C838,2693.2,840.2,2691,843,2691z"/>
		<text transform="matrix(1 0 0 1 708 2682)" fill="#565656" font-family="'HelveticaNeue'" font-size="12px">Please, Select from following:</text>
		<g id="Group_64" transform="translate(-142.196 2245.412)">
			<path id="Path_2007" fill="#CED3D5" d="M894.9,461.9c-0.2-0.2-0.4-0.3-0.7-0.3h-33c-0.3,0-0.5,0.1-0.7,0.3
				c-0.2,0.2-0.3,0.4-0.3,0.7v21.6c0,0.3,0.1,0.5,0.3,0.7c0.2,0.2,0.4,0.3,0.7,0.3h33c0.3,0,0.5-0.1,0.7-0.3
				c0.2-0.2,0.3-0.4,0.3-0.7v-21.6C895.2,462.3,895.1,462.1,894.9,461.9z M862.2,483.2v-1.6l10.5-10.5l12,12.1L862.2,483.2z
				 M893.2,483.2h-5.8l-4.1-4.1l3.1-3.1l6.6,6.7c0,0,0.1,0.1,0.1,0.1c0,0,0.1,0,0.1,0L893.2,483.2z M893.2,480.1l-6.1-6.2
				c-0.4-0.3-1-0.3-1.4,0l-3.8,3.8l-8.6-8.6c-0.4-0.3-1-0.3-1.4,0l-9.8,9.8v-15.3h31L893.2,480.1z"/>
			<path id="Path_2008" fill="#CED3D5" d="M884.5,466.5c-0.7-0.7-1.6-1.1-2.6-1.1c-2,0-3.7,1.6-3.7,3.7c0,0,0,0,0,0.1
				c0,1,0.4,1.9,1.1,2.6c0.7,0.7,1.6,1.1,2.6,1.1c2,0,3.7-1.6,3.7-3.7C885.6,468.1,885.2,467.2,884.5,466.5z M883.1,470.3
				c-0.3,0.3-0.8,0.5-1.2,0.5c-0.5,0-0.9-0.2-1.3-0.5c-0.3-0.3-0.5-0.8-0.5-1.2c0-1,0.8-1.8,1.8-1.8c0,0,0,0,0,0
				c0.5,0,0.9,0.2,1.2,0.5c0.3,0.3,0.5,0.8,0.5,1.3C883.6,469.6,883.4,470,883.1,470.3L883.1,470.3z"/>
		</g>
		<g id="Group_65" transform="translate(-77.196 2245.412)">
			<path id="Path_2007-2" fill="#CED3D5" d="M894.9,461.9c-0.2-0.2-0.4-0.3-0.7-0.3h-33c-0.3,0-0.5,0.1-0.7,0.3
				c-0.2,0.2-0.3,0.4-0.3,0.7v21.6c0,0.3,0.1,0.5,0.3,0.7c0.2,0.2,0.4,0.3,0.7,0.3h33c0.3,0,0.5-0.1,0.7-0.3
				c0.2-0.2,0.3-0.4,0.3-0.7v-21.6C895.2,462.3,895.1,462.1,894.9,461.9z M862.2,483.2v-1.6l10.5-10.5l12,12.1L862.2,483.2z
				 M893.2,483.2h-5.8l-4.1-4.1l3.1-3.1l6.6,6.7c0,0,0.1,0.1,0.1,0.1c0,0,0.1,0,0.1,0L893.2,483.2z M893.2,480.1l-6.1-6.2
				c-0.4-0.3-1-0.3-1.4,0l-3.8,3.8l-8.6-8.6c-0.4-0.3-1-0.3-1.4,0l-9.8,9.8v-15.3h31L893.2,480.1z"/>
			<path id="Path_2008-2" fill="#CED3D5" d="M884.5,466.5c-0.7-0.7-1.6-1.1-2.6-1.1c-2,0-3.7,1.6-3.7,3.7c0,0,0,0,0,0.1
				c0,1,0.4,1.9,1.1,2.6c0.7,0.7,1.6,1.1,2.6,1.1c2,0,3.7-1.6,3.7-3.7C885.6,468.1,885.2,467.2,884.5,466.5z M883.1,470.3
				c-0.3,0.3-0.8,0.5-1.2,0.5c-0.5,0-0.9-0.2-1.3-0.5c-0.3-0.3-0.5-0.8-0.5-1.2c0-1,0.8-1.8,1.8-1.8c0,0,0,0,0,0
				c0.5,0,0.9,0.2,1.2,0.5c0.3,0.3,0.5,0.8,0.5,1.3C883.6,469.6,883.4,470,883.1,470.3L883.1,470.3z"/>
		</g>
		<g id="Group_66" transform="translate(-12.196 2245.412)">
			<path id="Path_2007-3" fill="#CED3D5" d="M894.9,461.9c-0.2-0.2-0.4-0.3-0.7-0.3h-33c-0.3,0-0.5,0.1-0.7,0.3
				c-0.2,0.2-0.3,0.4-0.3,0.7v21.6c0,0.3,0.1,0.5,0.3,0.7c0.2,0.2,0.4,0.3,0.7,0.3h33c0.3,0,0.5-0.1,0.7-0.3
				c0.2-0.2,0.3-0.4,0.3-0.7v-21.6C895.2,462.3,895.1,462.1,894.9,461.9z M862.2,483.2v-1.6l10.5-10.5l12,12.1L862.2,483.2z
				 M893.2,483.2h-5.8l-4.1-4.1l3.1-3.1l6.6,6.7c0,0,0.1,0.1,0.1,0.1c0,0,0.1,0,0.1,0L893.2,483.2z M893.2,480.1l-6.1-6.2
				c-0.4-0.3-1-0.3-1.4,0l-3.8,3.8l-8.6-8.6c-0.4-0.3-1-0.3-1.4,0l-9.8,9.8v-15.3h31L893.2,480.1z"/>
			<path id="Path_2008-3" fill="#CED3D5" d="M884.5,466.5c-0.7-0.7-1.6-1.1-2.6-1.1c-2,0-3.7,1.6-3.7,3.7c0,0,0,0,0,0.1
				c0,1,0.4,1.9,1.1,2.6c0.7,0.7,1.6,1.1,2.6,1.1c2,0,3.7-1.6,3.7-3.7C885.6,468.1,885.2,467.2,884.5,466.5z M883.1,470.3
				c-0.3,0.3-0.8,0.5-1.2,0.5c-0.5,0-0.9-0.2-1.3-0.5c-0.3-0.3-0.5-0.8-0.5-1.2c0-1,0.8-1.8,1.8-1.8c0,0,0,0,0,0
				c0.5,0,0.9,0.2,1.2,0.5c0.3,0.3,0.5,0.8,0.5,1.3C883.6,469.6,883.4,470,883.1,470.3L883.1,470.3z"/>
		</g>
	</g>
</g>
</svg>
