<?xml version="1.0" encoding="UTF-8"?>
<!-- Creator: CorelDRAW -->
<svg xmlns="http://www.w3.org/2000/svg" xmlns:xlink="http://www.w3.org/1999/xlink" xmlns:xodm="http://www.corel.com/coreldraw/odm/2003" xml:space="preserve" width="2000px" height="500px" version="1.1" style="shape-rendering:geometricPrecision; text-rendering:geometricPrecision; image-rendering:optimizeQuality; fill-rule:evenodd; clip-rule:evenodd" viewBox="0 0 2000 500">
 <defs>
  <style type="text/css">
   <![CDATA[
    .fil0 {fill:none}
    .fil1 {fill:#FDC742}
    .fil2 {fill:black;fill-rule:nonzero}
   ]]>
  </style>
 </defs>
 <g id="Camada_x0020_1">
  <metadata id="CorelCorpID_0Corel-Layer"></metadata>
  <rect class="fil0" width="2000" height="500"></rect>
  <g id="_1696562461776">
   <path class="fil1" d="M93.18 190.38c0,-13.72 -2.4,-18.99 11.43,-19.68 46.77,-0.04 93.54,-0.01 140.31,-0.01 23.21,0 125.4,-4.38 138.38,2.39 4.29,9.33 1.97,175.08 1.8,199.93 -0.22,32.32 -16.61,53.33 -39.95,62.18 -31.51,11.96 -56.17,-1.26 -72.51,-20.66 -29.77,-35.36 -62.34,-71.87 -93.42,-108.45 -7.45,-8.77 -19.8,-18.55 -19.06,-32.97 0.65,-12.69 11.79,-25.87 28.2,-20.37 7.93,2.66 41.68,40.56 50.79,48.71 9.73,-4.5 35.97,-39.34 45.29,-46.57 18.76,-14.57 49.07,9.56 23.93,39.27 -14.29,16.88 -28.15,33.38 -42.42,49.91 -22.6,26.2 5.93,50.5 27.46,25.53 14.66,-17 29.24,-34.67 42.4,-49.83 45.39,-52.3 5.55,-106.67 -38.99,-106.52 -36.64,0.12 -39.24,22.18 -57.67,33.63 -9.39,-5.16 -16.58,-17.84 -28.05,-24.57 -37.56,-22.05 -85.89,3.15 -88.43,49 -1.75,31.45 18.79,47.6 34.45,66.47 15.84,19.09 28.71,33.73 45.98,53.88 15.44,18 32.72,40.58 47.27,54.65 67.38,65.16 171.86,19.87 172.03,-71.4l-0.63 -197.98c0.11,-27.9 -5.99,-43.41 -34.51,-43.54 -51.89,-0.23 -103.89,0.09 -155.8,0.09 -175,0 -174.7,-15.51 -174.7,60.76l-0.76 238.33c-0.12,55.94 13.41,43.29 127.49,43.91 38.19,0.21 34.07,-36.56 5.69,-36.54l-95.77 -0.42 -0.23 -249.13zm127.48 -165.37c-53.38,11.91 -86.6,58.42 -67.12,76.07 7.35,6.65 20.33,5.71 26.76,-2.26 8.54,-10.58 29.17,-51.19 77.19,-36.12 27.18,8.54 31.4,25.06 40.47,36.16 13.37,16.37 44.73,2.33 27.9,-25.94 -18.02,-30.29 -57.35,-58.58 -105.2,-47.91z"></path>
   <path class="fil1" d="M1192.93 176.64l200.94 0c7.62,0 13.85,6.23 13.85,13.85l0 149.34c0,7.62 -6.23,13.85 -13.85,13.85l-146.07 0 -68.73 -163.19c0,-7.62 6.24,-13.85 13.86,-13.85z"></path>
   <path class="fil2" d="M642.92 351.49c-10.68,4.13 -22.17,6.44 -34.08,6.44 -26.6,0 -50.64,-10.74 -68.06,-28.1 -17.46,-17.41 -28.23,-41.44 -28.23,-67.97 0,-26.43 10.8,-50.49 28.29,-67.93 17.4,-17.36 41.42,-28.13 68,-28.13 12.68,0 24.82,2.56 36,7.15 11.4,4.67 21.68,11.47 30.41,19.81 5.58,4.91 6.89,13.3 2.75,19.75l-10.09 15.69 -0.02 -0.01c-0.73,1.13 -1.62,2.19 -2.67,3.13 -6.29,5.63 -15.95,5.09 -21.58,-1.2 -4.42,-4.94 -9.9,-9.01 -16.07,-11.81 -5.79,-2.63 -12.21,-4.11 -18.96,-4.11 -13.14,0 -25.06,5.34 -33.69,13.97 -8.63,8.64 -13.97,20.55 -13.97,33.69 0,13.14 5.34,25.06 13.97,33.69 8.63,8.63 20.55,13.98 33.69,13.98 6.25,0 12.27,-1.26 17.74,-3.53 5.66,-2.36 10.82,-5.83 15.14,-10.14l0.02 0.02c0.66,-0.66 1.39,-1.27 2.2,-1.82 6.98,-4.76 16.51,-2.97 21.27,4.02l9.91 14.43c4.76,6.31 3.96,15.32 -2.05,20.67 -8.65,7.7 -18.77,13.99 -29.92,18.31zm163.5 -5.93l-37.66 -103.23 -37.53 102.45c-1.91,6.31 -7.76,10.91 -14.69,10.91l-19.51 0 0 -0.04c-1.79,0 -3.62,-0.32 -5.39,-0.98 -7.91,-2.98 -11.91,-11.81 -8.93,-19.72l58.58 -155.92c1.87,-6.35 7.75,-10.99 14.71,-10.99l25.56 0 0 0.05c6.2,0.01 12.04,3.81 14.33,9.96l58.26 155.65c0.96,2.01 1.5,4.26 1.5,6.64 0,8.47 -6.87,15.35 -15.34,15.35l-19.51 0 0 -0.04c-6.25,0 -12.13,-3.87 -14.38,-10.09zm182.32 -3.87c-11.77,10.29 -28.23,15.9 -47.95,16.18 -11.17,0.13 -23.39,-1.69 -36.24,-5.53 -11.93,-3.56 -24.58,-8.88 -37.62,-16.01 -7.09,-3.54 -10.37,-11.99 -7.34,-19.46l7.4 -18.16 0.02 0.01c0.34,-0.82 0.75,-1.63 1.24,-2.41 4.5,-7.14 13.94,-9.29 21.09,-4.79 9.49,5.95 19.04,10.6 28.16,13.72 8.01,2.75 15.4,4.25 21.77,4.35 0.45,-0.04 0.89,-0.06 1.34,-0.06 6.65,0 11.76,-1.22 14.75,-3.62 1.97,-1.58 3.11,-4.21 3.15,-7.9 0.05,-3.3 -15.12,-7.48 -31.16,-11.9 -5.32,-1.46 -5.33,-1.42 -7.75,-2.1l0.01 -0.05c-13.66,-3.73 -28.12,-8.43 -39.72,-16.78 -13.69,-9.85 -22.78,-23.73 -21.83,-44.54 0.76,-17.56 8.41,-31.54 20.55,-41.38 12.06,-9.77 28.43,-15.12 46.52,-15.4l0.11 0c12.1,-0.14 25.01,1.98 37.84,6.45 12.03,4.2 24,10.42 35.14,18.74l-0.01 0.01c6.2,4.62 8.04,13.27 4.02,20.07l-8.35 14.14c-0.42,0.78 -0.91,1.55 -1.47,2.28 -5.2,6.68 -14.83,7.89 -21.52,2.7 -7.39,-5.76 -15.21,-9.95 -22.78,-12.7 -8.12,-2.95 -15.84,-4.27 -22.33,-4.08l-0.24 0c-6.01,0.07 -11.01,1.48 -14.27,4.08 -2.13,1.7 -3.51,4.2 -3.78,7.45l-0.03 0.66c-0.09,1.35 1.19,2.68 3.27,4.01 5.1,3.25 13.42,5.89 22.58,8.48l0 0.01c11.07,3.06 -2.03,-0.58 4.98,1.32 32.69,8.88 69.46,18.86 69.46,57.81 0,18.72 -6.82,33.74 -19.01,44.4zm146.09 3.87l-37.65 -103.23 -37.54 102.45c-1.91,6.31 -7.76,10.91 -14.69,10.91l-19.51 0 0 -0.04c-1.79,0 -3.61,-0.32 -5.39,-0.98 -7.91,-2.98 -11.91,-11.81 -8.93,-19.72l58.58 -155.92c1.87,-6.35 7.75,-10.99 14.71,-10.99l25.57 0 0 0.05c6.2,0.01 12.03,3.81 14.32,9.96l58.26 155.65c0.96,2.01 1.51,4.26 1.51,6.64 0,8.47 -6.87,15.35 -15.35,15.35l-19.51 0 0 -0.04c-6.25,0 -12.12,-3.87 -14.38,-10.09z"></path>
   <path class="fil2" d="M1298.7 284.62c-5.85,6.42 -14.04,10.17 -23.32,10.17l-22.39 0c-2.97,0 -5.39,-2.42 -5.39,-5.39l0 -59.14c0,-2.97 2.42,-5.39 5.39,-5.39l22.39 0c9.5,0 17.9,3.12 23.86,9.65 5.3,5.83 8.48,14.21 8.48,25.31 0,10.01 -3.39,18.61 -9.02,24.79zm-12.51 -38.01c-2.67,-2.89 -6.74,-4.28 -11.65,-4.28l-9.48 0 0 35 9.39 0c4.68,0 8.67,-1.67 11.41,-4.63 2.77,-2.99 4.41,-7.39 4.41,-12.87 0,-6.07 -1.51,-10.43 -4.08,-13.22zm86.03 38.51c-6.48,6.5 -15.41,10.51 -25.26,10.51 -9.91,0 -18.87,-4 -25.36,-10.47 -6.51,-6.49 -10.52,-15.44 -10.52,-25.33 0,-9.85 4.02,-18.82 10.54,-25.32 6.49,-6.47 15.44,-10.48 25.34,-10.48 9.84,0 18.77,4.03 25.24,10.52 6.47,6.49 10.48,15.44 10.48,25.28 0,9.87 -4,18.81 -10.46,25.29zm-38.3 -12.34c3.33,3.33 7.93,5.4 12.96,5.4 5.02,0 9.66,-2.08 13.02,-5.44 3.33,-3.31 5.41,-7.87 5.41,-12.91l0.02 0c-0.04,-5.03 -2.14,-9.61 -5.48,-12.94 -3.35,-3.34 -7.96,-5.41 -12.97,-5.41 -5.03,0 -9.63,2.07 -12.96,5.4l-0.01 -0.01c-3.31,3.32 -5.38,7.91 -5.38,12.96 0,5.05 2.07,9.63 5.39,12.95z"></path>
   <path class="fil2" d="M1519.75 301.2l-30.4 0 0 39.14c0,8.47 -6.87,15.35 -15.34,15.35l-18.39 0c-8.47,0 -15.34,-6.88 -15.34,-15.35l0 -156.96c0,-8.47 6.87,-15.34 15.34,-15.34l64.13 0c19.97,0 36.23,7.22 47.86,18.65 12.64,12.42 19.5,29.64 19.5,47.82 0,18.68 -6.77,35.77 -19.26,48.09 -11.65,11.51 -28,18.6 -48.1,18.6zm13.16 -80.49c-3.34,-3.37 -8.13,-5.39 -13.61,-5.39l-29.95 0 0 38.37 29.95 0c5.44,0 10.21,-2.04 13.56,-5.41 3.36,-3.38 5.4,-8.21 5.4,-13.77 0,-5.63 -2.02,-10.45 -5.35,-13.8z"></path>
   <path class="fil2" d="M1706.12 345.56l-37.66 -103.23 -37.53 102.45c-1.91,6.31 -7.76,10.91 -14.69,10.91l-19.51 0 0 -0.04c-1.79,0 -3.62,-0.32 -5.39,-0.98 -7.91,-2.98 -11.91,-11.81 -8.93,-19.72l58.58 -155.92c1.87,-6.35 7.75,-10.99 14.71,-10.99l25.56 0 0 0.06c6.2,0 12.04,3.8 14.33,9.95l58.26 155.65c0.96,2.01 1.5,4.26 1.5,6.64 0,8.47 -6.87,15.35 -15.34,15.35l-19.51 0 0 -0.04c-6.25,0 -12.13,-3.87 -14.38,-10.09z"></path>
   <path class="fil2" d="M1698.67 146.39c-4.56,3.16 -10.93,5.11 -19.24,5.11 -7.43,0 -11.92,-1.96 -15.97,-3.74 -1.96,-0.85 -3.74,-1.64 -5.46,-1.64 -0.61,0 -1.14,0.02 -1.58,0.05 -1.18,2.74 -3.9,4.66 -7.07,4.66l-12.45 0c-4.24,0 -7.69,-3.44 -7.69,-7.69 0,-6.66 2.57,-12.56 8.63,-16.69 4.49,-3.06 10.86,-4.9 19.46,-4.9l0 0.03 0.15 0c6.71,0.15 10.73,1.97 14.6,3.72 2.33,1.06 4.58,2.08 7.38,2.08 0.53,0 0.97,-0.01 1.32,-0.03 0.99,-3.11 3.9,-5.35 7.33,-5.35l11.76 0c4.24,0 7.69,3.44 7.69,7.69 0,6.51 -2.82,12.51 -8.86,16.7z"></path>
   <path class="fil2" d="M1915.93 329.72c-17.38,17.43 -41.36,28.21 -67.77,28.21 -26.6,0 -50.64,-10.74 -68.05,-28.1 -17.47,-17.41 -28.24,-41.44 -28.24,-67.97 0,-26.43 10.8,-50.49 28.29,-67.93 17.41,-17.36 41.42,-28.13 68,-28.13 26.39,0 50.34,10.81 67.71,28.23 17.37,17.42 28.13,41.43 28.13,67.83 0,26.49 -10.74,50.48 -28.07,67.86zm-101.65 -34.22c8.66,8.66 20.59,14.03 33.65,14.03 13.06,0 25.09,-5.41 33.84,-14.12 8.64,-8.61 14.05,-20.47 14.05,-33.55l0.06 0c-0.1,-13.06 -5.57,-24.95 -14.25,-33.6 -8.71,-8.68 -20.68,-14.06 -33.7,-14.06 -13.06,0 -24.99,5.37 -33.65,14.03 -8.64,8.63 -14.01,20.53 -14.01,33.63 0,13.11 5.37,25 14.01,33.64z"></path>
   <path class="fil2" d="M528.15 471.04l0 -41.99 12.74 0 7.52 28.64 7.44 -28.64 12.76 0 0 41.99 -7.85 0 -0.03 -33.06 -8.28 33.06 -8.17 0 -8.24 -33.06 -0.03 33.06 -7.86 0zm93.52 0l0 -41.99 31.08 0 0 7.1 -22.58 0 0 9.32 20.99 0 0 7.1 -20.99 0 0 11.37 23.4 0 0 7.1 -31.9 0zm83.66 0l0 -41.99 17.86 0c4.48,0 7.75,0.38 9.78,1.14 2.04,0.75 3.66,2.09 4.88,4.01 1.23,1.94 1.84,4.14 1.84,6.62 0,3.16 -0.92,5.76 -2.76,7.81 -1.85,2.05 -4.61,3.34 -8.28,3.88 1.83,1.06 3.33,2.24 4.51,3.52 1.2,1.28 2.8,3.55 4.81,6.82l5.12 8.19 -10.13 0 -6.08 -9.17c-2.18,-3.25 -3.67,-5.31 -4.49,-6.16 -0.8,-0.84 -1.65,-1.42 -2.55,-1.74 -0.91,-0.31 -2.33,-0.47 -4.29,-0.47l-1.72 0 0 17.54 -8.5 0zm8.5 -24.22l6.28 0c4.06,0 6.59,-0.18 7.61,-0.52 1.01,-0.34 1.81,-0.94 2.38,-1.78 0.57,-0.84 0.86,-1.89 0.86,-3.15 0,-1.42 -0.39,-2.55 -1.14,-3.43 -0.75,-0.87 -1.82,-1.42 -3.18,-1.65 -0.7,-0.09 -2.76,-0.14 -6.19,-0.14l-6.62 0 0 10.67zm105.25 8.74l8.21 2.52c-1.26,4.62 -3.36,8.05 -6.29,10.3 -2.93,2.24 -6.65,3.36 -11.15,3.36 -5.58,0 -10.16,-1.9 -13.76,-5.72 -3.59,-3.81 -5.39,-9.02 -5.39,-15.63 0,-6.99 1.81,-12.42 5.42,-16.29 3.6,-3.88 8.35,-5.81 14.24,-5.81 5.14,0 9.31,1.52 12.52,4.56 1.91,1.8 3.34,4.38 4.3,7.75l-8.39 2c-0.5,-2.17 -1.53,-3.89 -3.11,-5.15 -1.58,-1.26 -3.5,-1.89 -5.74,-1.89 -3.12,0 -5.65,1.12 -7.59,3.35 -1.94,2.23 -2.91,5.85 -2.91,10.85 0,5.3 0.96,9.08 2.86,11.33 1.92,2.26 4.4,3.38 7.46,3.38 2.26,0 4.2,-0.71 5.83,-2.15 1.62,-1.44 2.79,-3.68 3.49,-6.76zm97.87 15.48l-9.16 0 -3.63 -9.56 -16.83 0 -3.49 9.56 -9 0 16.31 -41.99 8.98 0 16.82 41.99zm-15.54 -16.66l-5.84 -15.53 -5.67 15.53 11.51 0zm64.61 -25.33l15.46 0c3.49,0 6.15,0.27 7.98,0.8 2.45,0.73 4.56,2.02 6.31,3.87 1.76,1.85 3.09,4.12 4.01,6.81 0.91,2.67 1.37,5.99 1.37,9.92 0,3.46 -0.43,6.43 -1.29,8.93 -1.05,3.06 -2.54,5.53 -4.49,7.42 -1.46,1.43 -3.45,2.55 -5.94,3.35 -1.87,0.59 -4.36,0.89 -7.49,0.89l-15.92 0 0 -41.99zm8.51 7.1l0 27.79 6.3 0c2.35,0 4.06,-0.13 5.1,-0.4 1.38,-0.34 2.51,-0.93 3.41,-1.75 0.91,-0.82 1.64,-2.17 2.21,-4.04 0.58,-1.88 0.86,-4.45 0.86,-7.7 0,-3.24 -0.28,-5.72 -0.86,-7.46 -0.57,-1.74 -1.37,-3.09 -2.39,-4.07 -1.03,-0.96 -2.33,-1.63 -3.91,-1.97 -1.18,-0.27 -3.49,-0.4 -6.93,-0.4l-3.79 0zm76.63 14.15c0,-4.28 0.65,-7.88 1.93,-10.79 0.94,-2.14 2.25,-4.07 3.91,-5.77 1.65,-1.7 3.46,-2.96 5.42,-3.79 2.62,-1.1 5.64,-1.66 9.06,-1.66 6.2,0 11.14,1.93 14.86,5.77 3.72,3.85 5.58,9.19 5.58,16.04 0,6.8 -1.85,12.11 -5.54,15.94 -3.68,3.84 -8.62,5.76 -14.78,5.76 -6.25,0 -11.22,-1.91 -14.91,-5.73 -3.68,-3.81 -5.53,-9.07 -5.53,-15.77zm8.74 -0.28c0,4.76 1.1,8.36 3.3,10.82 2.2,2.46 5,3.69 8.38,3.69 3.39,0 6.16,-1.22 8.34,-3.66 2.17,-2.44 3.26,-6.09 3.26,-10.97 0,-4.82 -1.06,-8.42 -3.18,-10.78 -2.11,-2.38 -4.91,-3.56 -8.42,-3.56 -3.5,0 -6.33,1.2 -8.47,3.6 -2.14,2.4 -3.21,6.02 -3.21,10.86zm178.7 7.41l8.27 -0.82c0.5,2.77 1.5,4.79 3.01,6.09 1.52,1.3 3.56,1.95 6.13,1.95 2.72,0 4.77,-0.58 6.15,-1.73 1.37,-1.16 2.07,-2.51 2.07,-4.05 0,-1 -0.3,-1.84 -0.87,-2.54 -0.58,-0.69 -1.6,-1.3 -3.04,-1.81 -0.99,-0.35 -3.24,-0.96 -6.76,-1.84 -4.52,-1.13 -7.7,-2.52 -9.52,-4.17 -2.57,-2.32 -3.85,-5.14 -3.85,-8.47 0,-2.14 0.6,-4.16 1.8,-6.02 1.22,-1.87 2.96,-3.29 5.23,-4.26 2.28,-0.98 5.02,-1.47 8.24,-1.47 5.25,0 9.21,1.16 11.86,3.5 2.66,2.33 4.04,5.44 4.18,9.34l-8.5 0.3c-0.37,-2.17 -1.14,-3.73 -2.32,-4.68 -1.18,-0.94 -2.96,-1.42 -5.33,-1.42 -2.44,0 -4.35,0.5 -5.73,1.52 -0.89,0.66 -1.34,1.53 -1.34,2.62 0,1 0.42,1.85 1.26,2.55 1.06,0.91 3.65,1.85 7.77,2.83 4.11,0.96 7.15,1.98 9.12,3.02 1.97,1.04 3.52,2.46 4.63,4.27 1.11,1.8 1.67,4.03 1.67,6.68 0,2.41 -0.66,4.66 -2,6.76 -1.34,2.11 -3.23,3.67 -5.67,4.69 -2.45,1.02 -5.49,1.53 -9.14,1.53 -5.31,0 -9.38,-1.22 -12.23,-3.67 -2.84,-2.45 -4.53,-6.01 -5.09,-10.7zm84.13 -7.13c0,-4.28 0.65,-7.88 1.93,-10.79 0.95,-2.14 2.26,-4.07 3.91,-5.77 1.65,-1.7 3.46,-2.96 5.42,-3.79 2.62,-1.1 5.64,-1.66 9.06,-1.66 6.2,0 11.14,1.93 14.87,5.77 3.71,3.85 5.57,9.19 5.57,16.04 0,6.8 -1.85,12.11 -5.53,15.94 -3.69,3.84 -8.62,5.76 -14.79,5.76 -6.25,0 -11.22,-1.91 -14.9,-5.73 -3.69,-3.81 -5.54,-9.07 -5.54,-15.77zm8.74 -0.28c0,4.76 1.11,8.36 3.3,10.82 2.2,2.46 5,3.69 8.38,3.69 3.39,0 6.17,-1.22 8.35,-3.66 2.17,-2.44 3.25,-6.09 3.25,-10.97 0,-4.82 -1.05,-8.42 -3.17,-10.78 -2.12,-2.38 -4.92,-3.56 -8.43,-3.56 -3.5,0 -6.32,1.2 -8.46,3.6 -2.14,2.4 -3.22,6.02 -3.22,10.86zm83.42 21.02l0 -41.64 8.5 0 0 34.54 21.05 0 0 7.1 -29.55 0zm79.84 0l0 -41.99 8.5 0 0 41.99 -8.5 0zm61.14 -41.99l15.46 0c3.49,0 6.14,0.27 7.97,0.8 2.45,0.73 4.57,2.02 6.32,3.87 1.75,1.85 3.08,4.12 4,6.81 0.91,2.67 1.37,5.99 1.37,9.92 0,3.46 -0.43,6.43 -1.29,8.93 -1.05,3.06 -2.54,5.53 -4.49,7.42 -1.46,1.43 -3.45,2.55 -5.94,3.35 -1.86,0.59 -4.36,0.89 -7.48,0.89l-15.92 0 0 -41.99zm8.5 7.1l0 27.79 6.3 0c2.36,0 4.06,-0.13 5.1,-0.4 1.38,-0.34 2.52,-0.93 3.42,-1.75 0.9,-0.82 1.64,-2.17 2.2,-4.04 0.58,-1.88 0.86,-4.45 0.86,-7.7 0,-3.24 -0.28,-5.72 -0.86,-7.46 -0.56,-1.74 -1.37,-3.09 -2.39,-4.07 -1.03,-0.96 -2.33,-1.63 -3.91,-1.97 -1.17,-0.27 -3.49,-0.4 -6.93,-0.4l-3.79 0zm116.22 34.89l-9.16 0 -3.63 -9.56 -16.84 0 -3.49 9.56 -8.99 0 16.3 -41.99 8.99 0 16.82 41.99zm-15.54 -16.66l-5.84 -15.53 -5.67 15.53 11.51 0zm-8.86 -29.14l3.99 -8.56 8.97 0 -7.92 8.56 -5.04 0zm73.47 45.8l0 -41.99 17.86 0c4.48,0 7.75,0.38 9.78,1.14 2.04,0.75 3.66,2.09 4.89,4.01 1.22,1.94 1.83,4.14 1.83,6.62 0,3.16 -0.92,5.76 -2.76,7.81 -1.85,2.05 -4.61,3.34 -8.28,3.88 1.83,1.06 3.33,2.24 4.51,3.52 1.2,1.28 2.8,3.55 4.81,6.82l5.12 8.19 -10.13 0 -6.08 -9.17c-2.18,-3.25 -3.67,-5.31 -4.49,-6.16 -0.8,-0.84 -1.65,-1.42 -2.55,-1.74 -0.9,-0.31 -2.33,-0.47 -4.29,-0.47l-1.72 0 0 17.54 -8.5 0zm8.5 -24.22l6.28 0c4.06,0 6.59,-0.18 7.61,-0.52 1.01,-0.34 1.81,-0.94 2.38,-1.78 0.57,-0.84 0.86,-1.89 0.86,-3.15 0,-1.42 -0.39,-2.55 -1.14,-3.43 -0.75,-0.87 -1.82,-1.42 -3.18,-1.65 -0.7,-0.09 -2.76,-0.14 -6.19,-0.14l-6.62 0 0 10.67zm78.11 24.22l0 -41.99 8.5 0 0 41.99 -8.5 0zm59.37 -20.74c0,-4.28 0.65,-7.88 1.93,-10.79 0.94,-2.14 2.25,-4.07 3.91,-5.77 1.65,-1.7 3.46,-2.96 5.42,-3.79 2.62,-1.1 5.64,-1.66 9.06,-1.66 6.2,0 11.14,1.93 14.86,5.77 3.72,3.85 5.58,9.19 5.58,16.04 0,6.8 -1.85,12.11 -5.54,15.94 -3.68,3.84 -8.62,5.76 -14.78,5.76 -6.25,0 -11.22,-1.91 -14.91,-5.73 -3.68,-3.81 -5.53,-9.07 -5.53,-15.77zm8.74 -0.28c0,4.76 1.1,8.36 3.3,10.82 2.2,2.46 4.99,3.69 8.38,3.69 3.39,0 6.16,-1.22 8.34,-3.66 2.17,-2.44 3.26,-6.09 3.26,-10.97 0,-4.82 -1.06,-8.42 -3.18,-10.78 -2.11,-2.38 -4.91,-3.56 -8.42,-3.56 -3.5,0 -6.33,1.2 -8.47,3.6 -2.14,2.4 -3.21,6.02 -3.21,10.86z"></path>
  </g>
 </g>
</svg>
