<?xml version="1.0" encoding="utf-8"?>
<!-- Generator: Adobe Illustrator 23.1.0, SVG Export Plug-In . SVG Version: 6.00 Build 0)  -->
<svg version="1.1" id="Layer_1" xmlns="http://www.w3.org/2000/svg" xmlns:xlink="http://www.w3.org/1999/xlink" x="0px" y="0px"
	 viewBox="0 0 265 300" enable-background="new 0 0 265 300" xml:space="preserve">
<g>
	<path id="Rectangle_1049" fill="#FFFFFF" d="M5,0h255c2.8,0,5,2.2,5,5v290c0,2.8-2.2,5-5,5H5c-2.8,0-5-2.2-5-5V5C0,2.2,2.2,0,5,0z"
		/>
	<path id="Rectangle_1050" fill="#E5E9EA" d="M42.5,59h80c1.4,0,2.5,1.1,2.5,2.5l0,0c0,1.4-1.1,2.5-2.5,2.5h-80
		c-1.4,0-2.5-1.1-2.5-2.5l0,0C40,60.1,41.1,59,42.5,59z"/>
	<path id="Rectangle_1051" fill="#E5E9EA" d="M42.5,103h80c1.4,0,2.5,1.1,2.5,2.5l0,0c0,1.4-1.1,2.5-2.5,2.5h-80
		c-1.4,0-2.5-1.1-2.5-2.5l0,0C40,104.1,41.1,103,42.5,103z"/>
	<path id="Rectangle_1059" fill="#E5E9EA" d="M45,147h75c2.8,0,5,2.2,5,5v6c0,2.8-2.2,5-5,5H45c-2.8,0-5-2.2-5-5v-6
		C40,149.2,42.2,147,45,147z"/>
	<path id="Rectangle_1052" fill="#E5E9EA" d="M142.5,103h80c1.4,0,2.5,1.1,2.5,2.5l0,0c0,1.4-1.1,2.5-2.5,2.5h-80
		c-1.4,0-2.5-1.1-2.5-2.5l0,0C140,104.1,141.1,103,142.5,103z"/>
	<path id="Rectangle_1060" fill="#E5E9EA" d="M145,147h75c2.8,0,5,2.2,5,5v6c0,2.8-2.2,5-5,5h-75c-2.8,0-5-2.2-5-5v-6
		C140,149.2,142.2,147,145,147z"/>
	<path id="Rectangle_1061" fill="#FFFFFF" d="M153,152h15c1.7,0,3,1.3,3,3l0,0c0,1.7-1.3,3-3,3h-15c-1.7,0-3-1.3-3-3l0,0
		C150,153.3,151.3,152,153,152z"/>
	<path id="Rectangle_1065" fill="#FFFFFF" d="M108,152h4c1.7,0,3,1.3,3,3l0,0c0,1.7-1.3,3-3,3h-4c-1.7,0-3-1.3-3-3l0,0
		C105,153.3,106.3,152,108,152z"/>
	<path id="Rectangle_1053" fill="#E5E9EA" d="M142.5,59h80c1.4,0,2.5,1.1,2.5,2.5l0,0c0,1.4-1.1,2.5-2.5,2.5h-80
		c-1.4,0-2.5-1.1-2.5-2.5l0,0C140,60.1,141.1,59,142.5,59z"/>
	<text transform="matrix(1 0 0 1 40 51)" fill="#565656" font-family="'HelveticaNeue'" font-size="12px">First Name</text>
	<text transform="matrix(1 0 0 1 40 95)" fill="#565656" font-family="'HelveticaNeue'" font-size="12px">Email</text>
	<text transform="matrix(1 0 0 1 40 139)" fill="#565656" font-family="'HelveticaNeue'" font-size="12px">Job Title</text>
	<text transform="matrix(1 0 0 1 140 95)" fill="#565656" font-family="'HelveticaNeue'" font-size="12px">Phone</text>
	<text transform="matrix(1 0 0 1 140 139)" fill="#565656" font-family="'HelveticaNeue'" font-size="12px">Upload Resume</text>
	<text transform="matrix(1 0 0 1 140 51)" fill="#565656" font-family="'HelveticaNeue'" font-size="12px">Last Name</text>
	<path id="Rectangle_1058" fill="#FF8D91" d="M85,238h95c2.8,0,5,2.2,5,5v17c0,2.8-2.2,5-5,5H85c-2.8,0-5-2.2-5-5v-17
		C80,240.2,82.2,238,85,238z"/>
	<text transform="matrix(1 0 0 1 113.83 256)" fill="#FFFFFF" font-family="'HelveticaNeue-Medium'" font-size="10px">SUBMIT</text>
	<text transform="matrix(1 0 0 1 40 194)" fill="#565656" font-family="'HelveticaNeue'" font-size="12px">Transport Type</text>
	<path id="Rectangle_1062" fill="#E5E9EA" d="M42.5,207h5c1.4,0,2.5,1.1,2.5,2.5l0,0c0,1.4-1.1,2.5-2.5,2.5h-5
		c-1.4,0-2.5-1.1-2.5-2.5l0,0C40,208.1,41.1,207,42.5,207z"/>
	<path id="Rectangle_1064" fill="#E5E9EA" d="M62.5,207h35c1.4,0,2.5,1.1,2.5,2.5l0,0c0,1.4-1.1,2.5-2.5,2.5h-35
		c-1.4,0-2.5-1.1-2.5-2.5l0,0C60,208.1,61.1,207,62.5,207z"/>
</g>
</svg>
