<?xml version="1.0" encoding="utf-8"?>
<!-- Generator: Adobe Illustrator 23.1.0, SVG Export Plug-In . SVG Version: 6.00 Build 0)  -->
<svg version="1.1" id="Layer_1" xmlns="http://www.w3.org/2000/svg" xmlns:xlink="http://www.w3.org/1999/xlink" x="0px" y="0px"
	 viewBox="0 0 265 300" enable-background="new 0 0 265 300" xml:space="preserve">
<g id="Group_70" transform="translate(-963 -3001)">
	<path id="Rectangle_1049" fill="#FFFFFF" d="M968,3001h255c2.8,0,5,2.2,5,5v290c0,2.8-2.2,5-5,5H968c-2.8,0-5-2.2-5-5v-290
		C963,3003.2,965.2,3001,968,3001z"/>
	<path id="Rectangle_1050" fill="#E5E9EA" d="M1005.5,3060h80c1.4,0,2.5,1.1,2.5,2.5l0,0c0,1.4-1.1,2.5-2.5,2.5h-80
		c-1.4,0-2.5-1.1-2.5-2.5l0,0C1003,3061.1,1004.1,3060,1005.5,3060z"/>
	<path id="Rectangle_1051" fill="#E5E9EA" d="M1005.5,3104h80c1.4,0,2.5,1.1,2.5,2.5l0,0c0,1.4-1.1,2.5-2.5,2.5h-80
		c-1.4,0-2.5-1.1-2.5-2.5l0,0C1003,3105.1,1004.1,3104,1005.5,3104z"/>
	<path id="Rectangle_1059" fill="#E5E9EA" d="M1008,3148h175c2.8,0,5,2.2,5,5v55c0,2.8-2.2,5-5,5h-175c-2.8,0-5-2.2-5-5v-55
		C1003,3150.2,1005.2,3148,1008,3148z"/>
	<path id="Rectangle_1052" fill="#E5E9EA" d="M1105.5,3104h80c1.4,0,2.5,1.1,2.5,2.5l0,0c0,1.4-1.1,2.5-2.5,2.5h-80
		c-1.4,0-2.5-1.1-2.5-2.5l0,0C1103,3105.1,1104.1,3104,1105.5,3104z"/>
	<path id="Rectangle_1053" fill="#E5E9EA" d="M1105.5,3060h80c1.4,0,2.5,1.1,2.5,2.5l0,0c0,1.4-1.1,2.5-2.5,2.5h-80
		c-1.4,0-2.5-1.1-2.5-2.5l0,0C1103,3061.1,1104.1,3060,1105.5,3060z"/>
	<text transform="matrix(1 0 0 1 1003 3052)" fill="#565656" font-family="'HelveticaNeue'" font-size="12px">First Name</text>
	<text transform="matrix(1 0 0 1 1003 3096)" fill="#565656" font-family="'HelveticaNeue'" font-size="12px">Email</text>
	<text transform="matrix(1 0 0 1 1003 3140)" fill="#565656" font-family="'HelveticaNeue'" font-size="12px">Question/Message</text>
	<text transform="matrix(1 0 0 1 1103 3096)" fill="#565656" font-family="'HelveticaNeue'" font-size="12px">Support type</text>
	<text transform="matrix(1 0 0 1 1103 3052)" fill="#565656" font-family="'HelveticaNeue'" font-size="12px">Last Name</text>
	<path id="Rectangle_1058" fill="#6236FF" d="M1048,3239h95c2.8,0,5,2.2,5,5v17c0,2.8-2.2,5-5,5h-95c-2.8,0-5-2.2-5-5v-17
		C1043,3241.2,1045.2,3239,1048,3239z"/>
	<text transform="matrix(1 0 0 1 1076.8301 3257)" fill="#FFFFFF" font-family="'HelveticaNeue-Medium'" font-size="10px">SUBMIT</text>
</g>
</svg>
