<?xml version="1.0" encoding="utf-8"?>
<!-- Generator: Adobe Illustrator 23.1.0, SVG Export Plug-In . SVG Version: 6.00 Build 0)  -->
<svg version="1.1" id="Layer_1" xmlns="http://www.w3.org/2000/svg" xmlns:xlink="http://www.w3.org/1999/xlink" x="0px" y="0px"
	 viewBox="0 0 265 300" enable-background="new 0 0 265 300" xml:space="preserve">
<g id="Group_75" transform="translate(-373 -2543)">
	<path id="Rectangle_996" fill="#FFFFFF" d="M378,2543h255c2.8,0,5,2.2,5,5v290c0,2.8-2.2,5-5,5H378c-2.8,0-5-2.2-5-5v-290
		C373,2545.2,375.2,2543,378,2543z"/>
	<path id="Rectangle_991" fill="#E5E9EA" d="M415.5,2704h180c1.4,0,2.5,1.1,2.5,2.5l0,0c0,1.4-1.1,2.5-2.5,2.5h-180
		c-1.4,0-2.5-1.1-2.5-2.5l0,0C413,2705.1,414.1,2704,415.5,2704z"/>
	<text transform="matrix(1 0 0 1 413 2696)" fill="#565656" font-family="'HelveticaNeue'" font-size="12px">Email address</text>
	<text transform="matrix(1 0 0 1 413 2598)" fill="#565656" font-family="'HelveticaNeue-Medium'" font-size="15px">Subscribe to our</text>
	<text transform="matrix(1 0 0 1 413 2614)" fill="#565656" font-family="'HelveticaNeue-Medium'" font-size="15px">newsletter</text>
	<path id="Rectangle_995" fill="#DE4437" d="M418,2781h95c2.8,0,5,2.2,5,5v17c0,2.8-2.2,5-5,5h-95c-2.8,0-5-2.2-5-5v-17
		C413,2783.2,415.2,2781,418,2781z"/>
	<text transform="matrix(1 0 0 1 437.2 2798)" fill="#FFFFFF" font-family="'HelveticaNeue-Medium'" font-size="10px">SUBSCRIBE</text>
	<text transform="matrix(1 0 0 1 413 2643)" fill="#565656" font-family="'HelveticaNeue'" font-size="12px">Get your very frst ebook for free </text>
	<text transform="matrix(1 0 0 1 413 2657)" fill="#565656" font-family="'HelveticaNeue'" font-size="12px">and access to premium ofers</text>
</g>
</svg>
