<?xml version="1.0" encoding="utf-8"?>
<!-- Generator: Adobe Illustrator 23.1.0, SVG Export Plug-In . SVG Version: 6.00 Build 0)  -->
<svg version="1.1" id="Layer_1" xmlns="http://www.w3.org/2000/svg" xmlns:xlink="http://www.w3.org/1999/xlink" x="0px" y="0px"
	 viewBox="0 0 265 300" enable-background="new 0 0 265 300" xml:space="preserve">
<path id="Rectangle_921" fill="#FFFFFF" d="M5,0h255c2.8,0,5,2.2,5,5v290c0,2.8-2.2,5-5,5H5c-2.8,0-5-2.2-5-5V5C0,2.2,2.2,0,5,0z"/>
<path id="Rectangle_922" fill="#E5E9EA" d="M42.5,59h80c1.4,0,2.5,1.1,2.5,2.5l0,0c0,1.4-1.1,2.5-2.5,2.5h-80
	c-1.4,0-2.5-1.1-2.5-2.5l0,0C40,60.1,41.1,59,42.5,59z"/>
<path id="Rectangle_923" fill="#E5E9EA" d="M42.5,108h180c1.4,0,2.5,1.1,2.5,2.5l0,0c0,1.4-1.1,2.5-2.5,2.5h-180
	c-1.4,0-2.5-1.1-2.5-2.5l0,0C40,109.1,41.1,108,42.5,108z"/>
<path id="Rectangle_924" fill="#E5E9EA" d="M142.5,59h80c1.4,0,2.5,1.1,2.5,2.5l0,0c0,1.4-1.1,2.5-2.5,2.5h-80
	c-1.4,0-2.5-1.1-2.5-2.5l0,0C140,60.1,141.1,59,142.5,59z"/>
<path fill="#565656" d="M46.6,42.4v1h-4.5v2.7H46v1h-3.9V51H41v-8.6H46.6z"/>
<path fill="#565656" d="M47.7,43.7v-1.2h1v1.2H47.7z M48.7,44.8V51h-1v-6.2H48.7z"/>
<path fill="#565656" d="M51.2,44.8v1.3l0,0c0.2-0.5,0.6-0.9,0.9-1.1c0.4-0.2,0.8-0.4,1.4-0.3v1.1c-0.4,0-0.8,0.1-1,0.2
	c-0.3,0.1-0.5,0.3-0.7,0.5s-0.3,0.5-0.4,0.8c-0.1,0.3-0.1,0.7-0.1,1.1V51h-1v-6.2H51.2z"/>
<path fill="#565656" d="M55.1,49.6c0.1,0.2,0.2,0.3,0.4,0.4c0.2,0.1,0.3,0.2,0.5,0.2s0.4,0.1,0.6,0.1c0.2,0,0.3,0,0.5,0
	s0.3-0.1,0.5-0.1c0.1-0.1,0.3-0.2,0.4-0.3s0.1-0.3,0.1-0.5c0-0.3-0.1-0.5-0.3-0.6s-0.4-0.2-0.8-0.3c-0.3-0.1-0.6-0.2-1-0.2
	c-0.4-0.1-0.7-0.2-1-0.3s-0.6-0.3-0.8-0.5s-0.3-0.5-0.3-0.9c0-0.3,0.1-0.6,0.2-0.8c0.1-0.2,0.3-0.4,0.5-0.5s0.5-0.2,0.7-0.3
	c0.3-0.1,0.5-0.1,0.8-0.1c0.4,0,0.7,0,1,0.1s0.6,0.2,0.8,0.3s0.4,0.3,0.5,0.6s0.2,0.6,0.2,0.9h-1c0-0.2-0.1-0.4-0.2-0.5
	c-0.1-0.1-0.2-0.2-0.3-0.3s-0.3-0.1-0.5-0.2c-0.2,0-0.3-0.1-0.5-0.1s-0.3,0-0.5,0s-0.3,0.1-0.4,0.1c-0.1,0.1-0.2,0.1-0.3,0.2
	c-0.1,0.1-0.1,0.2-0.1,0.4s0.1,0.3,0.2,0.4s0.3,0.2,0.5,0.3s0.4,0.1,0.6,0.2c0.2,0.1,0.5,0.1,0.7,0.2c0.3,0.1,0.5,0.1,0.8,0.2
	s0.5,0.2,0.6,0.3s0.3,0.3,0.5,0.5c0.1,0.2,0.2,0.4,0.2,0.7c0,0.4-0.1,0.7-0.2,0.9c-0.2,0.2-0.4,0.4-0.6,0.6
	c-0.3,0.2-0.5,0.3-0.9,0.3s-0.6,0.1-0.9,0.1c-0.3,0-0.7,0-1-0.1s-0.6-0.2-0.8-0.4s-0.4-0.4-0.6-0.6c-0.1-0.3-0.2-0.6-0.2-1h1
	C54.9,49.3,55,49.5,55.1,49.6z"/>
<path fill="#565656" d="M63,44.8v0.9h-1.2v3.9c0,0.1,0,0.2,0,0.3s0.1,0.1,0.1,0.2c0.1,0,0.1,0.1,0.2,0.1s0.2,0,0.4,0H63V51h-0.8
	c-0.3,0-0.5,0-0.7-0.1s-0.3-0.1-0.5-0.2c-0.1-0.1-0.2-0.2-0.3-0.4s-0.1-0.4-0.1-0.7v-3.9h-1.1v-0.9h1.1v-1.9h1v1.9
	C61.6,44.8,63,44.8,63,44.8z"/>
<path fill="#565656" d="M68.8,42.4l4.5,6.9l0,0v-6.9h1.1V51h-1.2l-4.5-6.9l0,0V51h-1.1v-8.6H68.8z"/>
<path fill="#565656" d="M81.6,51c-0.2,0.1-0.4,0.2-0.7,0.2c-0.3,0-0.5-0.1-0.6-0.2c-0.2-0.1-0.2-0.4-0.2-0.7c-0.3,0.3-0.6,0.6-1,0.7
	c-0.4,0.1-0.8,0.2-1.2,0.2c-0.3,0-0.5,0-0.8-0.1s-0.5-0.2-0.7-0.3s-0.3-0.3-0.4-0.5s-0.2-0.5-0.2-0.8c0-0.4,0.1-0.6,0.2-0.9
	c0.1-0.2,0.3-0.4,0.5-0.5s0.4-0.2,0.7-0.3s0.5-0.1,0.8-0.2c0.3-0.1,0.5-0.1,0.8-0.1s0.5-0.1,0.7-0.1s0.3-0.1,0.5-0.2
	c0.1-0.1,0.2-0.2,0.2-0.4s0-0.4-0.1-0.5s-0.2-0.2-0.3-0.3c-0.1-0.1-0.3-0.1-0.4-0.1c-0.2,0-0.3,0-0.5,0c-0.4,0-0.8,0.1-1.1,0.2
	S77,46.3,77,46.7h-1c0-0.4,0.1-0.7,0.2-1s0.3-0.5,0.6-0.6c0.2-0.2,0.5-0.3,0.8-0.4c0.3-0.1,0.6-0.1,1-0.1c0.3,0,0.6,0,0.8,0.1
	c0.3,0,0.5,0.1,0.8,0.2c0.2,0.1,0.4,0.3,0.5,0.5s0.2,0.5,0.2,0.9v3.2c0,0.2,0,0.4,0,0.5s0.1,0.2,0.3,0.2c0.1,0,0.2,0,0.3-0.1
	L81.6,51L81.6,51z M79.9,47.8c-0.1,0.1-0.3,0.2-0.5,0.2s-0.4,0.1-0.7,0.1c-0.2,0-0.5,0.1-0.7,0.1s-0.4,0.1-0.6,0.2
	c-0.2,0.1-0.3,0.2-0.5,0.3c-0.1,0.1-0.2,0.4-0.2,0.6c0,0.2,0,0.3,0.1,0.4s0.2,0.2,0.3,0.3c0.1,0.1,0.2,0.1,0.4,0.2
	c0.1,0,0.3,0,0.5,0c0.3,0,0.6,0,0.9-0.1c0.2-0.1,0.4-0.2,0.6-0.3s0.3-0.3,0.3-0.5s0.1-0.3,0.1-0.5L79.9,47.8L79.9,47.8z"/>
<path fill="#565656" d="M83.5,44.8v0.9l0,0c0.5-0.7,1.1-1.1,2-1.1c0.4,0,0.7,0.1,1,0.2c0.3,0.2,0.5,0.4,0.7,0.8
	c0.2-0.3,0.5-0.6,0.8-0.8s0.7-0.3,1.1-0.3c0.3,0,0.6,0,0.8,0.1c0.3,0.1,0.5,0.2,0.6,0.3c0.2,0.1,0.3,0.3,0.4,0.6
	C91,45.7,91,46,91,46.3V51h-1v-4.1c0-0.2,0-0.4,0-0.5s0.1-0.3,0-0.4s-0.2-0.2-0.4-0.3s-0.4-0.1-0.6-0.1c-0.5,0-0.9,0.1-1.2,0.4
	s-0.4,0.7-0.4,1.2V51h-1v-4.1c0-0.2,0-0.4-0.1-0.6c0-0.2-0.1-0.3-0.2-0.4c-0.1-0.1-0.2-0.2-0.4-0.3c-0.1-0.1-0.3-0.1-0.6-0.1
	c-0.3,0-0.5,0.1-0.8,0.2c-0.2,0.1-0.4,0.3-0.5,0.4s-0.2,0.3-0.3,0.5c-0.1,0.2-0.1,0.3-0.1,0.5V51h-1v-6.2H83.5z"/>
<path fill="#565656" d="M97.2,50.6c-0.5,0.4-1,0.5-1.8,0.5c-0.5,0-0.9-0.1-1.3-0.2c-0.4-0.2-0.7-0.4-0.9-0.7c-0.2-0.3-0.4-0.6-0.6-1
	c-0.1-0.4-0.2-0.8-0.2-1.3s0.1-0.9,0.2-1.3s0.3-0.7,0.6-1c0.3-0.3,0.6-0.5,0.9-0.7c0.4-0.2,0.7-0.2,1.2-0.2c0.6,0,1,0.1,1.4,0.3
	s0.7,0.5,0.9,0.9c0.2,0.4,0.4,0.7,0.5,1.2c0.1,0.4,0.1,0.8,0.1,1.2h-4.6c0,0.3,0,0.5,0.1,0.8c0.1,0.2,0.2,0.5,0.3,0.6
	c0.2,0.2,0.4,0.3,0.6,0.5s0.5,0.2,0.9,0.2s0.8-0.1,1.1-0.3c0.3-0.2,0.5-0.5,0.5-0.9h1C97.9,49.7,97.6,50.3,97.2,50.6z M96.9,46.6
	c-0.1-0.2-0.2-0.4-0.4-0.6c-0.2-0.2-0.3-0.3-0.6-0.4c-0.2-0.1-0.4-0.1-0.7-0.1c-0.3,0-0.5,0-0.7,0.1S94.1,45.8,94,46
	s-0.3,0.3-0.4,0.6s-0.1,0.4-0.2,0.7H97C97.1,47.1,97,46.8,96.9,46.6z"/>
<path fill="#565656" d="M46.9,91.4v1h-4.8v2.7h4.5v1h-4.5v3h4.8v1h-6v-8.6L46.9,91.4L46.9,91.4z"/>
<path fill="#565656" d="M49.1,93.8v0.9l0,0c0.5-0.7,1.1-1.1,2-1.1c0.4,0,0.7,0.1,1,0.2c0.3,0.2,0.5,0.4,0.7,0.8
	c0.2-0.3,0.5-0.6,0.8-0.8c0.3-0.2,0.7-0.3,1.1-0.3c0.3,0,0.6,0,0.8,0.1c0.3,0.1,0.5,0.2,0.6,0.3c0.2,0.1,0.3,0.3,0.4,0.6
	c0.1,0.2,0.1,0.5,0.1,0.8v4.5h-1v-4.1c0-0.2,0-0.4,0-0.5s-0.1-0.3-0.2-0.4c-0.1-0.1-0.2-0.2-0.4-0.3s-0.4-0.1-0.6-0.1
	c-0.5,0-0.9,0.1-1.2,0.4S53,95.7,53,96.1v3.9h-1v-4.1c0-0.2,0-0.4-0.1-0.6c0-0.2-0.1-0.3-0.2-0.4c-0.1-0.1-0.2-0.2-0.4-0.3
	c-0.1-0.1-0.3-0.1-0.6-0.1s-0.5,0.1-0.8,0.2c-0.2,0.1-0.4,0.3-0.5,0.4s-0.2,0.3-0.3,0.5S49,95.9,49,96.1v3.9h-1v-6.2H49.1z"/>
<path fill="#565656" d="M63.8,100c-0.2,0.1-0.4,0.2-0.7,0.2s-0.5-0.1-0.6-0.2c-0.2-0.1-0.2-0.4-0.2-0.7c-0.3,0.3-0.6,0.6-1,0.7
	s-0.8,0.2-1.2,0.2c-0.3,0-0.5,0-0.8-0.1s-0.5-0.2-0.7-0.3c-0.2-0.1-0.3-0.3-0.4-0.5C58.1,99,58,98.7,58,98.4c0-0.4,0.1-0.6,0.2-0.9
	c0.1-0.2,0.3-0.4,0.5-0.5s0.4-0.2,0.7-0.3s0.5-0.1,0.8-0.2s0.5-0.1,0.8-0.1s0.5-0.1,0.7-0.1s0.3-0.1,0.5-0.2
	c0.1-0.1,0.2-0.2,0.2-0.4c0-0.2,0-0.4-0.1-0.5S62.1,95,62,94.9c-0.1-0.1-0.3-0.1-0.4-0.1c-0.2,0-0.3,0-0.5,0c-0.4,0-0.8,0.1-1.1,0.2
	s-0.4,0.5-0.5,0.9h-1c0-0.4,0.1-0.7,0.2-1s0.3-0.5,0.6-0.6c0.2-0.2,0.5-0.3,0.8-0.4s0.6-0.1,1-0.1c0.3,0,0.6,0,0.8,0.1
	c0.3,0,0.5,0.1,0.8,0.2c0.2,0.1,0.4,0.3,0.5,0.5s0.2,0.5,0.2,0.9v3.2c0,0.2,0,0.4,0,0.5s0.1,0.2,0.3,0.2c0.1,0,0.2,0,0.3-0.1v0.7
	H63.8z M62.2,96.8c-0.1,0.1-0.3,0.2-0.5,0.2s-0.4,0.1-0.7,0.1c-0.2,0-0.5,0.1-0.7,0.1s-0.4,0.1-0.6,0.2c-0.2,0.1-0.3,0.2-0.5,0.3
	c-0.1,0.1-0.2,0.4-0.2,0.6s0,0.3,0.1,0.4s0.2,0.2,0.3,0.3c0.1,0.1,0.2,0.1,0.4,0.2c0.1,0,0.3,0,0.5,0c0.3,0,0.6,0,0.9-0.1
	c0.2-0.1,0.4-0.2,0.6-0.3c0.2-0.1,0.3-0.3,0.3-0.5s0.1-0.3,0.1-0.5C62.2,97.8,62.2,96.8,62.2,96.8z"/>
<path fill="#565656" d="M64.8,92.7v-1.2h1v1.2H64.8z M65.9,93.8v6.2h-1v-6.2H65.9z"/>
<path fill="#565656" d="M68.5,91.4v8.6h-1v-8.6H68.5z"/>
<path fill="#565656" d="M47.5,149l-2-7.2l0,0l-2,7.2h-1.2l-2.2-8.6h1.2l1.7,7.1l0,0l1.9-7.1h1.2l1.9,7.1l0,0l1.7-7.1H51l-2.3,8.6
	H47.5z"/>
<path fill="#565656" d="M52.9,140.4v3.3l0,0c0.1-0.2,0.2-0.4,0.3-0.5s0.3-0.2,0.5-0.3s0.4-0.1,0.6-0.2c0.2,0,0.4-0.1,0.6-0.1
	c0.4,0,0.7,0.1,1,0.2c0.3,0.1,0.5,0.3,0.7,0.5s0.3,0.4,0.4,0.7c0.1,0.3,0.1,0.6,0.1,0.9v4.1h-1v-4.2c0-0.4-0.1-0.7-0.3-0.9
	s-0.5-0.3-0.9-0.3c-0.3,0-0.6,0-0.8,0.1s-0.4,0.2-0.6,0.4c-0.2,0.2-0.3,0.4-0.3,0.6c-0.1,0.2-0.1,0.5-0.1,0.8v3.5h-1v-8.6H52.9z"/>
<path fill="#565656" d="M64,149c-0.2,0.1-0.4,0.2-0.7,0.2s-0.5-0.1-0.6-0.2c-0.2-0.1-0.2-0.4-0.2-0.7c-0.3,0.3-0.6,0.6-1,0.7
	c-0.4,0.1-0.8,0.2-1.2,0.2c-0.3,0-0.5,0-0.8-0.1s-0.5-0.2-0.7-0.3s-0.3-0.3-0.4-0.5c-0.1-0.2-0.2-0.5-0.2-0.8c0-0.4,0.1-0.6,0.2-0.9
	c0.1-0.2,0.3-0.4,0.5-0.5s0.4-0.2,0.7-0.3s0.5-0.1,0.8-0.2c0.3-0.1,0.5-0.1,0.8-0.1s0.5-0.1,0.7-0.1s0.3-0.1,0.5-0.2
	c0.1-0.1,0.2-0.2,0.2-0.4s0-0.4-0.1-0.5s-0.2-0.2-0.3-0.3s-0.3-0.1-0.4-0.1c-0.2,0-0.3,0-0.5,0c-0.4,0-0.8,0.1-1.1,0.2
	s-0.4,0.5-0.5,0.9h-1c0-0.4,0.1-0.7,0.2-1s0.3-0.5,0.6-0.6c0.2-0.2,0.5-0.3,0.8-0.4c0.3-0.1,0.6-0.1,1-0.1c0.3,0,0.6,0,0.8,0.1
	c0.3,0,0.5,0.1,0.8,0.2c0.2,0.1,0.4,0.3,0.5,0.5s0.2,0.5,0.2,0.9v3.2c0,0.2,0,0.4,0,0.5s0.1,0.2,0.3,0.2c0.1,0,0.2,0,0.3-0.1v0.6H64
	z M62.4,145.8c-0.1,0.1-0.3,0.2-0.5,0.2s-0.4,0.1-0.7,0.1c-0.2,0-0.5,0.1-0.7,0.1s-0.4,0.1-0.6,0.2c-0.2,0.1-0.3,0.2-0.5,0.3
	c-0.1,0.1-0.2,0.4-0.2,0.6c0,0.2,0,0.3,0.1,0.4s0.2,0.2,0.3,0.3s0.2,0.1,0.4,0.2c0.1,0,0.3,0,0.5,0c0.3,0,0.6,0,0.9-0.1
	c0.2-0.1,0.4-0.2,0.6-0.3c0.2-0.1,0.3-0.3,0.3-0.5s0.1-0.3,0.1-0.5C62.4,146.8,62.4,145.8,62.4,145.8z"/>
<path fill="#565656" d="M67.6,142.8v0.9h-1.2v3.9c0,0.1,0,0.2,0,0.3s0.1,0.1,0.1,0.2c0.1,0,0.1,0.1,0.2,0.1s0.2,0,0.4,0h0.5v0.9
	h-0.8c-0.3,0-0.5,0-0.7-0.1s-0.3-0.1-0.5-0.2c-0.1-0.1-0.2-0.2-0.3-0.4c-0.1-0.2-0.1-0.4-0.1-0.7v-3.9h-1.1v-0.9h1.1V141h1v1.9h1.4
	V142.8z"/>
<path fill="#565656" d="M76.6,149v-0.8l0,0c-0.2,0.3-0.4,0.6-0.8,0.7c-0.4,0.2-0.8,0.2-1.2,0.2c-0.5,0-0.9-0.1-1.3-0.3
	s-0.7-0.4-0.9-0.7s-0.4-0.6-0.5-1s-0.2-0.8-0.2-1.2s0.1-0.9,0.2-1.2c0.1-0.4,0.3-0.7,0.5-1s0.5-0.5,0.9-0.7s0.8-0.3,1.2-0.3
	c0.2,0,0.3,0,0.5,0s0.4,0.1,0.6,0.2s0.4,0.2,0.5,0.3s0.3,0.3,0.4,0.5l0,0v-3.2h1v8.6h-0.9V149z M73,146.8c0.1,0.3,0.2,0.5,0.3,0.7
	c0.2,0.2,0.4,0.4,0.6,0.5s0.5,0.2,0.9,0.2c0.3,0,0.6-0.1,0.9-0.2c0.2-0.1,0.4-0.3,0.6-0.5s0.3-0.5,0.3-0.8c0.1-0.3,0.1-0.6,0.1-0.9
	c0-0.3,0-0.6-0.1-0.9c-0.1-0.3-0.2-0.5-0.3-0.8c-0.2-0.2-0.4-0.4-0.6-0.5s-0.5-0.2-0.9-0.2c-0.3,0-0.6,0.1-0.9,0.2
	c-0.2,0.1-0.4,0.3-0.6,0.5c-0.1,0.2-0.2,0.5-0.3,0.8c-0.1,0.3-0.1,0.6-0.1,0.9C72.9,146.2,72.9,146.5,73,146.8z"/>
<path fill="#565656" d="M79.1,144.6c0.1-0.4,0.3-0.7,0.6-1c0.3-0.3,0.6-0.5,0.9-0.7s0.8-0.3,1.3-0.3s0.9,0.1,1.3,0.3
	s0.7,0.4,0.9,0.7c0.3,0.3,0.4,0.6,0.6,1c0.1,0.4,0.2,0.8,0.2,1.3s-0.1,0.9-0.2,1.3c-0.1,0.4-0.3,0.7-0.6,1c-0.3,0.3-0.6,0.5-0.9,0.7
	s-0.8,0.2-1.3,0.2s-0.9-0.1-1.3-0.2s-0.7-0.4-0.9-0.7c-0.3-0.3-0.4-0.6-0.6-1c-0.1-0.4-0.2-0.8-0.2-1.3S79,145,79.1,144.6z
	 M80.1,146.9c0.1,0.3,0.2,0.5,0.4,0.7c0.2,0.2,0.4,0.3,0.6,0.5c0.2,0.1,0.5,0.2,0.8,0.2s0.5-0.1,0.8-0.2c0.2-0.1,0.4-0.3,0.6-0.5
	s0.3-0.4,0.4-0.7s0.1-0.6,0.1-1s0-0.7-0.1-1s-0.2-0.5-0.4-0.7c-0.2-0.2-0.4-0.4-0.6-0.5s-0.5-0.2-0.8-0.2s-0.5,0.1-0.8,0.2
	c-0.2,0.1-0.4,0.3-0.6,0.5s-0.3,0.4-0.4,0.7s-0.1,0.6-0.1,1S80,146.6,80.1,146.9z"/>
<path fill="#565656" d="M91.9,149.8c-0.1,0.3-0.2,0.6-0.4,0.8c-0.1,0.2-0.2,0.4-0.4,0.5c-0.1,0.1-0.3,0.2-0.5,0.3s-0.4,0.1-0.6,0.1
	c-0.1,0-0.2,0-0.4,0s-0.2,0-0.3-0.1v-0.9c0.1,0,0.2,0.1,0.3,0.1c0.1,0,0.2,0,0.3,0c0.2,0,0.4,0,0.5-0.2c0.1-0.1,0.2-0.2,0.3-0.4
	l0.4-1l-2.5-6.2h1.2l1.8,5.1l0,0l1.7-5.1h1.1L91.9,149.8z"/>
<path fill="#565656" d="M95.3,144.6c0.1-0.4,0.3-0.7,0.6-1c0.3-0.3,0.6-0.5,0.9-0.7s0.8-0.3,1.3-0.3s0.9,0.1,1.3,0.3
	s0.7,0.4,0.9,0.7c0.3,0.3,0.4,0.6,0.6,1c0.1,0.4,0.2,0.8,0.2,1.3s-0.1,0.9-0.2,1.3c-0.1,0.4-0.3,0.7-0.6,1c-0.3,0.3-0.6,0.5-0.9,0.7
	s-0.8,0.2-1.3,0.2s-0.9-0.1-1.3-0.2s-0.7-0.4-0.9-0.7c-0.3-0.3-0.4-0.6-0.6-1c-0.1-0.4-0.2-0.8-0.2-1.3S95.2,145,95.3,144.6z
	 M96.3,146.9c0.1,0.3,0.2,0.5,0.4,0.7c0.2,0.2,0.4,0.3,0.6,0.5c0.2,0.1,0.5,0.2,0.8,0.2s0.5-0.1,0.8-0.2c0.2-0.1,0.4-0.3,0.6-0.5
	s0.3-0.4,0.4-0.7s0.1-0.6,0.1-1s0-0.7-0.1-1s-0.2-0.5-0.4-0.7c-0.2-0.2-0.4-0.4-0.6-0.5s-0.5-0.2-0.8-0.2s-0.5,0.1-0.8,0.2
	c-0.2,0.1-0.4,0.3-0.6,0.5s-0.3,0.4-0.4,0.7s-0.1,0.6-0.1,1S96.2,146.6,96.3,146.9z"/>
<path fill="#565656" d="M106.5,149v-1l0,0c-0.2,0.4-0.5,0.7-0.8,0.8c-0.3,0.2-0.7,0.3-1.2,0.3c-0.4,0-0.7-0.1-1-0.2
	c-0.3-0.1-0.5-0.3-0.7-0.5s-0.3-0.4-0.4-0.7s-0.1-0.6-0.1-0.9v-4.1h1v4.2c0,0.4,0.1,0.7,0.3,0.9c0.2,0.2,0.5,0.3,0.9,0.3
	c0.3,0,0.6,0,0.8-0.1c0.2-0.1,0.4-0.2,0.6-0.4s0.3-0.4,0.3-0.6c0.1-0.2,0.1-0.5,0.1-0.8v-3.5h1v6.2h-0.8V149z"/>
<path fill="#565656" d="M115,142.8v0.9h-1.2v3.9c0,0.1,0,0.2,0,0.3s0.1,0.1,0.1,0.2c0.1,0,0.1,0.1,0.2,0.1s0.2,0,0.4,0h0.5v0.9h-0.8
	c-0.3,0-0.5,0-0.7-0.1s-0.3-0.1-0.5-0.2c-0.1-0.1-0.2-0.2-0.3-0.4c-0.1-0.2-0.1-0.4-0.1-0.7v-3.9h-1.1v-0.9h1.1V141h1v1.9h1.4V142.8
	z"/>
<path fill="#565656" d="M117.1,140.4v3.3l0,0c0.1-0.2,0.2-0.4,0.3-0.5s0.3-0.2,0.5-0.3s0.4-0.1,0.6-0.2c0.2,0,0.4-0.1,0.6-0.1
	c0.4,0,0.7,0.1,1,0.2c0.3,0.1,0.5,0.3,0.7,0.5s0.3,0.4,0.4,0.7s0.1,0.6,0.1,0.9v4.1h-1v-4.2c0-0.4-0.1-0.7-0.3-0.9
	c-0.2-0.2-0.5-0.3-0.9-0.3c-0.3,0-0.6,0-0.8,0.1c-0.2,0.1-0.4,0.2-0.6,0.4s-0.3,0.4-0.3,0.6c-0.1,0.2-0.1,0.5-0.1,0.8v3.5h-1v-8.6
	H117.1z"/>
<path fill="#565656" d="M122.9,141.7v-1.2h1v1.2H122.9z M123.9,142.8v6.2h-1v-6.2H123.9z"/>
<path fill="#565656" d="M126.4,142.8v1l0,0c0.4-0.8,1.1-1.1,2-1.1c0.4,0,0.7,0.1,1,0.2c0.3,0.1,0.5,0.3,0.7,0.5s0.3,0.4,0.4,0.7
	c0.1,0.3,0.1,0.6,0.1,0.9v4.1h-1v-4.2c0-0.4-0.1-0.7-0.3-0.9s-0.5-0.3-0.9-0.3c-0.3,0-0.6,0-0.8,0.1c-0.2,0.1-0.4,0.2-0.6,0.4
	s-0.3,0.4-0.3,0.6c-0.1,0.2-0.1,0.5-0.1,0.8v3.5h-1v-6.2h0.8V142.8z"/>
<path fill="#565656" d="M133.2,140.4v5.1l2.8-2.7h1.4l-2.5,2.3l2.6,3.9h-1.3l-2.1-3.2l-1,0.9v2.4h-1v-8.6L133.2,140.4L133.2,140.4z"
	/>
<path fill="#565656" d="M141.6,144.6c0.1-0.4,0.3-0.7,0.6-1s0.6-0.5,0.9-0.7s0.8-0.3,1.3-0.3s0.9,0.1,1.3,0.3s0.7,0.4,0.9,0.7
	c0.3,0.3,0.4,0.6,0.6,1c0.1,0.4,0.2,0.8,0.2,1.3s-0.1,0.9-0.2,1.3c-0.1,0.4-0.3,0.7-0.6,1s-0.6,0.5-0.9,0.7s-0.8,0.2-1.3,0.2
	s-0.9-0.1-1.3-0.2s-0.7-0.4-0.9-0.7s-0.4-0.6-0.6-1c-0.1-0.4-0.2-0.8-0.2-1.3S141.4,145,141.6,144.6z M142.6,146.9
	c0.1,0.3,0.2,0.5,0.4,0.7s0.4,0.3,0.6,0.5c0.2,0.1,0.5,0.2,0.8,0.2s0.5-0.1,0.8-0.2c0.2-0.1,0.4-0.3,0.6-0.5
	c0.2-0.2,0.3-0.4,0.4-0.7c0.1-0.3,0.1-0.6,0.1-1s0-0.7-0.1-1s-0.2-0.5-0.4-0.7s-0.4-0.4-0.6-0.5c-0.2-0.1-0.5-0.2-0.8-0.2
	s-0.5,0.1-0.8,0.2c-0.2,0.1-0.4,0.3-0.6,0.5s-0.3,0.4-0.4,0.7s-0.1,0.6-0.1,1S142.5,146.6,142.6,146.9z"/>
<path fill="#565656" d="M148,143.7v-0.9h1v-0.9c0-0.5,0.1-0.9,0.4-1.1c0.3-0.3,0.7-0.4,1.3-0.4c0.1,0,0.2,0,0.3,0s0.2,0,0.3,0.1v0.9
	c-0.1,0-0.2-0.1-0.3-0.1s-0.2,0-0.3,0c-0.2,0-0.4,0-0.6,0.1c-0.1,0.1-0.2,0.3-0.2,0.6v0.9h1.2v0.9H150v5.3h-1v-5.3h-1V143.7z"/>
<path fill="#565656" d="M158.1,142.8v0.9h-1.2v3.9c0,0.1,0,0.2,0,0.3s0.1,0.1,0.1,0.2c0.1,0,0.1,0.1,0.2,0.1c0.1,0,0.2,0,0.4,0h0.5
	v0.9h-0.8c-0.3,0-0.5,0-0.7-0.1c-0.2,0-0.3-0.1-0.5-0.2s-0.2-0.2-0.3-0.4s-0.1-0.4-0.1-0.7v-3.9h-1.1v-0.9h1.1V141h1v1.9h1.4V142.8z
	"/>
<path fill="#565656" d="M160.3,140.4v3.3l0,0c0.1-0.2,0.2-0.4,0.3-0.5s0.3-0.2,0.5-0.3s0.4-0.1,0.6-0.2s0.4-0.1,0.6-0.1
	c0.4,0,0.7,0.1,1,0.2c0.3,0.1,0.5,0.3,0.7,0.5s0.3,0.4,0.4,0.7c0.1,0.3,0.1,0.6,0.1,0.9v4.1h-1v-4.2c0-0.4-0.1-0.7-0.3-0.9
	s-0.5-0.3-0.9-0.3c-0.3,0-0.6,0-0.8,0.1s-0.4,0.2-0.6,0.4c-0.2,0.2-0.3,0.4-0.3,0.6c-0.1,0.2-0.1,0.5-0.1,0.8v3.5h-1v-8.6H160.3z"/>
<path fill="#565656" d="M166,141.7v-1.2h1v1.2H166z M167,142.8v6.2h-1v-6.2H167z"/>
<path fill="#565656" d="M169.4,147.6c0.1,0.2,0.2,0.3,0.4,0.4c0.2,0.1,0.3,0.2,0.5,0.2s0.4,0.1,0.6,0.1c0.2,0,0.3,0,0.5,0
	s0.3-0.1,0.5-0.1c0.1-0.1,0.3-0.2,0.4-0.3c0.1-0.1,0.1-0.3,0.1-0.5c0-0.3-0.1-0.5-0.3-0.6s-0.4-0.2-0.8-0.3c-0.3-0.1-0.6-0.2-1-0.2
	c-0.4-0.1-0.7-0.2-1-0.3s-0.6-0.3-0.8-0.5s-0.3-0.5-0.3-0.9c0-0.3,0.1-0.6,0.2-0.8c0.1-0.2,0.3-0.4,0.5-0.5s0.5-0.2,0.7-0.3
	c0.3-0.1,0.5-0.1,0.8-0.1c0.4,0,0.7,0,1,0.1s0.6,0.2,0.8,0.3s0.4,0.3,0.5,0.6s0.2,0.6,0.2,0.9h-1c0-0.2-0.1-0.4-0.2-0.5
	c-0.1-0.1-0.2-0.2-0.3-0.3s-0.3-0.1-0.5-0.2c-0.2,0-0.3-0.1-0.5-0.1s-0.3,0-0.5,0s-0.3,0.1-0.4,0.1c-0.1,0.1-0.2,0.1-0.3,0.2
	s-0.1,0.2-0.1,0.4s0.1,0.3,0.2,0.4s0.3,0.2,0.5,0.3s0.4,0.1,0.6,0.2c0.2,0.1,0.5,0.1,0.7,0.2c0.3,0.1,0.5,0.1,0.8,0.2
	s0.5,0.2,0.6,0.3c0.2,0.1,0.3,0.3,0.5,0.5c0.1,0.2,0.2,0.4,0.2,0.7c0,0.4-0.1,0.7-0.2,0.9s-0.4,0.4-0.6,0.6
	c-0.3,0.2-0.5,0.3-0.9,0.3c-0.3,0.1-0.6,0.1-0.9,0.1c-0.3,0-0.7,0-1-0.1s-0.6-0.2-0.8-0.4s-0.4-0.4-0.6-0.6c-0.1-0.3-0.2-0.6-0.2-1
	h1C169.2,147.3,169.3,147.5,169.4,147.6z"/>
<path fill="#565656" d="M174.7,142c0.1-0.4,0.3-0.7,0.5-0.9c0.2-0.3,0.5-0.5,0.9-0.6c0.3-0.1,0.7-0.2,1.1-0.2c0.4,0,0.7,0.1,1,0.2
	c0.3,0.1,0.6,0.3,0.8,0.5s0.4,0.5,0.5,0.8s0.2,0.6,0.2,1c0,0.2,0,0.5-0.1,0.7s-0.1,0.4-0.2,0.5c-0.1,0.2-0.2,0.3-0.3,0.4
	c-0.1,0.1-0.2,0.3-0.4,0.4c-0.1,0.1-0.3,0.2-0.4,0.4c-0.1,0.1-0.2,0.3-0.3,0.4c-0.1,0.1-0.2,0.3-0.2,0.5c-0.1,0.2-0.1,0.4-0.1,0.6
	v0.5h-1v-0.6c0-0.3,0.1-0.6,0.2-0.9c0.1-0.2,0.2-0.4,0.4-0.6c0.2-0.2,0.3-0.4,0.5-0.5c0.2-0.2,0.3-0.3,0.5-0.5
	c0.1-0.2,0.3-0.4,0.4-0.6s0.1-0.5,0.1-0.8c0-0.4-0.2-0.8-0.4-1s-0.6-0.4-1-0.4c-0.3,0-0.5,0.1-0.7,0.2c-0.2,0.1-0.4,0.2-0.5,0.4
	s-0.2,0.4-0.3,0.6c-0.1,0.2-0.1,0.5-0.1,0.8h-1C174.5,142.7,174.5,142.3,174.7,142z M177.8,147.7v1.3h-1.3v-1.3H177.8z"/>
<path fill="#565656" d="M47.5,206l-2-7.2l0,0l-2,7.2h-1.2l-2.2-8.6h1.2l1.7,7.1l0,0l1.9-7.1h1.2l1.9,7.1l0,0l1.7-7.1H51l-2.3,8.6
	H47.5z"/>
<path fill="#565656" d="M52.9,197.4v3.3l0,0c0.1-0.2,0.2-0.4,0.3-0.5s0.3-0.2,0.5-0.3s0.4-0.1,0.6-0.2c0.2,0,0.4-0.1,0.6-0.1
	c0.4,0,0.7,0.1,1,0.2c0.3,0.1,0.5,0.3,0.7,0.5s0.3,0.4,0.4,0.7c0.1,0.3,0.1,0.6,0.1,0.9v4.1h-1v-4.2c0-0.4-0.1-0.7-0.3-0.9
	s-0.5-0.3-0.9-0.3c-0.3,0-0.6,0-0.8,0.1s-0.4,0.2-0.6,0.4c-0.2,0.2-0.3,0.4-0.3,0.6c-0.1,0.2-0.1,0.5-0.1,0.8v3.5h-1v-8.6H52.9z"/>
<path fill="#565656" d="M64,206c-0.2,0.1-0.4,0.2-0.7,0.2s-0.5-0.1-0.6-0.2c-0.2-0.1-0.2-0.4-0.2-0.7c-0.3,0.3-0.6,0.6-1,0.7
	c-0.4,0.1-0.8,0.2-1.2,0.2c-0.3,0-0.5,0-0.8-0.1s-0.5-0.2-0.7-0.3s-0.3-0.3-0.4-0.5c-0.1-0.2-0.2-0.5-0.2-0.8c0-0.4,0.1-0.6,0.2-0.9
	c0.1-0.2,0.3-0.4,0.5-0.5s0.4-0.2,0.7-0.3s0.5-0.1,0.8-0.2c0.3-0.1,0.5-0.1,0.8-0.1s0.5-0.1,0.7-0.1s0.3-0.1,0.5-0.2
	c0.1-0.1,0.2-0.2,0.2-0.4s0-0.4-0.1-0.5s-0.2-0.2-0.3-0.3s-0.3-0.1-0.4-0.1c-0.2,0-0.3,0-0.5,0c-0.4,0-0.8,0.1-1.1,0.2
	s-0.4,0.5-0.5,0.9h-1c0-0.4,0.1-0.7,0.2-1s0.3-0.5,0.6-0.6c0.2-0.2,0.5-0.3,0.8-0.4c0.3-0.1,0.6-0.1,1-0.1c0.3,0,0.6,0,0.8,0.1
	c0.3,0,0.5,0.1,0.8,0.2c0.2,0.1,0.4,0.3,0.5,0.5s0.2,0.5,0.2,0.9v3.2c0,0.2,0,0.4,0,0.5s0.1,0.2,0.3,0.2c0.1,0,0.2,0,0.3-0.1v0.6H64
	z M62.4,202.8c-0.1,0.1-0.3,0.2-0.5,0.2s-0.4,0.1-0.7,0.1c-0.2,0-0.5,0.1-0.7,0.1s-0.4,0.1-0.6,0.2c-0.2,0.1-0.3,0.2-0.5,0.3
	c-0.1,0.1-0.2,0.4-0.2,0.6c0,0.2,0,0.3,0.1,0.4s0.2,0.2,0.3,0.3s0.2,0.1,0.4,0.2c0.1,0,0.3,0,0.5,0c0.3,0,0.6,0,0.9-0.1
	c0.2-0.1,0.4-0.2,0.6-0.3c0.2-0.1,0.3-0.3,0.3-0.5s0.1-0.3,0.1-0.5C62.4,203.8,62.4,202.8,62.4,202.8z"/>
<path fill="#565656" d="M67.6,199.8v0.9h-1.2v3.9c0,0.1,0,0.2,0,0.3s0.1,0.1,0.1,0.2c0.1,0,0.1,0.1,0.2,0.1s0.2,0,0.4,0h0.5v0.9
	h-0.8c-0.3,0-0.5,0-0.7-0.1s-0.3-0.1-0.5-0.2c-0.1-0.1-0.2-0.2-0.3-0.4c-0.1-0.2-0.1-0.4-0.1-0.7v-3.9h-1.1v-0.9h1.1V198h1v1.9h1.4
	V199.8z"/>
<path fill="#565656" d="M77.2,206l-1.3-4.9l0,0l-1.2,4.9h-1.1l-2-6.2h1.1l1.4,5.1l0,0l1.2-5.1h1.1l1.3,5.1l0,0l1.4-5.1h1.1l-2,6.2
	H77.2z"/>
<path fill="#565656" d="M81.1,201.6c0.1-0.4,0.3-0.7,0.6-1c0.3-0.3,0.6-0.5,0.9-0.7s0.8-0.3,1.3-0.3s0.9,0.1,1.3,0.3
	s0.7,0.4,0.9,0.7c0.3,0.3,0.4,0.6,0.6,1c0.1,0.4,0.2,0.8,0.2,1.3s-0.1,0.9-0.2,1.3c-0.1,0.4-0.3,0.7-0.6,1c-0.3,0.3-0.6,0.5-0.9,0.7
	s-0.8,0.2-1.3,0.2s-0.9-0.1-1.3-0.2s-0.7-0.4-0.9-0.7c-0.3-0.3-0.4-0.6-0.6-1c-0.1-0.4-0.2-0.8-0.2-1.3S80.9,202,81.1,201.6z
	 M82.1,203.9c0.1,0.3,0.2,0.5,0.4,0.7c0.2,0.2,0.4,0.3,0.6,0.5c0.2,0.1,0.5,0.2,0.8,0.2s0.5-0.1,0.8-0.2c0.2-0.1,0.4-0.3,0.6-0.5
	s0.3-0.4,0.4-0.7s0.1-0.6,0.1-1s0-0.7-0.1-1s-0.2-0.5-0.4-0.7c-0.2-0.2-0.4-0.4-0.6-0.5s-0.5-0.2-0.8-0.2s-0.5,0.1-0.8,0.2
	c-0.2,0.1-0.4,0.3-0.6,0.5s-0.3,0.4-0.4,0.7s-0.1,0.6-0.1,1S82,203.6,82.1,203.9z"/>
<path fill="#565656" d="M92.3,206v-1l0,0c-0.2,0.4-0.5,0.7-0.8,0.8c-0.3,0.2-0.7,0.3-1.2,0.3c-0.4,0-0.7-0.1-1-0.2
	c-0.3-0.1-0.5-0.3-0.7-0.5s-0.3-0.4-0.4-0.7s-0.1-0.6-0.1-0.9v-4.1h1v4.2c0,0.4,0.1,0.7,0.3,0.9c0.2,0.2,0.5,0.3,0.9,0.3
	c0.3,0,0.6,0,0.8-0.1c0.2-0.1,0.4-0.2,0.6-0.4s0.3-0.4,0.3-0.6c0.1-0.2,0.1-0.5,0.1-0.8v-3.5h1v6.2h-0.8V206z"/>
<path fill="#565656" d="M95.8,197.4v8.6h-1v-8.6H95.8z"/>
<path fill="#565656" d="M102,206v-0.8l0,0c-0.2,0.3-0.4,0.6-0.8,0.7c-0.4,0.2-0.8,0.2-1.2,0.2c-0.5,0-0.9-0.1-1.3-0.3
	s-0.7-0.4-0.9-0.7s-0.4-0.6-0.5-1s-0.2-0.8-0.2-1.2s0.1-0.9,0.2-1.2c0.1-0.4,0.3-0.7,0.5-1s0.5-0.5,0.9-0.7s0.8-0.3,1.2-0.3
	c0.2,0,0.3,0,0.5,0s0.4,0.1,0.6,0.2s0.4,0.2,0.5,0.3s0.3,0.3,0.4,0.5l0,0v-3.2h1v8.6H102V206z M98.3,203.8c0.1,0.3,0.2,0.5,0.3,0.7
	c0.2,0.2,0.4,0.4,0.6,0.5s0.5,0.2,0.9,0.2c0.3,0,0.6-0.1,0.9-0.2c0.2-0.1,0.4-0.3,0.6-0.5s0.3-0.5,0.3-0.8c0.1-0.3,0.1-0.6,0.1-0.9
	c0-0.3,0-0.6-0.1-0.9c-0.1-0.3-0.2-0.5-0.3-0.8c-0.2-0.2-0.4-0.4-0.6-0.5s-0.5-0.2-0.9-0.2c-0.3,0-0.6,0.1-0.9,0.2
	c-0.2,0.1-0.4,0.3-0.6,0.5c-0.1,0.2-0.2,0.5-0.3,0.8c-0.1,0.3-0.1,0.6-0.1,0.9C98.2,203.2,98.2,203.5,98.3,203.8z"/>
<path fill="#565656" d="M110.3,206.8c-0.1,0.3-0.2,0.6-0.4,0.8c-0.1,0.2-0.2,0.4-0.4,0.5c-0.1,0.1-0.3,0.2-0.5,0.3s-0.4,0.1-0.6,0.1
	c-0.1,0-0.2,0-0.4,0s-0.2,0-0.3-0.1v-0.9c0.1,0,0.2,0.1,0.3,0.1c0.1,0,0.2,0,0.3,0c0.2,0,0.4,0,0.5-0.2c0.1-0.1,0.2-0.2,0.3-0.4
	l0.4-1l-2.5-6.2h1.2l1.8,5.1l0,0l1.7-5.1h1.1L110.3,206.8z"/>
<path fill="#565656" d="M113.7,201.6c0.1-0.4,0.3-0.7,0.6-1c0.3-0.3,0.6-0.5,0.9-0.7s0.8-0.3,1.3-0.3s0.9,0.1,1.3,0.3
	s0.7,0.4,0.9,0.7c0.3,0.3,0.4,0.6,0.6,1c0.1,0.4,0.2,0.8,0.2,1.3s-0.1,0.9-0.2,1.3c-0.1,0.4-0.3,0.7-0.6,1c-0.3,0.3-0.6,0.5-0.9,0.7
	s-0.8,0.2-1.3,0.2s-0.9-0.1-1.3-0.2s-0.7-0.4-0.9-0.7c-0.3-0.3-0.4-0.6-0.6-1c-0.1-0.4-0.2-0.8-0.2-1.3S113.6,202,113.7,201.6z
	 M114.8,203.9c0.1,0.3,0.2,0.5,0.4,0.7c0.2,0.2,0.4,0.3,0.6,0.5c0.2,0.1,0.5,0.2,0.8,0.2s0.5-0.1,0.8-0.2c0.2-0.1,0.4-0.3,0.6-0.5
	s0.3-0.4,0.4-0.7s0.1-0.6,0.1-1s0-0.7-0.1-1s-0.2-0.5-0.4-0.7c-0.2-0.2-0.4-0.4-0.6-0.5s-0.5-0.2-0.8-0.2s-0.5,0.1-0.8,0.2
	c-0.2,0.1-0.4,0.3-0.6,0.5s-0.3,0.4-0.4,0.7s-0.1,0.6-0.1,1S114.7,203.6,114.8,203.9z"/>
<path fill="#565656" d="M124.9,206v-1l0,0c-0.2,0.4-0.5,0.7-0.8,0.8c-0.3,0.2-0.7,0.3-1.2,0.3c-0.4,0-0.7-0.1-1-0.2
	c-0.3-0.1-0.5-0.3-0.7-0.5s-0.3-0.4-0.4-0.7s-0.1-0.6-0.1-0.9v-4.1h1v4.2c0,0.4,0.1,0.7,0.3,0.9c0.2,0.2,0.5,0.3,0.9,0.3
	c0.3,0,0.6,0,0.8-0.1c0.2-0.1,0.4-0.2,0.6-0.4s0.3-0.4,0.3-0.6c0.1-0.2,0.1-0.5,0.1-0.8v-3.5h1v6.2h-0.8V206z"/>
<path fill="#565656" d="M131.9,197.4v8.6h-1v-8.6H131.9z"/>
<path fill="#565656" d="M133.5,198.7v-1.2h1v1.2H133.5z M134.5,199.8v6.2h-1v-6.2H134.5z"/>
<path fill="#565656" d="M137.2,197.4v5.1l2.8-2.7h1.4l-2.5,2.3l2.6,3.9h-1.3l-2.1-3.2l-1,0.9v2.4h-1v-8.6L137.2,197.4L137.2,197.4z"
	/>
<path fill="#565656" d="M146.7,205.6c-0.5,0.4-1,0.5-1.8,0.5c-0.5,0-0.9-0.1-1.3-0.2c-0.4-0.2-0.7-0.4-0.9-0.7s-0.4-0.6-0.6-1
	c-0.1-0.4-0.2-0.8-0.2-1.3s0.1-0.9,0.2-1.3c0.1-0.4,0.3-0.7,0.6-1s0.6-0.5,0.9-0.7c0.4-0.2,0.7-0.2,1.2-0.2c0.6,0,1,0.1,1.4,0.3
	s0.7,0.5,0.9,0.9s0.4,0.7,0.5,1.2c0.1,0.4,0.1,0.8,0.1,1.2h-4.6c0,0.3,0,0.5,0.1,0.8c0.1,0.2,0.2,0.5,0.3,0.6
	c0.2,0.2,0.4,0.3,0.6,0.5s0.5,0.2,0.9,0.2s0.8-0.1,1.1-0.3s0.5-0.5,0.5-0.9h1C147.5,204.7,147.2,205.3,146.7,205.6z M146.5,201.6
	c-0.1-0.2-0.2-0.4-0.4-0.6c-0.2-0.2-0.3-0.3-0.6-0.4c-0.2-0.1-0.4-0.1-0.7-0.1s-0.5,0-0.7,0.1s-0.4,0.2-0.5,0.4
	c-0.2,0.2-0.3,0.3-0.4,0.6s-0.1,0.4-0.2,0.7h3.6C146.6,202.1,146.6,201.8,146.5,201.6z"/>
<path fill="#565656" d="M154.8,199.8v0.9h-1.2v3.9c0,0.1,0,0.2,0,0.3s0.1,0.1,0.1,0.2s0.1,0.1,0.2,0.1c0.1,0,0.2,0,0.4,0h0.5v0.9
	H154c-0.3,0-0.5,0-0.7-0.1c-0.2,0-0.3-0.1-0.5-0.2c-0.1-0.1-0.2-0.2-0.3-0.4s-0.1-0.4-0.1-0.7v-3.9h-1.1v-0.9h1.1V198h1v1.9h1.4
	V199.8z"/>
<path fill="#565656" d="M155.8,201.6c0.1-0.4,0.3-0.7,0.6-1s0.6-0.5,0.9-0.7s0.8-0.3,1.3-0.3s0.9,0.1,1.3,0.3s0.7,0.4,0.9,0.7
	s0.4,0.6,0.6,1c0.1,0.4,0.2,0.8,0.2,1.3s-0.1,0.9-0.2,1.3c-0.1,0.4-0.3,0.7-0.6,1s-0.6,0.5-0.9,0.7s-0.8,0.2-1.3,0.2
	s-0.9-0.1-1.3-0.2s-0.7-0.4-0.9-0.7c-0.3-0.3-0.4-0.6-0.6-1c-0.1-0.4-0.2-0.8-0.2-1.3S155.6,202,155.8,201.6z M156.8,203.9
	c0.1,0.3,0.2,0.5,0.4,0.7s0.4,0.3,0.6,0.5c0.2,0.1,0.5,0.2,0.8,0.2s0.5-0.1,0.8-0.2c0.2-0.1,0.4-0.3,0.6-0.5
	c0.2-0.2,0.3-0.4,0.4-0.7c0.1-0.3,0.2-0.6,0.2-1s0-0.7-0.2-1c-0.1-0.3-0.2-0.5-0.4-0.7s-0.4-0.4-0.6-0.5c-0.2-0.1-0.5-0.2-0.8-0.2
	s-0.5,0.1-0.8,0.2c-0.2,0.1-0.4,0.3-0.6,0.5c-0.2,0.2-0.3,0.4-0.4,0.7c-0.1,0.3-0.2,0.6-0.2,1S156.7,203.6,156.8,203.9z"/>
<path fill="#565656" d="M166.9,204.6c0.1,0.2,0.2,0.3,0.4,0.4s0.3,0.2,0.5,0.2s0.4,0.1,0.6,0.1c0.2,0,0.3,0,0.5,0s0.3-0.1,0.5-0.1
	c0.1-0.1,0.3-0.2,0.4-0.3c0.1-0.1,0.1-0.3,0.1-0.5c0-0.3-0.1-0.5-0.3-0.6s-0.5-0.2-0.8-0.3s-0.6-0.2-1-0.2c-0.4-0.1-0.7-0.2-1-0.3
	s-0.5-0.3-0.8-0.5c-0.2-0.2-0.3-0.5-0.3-0.9c0-0.3,0.1-0.6,0.2-0.8c0.1-0.2,0.3-0.4,0.5-0.5s0.5-0.2,0.7-0.3
	c0.3-0.1,0.5-0.1,0.8-0.1c0.4,0,0.7,0,1,0.1s0.6,0.2,0.8,0.3s0.4,0.3,0.5,0.6s0.2,0.6,0.2,0.9h-1c0-0.2-0.1-0.4-0.2-0.5
	c-0.1-0.1-0.2-0.2-0.3-0.3s-0.3-0.1-0.5-0.2c-0.2,0-0.3-0.1-0.5-0.1s-0.3,0-0.5,0s-0.3,0.1-0.4,0.1c-0.1,0.1-0.2,0.1-0.3,0.2
	c-0.1,0.1-0.1,0.2-0.1,0.4s0.1,0.3,0.2,0.4s0.3,0.2,0.5,0.3s0.4,0.1,0.6,0.2c0.2,0.1,0.5,0.1,0.7,0.2c0.3,0.1,0.5,0.1,0.8,0.2
	s0.5,0.2,0.6,0.3c0.2,0.1,0.3,0.3,0.5,0.5s0.2,0.4,0.2,0.7c0,0.4-0.1,0.7-0.2,0.9c-0.2,0.2-0.4,0.4-0.6,0.6
	c-0.3,0.2-0.5,0.3-0.9,0.3c-0.3,0.1-0.6,0.1-0.9,0.1c-0.3,0-0.7,0-1-0.1s-0.6-0.2-0.8-0.4s-0.4-0.4-0.6-0.6c-0.1-0.3-0.2-0.6-0.2-1
	h1C166.7,204.3,166.8,204.5,166.9,204.6z"/>
<path fill="#565656" d="M173.1,197.4v3.3l0,0c0.1-0.2,0.2-0.4,0.3-0.5s0.3-0.2,0.5-0.3s0.4-0.1,0.6-0.2c0.2,0,0.4-0.1,0.6-0.1
	c0.4,0,0.7,0.1,1,0.2c0.3,0.1,0.5,0.3,0.7,0.5s0.3,0.4,0.4,0.7s0.1,0.6,0.1,0.9v4.1h-1v-4.2c0-0.4-0.1-0.7-0.3-0.9s-0.5-0.3-0.9-0.3
	c-0.3,0-0.6,0-0.8,0.1s-0.4,0.2-0.6,0.4c-0.2,0.2-0.3,0.4-0.3,0.6c-0.1,0.2-0.1,0.5-0.1,0.8v3.5h-1v-8.6H173.1z"/>
<path fill="#565656" d="M184.3,206c-0.2,0.1-0.4,0.2-0.7,0.2s-0.5-0.1-0.6-0.2c-0.2-0.1-0.2-0.4-0.2-0.7c-0.3,0.3-0.6,0.6-1,0.7
	c-0.4,0.1-0.8,0.2-1.2,0.2c-0.3,0-0.5,0-0.8-0.1s-0.5-0.2-0.7-0.3s-0.3-0.3-0.4-0.5s-0.2-0.5-0.2-0.8c0-0.4,0.1-0.6,0.2-0.9
	c0.1-0.2,0.3-0.4,0.5-0.5s0.4-0.2,0.7-0.3s0.5-0.1,0.8-0.2c0.3-0.1,0.5-0.1,0.8-0.1s0.5-0.1,0.7-0.1c0.2-0.1,0.3-0.1,0.5-0.2
	c0.1-0.1,0.2-0.2,0.2-0.4s0-0.4-0.1-0.5s-0.2-0.2-0.3-0.3s-0.3-0.1-0.4-0.1c-0.2,0-0.3,0-0.5,0c-0.4,0-0.8,0.1-1.1,0.2
	s-0.4,0.5-0.5,0.9h-1c0-0.4,0.1-0.7,0.2-1c0.1-0.3,0.3-0.5,0.6-0.6c0.2-0.2,0.5-0.3,0.8-0.4c0.3-0.1,0.6-0.1,1-0.1
	c0.3,0,0.6,0,0.8,0.1s0.5,0.1,0.8,0.2c0.2,0.1,0.4,0.3,0.5,0.5s0.2,0.5,0.2,0.9v3.2c0,0.2,0,0.4,0,0.5s0.1,0.2,0.3,0.2
	c0.1,0,0.2,0,0.3-0.1v0.6H184.3z M182.6,202.8c-0.1,0.1-0.3,0.2-0.5,0.2s-0.4,0.1-0.7,0.1c-0.2,0-0.5,0.1-0.7,0.1s-0.4,0.1-0.6,0.2
	c-0.2,0.1-0.3,0.2-0.5,0.3c-0.1,0.1-0.2,0.4-0.2,0.6c0,0.2,0,0.3,0.1,0.4c0.1,0.1,0.2,0.2,0.3,0.3s0.2,0.1,0.4,0.2
	c0.1,0,0.3,0,0.5,0c0.3,0,0.6,0,0.9-0.1c0.2-0.1,0.4-0.2,0.6-0.3c0.2-0.1,0.3-0.3,0.3-0.5c0.1-0.2,0.1-0.3,0.1-0.5L182.6,202.8
	L182.6,202.8z"/>
<path fill="#565656" d="M186.2,199.8v1.3l0,0c0.2-0.5,0.6-0.9,0.9-1.1c0.4-0.2,0.8-0.4,1.4-0.3v1.1c-0.4,0-0.8,0.1-1,0.2
	c-0.3,0.1-0.5,0.3-0.7,0.5s-0.3,0.5-0.4,0.8c-0.1,0.3-0.1,0.7-0.1,1.1v2.8h-1V200h0.9V199.8z"/>
<path fill="#565656" d="M193.4,205.6c-0.5,0.4-1,0.5-1.8,0.5c-0.5,0-0.9-0.1-1.3-0.2c-0.4-0.2-0.7-0.4-0.9-0.7s-0.4-0.6-0.6-1
	c-0.1-0.4-0.2-0.8-0.2-1.3s0.1-0.9,0.2-1.3c0.1-0.4,0.3-0.7,0.6-1s0.6-0.5,0.9-0.7c0.4-0.2,0.7-0.2,1.2-0.2c0.6,0,1,0.1,1.4,0.3
	s0.7,0.5,0.9,0.9s0.4,0.7,0.5,1.2c0.1,0.4,0.1,0.8,0.1,1.2h-4.6c0,0.3,0,0.5,0.1,0.8c0.1,0.2,0.2,0.5,0.3,0.6
	c0.2,0.2,0.4,0.3,0.6,0.5s0.5,0.2,0.9,0.2s0.8-0.1,1.1-0.3s0.5-0.5,0.5-0.9h1C194.2,204.7,193.9,205.3,193.4,205.6z M193.2,201.6
	c-0.1-0.2-0.2-0.4-0.4-0.6c-0.2-0.2-0.3-0.3-0.6-0.4c-0.2-0.1-0.4-0.1-0.7-0.1s-0.5,0-0.7,0.1s-0.4,0.2-0.5,0.4
	c-0.2,0.2-0.3,0.3-0.4,0.6s-0.1,0.4-0.2,0.7h3.6C193.3,202.1,193.3,201.8,193.2,201.6z"/>
<path fill="#565656" d="M45.8,223l-1.3-4.9l0,0l-1.2,4.9h-1.1l-2-6.2h1.1l1.4,5.1l0,0l1.2-5.1H45l1.3,5.1l0,0l1.4-5.1h1.1l-2,6.2
	H45.8z"/>
<path fill="#565656" d="M49.9,215.7v-1.2h1v1.2H49.9z M50.9,216.8v6.2h-1v-6.2H50.9z"/>
<path fill="#565656" d="M55.2,216.8v0.9H54v3.9c0,0.1,0,0.2,0,0.3s0.1,0.1,0.1,0.2c0.1,0,0.1,0.1,0.2,0.1s0.2,0,0.4,0h0.5v0.9h-0.8
	c-0.3,0-0.5,0-0.7-0.1s-0.3-0.1-0.5-0.2c-0.1-0.1-0.2-0.2-0.3-0.4s-0.1-0.4-0.1-0.7v-3.9h-1.1v-0.9h1.1V215h1v1.9h1.4V216.8z"/>
<path fill="#565656" d="M57.3,214.4v3.3l0,0c0.1-0.2,0.2-0.4,0.3-0.5s0.3-0.2,0.5-0.3s0.4-0.1,0.6-0.2c0.2,0,0.4-0.1,0.6-0.1
	c0.4,0,0.7,0.1,1,0.2c0.3,0.1,0.5,0.3,0.7,0.5s0.3,0.4,0.4,0.7c0.1,0.3,0.1,0.6,0.1,0.9v4.1h-1v-4.2c0-0.4-0.1-0.7-0.3-0.9
	s-0.5-0.3-0.9-0.3c-0.3,0-0.6,0-0.8,0.1s-0.4,0.2-0.6,0.4c-0.2,0.2-0.3,0.4-0.3,0.6c-0.1,0.2-0.1,0.5-0.1,0.8v3.5h-1v-8.6H57.3z"/>
<path fill="#565656" d="M70.5,223v-1l0,0c-0.2,0.4-0.5,0.7-0.8,0.8c-0.3,0.2-0.7,0.3-1.2,0.3c-0.4,0-0.7-0.1-1-0.2
	c-0.3-0.1-0.5-0.3-0.7-0.5s-0.3-0.4-0.4-0.7s-0.1-0.6-0.1-0.9v-4.1h1v4.2c0,0.4,0.1,0.7,0.3,0.9c0.2,0.2,0.5,0.3,0.9,0.3
	c0.3,0,0.6,0,0.8-0.1c0.2-0.1,0.4-0.2,0.6-0.4s0.3-0.4,0.3-0.6c0.1-0.2,0.1-0.5,0.1-0.8v-3.5h1v6.2h-0.8V223z"/>
<path fill="#565656" d="M73.8,221.6c0.1,0.2,0.2,0.3,0.4,0.4c0.2,0.1,0.3,0.2,0.5,0.2s0.4,0.1,0.6,0.1s0.3,0,0.5,0s0.3-0.1,0.5-0.1
	c0.1-0.1,0.3-0.2,0.4-0.3s0.1-0.3,0.1-0.5c0-0.3-0.1-0.5-0.3-0.6c-0.2-0.1-0.4-0.2-0.8-0.3c-0.3-0.1-0.6-0.2-1-0.2
	c-0.4-0.1-0.7-0.2-1-0.3s-0.6-0.3-0.8-0.5c-0.2-0.2-0.3-0.5-0.3-0.9c0-0.3,0.1-0.6,0.2-0.8s0.3-0.4,0.5-0.5s0.5-0.2,0.7-0.3
	c0.3-0.1,0.5-0.1,0.8-0.1c0.4,0,0.7,0,1,0.1s0.6,0.2,0.8,0.3c0.2,0.1,0.4,0.3,0.5,0.6s0.2,0.6,0.2,0.9h-1c0-0.2-0.1-0.4-0.2-0.5
	s-0.2-0.2-0.3-0.3c-0.1-0.1-0.3-0.1-0.5-0.2c-0.2,0-0.3-0.1-0.5-0.1s-0.3,0-0.5,0s-0.3,0.1-0.4,0.1c-0.1,0.1-0.2,0.1-0.3,0.2
	c-0.1,0.1-0.1,0.2-0.1,0.4s0.1,0.3,0.2,0.4s0.3,0.2,0.5,0.3s0.4,0.1,0.6,0.2c0.2,0.1,0.5,0.1,0.7,0.2c0.3,0.1,0.5,0.1,0.8,0.2
	s0.5,0.2,0.6,0.3s0.3,0.3,0.5,0.5c0.1,0.2,0.2,0.4,0.2,0.7c0,0.4-0.1,0.7-0.2,0.9c-0.2,0.2-0.4,0.4-0.6,0.6
	c-0.3,0.2-0.5,0.3-0.9,0.3s-0.6,0.1-0.9,0.1s-0.7,0-1-0.1s-0.6-0.2-0.8-0.4c-0.2-0.2-0.4-0.4-0.6-0.6c-0.1-0.3-0.2-0.6-0.2-1h1
	C73.6,221.3,73.7,221.5,73.8,221.6z"/>
<path fill="#565656" d="M79.1,216c0.1-0.4,0.3-0.7,0.5-0.9c0.2-0.3,0.5-0.5,0.9-0.6c0.3-0.1,0.7-0.2,1.1-0.2s0.7,0.1,1,0.2
	c0.3,0.1,0.6,0.3,0.8,0.5c0.2,0.2,0.4,0.5,0.5,0.8s0.2,0.6,0.2,1c0,0.2,0,0.5-0.1,0.7s-0.1,0.4-0.2,0.5c-0.1,0.2-0.2,0.3-0.3,0.4
	c-0.1,0.1-0.2,0.3-0.4,0.4c-0.1,0.1-0.3,0.2-0.4,0.4c-0.1,0.1-0.2,0.3-0.3,0.4c-0.1,0.1-0.2,0.3-0.2,0.5s-0.1,0.4-0.1,0.6v0.5h-1
	v-0.6c0-0.3,0.1-0.6,0.2-0.9c0.1-0.2,0.2-0.4,0.4-0.6c0.2-0.2,0.3-0.4,0.5-0.5c0.2-0.2,0.3-0.3,0.5-0.5s0.3-0.4,0.4-0.6
	s0.1-0.5,0.1-0.8c0-0.4-0.2-0.8-0.4-1s-0.6-0.4-1-0.4c-0.3,0-0.5,0.1-0.7,0.2c-0.2,0.1-0.4,0.2-0.5,0.4s-0.2,0.4-0.3,0.6
	s-0.1,0.5-0.1,0.8h-1C78.9,216.7,78.9,216.3,79.1,216z M82.2,221.7v1.3h-1.3v-1.3H82.2z"/>
<path fill="#565656" d="M142.1,42.4V50h4.5v1h-5.7v-8.6H142.1z"/>
<path fill="#565656" d="M152.9,51c-0.2,0.1-0.4,0.2-0.7,0.2s-0.5-0.1-0.6-0.2c-0.2-0.1-0.2-0.4-0.2-0.7c-0.3,0.3-0.6,0.6-1,0.7
	c-0.4,0.1-0.8,0.2-1.2,0.2c-0.3,0-0.5,0-0.8-0.1s-0.5-0.2-0.7-0.3s-0.3-0.3-0.4-0.5c-0.1-0.2-0.2-0.5-0.2-0.8c0-0.4,0.1-0.6,0.2-0.9
	s0.3-0.4,0.5-0.5s0.4-0.2,0.7-0.3s0.5-0.1,0.8-0.2c0.3-0.1,0.5-0.1,0.8-0.1s0.5-0.1,0.7-0.1c0.2-0.1,0.3-0.1,0.5-0.2
	c0.1-0.1,0.2-0.2,0.2-0.4s0-0.4-0.1-0.5s-0.2-0.2-0.3-0.3s-0.3-0.1-0.4-0.1c-0.2,0-0.3,0-0.5,0c-0.4,0-0.8,0.1-1.1,0.2
	s-0.4,0.5-0.5,0.9h-1c0-0.4,0.1-0.7,0.2-1c0.1-0.3,0.3-0.5,0.6-0.6s0.5-0.3,0.8-0.4c0.3-0.1,0.6-0.1,1-0.1c0.3,0,0.6,0,0.8,0.1
	c0.3,0,0.5,0.1,0.8,0.2c0.2,0.1,0.4,0.3,0.5,0.5s0.2,0.5,0.2,0.9v3.2c0,0.2,0,0.4,0,0.5s0.1,0.2,0.3,0.2c0.1,0,0.2,0,0.3-0.1V51
	H152.9z M151.3,47.8c-0.1,0.1-0.3,0.2-0.5,0.2s-0.4,0.1-0.7,0.1c-0.2,0-0.5,0.1-0.7,0.1s-0.4,0.1-0.6,0.2c-0.2,0.1-0.3,0.2-0.5,0.3
	c-0.1,0.1-0.2,0.4-0.2,0.6c0,0.2,0,0.3,0.1,0.4c0.1,0.1,0.2,0.2,0.3,0.3s0.2,0.1,0.4,0.2c0.1,0,0.3,0,0.5,0c0.3,0,0.6,0,0.9-0.1
	c0.2-0.1,0.4-0.2,0.6-0.3s0.3-0.3,0.3-0.5c0.1-0.2,0.1-0.3,0.1-0.5L151.3,47.8L151.3,47.8z"/>
<path fill="#565656" d="M154.7,49.6c0.1,0.2,0.2,0.3,0.4,0.4s0.3,0.2,0.5,0.2s0.4,0.1,0.6,0.1c0.2,0,0.3,0,0.5,0s0.3-0.1,0.5-0.1
	c0.1-0.1,0.3-0.2,0.4-0.3c0.1-0.1,0.1-0.3,0.1-0.5c0-0.3-0.1-0.5-0.3-0.6s-0.5-0.2-0.8-0.3s-0.6-0.2-1-0.2c-0.4-0.1-0.7-0.2-1-0.3
	s-0.5-0.3-0.8-0.5c-0.2-0.2-0.3-0.5-0.3-0.9c0-0.3,0.1-0.6,0.2-0.8c0.1-0.2,0.3-0.4,0.5-0.5s0.5-0.2,0.7-0.3
	c0.3-0.1,0.5-0.1,0.8-0.1c0.4,0,0.7,0,1,0.1s0.6,0.2,0.8,0.3s0.4,0.3,0.5,0.6s0.2,0.6,0.2,0.9h-1c0-0.2-0.1-0.4-0.2-0.5
	c-0.1-0.1-0.2-0.2-0.3-0.3s-0.3-0.1-0.5-0.2c-0.2,0-0.3-0.1-0.5-0.1s-0.3,0-0.5,0s-0.3,0.1-0.4,0.1c-0.1,0.1-0.2,0.1-0.3,0.2
	c-0.1,0.1-0.1,0.2-0.1,0.4s0.1,0.3,0.2,0.4s0.3,0.2,0.5,0.3s0.4,0.1,0.6,0.2c0.2,0.1,0.5,0.1,0.7,0.2c0.3,0.1,0.5,0.1,0.8,0.2
	s0.5,0.2,0.6,0.3c0.2,0.1,0.3,0.3,0.5,0.5s0.2,0.4,0.2,0.7c0,0.4-0.1,0.7-0.2,0.9c-0.2,0.2-0.4,0.4-0.6,0.6
	c-0.3,0.2-0.5,0.3-0.9,0.3c-0.3,0.1-0.6,0.1-0.9,0.1c-0.3,0-0.7,0-1-0.1s-0.6-0.2-0.8-0.4s-0.4-0.4-0.6-0.6c-0.1-0.3-0.2-0.6-0.2-1
	h1C154.5,49.3,154.6,49.5,154.7,49.6z"/>
<path fill="#565656" d="M162.5,44.8v0.9h-1.2v3.9c0,0.1,0,0.2,0,0.3s0.1,0.1,0.1,0.2c0.1,0,0.1,0.1,0.2,0.1c0.1,0,0.2,0,0.4,0h0.5
	V51h-0.8c-0.3,0-0.5,0-0.7-0.1c-0.2,0-0.3-0.1-0.5-0.2s-0.2-0.2-0.3-0.4s-0.1-0.4-0.1-0.7v-3.9H159v-0.9h1.1v-1.9h1v1.9
	C161.1,44.8,162.5,44.8,162.5,44.8z"/>
<path fill="#565656" d="M168.4,42.4l4.5,6.9l0,0v-6.9h1.1V51h-1.2l-4.5-6.9l0,0V51h-1.1v-8.6H168.4z"/>
<path fill="#565656" d="M181.2,51c-0.2,0.1-0.4,0.2-0.7,0.2s-0.5-0.1-0.6-0.2c-0.2-0.1-0.2-0.4-0.2-0.7c-0.3,0.3-0.6,0.6-1,0.7
	c-0.4,0.1-0.8,0.2-1.2,0.2c-0.3,0-0.5,0-0.8-0.1s-0.5-0.2-0.7-0.3s-0.3-0.3-0.4-0.5c-0.1-0.2-0.2-0.5-0.2-0.8c0-0.4,0.1-0.6,0.2-0.9
	s0.3-0.4,0.5-0.5s0.4-0.2,0.7-0.3s0.5-0.1,0.8-0.2c0.3-0.1,0.5-0.1,0.8-0.1s0.5-0.1,0.7-0.1c0.2-0.1,0.3-0.1,0.5-0.2
	c0.1-0.1,0.2-0.2,0.2-0.4s0-0.4-0.1-0.5s-0.2-0.2-0.3-0.3s-0.3-0.1-0.4-0.1c-0.2,0-0.3,0-0.5,0c-0.4,0-0.8,0.1-1.1,0.2
	s-0.4,0.5-0.5,0.9h-1c0-0.4,0.1-0.7,0.2-1c0.1-0.3,0.3-0.5,0.6-0.6s0.5-0.3,0.8-0.4c0.3-0.1,0.6-0.1,1-0.1c0.3,0,0.6,0,0.8,0.1
	c0.3,0,0.5,0.1,0.8,0.2c0.2,0.1,0.4,0.3,0.5,0.5s0.2,0.5,0.2,0.9v3.2c0,0.2,0,0.4,0,0.5s0.1,0.2,0.3,0.2c0.1,0,0.2,0,0.3-0.1V51
	H181.2z M179.5,47.8c-0.1,0.1-0.3,0.2-0.5,0.2s-0.4,0.1-0.7,0.1c-0.2,0-0.5,0.1-0.7,0.1s-0.4,0.1-0.6,0.2c-0.2,0.1-0.3,0.2-0.5,0.3
	c-0.1,0.1-0.2,0.4-0.2,0.6c0,0.2,0,0.3,0.1,0.4c0.1,0.1,0.2,0.2,0.3,0.3s0.2,0.1,0.4,0.2c0.1,0,0.3,0,0.5,0c0.3,0,0.6,0,0.9-0.1
	c0.2-0.1,0.4-0.2,0.6-0.3s0.3-0.3,0.3-0.5c0.1-0.2,0.1-0.3,0.1-0.5L179.5,47.8L179.5,47.8z"/>
<path fill="#565656" d="M183.1,44.8v0.9l0,0c0.5-0.7,1.1-1.1,2-1.1c0.4,0,0.7,0.1,1,0.2c0.3,0.2,0.5,0.4,0.7,0.8
	c0.2-0.3,0.5-0.6,0.8-0.8s0.7-0.3,1.1-0.3c0.3,0,0.6,0,0.8,0.1c0.3,0.1,0.5,0.2,0.6,0.3c0.2,0.1,0.3,0.3,0.4,0.6
	c0.1,0.2,0.2,0.5,0.2,0.8V51h-1v-4.1c0-0.2,0-0.4,0-0.5c0-0.2-0.1-0.3-0.2-0.4s-0.2-0.2-0.4-0.3s-0.4-0.1-0.6-0.1
	c-0.5,0-0.9,0.1-1.2,0.4s-0.4,0.7-0.4,1.2V51h-1v-4.1c0-0.2,0-0.4-0.1-0.6s-0.1-0.3-0.2-0.4c-0.1-0.1-0.2-0.2-0.4-0.3
	c-0.1-0.1-0.3-0.1-0.6-0.1s-0.5,0.1-0.8,0.2c-0.2,0.1-0.4,0.3-0.5,0.4s-0.2,0.3-0.3,0.5s-0.1,0.3-0.1,0.5V51h-1v-6.2H183.1z"/>
<path fill="#565656" d="M196.7,50.6c-0.5,0.4-1,0.5-1.8,0.5c-0.5,0-0.9-0.1-1.3-0.2c-0.4-0.2-0.7-0.4-0.9-0.7s-0.4-0.6-0.6-1
	c-0.1-0.4-0.2-0.8-0.2-1.3s0.1-0.9,0.2-1.3c0.1-0.4,0.3-0.7,0.6-1s0.6-0.5,0.9-0.7c0.4-0.2,0.7-0.2,1.2-0.2c0.6,0,1,0.1,1.4,0.3
	s0.7,0.5,0.9,0.9s0.4,0.7,0.5,1.2c0.1,0.4,0.1,0.8,0.1,1.2h-4.6c0,0.3,0,0.5,0.1,0.8c0.1,0.2,0.2,0.5,0.3,0.6
	c0.2,0.2,0.4,0.3,0.6,0.5s0.5,0.2,0.9,0.2s0.8-0.1,1.1-0.3s0.5-0.5,0.5-0.9h1C197.5,49.7,197.2,50.3,196.7,50.6z M196.5,46.6
	c-0.1-0.2-0.2-0.4-0.4-0.6c-0.2-0.2-0.3-0.3-0.6-0.4c-0.2-0.1-0.4-0.1-0.7-0.1s-0.5,0-0.7,0.1s-0.4,0.2-0.5,0.4
	c-0.2,0.2-0.3,0.3-0.4,0.6s-0.1,0.4-0.2,0.7h3.6C196.6,47.1,196.6,46.8,196.5,46.6z"/>
<path id="Rectangle_925" fill="#69BB00" d="M85,238h95c2.8,0,5,2.2,5,5v17c0,2.8-2.2,5-5,5H85c-2.8,0-5-2.2-5-5v-17
	C80,240.2,82.2,238,85,238z"/>
<path fill="#FFFFFF" d="M115.4,253.6c0,0.3,0,0.5,0.1,0.7s0.2,0.4,0.4,0.5c0.2,0.1,0.4,0.2,0.6,0.3s0.5,0.1,0.7,0.1
	c0.3,0,0.5,0,0.7-0.1s0.4-0.1,0.5-0.2c0.1-0.1,0.2-0.2,0.3-0.3c0.1-0.1,0.1-0.3,0.1-0.4c0-0.3-0.1-0.5-0.2-0.6s-0.3-0.2-0.4-0.3
	c-0.3-0.1-0.5-0.2-0.9-0.3c-0.3-0.1-0.8-0.2-1.2-0.3c-0.3-0.1-0.6-0.2-0.8-0.3s-0.4-0.3-0.5-0.4c-0.1-0.2-0.2-0.3-0.3-0.5
	c0-0.2-0.1-0.4-0.1-0.5c0-0.4,0.1-0.7,0.2-0.9c0.2-0.3,0.3-0.5,0.6-0.7c0.2-0.2,0.5-0.3,0.8-0.4c0.3-0.1,0.6-0.1,1-0.1
	s0.7,0,1.1,0.1s0.6,0.2,0.9,0.4c0.2,0.2,0.4,0.4,0.6,0.7s0.2,0.6,0.2,1h-1.2c0-0.5-0.2-0.8-0.5-1s-0.6-0.3-1.1-0.3
	c-0.1,0-0.3,0-0.5,0s-0.3,0.1-0.4,0.2c-0.1,0.1-0.2,0.2-0.3,0.3c-0.1,0.1-0.1,0.3-0.1,0.4c0,0.3,0.1,0.5,0.2,0.6
	c0.2,0.1,0.4,0.3,0.6,0.3c0,0,0.1,0,0.3,0.1c0.2,0.1,0.4,0.1,0.6,0.2c0.2,0.1,0.4,0.1,0.7,0.2s0.4,0.1,0.5,0.1
	c0.2,0.1,0.4,0.2,0.6,0.3s0.3,0.3,0.4,0.4c0.1,0.2,0.2,0.3,0.3,0.5s0.1,0.4,0.1,0.6c0,0.4-0.1,0.7-0.2,1s-0.4,0.5-0.6,0.7
	c-0.3,0.2-0.6,0.3-0.9,0.4s-0.7,0.1-1,0.1c-0.4,0-0.8,0-1.2-0.2c-0.4-0.1-0.7-0.3-0.9-0.5c-0.3-0.2-0.5-0.5-0.6-0.8
	c-0.2-0.3-0.2-0.7-0.2-1.1L115.4,253.6L115.4,253.6z"/>
<path fill="#FFFFFF" d="M121,248.9h1.2v4.2c0,0.2,0,0.5,0,0.7s0.1,0.5,0.2,0.7s0.3,0.4,0.5,0.5s0.5,0.2,0.9,0.2s0.7-0.1,0.9-0.2
	c0.2-0.1,0.4-0.3,0.5-0.5s0.2-0.4,0.2-0.7c0-0.2,0-0.5,0-0.7v-4.2h1.2v4.6c0,0.5-0.1,0.9-0.2,1.2s-0.3,0.6-0.6,0.9
	c-0.3,0.2-0.6,0.4-0.9,0.5c-0.4,0.1-0.8,0.2-1.2,0.2c-0.4,0-0.8-0.1-1.2-0.2c-0.4-0.1-0.7-0.3-0.9-0.5c-0.3-0.2-0.5-0.5-0.6-0.9
	s-0.2-0.7-0.2-1.2v-4.6H121z"/>
<path fill="#FFFFFF" d="M128.3,248.9h3.5c0.6,0,1.2,0.1,1.5,0.4c0.4,0.3,0.6,0.7,0.6,1.3c0,0.4-0.1,0.7-0.3,0.9
	c-0.2,0.3-0.4,0.5-0.8,0.6l0,0c0.4,0.1,0.8,0.3,1,0.6s0.3,0.7,0.3,1.2c0,0.3,0,0.5-0.2,0.8c-0.1,0.2-0.3,0.5-0.5,0.6
	c-0.2,0.2-0.5,0.3-0.8,0.4c-0.3,0.1-0.7,0.2-1.2,0.2h-3.3v-7H128.3z M129.5,251.8h2c0.3,0,0.5-0.1,0.8-0.3s0.3-0.4,0.3-0.7
	c0-0.4-0.1-0.6-0.3-0.8c-0.2-0.1-0.4-0.2-0.8-0.2h-2V251.8z M129.5,255h2.2c0.4,0,0.7-0.1,0.9-0.3s0.3-0.5,0.3-0.8
	c0-0.4-0.1-0.6-0.3-0.8s-0.5-0.3-0.9-0.3h-2.2V255z"/>
<path fill="#FFFFFF" d="M135.3,248.9h1.8l2,5.6l0,0l1.9-5.6h1.7v7.1h-1.2v-5.5l0,0l-2,5.5h-1l-2-5.5l0,0v5.5h-1.2V248.9z"/>
<path fill="#FFFFFF" d="M144.2,248.9h1.2v7.1h-1.2V248.9z"/>
<path fill="#FFFFFF" d="M146.3,248.9h5.8v1.1h-2.3v6.1h-1.2V250h-2.3V248.9z"/>
<g>
	<g>
		<g>
			<path fill="#FFDE46" d="M67.5,171.4c-4.1,0-7.5-3.4-7.5-7.5s3.4-7.5,7.5-7.5c4.1,0,7.5,3.4,7.5,7.5S71.6,171.4,67.5,171.4z"/>
		</g>
	</g>
	<g>
		<path fill="#FFCD00" d="M67.5,156.4v15c4.1,0,7.5-3.4,7.5-7.5S71.6,156.4,67.5,156.4z"/>
	</g>
	<g>
		<path fill="#00347B" d="M70.1,167.2c-0.1,0-0.3-0.1-0.4-0.2c-0.5-0.8-1.3-1.3-2.3-1.3c-0.9,0-1.8,0.5-2.3,1.3
			c-0.1,0.2-0.4,0.3-0.6,0.2c-0.2-0.1-0.3-0.4-0.2-0.6c0.6-1.1,1.8-1.7,3-1.7c1.2,0,2.4,0.7,3,1.7c0.1,0.2,0.1,0.5-0.2,0.6
			C70.3,167.2,70.2,167.2,70.1,167.2L70.1,167.2z"/>
	</g>
	<g>
		<path fill="#00347B" d="M64.7,163.7c-0.8,0-1.6-0.5-1.8-1.3c-0.1-0.2,0-0.5,0.3-0.6c0.2-0.1,0.5,0,0.6,0.3c0.1,0.4,0.5,0.7,1,0.7
			c0.4,0,0.8-0.3,1-0.7c0.1-0.2,0.3-0.4,0.6-0.3c0.2,0.1,0.4,0.3,0.3,0.6C66.3,163.1,65.5,163.7,64.7,163.7L64.7,163.7z"/>
	</g>
	<g>
		<path fill="#001737" d="M70.3,163.7c-0.8,0-1.6-0.5-1.8-1.3c-0.1-0.2,0-0.5,0.3-0.6c0.2-0.1,0.5,0,0.6,0.3c0.1,0.4,0.5,0.7,1,0.7
			c0.4,0,0.8-0.3,1-0.7c0.1-0.2,0.3-0.4,0.6-0.3c0.2,0.1,0.4,0.3,0.3,0.6C71.8,163.1,71.1,163.7,70.3,163.7L70.3,163.7z"/>
	</g>
	<path fill="#001737" d="M70.5,166.5c-0.6-1.1-1.8-1.7-3-1.7v0.9c0.9,0,1.8,0.5,2.3,1.3c0.1,0.1,0.2,0.2,0.4,0.2
		c0.1,0,0.2,0,0.2-0.1C70.6,167,70.6,166.7,70.5,166.5z"/>
</g>
<g>
	<g>
		<path fill="#FFDE46" d="M46.4,171.4c-4.1,0-7.5-3.4-7.5-7.5s3.4-7.5,7.5-7.5s7.5,3.4,7.5,7.5S50.6,171.4,46.4,171.4z"/>
	</g>
	<path fill="#FFCD00" d="M46.4,156.4v15c4.1,0,7.5-3.4,7.5-7.5S50.6,156.4,46.4,156.4z"/>
	<path fill="#00347B" d="M44,168.1c-0.6-0.2-1-0.8-1-1.5c0-0.7,0.4-1.2,1-1.5c0.2-0.1,4.7-0.1,4.9,0c0.6,0.2,1,0.8,1,1.5
		c0,0.7-0.4,1.2-1,1.5C48.7,168.1,44.2,168.1,44,168.1z"/>
	<path fill="#001737" d="M48.9,165.1c-0.1,0-1.3-0.1-2.5-0.1v3c1.2,0,2.4,0,2.5-0.1c0.6-0.2,1-0.8,1-1.5S49.5,165.4,48.9,165.1
		L48.9,165.1z"/>
	<g>
		<path fill-rule="evenodd" clip-rule="evenodd" fill="#FFF4F4" d="M48.3,165l-3.8,0c-0.2,0-0.4,0-0.6,0.1v1c0,0.2,0.2,0.4,0.4,0.4
			h4c0.2,0,0.4-0.2,0.4-0.4v-1C48.7,165.1,48.5,165,48.3,165L48.3,165z"/>
		<path fill-rule="evenodd" clip-rule="evenodd" fill="#F6EFEA" d="M48.5,166.6h-4c-0.2,0-0.4,0.2-0.4,0.4v1
			c0.2,0.1,0.4,0.1,0.6,0.1l3.8,0c0.2,0,0.4,0,0.6-0.1v-1C48.9,166.8,48.7,166.6,48.5,166.6L48.5,166.6z"/>
		<ellipse fill-rule="evenodd" clip-rule="evenodd" fill="#00347B" cx="44" cy="161.9" rx="1.1" ry="1.1"/>
	</g>
	<path fill="#FFF4F4" d="M44,163.5c-0.8,0-1.5-0.7-1.5-1.5s0.7-1.5,1.5-1.5s1.5,0.7,1.5,1.5S44.8,163.5,44,163.5z M44,161.3
		c-0.3,0-0.6,0.3-0.6,0.6s0.3,0.6,0.6,0.6s0.6-0.3,0.6-0.6S44.3,161.3,44,161.3z"/>
	<circle fill-rule="evenodd" clip-rule="evenodd" fill="#001737" cx="48.9" cy="161.9" r="1.1"/>
	<path fill="#F6EFEA" d="M48.9,163.5c-0.8,0-1.5-0.7-1.5-1.5s0.7-1.5,1.5-1.5s1.5,0.7,1.5,1.5S49.8,163.5,48.9,163.5z M48.9,161.3
		c-0.3,0-0.6,0.3-0.6,0.6s0.3,0.6,0.6,0.6c0.3,0,0.6-0.3,0.6-0.6S49.3,161.3,48.9,161.3z"/>
	<path fill-rule="evenodd" clip-rule="evenodd" fill="#F6EFEA" d="M48.3,165l-1.9,0v1.6h2c0.2,0,0.4-0.2,0.4-0.4v-1
		C48.7,165.1,48.5,165,48.3,165L48.3,165z"/>
	<path fill-rule="evenodd" clip-rule="evenodd" fill="#EEE1DC" d="M48.5,166.6h-2v1.6l1.9,0c0.2,0,0.4,0,0.6-0.1v-1
		C48.9,166.8,48.7,166.6,48.5,166.6z"/>
</g>
<g>
	<g>
		<path fill="#FFDE46" d="M88.5,171.4c-4.1,0-7.5-3.4-7.5-7.5s3.4-7.5,7.5-7.5c4.1,0,7.5,3.4,7.5,7.5S92.7,171.4,88.5,171.4z"/>
	</g>
	<path fill="#FFCD00" d="M88.5,156.4v15c4.1,0,7.5-3.4,7.5-7.5S92.7,156.4,88.5,156.4z"/>
	<g>
		<path fill="#00347B" d="M91.2,167.2h-5.3c-0.2,0-0.4-0.2-0.4-0.4s0.2-0.4,0.4-0.4h5.3c0.2,0,0.4,0.2,0.4,0.4
			S91.4,167.2,91.2,167.2z"/>
	</g>
	<ellipse fill-rule="evenodd" clip-rule="evenodd" fill="#00347B" cx="86" cy="161.9" rx="1.1" ry="1.1"/>
	<path fill="#FFF4F4" d="M86,163.5c-0.8,0-1.5-0.7-1.5-1.5s0.7-1.5,1.5-1.5c0.8,0,1.5,0.7,1.5,1.5S86.9,163.5,86,163.5z M86,161.3
		c-0.3,0-0.6,0.3-0.6,0.6s0.3,0.6,0.6,0.6s0.6-0.3,0.6-0.6S86.4,161.3,86,161.3z"/>
	<circle fill-rule="evenodd" clip-rule="evenodd" fill="#001737" cx="91" cy="161.9" r="1.1"/>
	<path fill="#F6EFEA" d="M91,163.5c-0.8,0-1.5-0.7-1.5-1.5s0.7-1.5,1.5-1.5c0.8,0,1.5,0.7,1.5,1.5S91.8,163.5,91,163.5z M91,161.3
		c-0.3,0-0.6,0.3-0.6,0.6s0.3,0.6,0.6,0.6c0.3,0,0.6-0.3,0.6-0.6S91.3,161.3,91,161.3z"/>
	<g>
		<ellipse fill-rule="evenodd" clip-rule="evenodd" fill="#00347B" cx="86" cy="161.9" rx="1.1" ry="1.1"/>
		<path fill="#FFF4F4" d="M86,163.5c-0.8,0-1.5-0.7-1.5-1.5s0.7-1.5,1.5-1.5c0.8,0,1.5,0.7,1.5,1.5S86.9,163.5,86,163.5z M86,161.3
			c-0.3,0-0.6,0.3-0.6,0.6s0.3,0.6,0.6,0.6s0.6-0.3,0.6-0.6S86.4,161.3,86,161.3z"/>
		<circle fill-rule="evenodd" clip-rule="evenodd" fill="#001737" cx="91" cy="161.9" r="1.1"/>
		<path fill="#F6EFEA" d="M91,163.5c-0.8,0-1.5-0.7-1.5-1.5s0.7-1.5,1.5-1.5c0.8,0,1.5,0.7,1.5,1.5S91.8,163.5,91,163.5z M91,161.3
			c-0.3,0-0.6,0.3-0.6,0.6s0.3,0.6,0.6,0.6c0.3,0,0.6-0.3,0.6-0.6S91.3,161.3,91,161.3z"/>
	</g>
	<path fill="#001737" d="M91.2,166.3h-2.6v0.9h2.6c0.2,0,0.4-0.2,0.4-0.4S91.4,166.3,91.2,166.3z"/>
</g>
<g>
	<g>
		<path fill="#FFDE46" d="M109.6,171.4c-4.1,0-7.5-3.4-7.5-7.5s3.4-7.5,7.5-7.5c4.1,0,7.5,3.4,7.5,7.5S113.7,171.4,109.6,171.4z"/>
	</g>
	<path fill="#FFCD00" d="M109.6,156.4v15c4.1,0,7.5-3.4,7.5-7.5S113.7,156.4,109.6,156.4z"/>
	<g>
		<ellipse fill-rule="evenodd" clip-rule="evenodd" fill="#00429D" cx="107.1" cy="161.9" rx="1.1" ry="1.1"/>
		<path fill="#FFF4F4" d="M107.1,163.5c-0.8,0-1.5-0.7-1.5-1.5s0.7-1.5,1.5-1.5c0.8,0,1.5,0.7,1.5,1.5S107.9,163.5,107.1,163.5z
			 M107.1,161.3c-0.3,0-0.6,0.3-0.6,0.6s0.3,0.6,0.6,0.6s0.6-0.3,0.6-0.6S107.4,161.3,107.1,161.3z"/>
		<circle fill-rule="evenodd" clip-rule="evenodd" fill="#00347B" cx="112" cy="161.9" r="1.1"/>
		<path fill="#F6EFEA" d="M112,163.5c-0.8,0-1.5-0.7-1.5-1.5s0.7-1.5,1.5-1.5c0.8,0,1.5,0.7,1.5,1.5S112.9,163.5,112,163.5z
			 M112,161.3c-0.3,0-0.6,0.3-0.6,0.6s0.3,0.6,0.6,0.6c0.3,0,0.6-0.3,0.6-0.6S112.4,161.3,112,161.3z"/>
	</g>
	<g>
		<path fill="#00347B" d="M109.6,167.9c-0.8,0-1.6,1-2.3,0.5c-0.9-0.7-1.4-1.7-1.4-2.9v-0.1c0-0.1,0.1-0.2,0.2-0.2h7
			c0.1,0,0.2,0.1,0.2,0.2v0.1c0,1.2-0.6,2.3-1.4,2.9C111.2,168.9,110.4,167.9,109.6,167.9z"/>
	</g>
	<path fill="#001737" d="M113,165.2h-3.5v2.7c0.8,0,1.6,1,2.3,0.5c0.9-0.7,1.4-1.7,1.4-2.9v-0.1C113.3,165.3,113.2,165.2,113,165.2z
		"/>
	<path fill="#FF3F5C" d="M107.3,168.4c0.6,0.5,1.4,0.8,2.3,0.8s1.6-0.3,2.3-0.8c-0.2-0.8-1.1-1.5-2.3-1.5
		C108.4,166.9,107.5,167.6,107.3,168.4z"/>
	<path fill="#D20763" d="M109.6,169.2c0.8,0,1.6-0.3,2.3-0.8c-0.2-0.8-1.1-1.5-2.3-1.5V169.2z"/>
</g>
<g>
	<g>
		<path fill="#FFDE46" d="M130.6,171.4c-4.1,0-7.5-3.4-7.5-7.5s3.4-7.5,7.5-7.5c4.1,0,7.5,3.4,7.5,7.5S134.7,171.4,130.6,171.4z"/>
	</g>
	<path fill="#FFCD00" d="M130.6,156.4v15c4.1,0,7.5-3.4,7.5-7.5S134.7,156.4,130.6,156.4z"/>
	<g>
		<path fill="#FF3F5C" d="M128.3,163.7C128.3,163.7,128.3,163.7,128.3,163.7c-0.7-0.2-2.3-0.9-2.5-1.8c-0.1-0.3,0-0.6,0.1-0.9
			c0.2-0.3,0.4-0.5,0.7-0.5c0.3-0.1,0.7,0,1,0.2c0.1-0.3,0.4-0.5,0.7-0.6c0.3-0.1,0.6,0,0.9,0.1c0.3,0.2,0.5,0.4,0.5,0.7
			c0.2,0.9-1,2.5-1.2,2.8C128.4,163.7,128.4,163.7,128.3,163.7z M126.7,160.7L126.7,160.7L126.7,160.7z"/>
	</g>
	<g>
		<path fill="#D20763" d="M132.9,163.7c-0.1,0-0.1,0-0.2-0.1c-0.3-0.3-1.5-1.9-1.2-2.8c0.2-0.6,0.8-1,1.4-0.8
			c0.3,0.1,0.6,0.3,0.7,0.6c0.3-0.2,0.6-0.3,1-0.2c0.6,0.2,1,0.8,0.8,1.4C135.2,162.8,133.6,163.6,132.9,163.7
			C132.9,163.7,132.9,163.7,132.9,163.7z"/>
	</g>
	<g>
		<path fill="#00347B" d="M130.6,168.1c-0.8,0-1.6,1-2.3,0.5c-0.9-0.7-1.4-1.7-1.4-2.9v-0.1c0-0.1,0.1-0.2,0.2-0.2h7
			c0.1,0,0.2,0.1,0.2,0.2v0.1c0,1.2-0.6,2.3-1.4,2.9C132.2,169,131.4,168.1,130.6,168.1z"/>
	</g>
	<path fill="#001737" d="M134.1,165.3h-3.5v2.7c0.8,0,1.6,1,2.3,0.5c0.9-0.7,1.4-1.7,1.4-2.9v-0.1
		C134.3,165.4,134.2,165.3,134.1,165.3z"/>
	<path fill="#FF3F5C" d="M128.3,168.5c0.6,0.5,1.4,0.8,2.3,0.8s1.6-0.3,2.3-0.8c-0.2-0.8-1.1-1.5-2.3-1.5
		C129.5,167.1,128.5,167.7,128.3,168.5z"/>
	<path fill="#D20763" d="M130.6,169.3c0.8,0,1.6-0.3,2.3-0.8c-0.2-0.8-1.1-1.5-2.3-1.5V169.3z"/>
</g>
</svg>
