<?xml version="1.0" encoding="utf-8"?>
<!-- Generator: Adobe Illustrator 23.1.0, SVG Export Plug-In . SVG Version: 6.00 Build 0)  -->
<svg version="1.1" id="Layer_1" xmlns="http://www.w3.org/2000/svg" xmlns:xlink="http://www.w3.org/1999/xlink" x="0px" y="0px"
	 viewBox="0 0 265 300" enable-background="new 0 0 265 300" xml:space="preserve">
<g id="Group_71" transform="translate(-373 -3001)">
	<path id="Rectangle_1039" fill="#FFFFFF" d="M378,3001h255c2.8,0,5,2.2,5,5v290c0,2.8-2.2,5-5,5H378c-2.8,0-5-2.2-5-5v-290
		C373,3003.2,375.2,3001,378,3001z"/>
	<path id="Rectangle_1040" fill="#E5E9EA" d="M415.5,3060h80c1.4,0,2.5,1.1,2.5,2.5l0,0c0,1.4-1.1,2.5-2.5,2.5h-80
		c-1.4,0-2.5-1.1-2.5-2.5l0,0C413,3061.1,414.1,3060,415.5,3060z"/>
	<path id="Rectangle_1041" fill="#E5E9EA" d="M415.5,3104h80c1.4,0,2.5,1.1,2.5,2.5l0,0c0,1.4-1.1,2.5-2.5,2.5h-80
		c-1.4,0-2.5-1.1-2.5-2.5l0,0C413,3105.1,414.1,3104,415.5,3104z"/>
	<path id="Rectangle_1048" fill="#E5E9EA" d="M515.5,3104h80c1.4,0,2.5,1.1,2.5,2.5l0,0c0,1.4-1.1,2.5-2.5,2.5h-80
		c-1.4,0-2.5-1.1-2.5-2.5l0,0C513,3105.1,514.1,3104,515.5,3104z"/>
	<path id="Rectangle_1042" fill="#E5E9EA" d="M515.5,3060h80c1.4,0,2.5,1.1,2.5,2.5l0,0c0,1.4-1.1,2.5-2.5,2.5h-80
		c-1.4,0-2.5-1.1-2.5-2.5l0,0C513,3061.1,514.1,3060,515.5,3060z"/>
	<text transform="matrix(1 0 0 1 413 3052)" fill="#565656" font-family="'HelveticaNeue'" font-size="12px">First Name</text>
	<text transform="matrix(1 0 0 1 413 3096)" fill="#565656" font-family="'HelveticaNeue'" font-size="12px">Email</text>
	<text transform="matrix(1 0 0 1 513 3096)" fill="#565656" font-family="'HelveticaNeue'" font-size="12px">Phone</text>
	<text transform="matrix(1 0 0 1 413 3150)" fill="#565656" font-family="'HelveticaNeue'" font-size="12px">Transport Type</text>
	<text transform="matrix(1 0 0 1 513 3052)" fill="#565656" font-family="'HelveticaNeue'" font-size="12px">Last Name</text>
	<path id="Rectangle_1043" fill="#CDAF90" d="M458,3239h95c2.8,0,5,2.2,5,5v17c0,2.8-2.2,5-5,5h-95c-2.8,0-5-2.2-5-5v-17
		C453,3241.2,455.2,3239,458,3239z"/>
	<text transform="matrix(1 0 0 1 486.83 3257)" fill="#FFFFFF" font-family="'HelveticaNeue-Medium'" font-size="10px">SUBMIT</text>
	<path id="Rectangle_1044" fill="#E5E9EA" d="M415.5,3163h5c1.4,0,2.5,1.1,2.5,2.5l0,0c0,1.4-1.1,2.5-2.5,2.5h-5
		c-1.4,0-2.5-1.1-2.5-2.5l0,0C413,3164.1,414.1,3163,415.5,3163z"/>
	<path id="Rectangle_1045" fill="#E5E9EA" d="M415.5,3180h5c1.4,0,2.5,1.1,2.5,2.5l0,0c0,1.4-1.1,2.5-2.5,2.5h-5
		c-1.4,0-2.5-1.1-2.5-2.5l0,0C413,3181.1,414.1,3180,415.5,3180z"/>
	<path id="Rectangle_1046" fill="#E5E9EA" d="M437.5,3163h35c1.4,0,2.5,1.1,2.5,2.5l0,0c0,1.4-1.1,2.5-2.5,2.5h-35
		c-1.4,0-2.5-1.1-2.5-2.5l0,0C435,3164.1,436.1,3163,437.5,3163z"/>
	<path id="Rectangle_1047" fill="#E5E9EA" d="M437.5,3180h55c1.4,0,2.5,1.1,2.5,2.5l0,0c0,1.4-1.1,2.5-2.5,2.5h-55
		c-1.4,0-2.5-1.1-2.5-2.5l0,0C435,3181.1,436.1,3180,437.5,3180z"/>
</g>
</svg>
